<?xml version="1.0" encoding="iso-8859-1"?>
<!-- Generator: Adobe Illustrator 19.0.0, SVG Export Plug-In . SVG Version: 6.00 Build 0)  -->
<svg version="1.1" id="Capa_1" xmlns="http://www.w3.org/2000/svg" xmlns:xlink="http://www.w3.org/1999/xlink" x="0px" y="0px"
	 viewBox="0 0 480.116 480.116" style="enable-background:new 0 0 480.116 480.116;" xml:space="preserve">
<g>
	<g>
		<path d="M364.813,376.674c-4.543-7.163-11.744-12.23-20.021-14.086h0.016c-8.325-1.892-17.06-0.355-24.24,4.264l-27.72,18.248
			c-0.787-2.799-1.958-5.475-3.48-7.952c-9.461-14.922-29.227-19.352-44.152-9.896l-29.872,18.928l-35.128-18.6
			c-23.596-12.488-52.073-11.377-74.624,2.912l-47.584,30.152c-3.731,2.377-4.829,7.329-2.452,11.06
			c2.377,3.731,7.329,4.829,11.06,2.452l47.576-30.152c17.702-11.214,40.056-12.084,58.576-2.28l39.2,20.8
			c2.531,1.334,5.581,1.215,8-0.312l33.792-21.416c7.465-4.732,17.352-2.517,22.084,4.948s2.517,17.352-4.948,22.084l-27.016,17.088
			c-3.733,2.364-4.844,7.307-2.48,11.04c2.364,3.733,7.307,4.844,11.04,2.48l27.032-17.136c6.148-3.933,10.751-9.867,13.032-16.8
			l36.744-24.192c7.62-4.474,17.424-1.924,21.899,5.696c4.259,7.254,2.174,16.567-4.771,21.312l-56,35.472
			c-38.749,24.567-87.216,28.134-129.144,9.504l-34.4-15.28c-2.442-1.096-5.272-0.889-7.528,0.552l-27.032,17.128
			c-3.733,2.364-4.844,7.307-2.48,11.04s7.307,4.844,11.04,2.48l23.384-14.832l30.496,13.552
			c46.825,20.789,100.94,16.805,144.216-10.616l56-35.48C369.853,411.37,374.278,391.598,364.813,376.674z"/>
	</g>
</g>
<g>
	<g>
		<path d="M329.01,111.787c-2.383-6.184-9.328-9.265-15.512-6.882c-2.992,1.153-5.399,3.456-6.682,6.395
			c-1.287,2.901-1.359,6.197-0.2,9.152c2.397,6.17,9.338,9.234,15.512,6.848C328.312,124.917,331.393,117.971,329.01,111.787z"/>
	</g>
</g>
<g>
	<g>
		<path d="M213.776,104.124c-1.466,0.002-2.92,0.274-4.288,0.8c-6.179,2.396-9.246,9.347-6.85,15.527
			c1.151,2.968,3.434,5.357,6.346,6.641l0.032,0.008c1.512,0.668,3.147,1.017,4.8,1.024c6.627-0.011,11.991-5.393,11.98-12.02
			S220.403,104.113,213.776,104.124z"/>
	</g>
</g>
<g>
	<g>
		<path d="M373.648,61.604c-27.789-55.198-95.063-77.417-150.261-49.628c-55.198,27.789-77.417,95.063-49.628,150.261
			c3.333,6.621,7.316,12.894,11.89,18.727l-31.952,31.952c-31.845,31.845-31.845,83.475,0,115.32s83.475,31.845,115.32,0
			l132.92-132.92c15.34-15.262,23.939-36.025,23.88-57.664C425.71,103.989,405.015,73.821,373.648,61.604z M201.603,48.776
			c18.236-20.789,44.559-32.694,72.213-32.66c53.019,0.029,95.976,43.034,95.947,96.053c-0.019,34.323-18.361,66.024-48.107,83.147
			c0.056-1.064,0.16-2.12,0.16-3.2c-0.238-30.927-25.503-55.805-56.43-55.567c-27.508,0.212-50.789,20.372-54.93,47.567
			C170.638,149.187,166.675,88.594,201.603,48.776z M305.816,192.116c-0.026,22.08-17.92,39.974-40,40c-22.091,0-40-17.909-40-40
			s17.909-40,40-40C287.907,152.116,305.816,170.024,305.816,192.116z M211.352,336.116c-35.036-0.076-63.828-27.671-65.392-62.672
			c12.244,9,26.14,15.499,40.896,19.128c5.358,18.695,18.511,34.174,36.096,42.48C219.124,335.745,215.242,336.101,211.352,336.116z
			 M257.696,316.916c-3.612,3.583-7.625,6.737-11.96,9.4l-10.096-3.368c-13.537-4.497-24.617-14.382-30.624-27.32
			c3.328,0.28,6.664,0.488,10.04,0.488h17.016c12.603,0.003,25.124-2.029,37.08-6.016l23.024-7.68L257.696,316.916z
			 M397.836,175.443c-2.158,3.052-4.573,5.914-7.22,8.553l-73.12,73.128l-53.392,17.8c-10.318,3.441-21.123,5.194-32,5.192h-17.032
			c-24.799,0.038-48.736-9.101-67.2-25.656c2.875-11.44,8.8-21.886,17.144-30.224l31.424-31.424
			c4.617,4.452,9.606,8.501,14.912,12.104c7.036,30.072,37.118,48.746,67.189,41.71c16.794-3.929,30.835-15.388,38.051-31.054
			c0.096-0.04,0.2,0,0.304-0.064c51.491-21.23,79.382-77.233,65.304-131.12C411.662,105.214,418.662,145.981,397.836,175.443z"/>
	</g>
</g>
<g>
	<g>
		<path d="M297.816,32.116c-4.418,0-8,3.582-8,8v11.352c0.003,4.11-2.628,7.76-6.528,9.056c-10.437,3.474-17.477,13.24-17.472,24.24
			v1.752l-8.304-5.536c-7.939-5.289-10.087-16.012-4.798-23.951c0.633-0.95,1.358-1.835,2.166-2.642l8.592-8.6
			c3.178-3.07,3.266-8.134,0.196-11.312s-8.134-3.266-11.312-0.196c-0.067,0.064-0.132,0.13-0.196,0.196l-8.592,8.576
			c-12.99,12.997-12.983,34.064,0.014,47.054c1.546,1.545,3.24,2.934,5.058,4.146v0.024l12.736,8.496
			c1.316,0.874,2.86,1.341,4.44,1.344h8c4.418,0,8-3.582,8-8V84.764c-0.003-4.11,2.628-7.76,6.528-9.056
			c10.437-3.474,17.477-13.24,17.472-24.24V40.116C305.816,35.697,302.234,32.116,297.816,32.116z"/>
	</g>
</g>
<g>
	<g>
		<path d="M281.816,176.116c-4.418,0-8,3.582-8,8v9.368c0,4.418-3.582,8-8,8s-8-3.582-8-8v-9.368c0-4.418-3.582-8-8-8s-8,3.582-8,8
			v9.368c0,13.255,10.745,24,24,24c13.255,0,24-10.745,24-24v-9.368C289.816,179.697,286.234,176.116,281.816,176.116z"/>
	</g>
</g>
<g>
</g>
<g>
</g>
<g>
</g>
<g>
</g>
<g>
</g>
<g>
</g>
<g>
</g>
<g>
</g>
<g>
</g>
<g>
</g>
<g>
</g>
<g>
</g>
<g>
</g>
<g>
</g>
<g>
</g>
</svg>
