<?xml version="1.0" encoding="utf-8"?>
<!-- Generator: Adobe Illustrator 22.1.0, SVG Export Plug-In . SVG Version: 6.00 Build 0)  -->
<svg version="1.1" id="Layer_1" xmlns="http://www.w3.org/2000/svg" xmlns:xlink="http://www.w3.org/1999/xlink" x="0px" y="0px"
	 viewBox="0 0 1080 1080" style="enable-background:new 0 0 1080 1080;" xml:space="preserve">
<style type="text/css">
	.st0{fill:#FF8500;}
	.st1{fill:#013475;}
	.st2{fill:#373435;}
	.st3{font-family:'Roboto-Light';}
	.st4{font-size:56.096px;}
</style>
<title>LogoDesign__English__BaManRo</title>
<g id="_1080738688">
	<path class="st0" d="M369,677.5c40.4,51.3,94.8,105.4,163,162.1c10.6,8.8,26,8.8,36.6,0c56.5-46.9,103-92.7,140.9-135.8
		c11.7-13.3,22.6-26.4,32.8-39.1c9.9-12.5,19.1-24.6,27.5-36.4c17.3-24.1,31.9-44.6,44.6-64.8c13.4-21.1,24.9-43.3,34.5-66.4
		c6-14.6,11.6-30.4,17-48.4c0,0-99.1,19.7-99.1,19.8c-3.7,9-12.4,21.6-23.3,34.7c-9.9,11.9-20.7,23-32.1,33.4
		c-8.5,7.6-17.6,14.6-27.2,21c-39.5,26.7-86.2,40.8-133.8,40.4c-133.7-0.3-224.5-98.5-246.5-222.6c-7-39.6-6.5-80.8,6.6-115.6
		c37.5-99.3,107-155.7,213.3-167.5c26.2-3,52.6-2.2,78.5,2.4c34.3,6.1,89.8,26,116.9,53.9c0.8,0.9,76.4-23.5,76.4-23.5
		c-19.1-22-43.3-40.8-69.6-55.7c-21-11.8-43.2-21.3-66.3-28.1c-73.5-21.7-150.5-17.9-203.9-4.1c-52.6,13.6-96.2,39.3-130.9,72.3
		c-55.6,53-91.7,129.9-101,206c-9.2,75.1,14.2,150.7,51,220.6C301.7,587.1,335.5,635,369,677.5z"/>
	<path class="st1" d="M406.3,471.9c-16,1.5-23.2,14.6,0.6,14.6c49.3,0,177.1-9.9,269.6-23.2c27.8-4,63.7-8.9,90.2-18.5
		c28.2-10.2,26.9-50.3-11.2-44.2c-27.7,4.4-70,17.2-85.3,21.2C595.1,441.3,488.1,464.4,406.3,471.9z M857.2,163.2
		c-23.3,8.9-48.6,18.8-75.1,29c-48.5,18.7-97.3,37.3-146.5,54.5c-45.9,16.1-92.2,31.1-139,44c-49.2,13.6-96.7,24-139.5,28.9
		c-46.1,5.3-86.9,4.3-118.8-5.9c-52.3-16.6-62.3-48.2-59.4-82.5c3.3-39.1,33.2-73,84.4-122.7c-62.7,26.7-108,85.6-116.3,126.7
		c-8.8,44-2.4,88,38.1,120.5c22,17.7,54.7,25.9,94.3,27c36.8,1.1,79.7-3.8,125.7-12.8c57.9-11.2,120.9-28.7,183.3-48.5
		c59.5-18.8,118.3-39.7,171.7-59.1c43.5-15.8,83.4-30.2,116.9-42.1c13-4.6,25.1-8.8,36-12.5c15.6-5.4,23-15.2,24.6-25.4
		c1.7-11.4-4.1-23.4-14.2-29.9C904.1,140,876.9,155.7,857.2,163.2L857.2,163.2z M901.5,315.8l-28.6,9.3c-6.7,2.1-13.3,4.3-20,6.5
		c-14.3,4.6-28.7,9.3-43.2,13.9c-51,16.3-103.1,32.5-155.5,46.9c-55.2,15.2-110.8,28.4-165.8,38c-54.4,9.5-108.3,15.6-160.9,16.5
		c-56.3,0.9-102.2-6.7-121.5-29.6c-2.8-3.2-2.8-6.6,1.9-6.2c37.8,2.8,75.7,2.9,113.4,0.1c53.2-3.8,107.2-12.6,161.5-24.7
		c58.4-13,117.1-29.9,175.2-48.6c48.7-15.7,97-32.7,144.5-49.8l23.4-8.5l22.3-8.1l24-8.8c14-5.1,29.4-13.4,44-7.9
		c16.7,6.4,25.6,26.8,12.8,43.5C924,305.2,915,311.5,901.5,315.8L901.5,315.8z"/>
</g>
<g id="_1080744864">
	<path class="st2" d="M253.1,927.5c4.5,7.8,6.9,16.7,6.8,25.7v43.2H157.3V844.5h44.4c8.8,0,17.5,2.2,25.1,6.6
		c1.9,1.1,3.8,2.3,5.6,3.6c6.3,4.8,11.4,10.9,15,17.9c3.6,7,5.6,14.8,5.6,22.7c0,8.3-2.1,16.5-6.1,23.8
		C249.4,921.6,251.4,924.4,253.1,927.5L253.1,927.5z M239.2,953.1c0.1-6.5-1.9-12.9-5.7-18.2l-1-1.2l-2.1-2.3c-4-4.1-9.2-7-14.8-8.3
		c-2.3-0.5-4.6-0.8-6.9-0.7v-20.6c7.4,0,14.8,1.6,21.5,4.7c1.4-3.5,2.1-7.3,2.1-11.1c0-4-0.8-7.9-2.3-11.6c-1.5-3.6-3.8-6.9-6.6-9.6
		c-2.9-2.8-6.2-5.1-9.9-6.7c-3.7-1.6-7.8-2.3-11.8-2.3H178v110.5h61.2L239.2,953.1L239.2,953.1z M369.2,894v102.3H317
		c-8.9-0.2-17.5-2.7-25.1-7.3c-7.6-4.5-13.9-10.9-18.3-18.6c-9-15.8-9-35.2,0.1-51c4.5-7.8,10.9-14.2,18.6-18.7
		c7.8-4.5,16.6-6.8,25.6-6.8c5.6,0,11.1,0.9,16.4,2.6c5.1,1.7,10,4.2,14.3,7.4v-10H369.2z M348.7,945.2c0-16.9-13.7-30.7-30.7-30.7
		c-8.1,0-15.3,3-21.7,9c-2.9,2.8-5.1,6.2-6.6,10c-1.5,3.7-2.3,7.7-2.3,11.7c-0.2,16.7,13.2,30.4,29.9,30.5c0.2,0,0.4,0,0.6,0h30.7
		L348.7,945.2L348.7,945.2z M821.6,914.5h-25.8c-8.1,0-15.3,3-21.7,9c-2.9,2.8-5.1,6.2-6.6,10c-1.5,3.7-2.3,7.7-2.3,11.7v51.2h-20.6
		v-52.4c0.2-8.9,2.7-17.5,7.3-25.1c4.5-7.6,10.9-13.9,18.6-18.3c7.7-4.4,16.5-6.6,25.3-6.6h25.8L821.6,914.5L821.6,914.5z
		 M873.1,892.6c9-0.1,17.9,2.3,25.6,6.9c7.8,4.6,14.2,11.1,18.6,18.9c4.5,8.1,6.8,17.3,6.8,26.5v0.2c0.1,9.2-2.2,18.3-6.8,26.4
		c-4.4,7.9-10.8,14.5-18.6,19.1c-7.8,4.7-16.7,7.2-25.8,7.1c-18.4,0.1-35.4-9.9-44.2-26c-4.7-8.1-7.1-17.2-6.9-26.5V945
		c-0.1-9.3,2.2-18.4,6.8-26.5C837.7,902.5,854.7,892.5,873.1,892.6L873.1,892.6z M895,968.6c6.1-6.1,9.2-13.9,9.2-23.4
		c0-9.5-3.1-17.3-9.2-23.5c-12-12.2-31.7-12.3-43.8-0.2c-0.1,0.1-0.2,0.2-0.2,0.2c-6,6-9,13.8-9,23.4c0,9.6,3,17.4,9,23.4
		c2.9,2.9,6.3,5.2,10.1,6.7c7.7,3.1,16.3,3.1,23.9,0C888.7,973.7,892.1,971.5,895,968.6L895,968.6z"/>
	<path class="st0" d="M511.6,996.2H491v-51c0-4.1-0.8-8.1-2.3-11.8c-3.2-7.5-9.2-13.4-16.7-16.6c-3.7-1.6-7.7-2.4-11.7-2.3h-5v81.7
		h-20.6v-81.7h-34.5v81.9h-20.6V894h80.7c9-0.1,17.9,2.3,25.7,6.9c7.8,4.5,14.2,10.9,18.7,18.7c4.6,7.8,7,16.6,6.9,25.7V996.2
		L511.6,996.2z M621.8,894v102.3h-52.2c-8.8-0.2-17.5-2.7-25.1-7.3c-7.6-4.5-13.9-10.9-18.3-18.6c-9-15.8-9-35.2,0.1-51
		c4.5-7.8,10.9-14.2,18.7-18.7c7.8-4.5,16.7-6.8,25.7-6.7c5.6,0,11.1,0.9,16.4,2.6c5.1,1.7,10,4.2,14.3,7.4v-10H621.8z M601.3,945.2
		c0-4-0.8-8-2.3-11.7c-4.8-11.5-15.9-19-28.4-19c-8.1,0-15.3,3-21.7,9c-2.9,2.8-5.1,6.2-6.6,10c-1.5,3.7-2.3,7.7-2.3,11.7
		c-0.2,16.7,13.2,30.4,29.9,30.5c0.2,0,0.4,0,0.6,0h30.7L601.3,945.2L601.3,945.2z M734.3,996.3h-20.6v-51.2c0-4-0.8-8-2.3-11.7
		c-1.5-3.7-3.8-7.1-6.7-10c-2.8-2.8-6.2-5.1-9.9-6.7c-3.7-1.6-7.7-2.4-11.8-2.3h-30.2v81.9h-20.7V894H683c9.1-0.1,18,2.2,25.8,6.8
		c15.9,9.1,25.6,26.1,25.5,44.4L734.3,996.3L734.3,996.3z"/>
</g>
<text transform="matrix(1 0 0 1 156.1 1044.6733)" class="st3 st4">Travel Holding</text>
</svg>
