<?xml version="1.0" encoding="utf-8"?>
<!-- Generator: Adobe Illustrator 22.1.0, SVG Export Plug-In . SVG Version: 6.00 Build 0)  -->
<svg version="1.1" id="Layer_1" xmlns="http://www.w3.org/2000/svg" xmlns:xlink="http://www.w3.org/1999/xlink" x="0px" y="0px"
	 viewBox="0 0 1600 601.9" style="enable-background:new 0 0 1600 601.9;" xml:space="preserve">
<style type="text/css">
	.st0{fill:#F6F7FC;}
	.st1{fill:#E8E8EB;}
	.st2{fill:#EEEEF6;}
</style>
<g id="Layer_x0020_1">
	<rect class="st0" width="1600" height="663"/>
	<rect class="st1" width="1600" height="153.1"/>
	<path class="st2" d="M1317.2,663c15.2-152.6,132.6-275.2,282.8-298.3v114.8c-84.6,25.2-149.6,95.8-166.9,183.5H1317.2L1317.2,663z"
		/>
	<path class="st2" d="M3.1,214.1c-1,0-2.1,0-3.1,0v35c47.1,1.7,84.8,40.4,84.8,87.9S47.1,423.2,0,424.9v35c1,0,2.1,0,3.1,0
		c67.9,0,123-55.1,123-123S71,214.1,3.1,214.1L3.1,214.1z"/>
</g>
</svg>
