<?xml version="1.0" encoding="utf-8"?>
<!-- Generator: Adobe Illustrator 22.1.0, SVG Export Plug-In . SVG Version: 6.00 Build 0)  -->
<svg version="1.1" id="Layer_1" xmlns="http://www.w3.org/2000/svg" xmlns:xlink="http://www.w3.org/1999/xlink" x="0px" y="0px"
	 viewBox="0 0 1024 1024" style="enable-background:new 0 0 1024 1024;" xml:space="preserve">
<style type="text/css">
	.st0{fill:#EEEEF6;}
	.st1{opacity:0.9;}
	.st2{fill:url(#SVGID_1_);}
	.st3{fill:#FFFFFF;}
	.st4{fill:#E1E7E9;}
	.st5{fill:#DDE3E6;}
	.st6{fill:#FAFBFB;}
	.st7{fill:#F6F8F9;}
	.st8{fill:#D9E0E3;}
	.st9{fill:#CFD8DC;}
	.st10{fill:url(#SVGID_2_);}
	.st11{fill:url(#SVGID_3_);}
	.st12{fill:url(#SVGID_4_);}
	.st13{fill:url(#SVGID_5_);}
	.st14{fill:url(#SVGID_6_);}
	.st15{fill:url(#SVGID_7_);}
	.st16{fill:url(#SVGID_8_);}
	.st17{fill:url(#SVGID_9_);}
	.st18{fill:#424242;}
	.st19{fill:url(#SVGID_10_);}
	.st20{fill:url(#SVGID_11_);}
	.st21{fill:url(#SVGID_12_);}
	.st22{fill:url(#SVGID_13_);}
	.st23{fill:url(#SVGID_14_);}
	.st24{fill:url(#SVGID_15_);}
	.st25{fill:url(#SVGID_16_);}
	.st26{fill:#FFA726;}
	.st27{fill:url(#SVGID_17_);}
	.st28{fill:url(#SVGID_18_);}
	.st29{fill:url(#SVGID_19_);}
	.st30{fill:#01579B;}
	.st31{fill:url(#SVGID_20_);}
	.st32{fill:url(#SVGID_21_);}
	.st33{fill:url(#SVGID_22_);}
	.st34{fill:url(#SVGID_23_);}
	.st35{fill:url(#SVGID_24_);}
	.st36{fill:url(#SVGID_25_);}
	.st37{fill:url(#SVGID_26_);}
	.st38{fill:url(#SVGID_27_);}
	.st39{fill:url(#SVGID_28_);}
	.st40{fill:url(#SVGID_29_);}
	.st41{fill:url(#SVGID_30_);}
	.st42{fill:url(#SVGID_31_);}
	.st43{fill:url(#SVGID_32_);}
	.st44{fill:url(#SVGID_33_);}
	.st45{fill:url(#SVGID_34_);}
	.st46{fill:url(#SVGID_35_);}
	.st47{fill:url(#SVGID_36_);}
	.st48{fill:url(#SVGID_37_);}
	.st49{fill:url(#SVGID_38_);}
	.st50{fill:url(#SVGID_39_);}
	.st51{fill:url(#SVGID_40_);}
	.st52{fill:#B0BEC5;}
	.st53{fill:url(#SVGID_41_);}
	.st54{fill:#FFCDD2;}
	.st55{fill:url(#SVGID_42_);}
	.st56{fill:url(#SVGID_43_);}
	.st57{fill:url(#SVGID_44_);}
	.st58{fill:url(#SVGID_45_);}
	.st59{fill:url(#SVGID_46_);}
	.st60{fill:url(#SVGID_47_);}
	.st61{fill:url(#SVGID_48_);}
	.st62{fill:url(#SVGID_49_);}
	.st63{fill:url(#SVGID_50_);}
	.st64{clip-path:url(#SVGID_52_);fill:url(#SVGID_53_);}
	.st65{fill:url(#SVGID_54_);}
	.st66{fill:url(#SVGID_55_);}
	.st67{fill:url(#SVGID_56_);}
	.st68{fill:#E0E0E0;}
	.st69{fill:#E0F7FA;}
	.st70{fill:url(#SVGID_57_);}
	.st71{fill:#5D4037;}
	.st72{fill:url(#SVGID_58_);}
	.st73{fill:url(#SVGID_59_);}
	.st74{fill:url(#SVGID_60_);}
	.st75{fill:url(#SVGID_61_);}
	.st76{fill:url(#SVGID_62_);}
	.st77{fill:url(#SVGID_63_);}
	.st78{fill:#FFAB91;}
	.st79{fill:url(#SVGID_64_);}
	.st80{fill:url(#SVGID_65_);}
	.st81{fill:url(#SVGID_66_);}
	.st82{fill:url(#SVGID_67_);}
	.st83{fill:url(#SVGID_68_);}
	.st84{fill:url(#SVGID_69_);}
	.st85{fill:#B29C88;}
	.st86{fill:url(#SVGID_70_);}
	.st87{fill:#303F9F;}
	.st88{fill:#212121;}
	.st89{fill:url(#SVGID_71_);}
	.st90{fill:url(#SVGID_72_);}
	.st91{fill:url(#SVGID_73_);}
	.st92{fill:url(#SVGID_74_);}
	.st93{fill:url(#SVGID_75_);}
	.st94{fill:url(#SVGID_76_);}
	.st95{fill:url(#SVGID_77_);}
	.st96{fill:url(#SVGID_78_);}
	.st97{fill:url(#SVGID_79_);}
	.st98{fill:url(#SVGID_80_);}
	.st99{fill:url(#SVGID_81_);}
	.st100{fill:url(#SVGID_82_);}
	.st101{fill:url(#SVGID_83_);}
	.st102{fill:url(#SVGID_84_);}
	.st103{fill:url(#SVGID_85_);}
	.st104{fill:url(#SVGID_86_);}
	.st105{fill:url(#SVGID_87_);}
	.st106{fill:url(#SVGID_88_);}
	.st107{fill:url(#SVGID_89_);}
	.st108{fill:url(#SVGID_90_);}
	.st109{fill:url(#SVGID_91_);}
	.st110{fill:url(#SVGID_92_);}
	.st111{fill:url(#SVGID_93_);}
	.st112{fill:url(#SVGID_94_);}
	.st113{fill:url(#SVGID_95_);}
	.st114{fill:url(#SVGID_96_);}
	.st115{fill:#263238;}
	.st116{fill:#FFC400;}
	.st117{fill:url(#SVGID_97_);}
	.st118{fill:url(#SVGID_98_);}
	.st119{fill:url(#SVGID_99_);}
	.st120{fill:url(#SVGID_100_);}
	.st121{fill:url(#SVGID_101_);}
	.st122{fill:url(#SVGID_102_);}
</style>
<g id="Layer_x0020_1">
	<path class="st0" d="M0.3,182.2L0.3,182.2c17.3,0,31.2-2.4,49.2-2.6c70.1,0,104.8,2.4,171.5,19.2c52.1,13.2,97.2,31.6,142.6,54.3
		c28.6,14.4,60.5,33.4,86.9,50.9l23.2,16.2c4,3,7.5,5,11.6,8.1l77.3,60.5c2.2,1.7,2.9,2.9,5.1,4.7l26.2,23
		c7.8,6,12.7,13.5,20.2,19.2l66.1,71.7c28.2,34.5,49.1,65.6,70,107.2c6.7,13.3,18.1,42.1,21.8,56.9c5.3,21.3,10.6,42.1,10.6,68.2
		c0,73.3-25.8,132.4-83.5,178.6c-67.8,54.3-175.3,70.8-263.7,53.1c-17.4-3.5-44.1-10.6-59.8-16.5c-65.2-24.5-139.3-50.4-209.3-56.4
		l-34.9-3.2c-11.5-1.7-24.4-0.8-36.3-1.8c-46.3-3.7-41-4-82.2-12.5c-1.6-0.4-6.7-1.4-8.1-1.8c-3.1-1-4.5-0.4-4.5-4.1L0.3,182.2
		L0.3,182.2z"/>
</g>
<g class="st1">
	
		<radialGradient id="SVGID_1_" cx="2451.0125" cy="4889.6245" r="67.28" gradientTransform="matrix(-1.1283 0 0 -0.182 2921.4927 1762.6116)" gradientUnits="userSpaceOnUse">
		<stop  offset="0" style="stop-color:#CFD8DC"/>
		<stop  offset="1" style="stop-color:#CFD8DC;stop-opacity:0"/>
	</radialGradient>
	<ellipse class="st2" cx="156" cy="872.7" rx="75.8" ry="12.2"/>
	<g>
		<g>
			<rect x="535.1" y="241" class="st3" width="74.4" height="91.5"/>
			<rect x="487.1" y="331.2" class="st4" width="39.9" height="39.9"/>
			<rect x="498.7" y="289.2" class="st5" width="28.3" height="28.3"/>
			<rect x="505.6" y="393.4" class="st5" width="67.4" height="28.3"/>
			<rect x="617.4" y="249.8" class="st6" width="39.9" height="67.8"/>
			<rect x="531.5" y="342.2" class="st7" width="105.9" height="39.9"/>
		</g>
		<rect x="402.6" y="472.1" class="st5" width="362.2" height="5.6"/>
		<g>
			<g>
				<circle class="st8" cx="581.6" cy="131.2" r="40.2"/>
				
					<ellipse transform="matrix(7.088672e-02 -0.9975 0.9975 7.088672e-02 409.5363 702.061)" class="st6" cx="581.6" cy="131.2" rx="35.9" ry="35.9"/>
				<circle class="st9" cx="581.6" cy="131.2" r="1.6"/>
				<g>
					<g>
						<rect x="580.9" y="96.6" class="st9" width="1.4" height="6.6"/>
						<rect x="580.9" y="159.2" class="st9" width="1.4" height="6.6"/>
					</g>
					<g>
						<rect x="547" y="130.5" class="st9" width="6.6" height="1.4"/>
						<rect x="609.6" y="130.5" class="st9" width="6.6" height="1.4"/>
					</g>
				</g>
			</g>
			<polygon class="st9" points="580.8,130.2 581.6,107.4 582.4,130.2 			"/>
			<polygon class="st9" points="581.4,130.5 598,114.9 582.5,131.6 			"/>
		</g>
	</g>
	<g>
		
			<radialGradient id="SVGID_2_" cx="2982.3535" cy="5028.0859" r="67.2426" gradientTransform="matrix(-0.7498 0 0 -0.182 2255.9844 1762.6116)" gradientUnits="userSpaceOnUse">
			<stop  offset="0" style="stop-color:#CFD8DC"/>
			<stop  offset="1" style="stop-color:#CFD8DC;stop-opacity:0"/>
		</radialGradient>
		<ellipse class="st10" cx="19.8" cy="847.5" rx="50.4" ry="12.2"/>
		<g>
			<g>
				
					<linearGradient id="SVGID_3_" gradientUnits="userSpaceOnUse" x1="2420.3938" y1="1437.922" x2="2604.9312" y2="1437.922" gradientTransform="matrix(0.9592 -0.2829 -0.2829 -0.9592 -1858.5657 2515.4463)">
					<stop  offset="0" style="stop-color:#00695C"/>
					<stop  offset="1" style="stop-color:#81C784"/>
				</linearGradient>
				<path class="st11" d="M221.1,364.2c-13.8,8.5-27.3,17.1-40.1,27c-5.6,4.4-12.1,8.8-16.6,14.4c-5.1,6.4-9.7,11.6-15.9,17
					c-11.9,10.3-23.5,20.8-34,32.6c-5.4,6-10.6,12.3-15.5,18.7c-5.8,7.6-9.9,14.1-20.5,14.6C72,488.9,66,484,64.1,478
					c-3.4-11.2,3.8-19,10.2-27.3c5.2-6.8,10.7-13.4,16.5-19.7c11.2-12.3,23.4-24,36.6-34.1c7.4-5.6,14-9,22.9-11.7
					c7.5-2.3,14.7-7,21.9-10.1c15.1-6.5,30.8-11.9,46.9-15.2C221.8,359.3,223.6,362.8,221.1,364.2z"/>
				
					<linearGradient id="SVGID_4_" gradientUnits="userSpaceOnUse" x1="2391.4583" y1="1345.1764" x2="2525.6707" y2="1345.1764" gradientTransform="matrix(0.9592 -0.2829 -0.2829 -0.9592 -1858.5657 2515.4463)">
					<stop  offset="0" style="stop-color:#00695C"/>
					<stop  offset="1" style="stop-color:#81C784"/>
				</linearGradient>
				<path class="st12" d="M185.3,521.1c-8.2-5.8-24.6,1.4-32.7,5.2c-11,5.1-22.1,9.3-33.4,13.7c-9.4,3.7-18.9,8.5-26.5,15.1
					c-5.6,4.8-9.4,11.4-17.3,12.6c-6.5,1-13.7-1.5-16.8-7.6c-3.8-7.3-2.9-13.9,2-20.4c14.2-19,41-31.2,63.5-36.7
					c12.1-3,25.3-4.5,37.6-1.9c4.7,1,10,2.7,14,5.4c4.8,3.3,6.7,8.8,10.4,13.2C186.6,520.3,186,521.6,185.3,521.1z"/>
				
					<linearGradient id="SVGID_5_" gradientUnits="userSpaceOnUse" x1="2286.8213" y1="1386.479" x2="2377.697" y2="1386.479" gradientTransform="matrix(0.9592 -0.2829 -0.2829 -0.9592 -1858.5657 2515.4463)">
					<stop  offset="0" style="stop-color:#00695C"/>
					<stop  offset="1" style="stop-color:#81C784"/>
				</linearGradient>
				<path class="st13" d="M35.8,534.4c1.7,9-1.9,18.2-11.4,21c-8.4,2.5-18.9-2.5-21-11.4c-2.7-11.9-5.7-26.3-19.6-28.5
					c-6.9-1.1-15.2-0.9-21.9,1.2c-7.6,2.4-14.3,6.9-21.7,9.9c-0.9,0.4-1.5-0.7-1.2-1.4c9.1-19.8,28.3-41,51.9-39.2
					C16.5,488,31.4,511.2,35.8,534.4z"/>
				
					<linearGradient id="SVGID_6_" gradientUnits="userSpaceOnUse" x1="2352.9385" y1="1271.8284" x2="2459.1873" y2="1271.8284" gradientTransform="matrix(0.9592 -0.2829 -0.2829 -0.9592 -1858.5657 2515.4463)">
					<stop  offset="0" style="stop-color:#00695C"/>
					<stop  offset="1" style="stop-color:#81C784"/>
				</linearGradient>
				<path class="st14" d="M143.2,623.7c-11.2-8.3-28.9-7.6-41.8-4.3c-6.9,1.7-13.5,4.5-19.3,8.6c-5.7,4-8.8,9.8-13.6,14.6
					c-10.8,10.9-33.2,1.2-27.8-15.1c7.4-22.5,34.1-38.7,57.3-38.4c10.7,0.1,21.6,4.1,30.3,10.2c8.2,5.8,12.9,13.5,18.3,21.7
					C148.1,623.3,145.1,625.1,143.2,623.7z"/>
				
					<linearGradient id="SVGID_7_" gradientUnits="userSpaceOnUse" x1="2269.9509" y1="1305.7194" x2="2329.5051" y2="1305.7194" gradientTransform="matrix(0.9592 -0.2829 -0.2829 -0.9592 -1858.5657 2515.4463)">
					<stop  offset="0" style="stop-color:#00695C"/>
					<stop  offset="1" style="stop-color:#81C784"/>
				</linearGradient>
				<path class="st15" d="M11.6,633c0.4,21.6-34.3,21.9-33.3,0.6c0.5-10.5-1-22.5-8.4-30.7c-5.3-5.7-19.6-15-27.6-11.5
					c-1.5,0.7-2.9-1.7-1.7-2.8c5.8-5.5,9.7-10.9,18-13.2c9-2.4,17.8-0.6,25.7,3.9C3.8,590.4,11.4,611.7,11.6,633z"/>
				
					<linearGradient id="SVGID_8_" gradientUnits="userSpaceOnUse" x1="2328.0024" y1="1199.8693" x2="2413.6484" y2="1199.8693" gradientTransform="matrix(0.9592 -0.2829 -0.2829 -0.9592 -1858.5657 2515.4463)">
					<stop  offset="0" style="stop-color:#00695C"/>
					<stop  offset="1" style="stop-color:#81C784"/>
				</linearGradient>
				<path class="st16" d="M112.5,675.6c-8.5,0.8-18.5,11-23.6,17.2c-7.7,9.4-14.8,18.8-23.1,27.8c-14.8,16.2-40-7.6-24.7-23.2
					c11.4-11.7,22.6-23.3,37.6-30.2c13.3-6.1,24.3-4.9,35.2,4.6C115.4,673.2,114.2,675.4,112.5,675.6z"/>
				
					<linearGradient id="SVGID_9_" gradientUnits="userSpaceOnUse" x1="2222.5771" y1="1221.7015" x2="2290.3164" y2="1221.7015" gradientTransform="matrix(0.9592 -0.2829 -0.2829 -0.9592 -1858.5657 2515.4463)">
					<stop  offset="0" style="stop-color:#00695C"/>
					<stop  offset="1" style="stop-color:#81C784"/>
				</linearGradient>
				<path class="st17" d="M-21.5,736.1c-13.9-2.5-24.4-12.2-32.5-23.3c-4.9-6.6-12.2-27.1-23.9-24.5c-2.2,0.5-3.5-1.8-2.3-3.6
					c4.1-5.8,7.1-8.7,14.4-9.9c6.9-1.1,13.4-0.1,19.7,2.9c7.9,3.7,13.8,10.3,19.5,16.7c3.5,4,6.9,7.7,12.3,8.7
					C7.2,707-0.1,740.1-21.5,736.1z"/>
				<path class="st18" d="M145.7,516.6c-12.4,3.1-24.3,7.7-35.7,13.6c-19.9,10.3-37.2,24.1-51.8,41.1c-7.4,8.5-13.8,17.7-19.3,27.5
					c-4.2,7.6-7.4,15.6-10.6,23.6c-2.3,11.7-4.2,23.5-5.7,35.3c-1.2,10.2-2.2,20.3-2.9,30.5c3.9-2.7,7.6-5.3,10.7-9.3
					c3.8-4.8,6.6-10.4,9-16c4.6-10.9,7.5-22.5,13.2-33c10.2-18.8,30.8-29.9,52.2-26.6c0.3,0,0.2,0.4,0,0.4
					c-11.6-1.2-23.3,1.7-33.1,8.1c-10.6,6.9-16.8,17.4-21.2,28.9c-4,10.3-6.7,21.1-11.9,30.9c-4,7.6-10.6,17.2-19.2,20.3
					c-1.1,17.7-1.2,35.5-0.6,53.3c15.9-7,25.1-20.5,34.2-34.9c7.7-12.1,16.2-25.6,29.1-32.7c0.3-0.2,0.6,0.3,0.3,0.5
					c-14.1,10.3-21.5,25.1-30.6,39.5C44,730.1,33.7,744,18.9,748.4c0.8,19.5,2.6,39.1,5.3,58.5c0.1,0.9-1.4,1.1-1.6,0.2
					C19.4,788,15.9,750,15.4,750c-31.5,0.7-32.5-45-61-50c-0.3,0-0.2-0.4,0.1-0.4c12.8,1.7,21.2,11.6,28.1,21.6
					c7.9,11.4,17.1,25.9,32.8,25.6c0.4,0,0.5-15.5,0.5-23.5c0-8.1-0.9-23.3-1.5-24C1.3,683.7-2.1,662.4-6,643
					c-4.1-20.4-8.4-43.3-26.5-56.1c-0.2-0.1-0.1-0.3,0.1-0.2c18.1,7.1,24,32.1,27.8,48.9c4.7,21,7.7,42,20,60.1
					c0.3,0.1,0.6,0.3,0.8,0.8c0.1,0.4,0.3,0.7,0.4,1c0.1-1.7,4.3-48.1,7.9-68.2c-0.7-0.2,1-9.3,2.5-13.2c1.5-7.5,4.2-22.7,4.1-23.2
					c-4.2-20.1-9.2-39.4-16.4-58.6c-3.6-9.6-7.6-19.3-12.8-28.1c-2.6-4.4-6.2-9.1-11.3-10.7c-4.7-1.5-9.7-0.5-12.6,3.5
					c0,0.1-0.1,0-0.1-0.1c3.8-5.8,12-6,17.4-2.4c8.6,5.6,12.7,17.6,16.9,26.4c10,20.8,17.7,43.6,21,66.6c1.3-5,2.6-10.1,4.1-15.1
					c14-48.2,34.5-94.4,61.5-136.5c0.5-0.8,1.7-0.1,1.2,0.6c-14.6,23.9-27.5,48.8-38.4,74.5c-12.6,29.7-22.5,60.7-29.7,92.2
					c2.1-4.3,4.5-8.4,6.8-12.3c23.3-38.8,62.5-67.4,106.8-76.9C145.9,515.9,146.1,516.5,145.7,516.6z"/>
			</g>
			<g>
				
					<linearGradient id="SVGID_10_" gradientUnits="userSpaceOnUse" x1="1926.1268" y1="1144.0601" x2="2074.6306" y2="1144.0601" gradientTransform="matrix(0.9579 0.2872 0.2872 -0.9579 -1973.5802 1129.8116)">
					<stop  offset="0" style="stop-color:#00695C"/>
					<stop  offset="1" style="stop-color:#81C784"/>
				</linearGradient>
				<path class="st19" d="M349.5,600.8c-13-0.3-25.9-0.4-38.9,0.6c-5.7,0.5-12,0.6-17.5,2.4c-6.2,2.1-11.6,3.6-18.2,4.5
					c-12.6,1.7-25,3.7-37.3,7c-6.3,1.7-12.6,3.6-18.7,5.8c-7.3,2.5-12.9,5.1-20.3,0.8c-4.5-2.6-6.4-8.5-5-13.4
					c2.6-9,10.9-11.1,18.9-13.9c6.5-2.3,13.1-4.3,19.8-6c13-3.3,26.3-5.9,39.7-6.9c7.5-0.6,13.4,0,20.6,2.1
					c6.1,1.8,12.9,1.7,19.2,2.8c13,2.2,26,5.5,38.3,10.3C352.1,597.7,351.8,600.8,349.5,600.8z"/>
				
					<linearGradient id="SVGID_11_" gradientUnits="userSpaceOnUse" x1="1902.7561" y1="1069.6244" x2="2010.8323" y2="1069.6244" gradientTransform="matrix(0.9579 0.2872 0.2872 -0.9579 -1973.5802 1129.8116)">
					<stop  offset="0" style="stop-color:#00695C"/>
					<stop  offset="1" style="stop-color:#81C784"/>
				</linearGradient>
				<path class="st20" d="M256.5,690.5c-3-7.6-17.3-9.9-24.4-10.9c-9.7-1.4-19.1-3.4-28.6-5.4c-7.9-1.7-16.4-2.6-24.5-1.5
					c-5.9,0.8-11.3,3.6-17.2,0.9c-4.8-2.2-8.6-7-8-12.5c0.6-6.5,4.2-10.6,10.3-12.8c18-6.5,41.4-3,59,3.2c9.5,3.4,19,8.1,26.2,15.3
					c2.7,2.7,5.5,6.2,7,9.8c1.8,4.4,0.7,8.9,1.2,13.5C257.6,690.8,256.6,691.3,256.5,690.5z"/>
				
					<linearGradient id="SVGID_12_" gradientUnits="userSpaceOnUse" x1="1818.5417" y1="1102.7318" x2="1891.7028" y2="1102.7318" gradientTransform="matrix(0.9579 0.2872 0.2872 -0.9579 -1973.5802 1129.8116)">
					<stop  offset="0" style="stop-color:#00695C"/>
					<stop  offset="1" style="stop-color:#81C784"/>
				</linearGradient>
				<path class="st21" d="M149.7,634c-2.8,6.8-9.3,11.4-16.9,9.1c-6.7-2-11.6-10-9.1-16.9c3.3-9.3,7.7-20.3-0.7-27.9
					c-4.2-3.8-9.8-7.3-15.3-8.8c-6.2-1.8-12.7-1.6-19-2.9c-0.8-0.2-0.7-1.2-0.2-1.5c14.8-9.4,37.1-15.2,52.2-3.6
					C157.1,594.1,156.9,616.3,149.7,634z"/>
				
					<linearGradient id="SVGID_13_" gradientUnits="userSpaceOnUse" x1="1871.8323" y1="1010.3865" x2="1957.3076" y2="1010.3865" gradientTransform="matrix(0.9579 0.2872 0.2872 -0.9579 -1973.5802 1129.8116)">
					<stop  offset="0" style="stop-color:#00695C"/>
					<stop  offset="1" style="stop-color:#81C784"/>
				</linearGradient>
				<path class="st22" d="M182.9,741.4c-3.9-10.5-16.2-17.9-26.3-21.3c-5.4-1.9-11-2.9-16.8-2.7c-5.6,0.3-10.3,2.8-15.6,3.9
					c-12.1,2.6-22.9-13.8-12.1-22.4c14.9-11.9,40-11.1,55.5-0.7c7.1,4.8,12.7,12.2,15.9,20.2c3,7.5,2.7,14.8,2.8,22.7
					C186.3,743.3,183.4,743.2,182.9,741.4z"/>
				
					<linearGradient id="SVGID_14_" gradientUnits="userSpaceOnUse" x1="1804.912" y1="1037.5673" x2="1852.7982" y2="1037.5673" gradientTransform="matrix(0.9579 0.2872 0.2872 -0.9579 -1973.5802 1129.8116)">
					<stop  offset="0" style="stop-color:#00695C"/>
					<stop  offset="1" style="stop-color:#81C784"/>
				</linearGradient>
				<path class="st23" d="M90,690c-9.2,14.7-32.7-0.4-22.7-14.3c4.9-6.9,9.2-15.6,7.8-24.4c-1-6.2-6.6-18.7-13.5-19.9
					c-1.4-0.2-1.2-2.5,0.1-2.7c6.3-1.2,11.3-3.1,17.9-1c7.1,2.3,12.2,7.4,15.6,13.9C103.4,657.6,99.2,675.3,90,690z"/>
				
					<linearGradient id="SVGID_15_" gradientUnits="userSpaceOnUse" x1="1851.6685" y1="952.4316" x2="1920.6398" y2="952.4316" gradientTransform="matrix(0.9579 0.2872 0.2872 -0.9579 -1973.5802 1129.8116)">
					<stop  offset="0" style="stop-color:#00695C"/>
					<stop  offset="1" style="stop-color:#81C784"/>
				</linearGradient>
				<path class="st24" d="M139.3,762.8c-6.1-3.1-17.3-0.6-23.5,1.3c-9.3,2.9-18.3,6.2-27.8,8.6c-17.1,4.4-23.5-22.7-6.4-26.5
					c12.8-2.8,25.4-5.8,38.6-3.8c11.7,1.8,18.5,7.4,21.7,18.6C142.3,762.6,140.5,763.5,139.3,762.8z"/>
				
					<linearGradient id="SVGID_16_" gradientUnits="userSpaceOnUse" x1="1766.7559" y1="970.0505" x2="1821.2976" y2="970.0505" gradientTransform="matrix(0.9579 0.2872 0.2872 -0.9579 -1973.5802 1129.8116)">
					<stop  offset="0" style="stop-color:#00695C"/>
					<stop  offset="1" style="stop-color:#81C784"/>
				</linearGradient>
				<path class="st25" d="M22.3,744.7c-8.3-7.8-11.1-19-11.7-30c-0.3-6.6,3.7-23.6-5.3-27c-1.8-0.6-1.6-2.7,0-3.4
					c5.3-2.2,8.6-2.8,14.1-0.4c5.1,2.3,9,5.8,12,10.6c3.7,5.9,4.8,13,5.8,19.8c0.7,4.3,1.3,8.3,4.5,11.3
					C54.4,737.8,34.9,756.8,22.3,744.7z"/>
				<path class="st18" d="M232,670.3c-9.7-3.4-19.9-5.6-30.1-6.6c-17.9-1.8-35.7,0-53,5c-8.7,2.5-17.1,5.9-25.1,10.1
					c-6.3,3.3-11.9,7.3-17.6,11.3c-6.6,6.9-13.1,14-19.3,21.3c-5.3,6.3-10.5,12.7-15.4,19.3c3.8-0.1,7.4-0.3,11.3-1.6
					c4.7-1.6,9-4,13.1-6.8c7.9-5.4,15-12,23.4-16.5c15.2-8.2,33.9-6.6,46.9,5c0.2,0.2,0,0.4-0.2,0.3c-7.3-5.9-16.5-9.1-25.9-9.1
					c-10.2,0-18.9,4.4-27,10.2c-7.2,5.2-13.8,11.3-21.6,15.6c-6.1,3.3-14.7,6.9-21.9,5.2c-8.6,11.5-16.5,23.4-23.9,35.7
					c13.8,2.3,25.9-2.8,38.4-8.5c10.5-4.8,22.1-10.2,34-9.3c0.3,0,0.3,0.5,0,0.5c-14,0.8-25.5,7.5-38,13.2
					c-10.8,5-23.9,9.8-35.8,6.3c-8.1,13.5-15.5,27.5-22.2,41.8c-0.3,0.7-1.5,0.2-1.2-0.5c6.2-14.3,20.6-41.5,20.3-41.7
					C19.6,757.1,39,725.8,22,709.9c-0.2-0.1,0-0.3,0.2-0.2c8,6.7,9.2,17.1,9.5,26.9c0.3,11.2,0,25,10.8,31.7
					c0.3,0.2,7.2-10.2,10.7-15.6c3.5-5.4,9.6-16.1,9.5-16.8c-2-16.4,5.1-32.2,11-47c6.2-15.6,13.4-32.9,6.8-49.5
					c0-0.1,0.1-0.2,0.2-0.1c9,12.8,2,32.2-2.8,45.2c-6,16.2-13.2,31.7-12.9,49.3c0.2,0.2,0.3,0.5,0.2,0.9c-0.1,0.3-0.1,0.5-0.2,0.8
					c0.8-1.1,24-30.6,35.3-42.5c-0.4-0.4,4.8-5.9,7.5-7.8c4.3-4.3,12.8-13.4,13-13.8c6-15.3,11.1-30.6,14.7-46.7
					c1.7-8,3.3-16.3,3.7-24.6c0.2-4.2-0.1-8.9-2.9-12.2c-2.5-3-6.2-4.6-10-3.2c0,0-0.1-0.1,0-0.1c5.1-2.3,10.7,1.2,12.8,6
					c3.3,7.5,0.8,17.4-0.2,25.2c-2.4,18.5-7.2,37.2-15.1,54.2c3.1-2.8,6.2-5.6,9.4-8.4c30.5-26.4,64.7-48.5,101.6-65
					c0.6-0.2,1.1,0.7,0.5,1c-20.4,9.6-40,20.8-58.7,33.3c-21.6,14.5-41.9,31-60.6,49.1c3.3-1.9,6.7-3.7,10-5.3
					c32.7-16,71.8-18,105.8-4.9C232.1,669.9,232,670.4,232,670.3z"/>
			</g>
			<g>
				<path class="st26" d="M-4.8,809.8l1.6,7.2c0.3,1.2,1.3,2,2.5,2h41c1.2,0,2.2-0.9,2.5-2l1.6-7.2c0.3-1.6-0.9-3.1-2.5-3.1H-2.4
					C-4,806.7-5.2,808.2-4.8,809.8z"/>
				
					<linearGradient id="SVGID_17_" gradientUnits="userSpaceOnUse" x1="2711.9424" y1="1001.9495" x2="2711.9424" y2="1016.5957" gradientTransform="matrix(-1 0 0 -1 2731.7078 1834)">
					<stop  offset="1.140000e-02" style="stop-color:#FFA726"/>
					<stop  offset="1" style="stop-color:#F26522"/>
				</linearGradient>
				<path class="st27" d="M-0.2,820.1l3.6,24.7c0.3,1.7,1.7,2.9,3.4,2.9h25.9c1.7,0,3.2-1.2,3.4-2.9l3.6-24.7H-0.2z"/>
			</g>
		</g>
	</g>
	<g>
		
			<radialGradient id="SVGID_18_" cx="1887.1282" cy="5028.0859" r="67.2433" gradientTransform="matrix(-0.7498 0 0 -0.182 2255.9844 1762.6116)" gradientUnits="userSpaceOnUse">
			<stop  offset="0" style="stop-color:#CFD8DC"/>
			<stop  offset="1" style="stop-color:#CFD8DC;stop-opacity:0"/>
		</radialGradient>
		<ellipse class="st28" cx="841" cy="847.5" rx="50.4" ry="12.2"/>
		<g>
			<g>
				
					<linearGradient id="SVGID_19_" gradientUnits="userSpaceOnUse" x1="1967.0018" y1="1105.0278" x2="1930.5568" y2="921.9744" gradientTransform="matrix(-1.2349 -5.800000e-02 5.740000e-02 -1.2232 3168.0908 1973.8527)">
					<stop  offset="1.600000e-03" style="stop-color:#7E57C2"/>
					<stop  offset="1" style="stop-color:#1B0F40"/>
				</linearGradient>
				<path class="st29" d="M921.4,708.8c-14.9,18.9-35.6,36.7-59.2,43.8c-40.3,12.1-81.9-26.1-111.9-47.3
					c-14.9-10.6-30.7-20.6-41.2-35.8c-10-14.4-11.1-37,10-45.5c6.8-2.7,14.4-3,21.5-1.4c20.1,4.6,33.9,19.9,50.4,30.8
					c5.3,3.5,12.6,6.6,17.7,2.1c3.1-2.6,3.9-7,2.7-10.8c-2-6.7-8.1-10.6-13.8-14.1c-18.5-11.3-37.5-22.3-52.8-37.6
					s-26.8-35.6-26.5-57.1c0.1-9.8,3.9-21.2,17.2-20.4c4,0.3,7.9,1.8,11.2,4.1l35.9,24.7c4.2,2.8,9.7-0.9,8.6-5.8l-12-51.6
					c-2.2-9.4-4.4-19.1-1.5-28.7c1.2-4,3.5-7.7,6.7-10.4c12.6-10.5,30.2-0.7,40.5,10.9c18.7,21.2,28.7,49.9,27,78
					c-0.3,4.5-0.8,9.4,3.1,12.7c3.8,3.3,9.5,2.8,13.6-0.1c6.4-4.6,8.1-12.5,9.4-19.9c1.6-8.9,3.4-18.5,13.4-22.5
					c8.1-3.3,17.4-0.6,23.4,5.7c11.6,12.1,10.1,29.5,5.8,44.5c-6.8,23.8-19.8,45.8-37.4,63.4c-6.8,6.7-14.3,13-18,21.7
					c-4.4,10.3-0.7,25.5,12.8,25.8c3.6,0.1,7.2-1.1,10.3-3.1c8.1-5.3,11.9-14,16.5-21.9c6-10.3,16.7-20.9,28.7-16.1
					c3.7,1.5,6.7,4.4,8.7,7.9c4.6,8.2,3.7,17.6,1.8,26.3C940.2,678.4,932.2,694.6,921.4,708.8z"/>
				<g>
					<g>
						<path class="st30" d="M836.5,805.9c-0.7,0-1.1-0.5-1-1.2c7.4-95.7,2-191.8-16-285.6c-0.1-0.5,0.2-1.1,0.8-1.2
							c0.5-0.1,1.1,0.2,1.2,0.8c18,94,23.4,190.3,16,286.2C837.5,805.5,837,805.9,836.5,805.9C836.4,805.9,836.4,805.9,836.5,805.9z
							"/>
					</g>
					<g>
						<path class="st30" d="M788.5,590.8c-18.1-12.8-31.2-30.9-43.8-48.4c-0.4-0.5-0.3-1.2,0.2-1.5c0.5-0.4,1.2-0.3,1.5,0.2
							c12.5,17.3,25.5,35.3,43.3,47.9c19.5,13.8,42.8,18.2,60.9,11.3c14.6-5.6,24.6-17.3,30.4-26.2c7.7-11.7,12.8-25.2,17.4-37.1
							c0.3-0.5,0.9-0.8,1.4-0.6c0.5,0.3,0.8,0.9,0.6,1.4c-4.6,12-9.8,25.7-17.6,37.5c-6,9.2-16.3,21.3-31.4,27
							c-6,2.2-12.4,3.3-19.1,3.3C817.8,605.6,802.2,600.5,788.5,590.8z"/>
					</g>
					<g>
						<path class="st30" d="M792.4,703.7l-4.3-3.1c-19.2-13.9-37.3-27.1-56.3-46.6c-0.4-0.4-0.4-1.1,0-1.5s1.1-0.4,1.5,0
							c18.9,19.4,36.9,32.5,56,46.4l4.3,3.1c22.6,16.4,48.8,22,70.2,14.8c25.1-8.4,41.1-32.7,51-50.3c0.3-0.5,0.9-0.7,1.4-0.4
							s0.7,0.9,0.4,1.4c-10.1,17.8-26.4,42.6-52.2,51.2c-6.3,2.2-13.1,3.2-20.1,3.2C827.1,721.9,808.7,715.5,792.4,703.7z"/>
					</g>
				</g>
			</g>
			<g>
				
					<linearGradient id="SVGID_20_" gradientUnits="userSpaceOnUse" x1="1762.5454" y1="1139.4625" x2="1740.8088" y2="1030.2864" gradientTransform="matrix(-0.9811 0.1933 -0.1933 -0.9811 2727.0078 1453.1104)">
					<stop  offset="1.600000e-03" style="stop-color:#7E57C2"/>
					<stop  offset="1" style="stop-color:#1B0F40"/>
				</linearGradient>
				<path class="st31" d="M856.3,756.7c-4.8,10.7-12.4,21.5-22.6,27.6c-17.4,10.4-41.4-2.9-57.9-9.4c-8.3-3.3-16.8-6.2-23.5-12.2
					c-6.4-5.7-9.5-16.2-0.6-22.7c2.9-2,6.4-3,9.9-3.1c10-0.1,18.2,5.6,27.2,8.8c2.9,1.1,6.6,1.7,8.5-1c1.1-1.6,1-3.7,0-5.4
					c-1.7-3-5-4.1-8.1-5.1c-10-3.2-20.2-6.2-29.1-11.7c-8.9-5.4-16.7-13.7-19-23.9c-1.1-4.6-0.6-10.5,5.7-11.6
					c1.9-0.4,3.9-0.1,5.7,0.6l19.7,7.5c2.3,0.9,4.5-1.5,3.4-3.7l-11.6-23c-2.1-4.2-4.3-8.5-4-13.4c0.1-2,0.7-4.1,1.9-5.7
					c4.7-6.4,14-3.8,20.2,0.5c11.2,7.9,19.2,20.3,21.7,33.8c0.4,2.2,0.8,4.6,3,5.7c2.2,1.1,4.8,0.3,6.4-1.6
					c2.5-2.9,2.3-6.9,2.1-10.5c-0.3-4.4-0.5-9.2,3.7-12.2c3.4-2.5,8.1-2.3,11.6,0c6.9,4.4,8.2,12.8,7.9,20.4
					c-0.4,12-3.9,24-10.1,34.3c-2.4,4-5.2,7.9-5.9,12.4c-0.9,5.4,2.6,12.1,9,10.7c1.8-0.4,3.3-1.4,4.5-2.7c3.2-3.4,3.9-7.9,5.2-12.2
					c1.7-5.5,5.4-11.8,11.6-10.9c1.9,0.3,3.7,1.3,5,2.7c3.1,3.3,3.8,7.8,3.9,12.2C861.9,740.5,860,749.1,856.3,756.7z"/>
				<g>
					<g>
						<path class="st30" d="M827.1,812.6c-7.7-46.1-21.4-90.9-40.7-133.1c-0.3-0.5,0-1.2,0.5-1.4c0.5-0.3,1.2,0,1.4,0.5
							c19.4,42.4,33.1,87.3,40.8,133.6c0.1,0.6-0.3,1.1-0.9,1.2c-0.1,0-0.1,0-0.2,0C827.5,813.4,827.1,813,827.1,812.6z"/>
					</g>
					<g>
						<path class="st30" d="M780.5,716.9c-10.1-4-18.3-11.1-26.3-17.9c-0.4-0.4-0.5-1.1-0.1-1.5s1.1-0.5,1.5-0.1
							c7.8,6.8,16,13.7,25.7,17.6c10.5,4.3,21.8,3.6,29.3-1.6c6.1-4.2,9.3-10.8,11-15.6c2.2-6.3,3.1-13.3,3.8-19.4
							c0.1-0.6,0.6-1,1.2-0.9c0.6,0.1,1,0.6,0.9,1.2c-0.8,6.3-1.6,13.3-3.9,19.9c-1.8,5-5.3,12.1-11.8,16.6
							c-4.6,3.2-10.4,4.8-16.6,4.8C790.4,720,785.3,719,780.5,716.9z"/>
					</g>
					<g>
						<path class="st30" d="M795.4,770l-2.4-1c-10.7-4.4-20.7-8.5-31.9-15.6c-0.5-0.3-0.6-0.9-0.3-1.4s0.9-0.6,1.4-0.3
							c11,6.9,21,11,31.5,15.4l2.4,1c12.3,5.1,25.1,4.7,34.1-1.1c10.6-6.8,15.2-20,17.8-29.4c0.2-0.5,0.7-0.8,1.3-0.7
							c0.5,0.2,0.9,0.7,0.7,1.3c-2.6,9.7-7.5,23.4-18.7,30.6c-5.1,3.2-11.4,4.9-18.1,4.9C807.4,773.7,801.3,772.5,795.4,770z"/>
					</g>
				</g>
			</g>
			<g>
				
					<linearGradient id="SVGID_21_" gradientUnits="userSpaceOnUse" x1="1627.0569" y1="1055.3518" x2="1611.8627" y2="979.0349" gradientTransform="matrix(0.916 0.4013 0.4013 -0.916 -1011.2339 1042.1012)">
					<stop  offset="1.600000e-03" style="stop-color:#7E57C2"/>
					<stop  offset="1" style="stop-color:#1B0F40"/>
				</linearGradient>
				<path class="st32" d="M836.8,771.5c1.7,8,5.2,16.5,11.3,22.2c10.3,9.7,28.6,4.3,40.9,2.3c6.1-0.9,12.3-1.6,17.8-4.7
					c5.2-2.9,8.9-9.6,3.8-15.4c-1.7-1.8-3.9-3-6.3-3.6c-6.8-1.6-13.3,1.1-19.9,1.9c-2.2,0.3-4.8,0.1-5.7-2c-0.5-1.3-0.1-2.7,0.8-3.7
					c1.6-1.7,4-2,6.3-2.2c7.3-0.7,14.7-1.2,21.6-3.6s13.5-6.9,16.6-13.5c1.5-3,2-7.1-2.1-8.8c-1.2-0.5-2.6-0.6-4-0.4l-14.6,2.1
					c-1.7,0.3-2.8-1.7-1.7-3l11.4-13.9c2.1-2.5,4.2-5.1,4.8-8.5c0.2-1.4,0.1-2.9-0.5-4.2c-2.3-5-9.1-4.7-13.9-2.7
					c-8.8,3.7-16.2,11-19.9,19.8c-0.6,1.4-1.2,3-2.9,3.4c-1.7,0.4-3.3-0.6-4.1-2.1c-1.2-2.4-0.5-5,0.2-7.5c0.8-3,1.7-6.2-0.7-8.9
					c-1.9-2.3-5.1-2.8-7.9-1.8c-5.4,1.9-7.5,7.5-8.5,12.7c-1.6,8.3-1,17,1.7,25c1,3,2.3,6.1,2.1,9.3c-0.3,3.9-3.7,7.9-7.8,6
					c-1.2-0.5-2.1-1.4-2.7-2.5c-1.7-2.8-1.5-6-1.7-9.1c-0.2-4-1.9-8.9-6.2-9.2c-1.3-0.1-2.7,0.3-3.8,1.1c-2.6,1.9-3.8,4.8-4.5,7.8
					C835.3,759.6,835.2,765.8,836.8,771.5z"/>
				<g>
					<g>
						<path class="st30" d="M847.2,814.7c-0.6-0.3-0.8-0.9-0.6-1.4c12.2-30.4,28.4-59.1,48.1-85.1c0.4-0.5,1-0.6,1.5-0.2
							s0.5,1,0.2,1.5c-19.6,25.9-35.7,54.3-47.9,84.6c-0.2,0.5-0.6,0.7-1,0.7C847.4,814.8,847.3,814.8,847.2,814.7z"/>
					</g>
					<g>
						<path class="st30" d="M873.2,750.2c-3.8-4.1-5.2-9.5-5.6-13.3c-0.6-4.8-0.1-9.8,0.3-14.2c0-0.5,0.5-0.9,1.1-0.9
							c0.5,0,1,0.5,0.9,1.1c-0.4,4.3-0.8,9.2-0.3,13.8c0.5,3.4,1.7,8.4,5.1,12.1c4.3,4.7,11.8,6.8,19.5,5.5
							c7.2-1.2,13.7-4.7,20.1-8.1c0.5-0.3,1.1-0.1,1.4,0.4s0.1,1.1-0.4,1.4c-6.6,3.5-13.3,7.1-20.8,8.3c-1.7,0.3-3.3,0.4-4.9,0.4
							C882.9,756.7,877,754.4,873.2,750.2z"/>
					</g>
					<g>
						<path class="st30" d="M851.5,783.9c-6.6-6.7-7.9-16.8-8.2-23.9c0-0.6,0.4-1.1,1-1.1s1.1,0.4,1.1,1c0.3,6.7,1.5,16.4,7.6,22.5
							c5.2,5.2,13.7,7.4,22.8,5.8l1.8-0.3c7.8-1.3,15.2-2.6,23.8-5.7c0.5-0.2,1.1,0.1,1.3,0.6c0.2,0.5-0.1,1.1-0.6,1.3
							c-8.7,3.1-16.2,4.4-24.1,5.8l-1.8,0.3c-2,0.3-4.1,0.5-6.1,0.5C862.8,790.7,856.1,788.3,851.5,783.9z"/>
					</g>
				</g>
			</g>
			<g>
				<path class="st26" d="M815.4,808.6l1.6,7.2c0.3,1.2,1.3,2,2.5,2h41c1.2,0,2.2-0.9,2.5-2l1.6-7.2c0.3-1.6-0.9-3.1-2.5-3.1h-44.3
					C816.2,805.5,815,807,815.4,808.6z"/>
				
					<linearGradient id="SVGID_22_" gradientUnits="userSpaceOnUse" x1="1891.7422" y1="1003.1858" x2="1891.7422" y2="1017.832" gradientTransform="matrix(-1 0 0 -1 2731.7078 1834)">
					<stop  offset="1.140000e-02" style="stop-color:#FFA726"/>
					<stop  offset="1" style="stop-color:#F26522"/>
				</linearGradient>
				<path class="st33" d="M820,818.9l3.6,24.7c0.3,1.7,1.7,2.9,3.4,2.9h25.9c1.7,0,3.2-1.2,3.4-2.9l3.6-24.7H820z"/>
			</g>
		</g>
	</g>
	<g>
		
			<radialGradient id="SVGID_23_" cx="2016.1128" cy="4889.6245" r="67.2615" gradientTransform="matrix(-1.5915 0 0 -0.182 3923.6589 1762.6116)" gradientUnits="userSpaceOnUse">
			<stop  offset="0" style="stop-color:#CFD8DC"/>
			<stop  offset="1" style="stop-color:#CFD8DC;stop-opacity:0"/>
		</radialGradient>
		<ellipse class="st34" cx="715" cy="872.7" rx="107" ry="12.2"/>
		<g>
			
				<linearGradient id="SVGID_24_" gradientUnits="userSpaceOnUse" x1="2073.0803" y1="1400.8258" x2="2073.0803" y2="1319.8583" gradientTransform="matrix(-1 0 0 -1 2731.7078 1834)">
				<stop  offset="0" style="stop-color:#26A69A"/>
				<stop  offset="1" style="stop-color:#006064"/>
			</linearGradient>
			<path class="st35" d="M714.9,422.1c1.4,3.9-0.7,7.5-0.5,11.4c0.3,3.7,1.8,7.3,4.3,10c3.9,4.1,9.6,4.7,12.5,9.9
				c1.5,2.8,2.2,5.9,2.4,9c0.4,5.4-0.8,10.9-3.2,15.7c-2.3,4.6-5.7,8.5-7.5,13.4c-2.8,7.4,3,14.9,3.3,22.4
				c1.1,30.5-30.5,48.4-55.3,58c-16.7,6.5-35,7.4-51.9,1.1c-21.1-7.8-43.8-27.6-32.4-52.2c4.4-9.6,14.4-16,24.6-18
				c1.1-0.2,2.2-0.4,3.2-0.9c5.3-2.5-0.4-8.8-1.9-11.9c-3.5-7.2-1.4-14.5,4.5-20.1c5.8-5.4,16.5-3.4,20.2-11
				c5.5-11.3-7.9-24.5,0.6-34.3c3.7-4.3,8.1-2.7,12.2-5.3c2.6-1.6,4-5.8,6-8.1c7-8.4,20.4-9.3,30.1-5.4c6.2,2.5,9.2,10.5,16.5,10.4
				C707.4,416.1,713.2,417.2,714.9,422.1z"/>
			
				<linearGradient id="SVGID_25_" gradientUnits="userSpaceOnUse" x1="2078.3303" y1="1324.5983" x2="2086.3784" y2="1290.1702" gradientTransform="matrix(-1 0 0 -1 2731.7078 1834)">
				<stop  offset="3.610000e-02" style="stop-color:#B0BEC5"/>
				<stop  offset="1" style="stop-color:#546E7A"/>
			</linearGradient>
			<polygon class="st36" points="663.6,519.3 642.7,549.1 633.4,541.1 650.3,510.8 			"/>
			
				<linearGradient id="SVGID_26_" gradientUnits="userSpaceOnUse" x1="2283.0291" y1="1215.391" x2="2289.9368" y2="1185.8418" gradientTransform="matrix(-1.0474 -0.2091 0.274 -1.083 2732.8843 2279.6704)">
				<stop  offset="0" style="stop-color:#FFCDD2"/>
				<stop  offset="1" style="stop-color:#E57373"/>
			</linearGradient>
			<path class="st37" d="M668.6,520c1.2-0.4,0.7-1.4,1.6-2.2c0.6-0.4,1.6-0.4,2.2-0.9c-0.2-1.7-0.1-2.1,1.1-3.5
				c1.7-1.9,3.1-3.7,4.5-5.9c2.8-4.4,5.9-9.6,3.7-14c-1.9-3.6-4.8-4.4-8.6-5c-4.1-0.6-7.9,0.4-11.6,3.6c-2,1.7-4.2,3.6-5.6,6
				c-1,1.8-1.7,4-3.5,5.1c0.5,2.2-1.8,1.8-2.5,3.2c-0.9,1.9,1.2,3-1.8,3.9c0.1,1.9,14.4,13.7,15.5,14.5
				C665,525.1,668.6,521.1,668.6,520z"/>
			<g>
				
					<linearGradient id="SVGID_27_" gradientUnits="userSpaceOnUse" x1="2017.3684" y1="1051.2455" x2="2033.6608" y2="1150.3573" gradientTransform="matrix(-1 0 0 -1 2731.7078 1834)">
					<stop  offset="0" style="stop-color:#263238"/>
					<stop  offset="1" style="stop-color:#000001"/>
				</linearGradient>
				<path class="st38" d="M663,654.8c3.6,18.8,18,68.4,31.4,82.3c7,16.4,18.3,32.8,28.6,49.2c6.3,10,12.2,20,16.6,30.1
					c4.4-0.1,6.8-1.7,10.1-3.6c-3.3-7.8-8.4-20.6-12.5-32.5c-2.6-7.6-4.8-14.9-5.7-20.2c-2.1-12-11.3-28.5-25.1-35.8
					c5.9-34.4,13.4-51.1,9.4-77.8c-0.7-5.1,2.4-23.5-4.4-31.9c-10.6-13-31.8-3.9-56.6-12.8C657.6,619.7,660.1,640.1,663,654.8z"/>
				
					<linearGradient id="SVGID_28_" gradientUnits="userSpaceOnUse" x1="1652.802" y1="960.18" x2="1652.802" y2="959.9705" gradientTransform="matrix(-0.9215 0.3883 -0.3883 -0.9215 2635.9395 1060.7544)">
					<stop  offset="0" style="stop-color:#FFCDD2"/>
					<stop  offset="1" style="stop-color:#E57373"/>
				</linearGradient>
				<path class="st39" d="M740.1,818c0-0.1,0-0.1,0-0.2C740.1,817.8,740.1,817.8,740.1,818z"/>
				<g>
					
						<linearGradient id="SVGID_29_" gradientUnits="userSpaceOnUse" x1="1640.7118" y1="935.9633" x2="1640.5985" y2="945.3539" gradientTransform="matrix(-0.9215 0.3883 -0.3883 -0.9215 2635.9395 1060.7544)">
						<stop  offset="0" style="stop-color:#FFCDD2"/>
						<stop  offset="1" style="stop-color:#E57373"/>
					</linearGradient>
					<polygon class="st40" points="755.5,828.7 764.1,846.4 765.3,845.9 757.5,822 					"/>
					
						<linearGradient id="SVGID_30_" gradientUnits="userSpaceOnUse" x1="1652.1862" y1="951.8209" x2="1652.1862" y2="963.5359" gradientTransform="matrix(-0.9215 0.3883 -0.3883 -0.9215 2635.9395 1060.7544)">
						<stop  offset="3.610000e-02" style="stop-color:#B0BEC5"/>
						<stop  offset="1" style="stop-color:#546E7A"/>
					</linearGradient>
					<path class="st41" d="M743.1,850.4c-0.3,1.3-0.2,1.9-0.3,2.4c4.5,0.5,8,1.7,9.5-3.4c3.8-11.7-1.9-22.3,0.3-33.5
						c-0.9-0.3-1.7-0.9-2.5-2.2c0,0,0.3,1.4-4.9,3.5c-4,1.6-4.8,1.1-5,0.8c1.8,5.5,0.9,10.4,1,17.1
						C741.3,840.8,744.2,844.5,743.1,850.4z"/>
					
						<linearGradient id="SVGID_31_" gradientUnits="userSpaceOnUse" x1="1653.6759" y1="966.9748" x2="1653.6759" y2="919.3112" gradientTransform="matrix(-0.9215 0.3883 -0.3883 -0.9215 2635.9395 1060.7544)">
						<stop  offset="0" style="stop-color:#FFCDD2"/>
						<stop  offset="1" style="stop-color:#E57373"/>
					</linearGradient>
					<path class="st42" d="M742.8,852.6c-0.1,0.7-0.5,1.1-2.7,2.8c-3.7,3-1.4,5.4,2.5,3.9c4.5-1.7,6.4-1.8,9.1-4.4
						c3-2.9,4.1-4.3,3.8-8.6c-0.5-6-3-11.8,0-17.7c1.6-3.3,3.8-6,2.1-9.7c-1.2-2.7-3.1-2.4-5-3.1c-2.3,11.2,3.5,21.8-0.3,33.5
						C750.9,854.4,747.3,853.2,742.8,852.6z"/>
				</g>
			</g>
			<g>
				
					<linearGradient id="SVGID_32_" gradientUnits="userSpaceOnUse" x1="2043.1072" y1="1181.3914" x2="2043.1072" y2="1323.3063" gradientTransform="matrix(-1 0 0 -1 2731.7078 1834)">
					<stop  offset="0" style="stop-color:#263238"/>
					<stop  offset="1" style="stop-color:#000001"/>
				</linearGradient>
				<path class="st43" d="M654.2,592.3c0,2.9,0.6,14.2,3.5,20.5c6.3,13.4,11.4,3.9,12.8,18.7c1.3,13.6,2.4,94.6,9.3,112.6
					c0.1,17.8,4.2,37.3,7.3,56.5c1.9,11.7,3.5,23.2,3.6,34.2c4.1,1.6,6.9,1.1,10.7,0.6c0-8.5,0.2-22.3,1.1-34.9
					c0.6-8,1.4-15.6,2.6-20.8c2.7-11.9,0.6-30.7-9.2-42.8c3.7-26.7,14.7-57.9,22.9-91.2c12.9-37-8.2-55.4-8.7-57.6
					c-11.1,4.8-22.8,8.9-34.6,8.6C667.8,596.5,660.5,595.5,654.2,592.3z"/>
				
					<linearGradient id="SVGID_33_" gradientUnits="userSpaceOnUse" x1="2041.0145" y1="997.8276" x2="2041.0145" y2="997.618" gradientTransform="matrix(-1 0 0 -1 2731.7078 1834)">
					<stop  offset="0" style="stop-color:#FFCDD2"/>
					<stop  offset="1" style="stop-color:#E57373"/>
				</linearGradient>
				<path class="st44" d="M690.7,836.4c0-0.1,0-0.1,0-0.2C690.7,836.2,690.6,836.3,690.7,836.4z"/>
				<g>
					
						<linearGradient id="SVGID_34_" gradientUnits="userSpaceOnUse" x1="2029.0228" y1="973.6109" x2="2028.9097" y2="983.0017" gradientTransform="matrix(-1 0 0 -1 2731.7078 1834)">
						<stop  offset="0" style="stop-color:#FFCDD2"/>
						<stop  offset="1" style="stop-color:#E57373"/>
					</linearGradient>
					<polygon class="st45" points="700.6,852.2 701.7,871.9 702.9,871.9 705,846.9 					"/>
					
						<linearGradient id="SVGID_35_" gradientUnits="userSpaceOnUse" x1="2040.4923" y1="989.4684" x2="2040.4923" y2="1001.1835" gradientTransform="matrix(-1 0 0 -1 2731.7078 1834)">
						<stop  offset="3.610000e-02" style="stop-color:#B0BEC5"/>
						<stop  offset="1" style="stop-color:#546E7A"/>
					</linearGradient>
					<path class="st46" d="M680.7,867.2c-0.8,1.1-0.9,1.7-1.2,2.1c3.9,2.3,6.8,4.8,10.1,0.6c8.1-9.3,6.9-21.3,13.3-30.7
						c-0.7-0.6-1.3-1.5-1.5-3c0,0-0.2,1.5-5.8,1.4c-4.4-0.1-5-0.9-5-1.2c-0.4,5.8-3.2,10-5.7,16.2
						C682.8,857.9,684,862.5,680.7,867.2z"/>
					
						<linearGradient id="SVGID_36_" gradientUnits="userSpaceOnUse" x1="2041.9417" y1="1004.6223" x2="2041.9417" y2="956.9587" gradientTransform="matrix(-1 0 0 -1 2731.7078 1834)">
						<stop  offset="0" style="stop-color:#FFCDD2"/>
						<stop  offset="1" style="stop-color:#E57373"/>
					</linearGradient>
					<path class="st47" d="M679.5,869.4c-0.3,0.6-0.8,0.7-3.5,1.5c-4.5,1.4-3.4,4.5,0.8,4.6c4.8,0.1,6.6,0.8,10.1-0.6
						c3.9-1.5,5.5-2.3,6.8-6.4c1.9-5.7,1.9-12,6.9-16.3c2.8-2.4,5.9-4,5.8-8.1c-0.1-3-2-3.4-3.4-4.8c-6.5,9.4-5.3,21.4-13.3,30.7
						C686.3,874.2,683.5,871.7,679.5,869.4z"/>
				</g>
			</g>
			
				<linearGradient id="SVGID_37_" gradientUnits="userSpaceOnUse" x1="2047.9004" y1="1333.5461" x2="2063.6665" y2="1173.0178" gradientTransform="matrix(-1 0 0 -1 2731.7078 1834)">
				<stop  offset="0" style="stop-color:#FFCDD2"/>
				<stop  offset="1" style="stop-color:#E57373"/>
			</linearGradient>
			<path class="st48" d="M714.1,519.9c2.4-8.3-2.5-19.2-6.8-26.6c-4.9-8.5-9.7-11.9-20-12.7c-3.4-0.3-6.7,1-9,3.4
				c-8.9,0-22,26.6-30.1,40c-8.7,14.4,10,20,10,20l-4,51.8c8.5,3.3,19.2,3.3,27.7,2.9c10.2-0.5,23-4.5,28.2-10.5
				c-4.7-10-14.9-28.1-14.7-31.7L714.1,519.9z"/>
			<g>
				
					<linearGradient id="SVGID_38_" gradientUnits="userSpaceOnUse" x1="1970.4569" y1="1320.7496" x2="1971.0406" y2="1378.5488" gradientTransform="matrix(-0.9964 8.440000e-02 -8.440000e-02 -0.9964 2754.5439 1664.4567)">
					<stop  offset="3.610000e-02" style="stop-color:#B0BEC5"/>
					<stop  offset="1" style="stop-color:#546E7A"/>
				</linearGradient>
				<polygon class="st49" points="672.2,473.5 674.4,488.2 665.3,517.7 691.2,481.4 688.8,462.4 				"/>
				
					<linearGradient id="SVGID_39_" gradientUnits="userSpaceOnUse" x1="2056.709" y1="1387.4506" x2="2060.1807" y2="1401.6525" gradientTransform="matrix(-1 0 0 -1 2731.7078 1834)">
					<stop  offset="3.610000e-02" style="stop-color:#B0BEC5"/>
					<stop  offset="1" style="stop-color:#546E7A"/>
				</linearGradient>
				<path class="st50" d="M657.1,438.9c-0.3,3.1-0.5,6.9-0.2,10c1.2,12.1,5.9,27,6.1,27.4c2.6,5.8,27.6-8.4,27.1-14.1l-0.1-1.6
					c-0.1-1.3,0.9-2.5,2.2-2.7c2.2-0.3,3.9-2.1,3.7-4.3l-0.3-3c-0.2-2-2-3.6-4.1-3.5h-0.1c-2.2,0.2-3.8,2-3.7,4.1l0.1,2.7h-0.1
					c0,0.2,0,0.4-0.1,0.5c-5.9,4.4-17.7,0.2-21.5-2.7c-4.9-3.8-6.5-8.8-6.4-14C658.8,438.1,657.9,438.5,657.1,438.9z"/>
			</g>
			<g>
				
					<linearGradient id="SVGID_40_" gradientUnits="userSpaceOnUse" x1="2093.9294" y1="1300.3562" x2="2093.9294" y2="1269.1578" gradientTransform="matrix(-1 0 0 -1 2731.7078 1834)">
					<stop  offset="3.610000e-02" style="stop-color:#B0BEC5"/>
					<stop  offset="1" style="stop-color:#546E7A"/>
				</linearGradient>
				<path class="st51" d="M647.2,492.6c0,0-1.9,24.4-2.9,52.3c-0.1,2.7-1.3,5.2-3.5,6.6c-6.7,4.3-14.7-2.5-11.9-10.9l11.5-50.1
					L647.2,492.6z"/>
				<path class="st52" d="M640.4,490.5c0.1,1.5,5.4,1.6,6.7,2.2c4.4,1.9,10-5,9.6-7.1c-0.2-1.2-0.5-2.3-1-3.4s-1.5-2-2.6-2.2
					c-1.7-0.4-3.4,0.8-4.7,2C644.9,485,640.4,490.5,640.4,490.5z"/>
				<path class="st52" d="M656.5,480.1c0.8-0.6,6.4-3,6.1-4.3c0.2-1.5-13.4,4.5-13.4,7.1C652.7,484.8,654.3,481.5,656.5,480.1z"/>
				<path class="st52" d="M657.1,483.8c1-0.2,1.9-0.6,2.5,0.1c0.7,0.8,0.2,2.4,1.6,2.6c0.9-1.2,0.3-4.1-1-4.8
					c-2.2-1.2-9.8-0.9-10.9,1.5C651.6,486.4,654.5,484.2,657.1,483.8z"/>
				<path class="st52" d="M655.5,486.3c0.9-0.4,1.6-1,2.4-0.5c0.9,0.5,0.8,2.2,2.2,2.1c0.5-1.4-0.8-4-2.2-4.4
					c-2.4-0.6-9.7,1.6-10.2,4.2C650.7,490.3,653,487.4,655.5,486.3z"/>
				<path class="st52" d="M655.2,488.3c0.7-0.2,1.2-0.6,1.8-0.2c0.6,0.5,0.5,1.7,1.5,1.7c0.4-1-0.4-3-1.4-3.4
					c-1.7-0.6-7.2,0.6-7.7,2.5C651.5,491,653.4,488.9,655.2,488.3z"/>
			</g>
			<g>
				<g>
					
						<linearGradient id="SVGID_41_" gradientUnits="userSpaceOnUse" x1="2011.4662" y1="1303.9827" x2="2027.626" y2="1329.2999" gradientTransform="matrix(-1 0 0 -1 2731.7078 1834)">
						<stop  offset="3.610000e-02" style="stop-color:#B0BEC5"/>
						<stop  offset="1" style="stop-color:#546E7A"/>
					</linearGradient>
					<path class="st53" d="M708.8,520.2l14.1-15.3l53.4,47.6c1.1,1.8,0.7,4.2-1.1,5.4l-49,41.5l-5.9-3.9l33.9-43.6L708.8,520.2z"/>
					<path class="st52" d="M723.9,596.8c1.1,0.9,2.6,1.3,2.3,2.7c-0.9,4.7-16.6,8.3-18.1,6.8c-0.8-0.8-1.7-1.7-2.2-2.7
						s-0.7-2.3-0.3-3.4c0.7-1.7,2.6-2.3,4.3-2.8C714.3,596.2,720.5,593.7,723.9,596.8z"/>
					<path class="st52" d="M705.8,606.6c-0.3,0.9-0.9,1.7-0.3,2.4c0.7,0.8,2.3,0.6,2.3,2c-1.3,0.6-4-0.4-4.5-1.8
						c-0.8-2.3,0.9-9.7,3.4-10.4C709.5,601.7,706.8,604.1,705.8,606.6z"/>
					<path class="st52" d="M709.2,607.1c-0.3,0.9-0.9,1.7-0.3,2.4c0.7,0.8,2.3,0.6,2.3,2c-1.3,0.6-4-0.4-4.5-1.8
						c-0.8-2.3,0.9-9.7,3.4-10.4C712.9,602.2,710.2,604.6,709.2,607.1z"/>
					<path class="st52" d="M711.8,607.6c-0.3,0.9-0.9,1.7-0.3,2.4c0.7,0.8,2.3,0.6,2.3,2c-1.3,0.6-4-0.4-4.5-1.8
						c-0.8-2.3,0.9-9.7,3.4-10.4C715.5,602.7,712.8,605.1,711.8,607.6z"/>
					<path class="st52" d="M713.8,607.4c-0.2,0.7-0.6,1.3-0.2,1.8c0.5,0.6,1.7,0.5,1.7,1.5c-1,0.4-3-0.4-3.4-1.4
						c-0.6-1.7,0.6-7.2,2.5-7.7C716.4,603.7,714.4,605.5,713.8,607.4z"/>
				</g>
				<path class="st54" d="M723.6,503.2c0-1.2-1.1-0.9-1.6-1.8c-0.3-0.6,0.1-1.5-0.2-2.2c-1.7,0-2-0.1-3-1.4
					c-1.4-1.8-2.7-3.3-4.4-4.9c-3.3-3.1-7.3-6.7-12.3-4.9c-4.1,1.4-5.8,4.2-7.5,7.9c-1.9,4-2.1,7.7-0.1,11.7c1.1,2.1,2.3,4.4,4.1,6
					c1.4,1.2,3.3,2,3.8,3.9c2.2-0.2,1.1,2,2.3,2.8c1.6,1,3.3-0.9,3.2,2.1c1.8,0.1,4.4-4.4,5.5-5.6c2.1-2.5,4.6-4.5,6.8-6.8
					c1.3-1.3,2.8-3.6,3.9-4.6C724.8,504.1,724.5,503.3,723.6,503.2z"/>
			</g>
		</g>
	</g>
	<g>
		
			<radialGradient id="SVGID_42_" cx="2119.1931" cy="4797.3169" r="67.2642" gradientTransform="matrix(-3.1129 0 0 -0.182 7028.9517 1762.6116)" gradientUnits="userSpaceOnUse">
			<stop  offset="0" style="stop-color:#CFD8DC"/>
			<stop  offset="1" style="stop-color:#CFD8DC;stop-opacity:0"/>
		</radialGradient>
		<ellipse class="st55" cx="432.1" cy="889.5" rx="209.2" ry="12.2"/>
		<g>
			<g>
				
					<linearGradient id="SVGID_43_" gradientUnits="userSpaceOnUse" x1="2377.0051" y1="1256.3912" x2="2391.5317" y2="1209.0078" gradientTransform="matrix(-1 0 0 -1 2731.7078 1834)">
					<stop  offset="3.610000e-02" style="stop-color:#B0BEC5"/>
					<stop  offset="1" style="stop-color:#546E7A"/>
				</linearGradient>
				<path class="st56" d="M333.5,564.9c-7.3,4.3-14.9,8.9-21.3,14.6c13.4,19.5,30.4,37.7,32.3,37.3c5.2-1.1,55.5-50.3,55.5-50.3
					l-5.1-5.3l-45.3,29.4c0,0-2.6,1.1-3.9,0.6C344.8,590.9,336.4,571.4,333.5,564.9z"/>
				
					<linearGradient id="SVGID_44_" gradientUnits="userSpaceOnUse" x1="2393.6138" y1="1277.2772" x2="2406.8293" y2="1277.2772" gradientTransform="matrix(-1 0 0 -1 2731.7078 1834)">
					<stop  offset="3.610000e-02" style="stop-color:#FFAB91"/>
					<stop  offset="1" style="stop-color:#FF8F6B"/>
				</linearGradient>
				<path class="st57" d="M312.1,582.1c6.4-5.7,16.6-12.9,23.8-17.2c-0.4-0.9-9.2-16.4-9.2-16.6c-4.7-17.8-20.9-21.9-29.3-10.8
					C291.7,545,300.6,565.2,312.1,582.1z"/>
				
					<linearGradient id="SVGID_45_" gradientUnits="userSpaceOnUse" x1="3315.7922" y1="436.8621" x2="3352.1509" y2="462.6485" gradientTransform="matrix(-0.248 -0.9688 0.9688 -0.248 813.0937 3855.8481)">
					<stop  offset="3.610000e-02" style="stop-color:#B0BEC5"/>
					<stop  offset="1" style="stop-color:#546E7A"/>
				</linearGradient>
				<path class="st58" d="M394,561.8c-0.6,1.4-1.7,2.4-0.8,3.6c3.1,4,19.4-0.2,20.1-2.3c0.4-1.2,0.8-2.4,0.8-3.6s-0.4-2.5-1.3-3.3
					c-1.4-1.2-3.5-0.9-5.3-0.5C402.7,556.8,395.8,557.4,394,561.8z"/>
				
					<linearGradient id="SVGID_46_" gradientUnits="userSpaceOnUse" x1="3311.7217" y1="444.1419" x2="3348.0806" y2="469.9282" gradientTransform="matrix(-0.248 -0.9688 0.9688 -0.248 813.0937 3855.8481)">
					<stop  offset="3.610000e-02" style="stop-color:#B0BEC5"/>
					<stop  offset="1" style="stop-color:#546E7A"/>
				</linearGradient>
				<path class="st59" d="M414.6,561.6c1,0.3,1.9,0.4,2.2,1.3c0.3,1.1-1,2.3,0.2,3.2c1.4-0.7,2.3-3.6,1.5-4.9
					c-1.4-2.2-8.6-5.7-10.8-4C408.2,561.4,412,560.7,414.6,561.6z"/>
				
					<linearGradient id="SVGID_47_" gradientUnits="userSpaceOnUse" x1="3109.2825" y1="951.6501" x2="3145.6411" y2="977.4366" gradientTransform="matrix(-0.723 -0.6909 0.6909 -0.723 1998.0208 3369.3589)">
					<stop  offset="3.610000e-02" style="stop-color:#B0BEC5"/>
					<stop  offset="1" style="stop-color:#546E7A"/>
				</linearGradient>
				<path class="st60" d="M414,557.6c1-0.2,1.9-0.7,2.6,0c0.9,0.7,0.4,2.4,1.9,2.6c0.8-1.3,0-4.2-1.4-4.9
					c-2.4-1.1-10.3-0.3-11.3,2.3C408.4,560.9,411.3,558.3,414,557.6z"/>
				
					<linearGradient id="SVGID_48_" gradientUnits="userSpaceOnUse" x1="3296.2456" y1="513.9458" x2="3332.604" y2="539.732" gradientTransform="matrix(-0.3153 -0.949 0.949 -0.3153 969.7642 3826.0967)">
					<stop  offset="3.610000e-02" style="stop-color:#B0BEC5"/>
					<stop  offset="1" style="stop-color:#546E7A"/>
				</linearGradient>
				<path class="st61" d="M411.6,563c1.1,0.1,2,0,2.5,0.8c0.6,1-0.3,2.5,1,3.1c1.2-1,1.3-4.1,0.2-5.1c-1.9-1.8-9.7-3.4-11.4-1.2
					C405.5,564.5,409,563,411.6,563z"/>
				
					<linearGradient id="SVGID_49_" gradientUnits="userSpaceOnUse" x1="3312.9133" y1="442.4615" x2="3349.272" y2="468.2478" gradientTransform="matrix(-0.248 -0.9688 0.9688 -0.248 813.0937 3855.8481)">
					<stop  offset="3.610000e-02" style="stop-color:#B0BEC5"/>
					<stop  offset="1" style="stop-color:#546E7A"/>
				</linearGradient>
				<path class="st62" d="M410.6,564.9c0.8,0.1,1.5,0,1.8,0.7c0.4,0.7-0.4,1.8,0.6,2.3c0.9-0.7,1.2-3,0.4-3.8c-1.4-1.4-7-3-8.4-1.5
					C405.9,565.5,408.6,564.6,410.6,564.9z"/>
				
					<linearGradient id="SVGID_50_" gradientUnits="userSpaceOnUse" x1="2395.2317" y1="1238.4192" x2="2400.679" y2="1229.7725" gradientTransform="matrix(0.9464 -0.3229 -0.3229 -0.9464 -1463.2072 2503.9653)">
					<stop  offset="3.610000e-02" style="stop-color:#B0BEC5"/>
					<stop  offset="1" style="stop-color:#546E7A"/>
				</linearGradient>
				<path class="st63" d="M398.4,564.7c0.7-0.3,1.5,0,2.2,0.2c1.5,0.3,3,0.5,4.4-0.5c1.5-1,1.7-3.2,3-4.2c1.2-0.9,6.4-2.7,4.9-4.8
					c-2,0.6-9.7,4.8-10.7,2.2"/>
			</g>
			<g>
				<g>
					<g>
						<g>
							<g>
								<g>
									<g>
										<g>
											<g>
												<g>
													<defs>
														<path id="SVGID_51_" d="M399.7,625.9l7.9-15.1l7.2-13.6h13.5l-3.5,32.5h-22.1C400.4,629.7,398.8,627.7,399.7,625.9z"
															/>
													</defs>
													<clipPath id="SVGID_52_">
														<use xlink:href="#SVGID_51_"  style="overflow:visible;"/>
													</clipPath>
													
														<linearGradient id="SVGID_53_" gradientUnits="userSpaceOnUse" x1="2309.2915" y1="1220.55" x2="2335.3335" y2="1220.55" gradientTransform="matrix(-1 0 0 -1 2731.7078 1834)">
														<stop  offset="0" style="stop-color:#D0D0D0"/>
														<stop  offset="1" style="stop-color:#757575"/>
													</linearGradient>
													<rect x="398.8" y="597.2" class="st64" width="29.5" height="32.5"/>
												</g>
											</g>
										</g>
									</g>
								</g>
							</g>
						</g>
					</g>
				</g>
				<g>
					
						<linearGradient id="SVGID_54_" gradientUnits="userSpaceOnUse" x1="2306.5837" y1="1204.25" x2="2321.9724" y2="1204.25" gradientTransform="matrix(-1 0 0 -1 2731.7078 1834)">
						<stop  offset="1.900000e-03" style="stop-color:#DEDEDE"/>
						<stop  offset="1" style="stop-color:#757575"/>
					</linearGradient>
					<rect x="418.9" y="629.1" class="st65" width="18.7" height="1.3"/>
					
						<linearGradient id="SVGID_55_" gradientUnits="userSpaceOnUse" x1="2322.7598" y1="1209.1765" x2="2321.9341" y2="1226.0231" gradientTransform="matrix(-1 0 0 -1 2731.7078 1834)">
						<stop  offset="1.900000e-03" style="stop-color:#DEDEDE"/>
						<stop  offset="1" style="stop-color:#757575"/>
					</linearGradient>
					<path class="st66" d="M399.3,628.9c0.7,0.9,2,1.5,3.4,1.5h16.1v-1.3h-16.1c-0.9,0-1.6-0.3-2.1-0.9c-0.5-0.6-0.5-1.3-0.2-1.9
						l7.9-15.1c0.2-0.4,0-0.8-0.4-0.9c-0.4-0.2-0.8,0-1,0.3l-7.9,15.1C398.5,626.7,398.6,627.9,399.3,628.9z"/>
				</g>
				<g>
					
						<linearGradient id="SVGID_56_" gradientUnits="userSpaceOnUse" x1="2148.5322" y1="1290.637" x2="2148.5322" y2="1249.1364" gradientTransform="matrix(-1 0 -0.2185 -1 2781.906 1834)">
						<stop  offset="0" style="stop-color:#C4C4C4"/>
						<stop  offset="1" style="stop-color:#757575"/>
					</linearGradient>
					<path class="st67" d="M361,609.2l-7.7-70.2c-0.1-0.9,0.6-1.7,1.5-1.7l0,0l8,73.5l0,0C361.9,610.8,361,610.1,361,609.2z"/>
					<polygon class="st68" points="354.8,537.3 466.3,537.3 474.3,610.8 362.8,610.8 					"/>
					<polygon class="st69" points="357.2,539.9 464.4,539.9 471.3,602.7 364,602.7 					"/>
				</g>
			</g>
			<path class="st26" d="M332.4,632.8c0,1.2,1,2.3,2.3,2.3h38.8v255.5c0,1.2,1,2.3,2.3,2.3c1.2,0,2.3-1,2.3-2.3V635.1H463v255.4
				c0,1.2,1,2.3,2.3,2.3c1.2,0,2.3-1,2.3-2.3V635h37.2c1.2,0,2.3-1,2.3-2.3c0-1.2-1-2.3-2.3-2.3H334.4
				C333.1,630.4,332.1,631.4,332.4,632.8z"/>
			<g>
				<g>
					
						<linearGradient id="SVGID_57_" gradientUnits="userSpaceOnUse" x1="2441.2517" y1="1069.2841" x2="2402.6375" y2="1132.1909" gradientTransform="matrix(-1 0 0 -1 2731.7078 1834)">
						<stop  offset="0" style="stop-color:#26C6DA"/>
						<stop  offset="1" style="stop-color:#072759"/>
					</linearGradient>
					<path class="st70" d="M325.2,676.4h-61.5c-1,6.5,0.1,12.5,3.8,17.2c10.5,13.3,75.7,47.3,74.3,52.9c0,0-14.5,4.7-24.7,13.9
						c-0.1,0-0.3,0.1-0.5,0.1c-2.6,0.1-5.7,2.2-8.8,3.5c-0.3,0.1-0.5,0.3-0.7,0.4c-1.4,0.8-2.9,1.1-4.9-0.8
						c-0.2-0.1-0.5-0.1-0.7-0.1c-2.1-0.2-3.5,0.9-4.3,3c-0.2,0.1-0.3,0.2-0.4,0.3c-0.1,0.2,1.6,6,3.5,10.4c0.5,0.1,1.8,0.2,3.8,0.2
						c0.2,0,0.3,0,0.5,0c1-1.1,2.1-1.7,3.1-1.7c0.3,0,0.5,0.1,0.7,0.1c3.5,1.5,51-10.4,62.9-12.8c3.3-0.7,5.3-8.9,3.8-11.9
						c-12.7-25.3-38.5-63.1-44.2-69.4C329.4,680.1,327.3,678.3,325.2,676.4L325.2,676.4z"/>
					<path class="st71" d="M297.2,810.6c-3,0.8-14.1-6.6-15.2-9c-1.2-2.7,0.4-7.1,0.3-10.3c-0.2-4.8-0.6-9.7-1-14.6
						c-0.2-2.4,1.2-7.5,2.9-9.5c1.5-1.9,7.8-0.5,11.9-0.1c1,3.8,1.9,7.6,3,11.3c-0.2,0.2-0.4,0.3-0.6,0.4c-1.9,1.1-5,11.8-3.5,16.4
						c0.3,0.8,0,1.6-0.7,2c-0.1,0-0.2,0.1-0.3,0.1c0.5,0.7,1,1.6,0,2.3C294.6,801.4,301.5,809.4,297.2,810.6z"/>
				</g>
				<g>
					<path class="st26" d="M262.9,716.1c0,1,0.9,1.9,2,1.9h32.2v60.9h4.1V718h28.1c1.1,0,2-0.9,2-1.9s-0.9-1.9-2-1.9h-30.2l0,0l0,0
						h-34.3C263.7,714.2,262.7,715,262.9,716.1z"/>
					<rect x="294.9" y="780.5" class="st26" width="8.4" height="6.3"/>
					<path class="st26" d="M271.6,852c0,0.9,0.7,1.6,1.6,1.6h21.7v29.3h8.4v-29.3H325c0.9,0,1.6-0.7,1.6-1.6s-0.7-1.6-1.6-1.6h-21.7
						v-61.9h-8.4v61.9h-21.7C272.3,850.4,271.6,851.1,271.6,852z"/>
					<polygon class="st26" points="294.8,884.7 268,890.2 330.1,890.2 303.3,884.7 					"/>
					<path class="st71" d="M256.8,709.3v-13.6c0-2.7,2.2-4.9,4.9-4.9h71.4c2.7,0,4.9,2.2,4.9,4.9v13.6c0,2.7-2.2,4.9-4.9,4.9h-71.4
						C259,714.2,256.8,712,256.8,709.3z"/>
				</g>
				<g>
					
						<linearGradient id="SVGID_58_" gradientUnits="userSpaceOnUse" x1="2654.8125" y1="1044.3132" x2="2740.6282" y2="1225.6228" gradientTransform="matrix(-0.9669 -0.2552 0.2552 -0.9669 2629.5786 2404.7278)">
						<stop  offset="0" style="stop-color:#26C6DA"/>
						<stop  offset="1" style="stop-color:#072759"/>
					</linearGradient>
					<path class="st72" d="M393.5,736c3,3.2,3,8.2-0.1,11.3c-12.5,12.7-44,41.7-62,58.2c-0.1,0.2-0.3,0.3-0.5,0.5
						c-1.9,3.3-0.7,5.3-5.3,4.9l0,0c-0.3,0.6-0.8,1.4-1.1,2c-0.4,2.4-0.8,3.9-4.8,3.4c-0.1,0.2-0.3,0.3-0.4,0.4
						c-0.5,0.4-0.8,0.7-0.9,0.8c-3.1-3.5-4.5-5.1-7.2-8.2c-0.6-0.6-0.6-1.5-0.1-2.2c0.4-0.5,0.8-1,1.2-1.6c0.1-0.2,0.2-0.3,0.3-0.4
						c0.9-0.6,0.5-2.6,0.9-4c0.1-0.2,0.2-0.4,0.3-0.6c2.1-2.7,6.2-3,6.6-6.7c0.1-0.1,0.2-0.3,0.3-0.4c13.9-21.1,25.6-45,40.1-48.8
						c-6.5-10-81.3-38.9-93.1-51.1c-10.4-10.8-11.7-22.3,0.5-41.3c0.3-0.5,0.8-0.8,1.4-0.8l48-2c1.1,0,2,0.9,1.9,2
						c-0.9,7.6-2.3,16.4,3,21.1C328.7,678.1,372.9,714.7,393.5,736z"/>
					<path class="st71" d="M327.6,849.7c-2.5,1.9-15.6-0.8-17.5-2.6c-2.1-2.1-2.3-6.8-3.6-9.7c-1.9-4.5-4.2-8.8-6.4-13.2
						c-1.1-2.2-1.7-7.4-0.9-9.9c0.7-2.3,7.1-3.3,11-4.5c2.3,3.1,4.6,6.2,7,9.3c-0.1,0.2-0.3,0.4-0.4,0.6c-1.3,1.8-0.1,12.8,3,16.5
						c0.5,0.6,0.6,1.5,0.1,2.1c-0.1,0.1-0.2,0.2-0.3,0.3c0.8,0.4,1.5,1.1,0.9,2.1C321.8,842.2,331.2,846.9,327.6,849.7z"/>
				</g>
				
					<linearGradient id="SVGID_59_" gradientUnits="userSpaceOnUse" x1="2408.8716" y1="1304.3435" x2="2442.9158" y2="1228.3977" gradientTransform="matrix(-1 0 0 -1 2731.7078 1834)">
					<stop  offset="3.610000e-02" style="stop-color:#FFAB91"/>
					<stop  offset="1" style="stop-color:#FF8F6B"/>
				</linearGradient>
				<path class="st73" d="M326.9,569l-6.4,82.4c-0.6,5.3-0.2,7.1-5.1,9.4c-11,5.3-24.8,5.4-36.7,4.1c-5.1-0.5-14.4-2-15.8-8
					c-0.5-2.2-0.2-4.5-0.4-6.7c0-0.1-6.3-87.7-6.3-87.7c2.9-22.4,23.3-40.5,45.7-40.5C318.2,532.9,329.1,552,326.9,569z"/>
				
					<linearGradient id="SVGID_60_" gradientUnits="userSpaceOnUse" x1="2424.8953" y1="1367.1323" x2="2421.6921" y2="1342.0015" gradientTransform="matrix(-1 0 0 -1 2731.7078 1834)">
					<stop  offset="3.610000e-02" style="stop-color:#827717"/>
					<stop  offset="0.9913" style="stop-color:#605B1F"/>
				</linearGradient>
				<path class="st74" d="M281.9,488.8c1.9,3.9,5.9,6.4,7.7,10.4c1.4,3.3,0.4,10.5,3.2,13c0.5,0.4,1,0.5,1.5,0.5
					c1.1-3.4,1.9-6.9,3-10.3c1-3.1,2.1-6.1,3.1-9.1c0.8-2.2,1.9-3.7,3-5.7c1.1-1.9,0.8-4,1.5-6c0.3-0.9,0.9-1.4,1.9-1.7
					c2.2-0.6,4.8-0.4,7.1-0.3c3.3,0.2,6.5,0.6,9.8,1c0.2,0.1,0.4,0.2,0.4,0.4c0,1.9,0.3,3.9-0.1,5.8c0.1,0,0.3-0.1,0.5-0.1l5.4-3.7
					c8.9-5.9,6.9-27.7-5.5-28.2c-4.3-0.1-6.8,3.4-9.8,5.7c-3.2,2.4-7.4,2.8-11.2,3.1c-2.2,0.2-4.5,0.4-6.5,1.2
					c-2.5,1-2.9,2.8-4.6,4.5c-1.5,1.4-3.5,1.2-5.3,2c-2.1,1-3.9,2.9-4.9,5C280.2,480.2,280.1,485,281.9,488.8z"/>
				<g>
					
						<linearGradient id="SVGID_61_" gradientUnits="userSpaceOnUse" x1="2145.1216" y1="1297.6533" x2="2155.2627" y2="1321.8794" gradientTransform="matrix(1 0 0 -1 -1843.4895 1834)">
						<stop  offset="3.610000e-02" style="stop-color:#B0BEC5"/>
						<stop  offset="1" style="stop-color:#546E7A"/>
					</linearGradient>
					<polygon class="st75" points="314,518 312,535.2 315.3,550.3 290.1,524.7 294,507.9 					"/>
					
						<linearGradient id="SVGID_62_" gradientUnits="userSpaceOnUse" x1="2419.5083" y1="1332.516" x2="2453.8784" y2="1423.0612" gradientTransform="matrix(-1 0 0 -1 2731.7078 1834)">
						<stop  offset="3.610000e-02" style="stop-color:#B0BEC5"/>
						<stop  offset="1" style="stop-color:#546E7A"/>
					</linearGradient>
					<path class="st76" d="M326.9,517.5c-1.6,10.3-33.1-2-33.1-7.7v-3.7c0-1.3-1.1-2.5-2.5-2.5c-2.2,0-4-1.7-4-3.9v-2.8
						c0-2.1,1.7-3.9,3.8-4h0.1c2.2-0.1,3.9,1.7,4,3.9l0.1,2.5h2.2l1.9-11.1l2.4-2.8l0.9-9.9h24.1l0.3,39.9
						C327.1,516.2,327.1,517,326.9,517.5z"/>
				</g>
				<g>
					
						<linearGradient id="SVGID_63_" gradientUnits="userSpaceOnUse" x1="2322.0706" y1="1267.0577" x2="2339.7007" y2="1289.0278" gradientTransform="matrix(-0.9959 9.040000e-02 -9.040000e-02 -0.9959 2747.1177 1628.1844)">
						<stop  offset="3.610000e-02" style="stop-color:#B0BEC5"/>
						<stop  offset="1" style="stop-color:#546E7A"/>
					</linearGradient>
					<path class="st77" d="M302.2,578.3c-6.9,5.5-14.2,11.5-20,18.4c16.9,18.3,37.3,34.7,39.2,34c5.3-1.9,50.3-60.6,50.3-60.6
						l-6.1-4.8l-42.7,37.4c0,0-2.6,1.5-4,1.2C317.9,603.7,306.2,584.6,302.2,578.3z"/>
					<path class="st78" d="M282.5,599.2c5.8-6.9,15.3-15.8,22.2-21.4c-0.6-0.9-12-15.7-12.1-15.9c-7.5-17.7-25-19.6-32.1-6.8
						C255.8,563.8,268,583.5,282.5,599.2z"/>
					
						<linearGradient id="SVGID_64_" gradientUnits="userSpaceOnUse" x1="3294.4617" y1="548.2101" x2="3332.7056" y2="575.3334" gradientTransform="matrix(-0.3833 -0.9236 0.9236 -0.3833 1138.0531 3788.2192)">
						<stop  offset="3.610000e-02" style="stop-color:#B0BEC5"/>
						<stop  offset="1" style="stop-color:#546E7A"/>
					</linearGradient>
					<path class="st79" d="M364.8,565.9c-0.4,1.6-1.5,2.8-0.3,3.9c3.8,3.7,20.2-3.1,20.6-5.4c0.3-1.2,0.5-2.6,0.3-3.8
						s-0.8-2.5-1.9-3.2c-1.6-1-3.8-0.4-5.6,0.3C373.1,559.5,366,561.1,364.8,565.9z"/>
					
						<linearGradient id="SVGID_65_" gradientUnits="userSpaceOnUse" x1="3149.3044" y1="837.252" x2="3174.3291" y2="854.9998" gradientTransform="matrix(-0.6365 -0.7713 0.7713 -0.6365 1744.2566 3504.8711)">
						<stop  offset="3.610000e-02" style="stop-color:#B0BEC5"/>
						<stop  offset="1" style="stop-color:#546E7A"/>
					</linearGradient>
					<path class="st80" d="M386.9,558.7c1-0.3,7.7-0.6,7.9-2.1c0.8-1.4-15.5-0.4-16.5,2.3C381.2,562.2,384.1,559.5,386.9,558.7z"/>
					
						<linearGradient id="SVGID_66_" gradientUnits="userSpaceOnUse" x1="3290.2056" y1="555.8304" x2="3328.4497" y2="582.9541" gradientTransform="matrix(-0.3833 -0.9236 0.9236 -0.3833 1138.0531 3788.2192)">
						<stop  offset="3.610000e-02" style="stop-color:#B0BEC5"/>
						<stop  offset="1" style="stop-color:#546E7A"/>
					</linearGradient>
					<path class="st81" d="M386.1,562.7c1.1,0.2,2.1,0.2,2.5,1.1c0.5,1.1-0.6,2.5,0.7,3.3c1.4-0.9,1.8-4.1,0.8-5.3
						c-1.8-2.1-9.8-4.7-11.8-2.6C379.5,563.5,383.3,562.2,386.1,562.7z"/>
					
						<linearGradient id="SVGID_67_" gradientUnits="userSpaceOnUse" x1="3266.9502" y1="623.7289" x2="3305.1943" y2="650.8524" gradientTransform="matrix(-0.4471 -0.8945 0.8945 -0.4471 1288.8445 3736.6025)">
						<stop  offset="3.610000e-02" style="stop-color:#B0BEC5"/>
						<stop  offset="1" style="stop-color:#546E7A"/>
					</linearGradient>
					<path class="st82" d="M383.4,564.9c1.1-0.1,2.1-0.4,2.7,0.4c0.7,0.9,0,2.6,1.5,3c1-1.3,0.7-4.5-0.6-5.4
						c-2.3-1.6-10.6-2.1-12.1,0.4C377.1,567.2,380.5,565,383.4,564.9z"/>
					
						<linearGradient id="SVGID_68_" gradientUnits="userSpaceOnUse" x1="3291.4875" y1="554.0231" x2="3329.7317" y2="581.1464" gradientTransform="matrix(-0.3833 -0.9236 0.9236 -0.3833 1138.0531 3788.2192)">
						<stop  offset="3.610000e-02" style="stop-color:#B0BEC5"/>
						<stop  offset="1" style="stop-color:#546E7A"/>
					</linearGradient>
					<path class="st83" d="M382.5,566.7c0.7,0,1.5-0.1,1.9,0.5c0.4,0.7-0.2,1.9,0.9,2.3c0.9-0.9,0.8-3.3-0.1-4
						c-1.6-1.3-7.7-2.1-8.9-0.3C377.7,568.1,380.3,566.7,382.5,566.7z"/>
				</g>
			</g>
		</g>
	</g>
	<g>
		<g>
			
				<linearGradient id="SVGID_69_" gradientUnits="userSpaceOnUse" x1="2582.3923" y1="1012.2878" x2="2582.3923" y2="1031.7084" gradientTransform="matrix(-1 0 0 -1 2731.7078 1834)">
				<stop  offset="3.610000e-02" style="stop-color:#B0BEC5"/>
				<stop  offset="1" style="stop-color:#546E7A"/>
			</linearGradient>
			<polygon class="st84" points="140.5,806.9 146.3,849.1 155,847.8 158.1,807.1 			"/>
			<polygon class="st85" points="140,800.6 140.6,805.2 158.4,805.2 158.6,800.6 			"/>
			
				<linearGradient id="SVGID_70_" gradientUnits="userSpaceOnUse" x1="2571.4463" y1="1182.8456" x2="2571.4463" y2="1236.6436" gradientTransform="matrix(-1 0 0 -1 2731.7078 1834)">
				<stop  offset="1.140000e-02" style="stop-color:#937963"/>
				<stop  offset="1" style="stop-color:#4A392E"/>
			</linearGradient>
			<path class="st86" d="M137.3,783.2c-0.1,0.4-0.1,1-0.1,1.4c-0.4,2.2-0.3,4.6,0.9,7.5c-0.1,0.2-0.2,0.4-0.3,0.6
				c-0.1,0.1-0.3,0.3-0.5,0.5c0,0.3,0,0.5,0,0.8c0.1,1.2,0.7,2.4,1.9,3.4c0.1,0.3,0.2,0.6,0.2,0.9c0.2,1.4,0.3,2.3,0.3,2.3h18.6
				c0,0,0-1.1,0.1-2.9c0-0.2,0-0.5,0-0.8c0.5-0.7,1-1.3,1.3-1.8c0.4-0.5,0.6-1,0.7-1.6c0-0.7-0.3-1.2-0.7-1.8c0-0.3,0-0.6,0-0.9
				c1.9-3.2,1.8-4.6-0.6-8.4c0-0.3,0-0.6,0-0.9s0-0.6,0-0.9c0.1-0.4,0.1-0.9,0.1-1.3c0.7-17.4,4-35.1,7.3-51.8
				c1.7-8.6,3.1-17.2,4.7-25.8c2.5-14.2,16.9-48.1,17.2-51.7l1.1-30.6l-56.6,0.3c-1.3,0-1.9,15.6-1.9,16.8
				c-0.1,7.6,0.7,15.4,4.1,22.3c1.3,2.5,0.5,7.8,0.7,10.5c0.5,8.2,1,16.5,1.5,24.7c1.1,17.6,4.5,34.9,2.8,52.6
				c-0.8,8.8-5,18.2-3.8,27.1C136.3,773.7,137.6,783.2,137.3,783.2z"/>
			<g>
				<path class="st87" d="M176.8,869.8c-6.5-1.6-15.3-4.2-17.7-6c-3.5-2.7-2.3-7.2-2-11.3c0.3-3.4,1.2-7,1.9-10.5
					c-1.8,0.2-3.6,0.5-5.3,1c-0.7,1.5-1.2,2.9-1.3,3.9c-1.6,0.3-3.7,0.9-5.3,0.7c-2.3-0.3-2.8-1.6-4.7-2.2
					c-0.3,5.3,0.1,10.7-0.7,15.8c-0.3,1.9-1.6,4.4-2.4,6.6c8.9,8.1,24.6,0.5,35.9,5.3C175.8,871.9,175.3,870.1,176.8,869.8z"/>
				<path class="st88" d="M139.4,872.4c2.8,3.2,6.8,1.5,10.1,1c5.3-0.8,10.8,0.7,15.8,1.9c6.3,1.5,15.7,2.9,22,0.4
					c1.6-0.6,3.7-2.2,1.9-3.9c-0.7-0.7-4.5-0.4-5.6-0.6c-1.3-0.2-3.8-0.7-6.9-1.5c-1.4,0.5-0.8,2.2-1.5,3.4
					c-11.3-4.8-27,2.7-35.9-5.3C138.6,869.6,138.4,871.3,139.4,872.4z"/>
				<path class="st88" d="M144,862.5c-0.1,1.7,1.5,3.2,3.2,3.2c1.8,0,3.1-1.5,3.2-3.2s-1.5-3.2-3.2-3.2
					C145.4,859.3,144.1,860.7,144,862.5z"/>
			</g>
		</g>
		<g>
			
				<linearGradient id="SVGID_71_" gradientUnits="userSpaceOnUse" x1="3205.9185" y1="525.0483" x2="3205.9185" y2="544.4689" gradientTransform="matrix(-0.644 -0.765 0.765 -0.644 1800.0596 3586.5337)">
				<stop  offset="3.610000e-02" style="stop-color:#B0BEC5"/>
				<stop  offset="1" style="stop-color:#546E7A"/>
			</linearGradient>
			<polygon class="st89" points="142.8,779.6 114.2,811.2 120.8,817 153.9,793.2 			"/>
			<polygon class="st85" points="147.2,775.2 144.2,778.6 155.6,792.2 159.2,789.4 			"/>
			<g>
				<path class="st87" d="M118,847.8c-3-6.2-6.6-14.5-6.8-17.5c-0.2-4.4,4-6.4,7.3-8.8c2.8-2,6.2-3.6,9.3-5.3
					c-1.3-1.3-2.6-2.4-4.1-3.4c-1.6,0.4-3,0.9-3.8,1.5c-1.3-1-3.1-2.2-4-3.6c-1.2-1.9-0.5-3.2-1.3-5c-4.3,3.2-8.2,7.1-12.6,9.7
					c-1.7,1-4.4,1.5-6.6,2.4c-0.4,12,15.5,19.2,19.1,30.9C115.8,848.5,116.8,847,118,847.8z"/>
				<path class="st88" d="M91.9,821c-0.7,4.2,3.2,6.2,5.7,8.4c4,3.5,6.4,8.7,8.7,13.3c2.9,5.8,7.9,13.8,13.9,17.1
					c1.6,0.9,4.1,1.5,4.3-1c0.1-1-2.5-3.8-3.1-4.7c-0.7-1.1-1.9-3.5-3.3-6.3c-1.3-0.8-2.3,0.7-3.6,1c-3.6-11.8-19.5-18.9-19.1-30.9
					C93.6,818.6,92.1,819.5,91.9,821z"/>
				<path class="st88" d="M102.5,818c-1.4,1-1.5,3.2-0.4,4.5c1.1,1.4,3.1,1.5,4.5,0.4c1.4-1,1.5-3.2,0.4-4.5
					C105.9,817.1,103.9,817,102.5,818z"/>
			</g>
		</g>
		<g>
			<g>
				<g>
					
						<linearGradient id="SVGID_72_" gradientUnits="userSpaceOnUse" x1="2000.0375" y1="1273.3226" x2="2014.6951" y2="1275.5585" gradientTransform="matrix(-0.8758 0.4827 -0.4827 -0.8758 2593.8269 679.9354)">
						<stop  offset="3.610000e-02" style="stop-color:#B0BEC5"/>
						<stop  offset="1" style="stop-color:#546E7A"/>
					</linearGradient>
					<path class="st90" d="M214.9,528.6c1.8,3.5,3.3,7.1,4.5,10.8c10.1-5.9,17.5-10.3,17.5-10.3l-4-6.9L214.9,528.6z"/>
					<path class="st52" d="M233,528.5c-1.5-0.6-3-1.1-2.9-2.7c0.3-5.4,17.3-11.7,19.2-10.2c1.1,0.8,2.1,1.7,2.9,2.7s1.2,2.4,0.9,3.7
						c-0.5,1.9-2.5,3-4.4,3.7C243.9,527.6,236.7,530,233,528.5z"/>
					<path class="st52" d="M251.4,516c0.6-0.9,1.5-1.5,1.1-2.5c-0.4-1.1-2.3-1.4-1.8-2.9c1.7-0.2,4.2,1.9,4.3,3.5
						c0.1,2.8-4.1,10.2-7.1,10.1C245.9,520.3,249.6,518.5,251.4,516z"/>
					<path class="st52" d="M253.9,518.2c0.7-0.6,1.4-1,1.2-1.8c-0.1-0.9-1.5-1.4-1-2.5c1.3,0,3,1.9,2.9,3.2
						c-0.3,2.2-4.4,7.5-6.7,7.1C249.1,520.9,252.3,519.9,253.9,518.2z"/>
					<path class="st52" d="M247.9,516.5c0.8-0.7,1.8-1.2,1.7-2.2c-0.1-1.2-1.8-2-1-3.3c1.7,0.2,3.6,2.8,3.3,4.4
						c-0.5,2.8-6.5,9-9.3,8.1C241.5,519.1,245.6,518.4,247.9,516.5z"/>
					<path class="st52" d="M245.9,515.7c0.6-0.6,1.2-0.9,1.1-1.7c-0.1-0.9-1.4-1.4-0.9-2.4c1.3,0.1,2.9,1.9,2.7,3.1
						c-0.3,2-4.4,6.9-6.5,6.4C241.3,518,244.2,517.2,245.9,515.7z"/>
				</g>
			</g>
			<g>
				<g>
					
						<linearGradient id="SVGID_73_" gradientUnits="userSpaceOnUse" x1="2416.25" y1="1336.3551" x2="2425.3799" y2="1337.4731" gradientTransform="matrix(-0.999 4.490000e-02 -4.490000e-02 -0.999 2741.8411 1726.7002)">
						<stop  offset="3.610000e-02" style="stop-color:#FF5722"/>
						<stop  offset="1" style="stop-color:#FFAB91"/>
					</linearGradient>
					<path class="st91" d="M260.6,521.6l12.4-42.9c0.2-0.6-0.1-1.1-0.7-1.2l0,0l-13,45l0,0C259.9,522.6,260.5,522.2,260.6,521.6z"/>
					
						<linearGradient id="SVGID_74_" gradientUnits="userSpaceOnUse" x1="2438.5464" y1="1318.8512" x2="2430.1616" y2="1348.1044" gradientTransform="matrix(-0.999 4.490000e-02 -4.490000e-02 -0.999 2741.8411 1726.7002)">
						<stop  offset="3.610000e-02" style="stop-color:#FF5722"/>
						<stop  offset="1" style="stop-color:#FFAB91"/>
					</linearGradient>
					<polygon class="st92" points="272.4,477.5 243.8,472.5 230.7,517.5 259.3,522.5 					"/>
					<polygon class="st69" points="270.6,478.9 244.7,474.3 233.5,512.8 259.4,517.3 					"/>
				</g>
			</g>
			
				<linearGradient id="SVGID_75_" gradientUnits="userSpaceOnUse" x1="3193.071" y1="758.4189" x2="3199.6892" y2="747.9139" gradientTransform="matrix(0.3672 -0.9301 -0.9301 -0.3672 -232.3052 3767.7695)">
				<stop  offset="3.610000e-02" style="stop-color:#B0BEC5"/>
				<stop  offset="1" style="stop-color:#546E7A"/>
			</linearGradient>
			<path class="st93" d="M237.4,527.4c0.2-0.7,1-1.2,1.6-1.6c1.2-0.9,2.3-2,2.5-3.7c0.2-1.8-1.4-3.4-1.3-5.1c0-1.5,2.1-6.8-0.6-7
				c-3.2,10.5-6,6.2-6.6,11.7"/>
			
				<linearGradient id="SVGID_76_" gradientUnits="userSpaceOnUse" x1="2507.5249" y1="1290.45" x2="2552.2188" y2="1290.45" gradientTransform="matrix(-1 0 0 -1 2731.7078 1834)">
				<stop  offset="0" style="stop-color:#303F9F"/>
				<stop  offset="1" style="stop-color:#0C0A4A"/>
			</linearGradient>
			<path class="st94" d="M183.4,532.1c-2.6,9-4.2,19.3-3.7,29.3c0.3-0.1,0.5-0.2,0.7-0.2c4.5-0.9,9.9-1.5,14-3.5
				c1.8-0.9,4.2,0.4,5.5-0.8c0.6-0.6,0.2-1.9,1.1-2.6c1.2-0.9,1.5-0.2,2.6-0.3c1,0,0.9,0.9,2.1,0.1c1-0.6,0.5-2.2,1.1-3
				c2.2-2.7,12.1,0.6,9-6c2-1.1,8.4-4.9,8.5-6.1c0.1-3.1-2.6-12.5-5.7-13.3c-2.2,0.8-6,2-8.7,2.8c-1.7-5-5.4,2.2-7.3,2
				c-1.2-0.1-1.2-2.5-3.2-1.7c-1.2,0.4-1.4,2.4-2.8,2.9c-0.8-1.3-2.1-1.4-3.5-0.8c-0.6,0.3-1.2,1.7-2,1.7c-1.4,0-0.8-0.9-1.6-1.5
				c-1-0.7-0.2-1.2-1.7-1.2c-0.9-0.1-2.2,1-2.9,1.4C184.4,531.6,183.8,531.8,183.4,532.1z"/>
		</g>
		
			<linearGradient id="SVGID_77_" gradientUnits="userSpaceOnUse" x1="2549.2065" y1="1426.0051" x2="2567.5728" y2="1382.0698" gradientTransform="matrix(-1 0 0 -1 2731.7078 1834)">
			<stop  offset="6.280000e-02" style="stop-color:#4D3835"/>
			<stop  offset="1" style="stop-color:#0F0A09"/>
		</linearGradient>
		<path class="st95" d="M139.2,417.7c0-1-0.9-2-0.8-2.9c0.2-0.9,1.4-1.6,1.6-2.5s-0.7-2-0.4-2.9c0.3-0.9,1.6-1.4,1.9-2.3
			c0.4-0.9-0.3-2.2,0.1-3c0.4-0.9,1.8-1.2,2.2-2c0.5-0.8,0-2.1,0.5-2.9c0.5-0.7,1.9-0.9,2.5-1.6s0.3-2.1,0.9-2.8
			c0.6-0.7,2-0.6,2.7-1.3s0.6-2.1,1.3-2.7s2.1-0.3,2.8-0.9c0.7-0.6,0.8-2,1.6-2.5c0.7-0.5,2.1-0.1,2.9-0.5s1.2-1.8,2-2.2
			c0.9-0.4,2.1,0.2,3-0.1c0.9-0.3,1.4-1.6,2.3-1.9c0.8-0.2,2,0.6,2.9,0.4s1.6-1.5,2.5-1.6s2,0.9,2.9,0.8s1.8-1.2,2.7-1.2
			s1.8,1.1,2.7,1.2c1,0,2-0.9,2.9-0.8c0.9,0.2,1.6,1.4,2.5,1.6s2-0.7,2.9-0.4c0.9,0.3,1.4,1.6,2.3,1.9c0.9,0.4,2.2-0.3,3,0.1
			c0.9,0.4,1.2,1.8,2,2.2c0.8,0.5,2.1,0,2.9,0.5c0.7,0.5,0.9,1.9,1.6,2.5s2.1,0.3,2.8,0.9s0.6,2,1.3,2.7c0.7,0.7,2.1,0.6,2.7,1.3
			s0.3,2.1,0.9,2.8s2,0.8,2.5,1.6c0.5,0.7,0.1,2.1,0.5,2.9s1.8,1.2,2.2,2c0.4,0.9-0.2,2.1,0.1,3c0.3,0.9,1.6,1.4,1.9,2.3
			c0.2,0.8-0.6,2-0.4,2.9s1.5,1.6,1.6,2.5s-0.9,2-0.8,2.9s1.2,1.8,1.2,2.7c0,0.9-1.1,1.8-1.2,2.7c0,1,0.9,2,0.8,2.9
			c-0.2,0.9-1.4,1.6-1.6,2.5s0.7,2,0.4,2.9c-0.3,0.9-1.6,1.4-1.9,2.3c-0.4,0.9,0.3,2.2-0.1,3c-0.4,0.9-1.8,1.2-2.2,2
			c-0.5,0.8,0,2.1-0.5,2.9c-0.5,0.7-1.9,0.9-2.5,1.6s-0.3,2.1-0.9,2.8c-0.6,0.7-2,0.6-2.7,1.3s-0.6,2.1-1.3,2.7s-2.1,0.3-2.8,0.9
			c-0.7,0.6-0.8,2-1.6,2.5c-0.7,0.5-2.1,0.1-2.9,0.5s-1.2,1.8-2,2.2c-0.9,0.4-2.1-0.2-3,0.1c-0.9,0.3-1.4,1.6-2.3,1.9
			c-0.8,0.2-2-0.6-2.9-0.4s-1.6,1.5-2.5,1.6s-2-0.9-2.9-0.8s-1.8,1.2-2.7,1.2s-1.8-1.1-2.7-1.2c-1,0-2,0.9-2.9,0.8
			c-0.9-0.2-1.6-1.4-2.5-1.6s-2,0.7-2.9,0.4c-0.9-0.3-1.4-1.6-2.3-1.9c-0.9-0.4-2.2,0.3-3-0.1c-0.9-0.4-1.2-1.8-2-2.2
			c-0.8-0.5-2.1,0-2.9-0.5c-0.7-0.5-0.9-1.9-1.6-2.5s-2.1-0.3-2.8-0.9s-0.6-2-1.3-2.7c-0.7-0.7-2.1-0.6-2.7-1.3s-0.3-2.1-0.9-2.8
			s-2-0.8-2.5-1.6c-0.5-0.7-0.1-2.1-0.5-2.9s-1.8-1.2-2.2-2c-0.4-0.9,0.2-2.1-0.1-3c-0.3-0.9-1.6-1.4-1.9-2.3
			c-0.2-0.8,0.6-2,0.4-2.9s-1.5-1.6-1.6-2.5s0.9-2,0.8-2.9s-1.2-1.8-1.2-2.7C138,419.4,139.1,418.6,139.2,417.7z"/>
		
			<linearGradient id="SVGID_78_" gradientUnits="userSpaceOnUse" x1="2569.3279" y1="1344.8813" x2="2569.3279" y2="1214.173" gradientTransform="matrix(-1 0 0 -1 2731.7078 1834)">
			<stop  offset="3.610000e-02" style="stop-color:#D81B60"/>
			<stop  offset="1" style="stop-color:#AD1457"/>
		</linearGradient>
		<path class="st96" d="M197.1,512.7l-6.7,98.8c-0.6,5.3,3.6,8.9-1.4,10.8c-24,9.1-45.7,3.1-53.5,0.3c-1.5-0.5-2.9-0.9-4.4-1.3
			c-3.3-0.9,2.4-6,2.2-11.3l-6-103.8c2.8-22.1,23-40,45.1-40l0,0C190.4,484.7,199.3,495.8,197.1,512.7z"/>
		<g>
			
				<linearGradient id="SVGID_79_" gradientUnits="userSpaceOnUse" x1="2014.2051" y1="1361.2921" x2="2021.3677" y2="1378.4026" gradientTransform="matrix(1 0 0 -1 -1843.4895 1834)">
				<stop  offset="3.610000e-02" style="stop-color:#B0BEC5"/>
				<stop  offset="1" style="stop-color:#546E7A"/>
			</linearGradient>
			<path class="st97" d="M184.4,462.4l-2,17l0,0l0,0c-8.7,2.2-17.8-2.1-21.5-10.3l-0.1-0.2l3.9-16.5L184.4,462.4z"/>
			
				<linearGradient id="SVGID_80_" gradientUnits="userSpaceOnUse" x1="2553.9424" y1="1405.1628" x2="2553.9424" y2="1417.6495" gradientTransform="matrix(-1 0 0 -1 2731.7078 1834)">
				<stop  offset="3.610000e-02" style="stop-color:#B0BEC5"/>
				<stop  offset="1" style="stop-color:#546E7A"/>
			</linearGradient>
			<path class="st98" d="M197.3,462c-1.7,10.1-32.7-2-32.7-7.6v-3.7c0-1.3-1.1-2.4-2.4-2.5c-2.2-0.1-4-1.7-4-3.9v-2.9
				c0-2.1,1.6-3.8,3.7-3.8h0.1c2.1,0,3.8,1.6,3.9,3.7l0.1,2.7h2.1l1.8-11l2.4-2.8l0.1-1.7c0.4-4.6,4.3-8.1,8.9-8.1h9.5
				c3.5,0,6.3,2.8,6.3,6.2l0.2,33.2C197.3,460.5,197.3,461.3,197.3,462z"/>
		</g>
		<g>
			<g>
				<g>
					
						<linearGradient id="SVGID_81_" gradientUnits="userSpaceOnUse" x1="2435.7097" y1="1277.4836" x2="2450.6738" y2="1279.7664" gradientTransform="matrix(-0.9954 9.560000e-02 -9.560000e-02 -0.9954 2749.9309 1607.9316)">
						<stop  offset="3.610000e-02" style="stop-color:#B0BEC5"/>
						<stop  offset="1" style="stop-color:#546E7A"/>
					</linearGradient>
					<path class="st99" d="M192.1,562.6c0.2,4,0.2,8-0.2,11.9c11.8-1.4,20.6-2.6,20.6-2.6l-1-8.1L192.1,562.6z"/>
					<path class="st52" d="M209.1,569.8c-0.9-1.4-2.4-2.2-1.6-3.7c2.4-4.9,20.9-3.9,22.1-1.8c0.7,1.2,1.3,2.4,1.6,3.7
						s0.1,2.7-0.7,3.8c-1.2,1.6-3.6,1.7-5.6,1.7C219.6,573.3,212.1,574.2,209.1,569.8z"/>
					<path class="st52" d="M233.4,569.3c1.1-0.1,7.8-2.1,8.5-0.7c1.3,1.1-15.1,5.9-17,3.5C226.6,567.8,230.5,569.5,233.4,569.3z"/>
					<path class="st52" d="M231.3,565.6c1-0.5,2-0.8,2.1-1.9c0.1-1.2-1.5-2.3-0.5-3.5c1.6,0.5,3.2,3.4,2.6,5c-1,2.7-8,7.9-10.7,6.6
						C224.5,567.2,228.7,567.1,231.3,565.6z"/>
					<path class="st52" d="M227.9,564.5c1.1-0.4,2.2-0.4,2.5-1.4c0.4-1.2-0.9-2.6,0.4-3.5c1.5,0.9,2.3,4.1,1.3,5.5
						c-1.6,2.4-9.7,5.7-12,3.8C220.9,564.4,225,565.4,227.9,564.5z"/>
					<path class="st52" d="M226.3,562.9c0.8-0.3,1.6-0.3,1.8-1.1c0.2-0.9-0.8-1.9,0.1-2.6c1.2,0.6,1.9,3,1.3,4
						c-1.1,1.8-6.9,4.7-8.7,3.4C221.1,563.2,224.2,563.7,226.3,562.9z"/>
				</g>
				
					<linearGradient id="SVGID_82_" gradientUnits="userSpaceOnUse" x1="2313.8003" y1="-779.9631" x2="2319.48" y2="-788.9783" gradientTransform="matrix(0.9791 -0.2035 0.2035 0.9791 -1884.6841 1804.8282)">
					<stop  offset="3.610000e-02" style="stop-color:#B0BEC5"/>
					<stop  offset="1" style="stop-color:#546E7A"/>
				</linearGradient>
				<path class="st100" d="M214,567.6c0.7-0.2,1.3-0.9,1.8-1.4c1.2-1.1,2.5-2,4.2-1.9c1.8,0.1,3.2,2,4.9,2.2
					c1.5,0.2,7.2-0.9,6.9,1.8c-2,0.5-11.1,0.8-10.7,3.7"/>
			</g>
			<path class="st87" d="M142.6,578.8c4.5,0.9,9.8,2.6,14.5,2.4c2.1-0.1,3.8,2.1,5.5,1.5c0.8-0.3,0.9-1.7,2.1-2
				c1.6-0.4,1.6,0.3,2.6,0.7c0.9,0.3,0.5,1.2,1.9,0.9c1.2-0.2,1.3-1.9,2.2-2.4c3.2-1.6,11.2,5.5,10.9-1.9c2.4-0.2,10-1.2,10.5-2.3
				c1.4-2.9,2.7-12.8,0.1-14.8c-2.4-0.1-6.4-0.5-9.3-0.9c0.4-5.3-5.9-0.1-7.6-1c-1-0.6-0.1-2.8-2.3-2.9c-1.3-0.1-2.3,1.7-3.8,1.6
				c-0.3-1.6-1.5-2.2-3-2.2c-0.8,0-1.8,1.1-2.6,0.8c-1.3-0.5-0.4-1.1-0.9-2c-0.6-1.1,0.3-1.2-1.1-1.8c-0.8-0.3-2.5,0.1-3.3,0.2
				c-2.3,0.1-4.3-0.3-3.2-3c0.7-1.9,2.8-2,2.3-4.4c-0.4-1.6-2.4-2.4-1.2-4.7c1.1-2.1,2.4-1.5,1.6-4.2c-0.4-1.4-1.2-2.2-1.3-3.9
				c-0.1-1.3-0.1-2.8-0.1-4.4c0.1,0,0.2,0,0.3,0c1.9-8.2,2-16.6,4.2-24.7c1.3-4.8,1.5-10.1-0.2-14.8c-3-8.3-11.4-12.3-19.8-9.9
				c-9.1,2.6-12,17.6-13.6,25.3c-2.8,13.5-4.6,27.7-3.7,41.4c0.5,8.6,2.5,17.2,1.8,25.9c0,0.7,0.1,1.3,0.4,1.8
				C128.7,577,139.1,577.9,142.6,578.8z"/>
		</g>
		
			<linearGradient id="SVGID_83_" gradientUnits="userSpaceOnUse" x1="2541.8206" y1="1062.8604" x2="2567.2693" y2="1147.8499" gradientTransform="matrix(-1 0 0 -1 2731.7078 1834)">
			<stop  offset="1.140000e-02" style="stop-color:#937963"/>
			<stop  offset="1" style="stop-color:#4A392E"/>
		</linearGradient>
		<path class="st101" d="M147.3,775.2l12,14.2c0,0,0.8-0.7,2.3-1.8c0.2-0.2,0.5-0.3,0.7-0.5c0.8-0.1,1.6-0.1,2.2-0.2
			c0.7-0.1,1.2-0.2,1.7-0.5c0.5-0.5,0.7-1.1,0.9-1.7c0.2-0.2,0.5-0.4,0.7-0.6c3.5-0.6,4.6-1.5,5.8-5.1c0.3-0.4,0.7-1,1-1.4
			c0.2-0.2,0.4-0.4,0.7-0.6c0.3-0.3,0.7-0.5,1-0.8c7.3-5.7,15.2-10.9,23.2-15.7l16.2-7.9v-15.5l-26.6-114.8c0,0-0.8,16-2.1,26
			c-0.6,4.7-2.4,8.3-4.2,10.7c-3,4.1-5.2,8.7-6.1,13.7l-4.3,23.7l6.6,14l9.4,30.3c-7.3,4.9-16.9,7.8-22.8,14.3l-6.4,7.1
			c-0.3,0.3-0.8,0.7-1.1,0.9c-2,1.1-3.7,2.7-5.2,5.5c-0.2,0.1-0.5,0.2-0.7,0.2c-0.3,0-0.5,0-0.8-0.1c-0.2,0.2-0.4,0.3-0.6,0.5
			c-0.9,0.9-1.4,2.1-1.4,3.7c-0.2,0.3-0.4,0.5-0.6,0.7C147.8,774.5,147.2,775.2,147.3,775.2z"/>
	</g>
	<g>
		<g>
			
				<linearGradient id="SVGID_84_" gradientUnits="userSpaceOnUse" x1="2219.2163" y1="981.2483" x2="2174.7993" y2="1126.5181" gradientTransform="matrix(-1 0 0 -1 2731.7078 1834)">
				<stop  offset="0" style="stop-color:#0D47A1"/>
				<stop  offset="1" style="stop-color:#072759"/>
			</linearGradient>
			<path class="st102" d="M593,688.2l-63.1,95.3l0.6,14.4c0.4,10.3-0.9,20.6-3.9,30.5c0,0-6.1,16-11.3,29.5
				c-0.1,0.2-0.1,0.3-0.2,0.5c-1.9,1.5,0.2,3.6-1.1,5c0,0.5,0,1,0,1.4c-0.1,1.7-0.7,3-2.8,4c-0.1,0.1-0.1,0.3-0.2,0.4
				c0.2,1.1,0.2,2.2,1.2,3.2c1,3.1-3.2,2.1-3.8,3.5c-0.1,0.2-0.1,0.3-0.1,0.3l-9.3-0.9c0,0,0,0,0.1-1.6c0-0.1,0-0.3,0-0.4
				c-1.3-2.7-0.6-4.7,0.4-6.7c0.1-0.2,0.2-0.4,0.3-0.6c-0.4-1-0.6-1.8-0.7-2.6c0-0.2,0-0.4,0-0.6c3.8-2.8,0.7-4.9,1.5-9.3
				c0.1-0.2,0.2-0.4,0.3-0.6c0-0.2,0-0.3,0-0.5c2.8-31.9,7.4-84.8,7.4-84.8L546.7,665L593,688.2z"/>
			<path class="st18" d="M473.5,890.5c-1.3,2.5,12.4,2.5,15.2,2.2c4.3-0.5,5.2-2.9,9.5-2.2c3.9,0.6,9.7,0.5,11.3-1.3
				c1.4-1.6-0.4-8.4-1.3-11.9c-3.4-0.4-6.9-0.7-10.3-1.1c0,0.2-0.1,0.4-0.2,0.6c-0.7,1.8-7,5.4-14.4,10.5
				C483.2,887.4,474.4,889,473.5,890.5z"/>
		</g>
		<g>
			<path class="st26" d="M535.9,716.1c0,1,0.9,1.9,2,1.9h32.2v60.9h4.1V718h28.1c1.1,0,2-0.9,2-1.9s-0.9-1.9-2-1.9h-30.2l0,0l0,0
				h-34.3C536.6,714.2,535.7,715,535.9,716.1z"/>
			<rect x="567.8" y="780.5" class="st26" width="8.4" height="6.3"/>
			<path class="st26" d="M545.7,849.3L545.7,849.3c0,0.9,0.7,1.6,1.6,1.6h20.5v32h8.4v-32h20.5c0.9,0,1.6-0.7,1.6-1.6l0,0
				c0-0.9-0.7-1.6-1.6-1.6h-20.5v-59.2h-8.4v59.2h-20.5C546.4,847.7,545.7,848.4,545.7,849.3z"/>
			<polygon class="st26" points="567.8,884.7 541,890.2 603.1,890.2 576.2,884.7 			"/>
			<path class="st71" d="M529.7,709.3v-13.6c0-2.7,2.2-4.9,4.9-4.9H606c2.7,0,4.9,2.2,4.9,4.9v13.6c0,2.7-2.2,4.9-4.9,4.9h-71.4
				C531.9,714.2,529.8,712,529.7,709.3z"/>
		</g>
		<g>
			<g>
				
					<linearGradient id="SVGID_85_" gradientUnits="userSpaceOnUse" x1="1453.0538" y1="995.1373" x2="1434.3771" y2="931.4982" gradientTransform="matrix(-0.6687 0.7435 -0.7435 -0.6687 2224.9819 203.552)">
					<stop  offset="3.610000e-02" style="stop-color:#B0BEC5"/>
					<stop  offset="1" style="stop-color:#546E7A"/>
				</linearGradient>
				<polygon class="st103" points="550.5,634.4 491.2,630.5 491,623.4 546.5,611.6 				"/>
				
					<linearGradient id="SVGID_86_" gradientUnits="userSpaceOnUse" x1="1468.4677" y1="990.6136" x2="1449.7909" y2="926.9744" gradientTransform="matrix(-0.6687 0.7435 -0.7435 -0.6687 2224.9819 203.552)">
					<stop  offset="3.610000e-02" style="stop-color:#B0BEC5"/>
					<stop  offset="1" style="stop-color:#546E7A"/>
				</linearGradient>
				<path class="st104" d="M492.1,627.1c-0.1,1.4,0.4,2.8-0.9,3.4c-4.4,2-16.4-8.8-16-10.9c0.2-1.2,0.4-2.4,0.9-3.4
					c0.6-1,1.5-1.9,2.6-2.2c1.8-0.4,3.4,0.8,4.8,1.9C487,618.9,492.6,622.5,492.1,627.1z"/>
				
					<linearGradient id="SVGID_87_" gradientUnits="userSpaceOnUse" x1="1468.4186" y1="990.6279" x2="1449.7397" y2="926.9822" gradientTransform="matrix(-0.6687 0.7435 -0.7435 -0.6687 2224.9819 203.552)">
					<stop  offset="3.610000e-02" style="stop-color:#B0BEC5"/>
					<stop  offset="1" style="stop-color:#546E7A"/>
				</linearGradient>
				<path class="st105" d="M473.7,618c-1,0.3-1.9,0.3-2.2,1.2c-0.4,1,0.7,2.2-0.4,3c-1.3-0.8-1.9-3.6-1.1-4.8
					c1.5-2,8.5-4.9,10.5-3.2C479.8,618.1,476.2,617.3,473.7,618z"/>
				
					<linearGradient id="SVGID_88_" gradientUnits="userSpaceOnUse" x1="1470.3922" y1="990.0488" x2="1451.7155" y2="926.4097" gradientTransform="matrix(-0.6687 0.7435 -0.7435 -0.6687 2224.9819 203.552)">
					<stop  offset="3.610000e-02" style="stop-color:#B0BEC5"/>
					<stop  offset="1" style="stop-color:#546E7A"/>
				</linearGradient>
				<path class="st106" d="M475.2,621c-1,0.3-1.9,0.3-2.2,1.2c-0.4,1,0.7,2.2-0.4,3c-1.3-0.8-1.9-3.6-1.1-4.8
					c1.5-2,8.5-4.9,10.5-3.2C481.3,621.2,477.7,620.3,475.2,621z"/>
				
					<linearGradient id="SVGID_89_" gradientUnits="userSpaceOnUse" x1="1471.9711" y1="989.5853" x2="1453.2944" y2="925.9462" gradientTransform="matrix(-0.6687 0.7435 -0.7435 -0.6687 2224.9819 203.552)">
					<stop  offset="3.610000e-02" style="stop-color:#B0BEC5"/>
					<stop  offset="1" style="stop-color:#546E7A"/>
				</linearGradient>
				<path class="st107" d="M476.4,623.4c-1,0.3-1.9,0.3-2.2,1.2c-0.4,1,0.7,2.2-0.4,3c-1.3-0.8-1.9-3.6-1.1-4.8
					c1.5-2,8.5-4.9,10.5-3.2C482.4,623.6,478.9,622.7,476.4,623.4z"/>
				
					<linearGradient id="SVGID_90_" gradientUnits="userSpaceOnUse" x1="1472.8951" y1="989.3142" x2="1454.2184" y2="925.6751" gradientTransform="matrix(-0.6687 0.7435 -0.7435 -0.6687 2224.9819 203.552)">
					<stop  offset="3.610000e-02" style="stop-color:#B0BEC5"/>
					<stop  offset="1" style="stop-color:#546E7A"/>
				</linearGradient>
				<path class="st108" d="M477.5,624.8c-0.7,0.2-1.4,0.2-1.6,0.9c-0.3,0.7,0.5,1.6-0.3,2.2c-0.9-0.5-1.4-2.6-0.8-3.5
					c1.1-1.5,6.3-3.7,7.8-2.4C482.1,624.9,479.4,624.3,477.5,624.8z"/>
			</g>
			
				<linearGradient id="SVGID_91_" gradientUnits="userSpaceOnUse" x1="2560.6113" y1="1117.6685" x2="2566.0586" y2="1109.0217" gradientTransform="matrix(-0.9464 -0.3229 0.3229 -0.9464 2545.0718 2503.9653)">
				<stop  offset="3.610000e-02" style="stop-color:#B0BEC5"/>
				<stop  offset="1" style="stop-color:#546E7A"/>
			</linearGradient>
			<path class="st109" d="M487.9,625.6c-0.7-0.3-1.5,0-2.2,0.2c-1.5,0.3-3,0.5-4.4-0.5c-1.5-1-1.7-3.2-3-4.2
				c-1.2-0.9-6.4-2.7-4.9-4.8c2,0.6,9.7,4.8,10.7,2.2"/>
		</g>
		
			<linearGradient id="SVGID_92_" gradientUnits="userSpaceOnUse" x1="2187.4763" y1="1127.869" x2="2166.2056" y2="1335.3879" gradientTransform="matrix(-1 0 0 -1 2731.7078 1834)">
			<stop  offset="0" style="stop-color:#0D47A1"/>
			<stop  offset="1" style="stop-color:#072759"/>
		</linearGradient>
		<path class="st110" d="M481.4,741.3c-2.1,2.6-1.9,6.4,0.6,8.7c12.2,11.2,47.2,39.6,66.9,55.4c0.2,0.2,0.4,0.3,0.6,0.5
			c2.1,3.1,1,5.2,5.6,4.5c0.1,0.2,0.3,0.3,0.4,0.4c0.2,0.1,0.3,0.3,0.5,0.4c0.7,3,0.7,5.1,5.3,4.2c0.2,0.2,0.4,0.3,0.5,0.4
			c0.6,0.5,0.9,0.7,1,0.8c3.2-4.1,4.4-5.7,7.5-9.8c-0.7-0.8-1.5-1.7-2.2-2.6c-0.1-0.1-0.2-0.2-0.3-0.3c-1-0.6-0.7-2.6-1.2-4
			c-0.1-0.2-0.2-0.4-0.3-0.6c-2.3-2.6-6.4-2.6-7-6.3c-0.1-0.1-0.2-0.3-0.3-0.4c-15.2-20.1-31.2-44.9-32.5-51.1
			c-1.2-5.7,63.9-40.3,74.9-53.3c9.9-11.6,6.9-25.7,3.1-41.3l-53.6,1.7c1.2,7.9,1.2,10.9-4.2,16.4
			C540.7,671.1,500.2,718.9,481.4,741.3z"/>
		
			<linearGradient id="SVGID_93_" gradientUnits="userSpaceOnUse" x1="2030.2513" y1="1278.5978" x2="2012.3455" y2="1217.5856" gradientTransform="matrix(-1 0 -0.1279 -1 2752.7952 1834)">
			<stop  offset="3.610000e-02" style="stop-color:#FFC400"/>
			<stop  offset="1" style="stop-color:#FFAB00"/>
		</linearGradient>
		<path class="st111" d="M543,569l6.4,77.1c0.6,5.4-3.8,12.5,1.6,12.5c0,0,38.9,15.2,53.2,2.6c4.5-4,2.9-10.3,3.2-16.3l6.3-82.4
			c-2.9-22.4-23.3-40.5-45.7-40.5l0,0C550.9,522,540.8,552,543,569z"/>
		<g>
			
				<linearGradient id="SVGID_94_" gradientUnits="userSpaceOnUse" x1="2165.0754" y1="1296.1475" x2="2165.415" y2="1329.7504" gradientTransform="matrix(-1 0 0 -1 2731.7078 1834)">
				<stop  offset="3.610000e-02" style="stop-color:#B0BEC5"/>
				<stop  offset="1" style="stop-color:#546E7A"/>
			</linearGradient>
			<polygon class="st112" points="554.5,518 555.8,536.3 559.7,538.8 578.4,524.7 574.5,507.9 			"/>
			
				<linearGradient id="SVGID_95_" gradientUnits="userSpaceOnUse" x1="2171.2344" y1="1366.8209" x2="2180.0596" y2="1343.4005" gradientTransform="matrix(-1 0 0 -1 2731.7078 1834)">
				<stop  offset="3.610000e-02" style="stop-color:#FF5252"/>
				<stop  offset="1" style="stop-color:#D50000"/>
			</linearGradient>
			<path class="st113" d="M536,477.6c1.5,0.8,3.6,0.9,3.8,3c0.3,3,1.7,5.8,2.2,8.8c0.1,0.5,0,1.2,0.3,1.6c0.1,0.1,0.1-12.3,1.5-13.7
				c1.4-1.4,18.3-1.1,19.5,0.8c1.1,1.8,0.6,9.8,1.1,10.5c0.5,0.8,1.7,1,2.4,1.7c1.9,2.2,1.4,5.5,2,8.1c0.1,0.3,0.1,0.6,0.1,0.8
				c0.3,0.5,0.6,0.9,0.9,1.4c1.1,1.7,2.8,5.5,2.7,7.6c0.5-0.1,1.5-0.2,2.9-0.3c0.1-2.7,5.1-18.1,5.3-19.3c0.1-0.5,0.5-1.5,0.2-2
				c0.6-0.1,1.8-1.7,2.2-2.3c2.3-3.3,2.4-6.9,0.4-10.5c-1.9-3.5-6.1-6.3-10.1-6.4c-0.2,0-2.4,0.1-2.4,0.1
				c-0.9-9.5-13.2-11.7-18.9-5.8c0.4-0.4-4.2-2.6-4.8-2.8c-2-0.7-4.2-1-6.3-0.8c-5,0.4-9.7,3.6-10.5,8.8
				C529.9,471.3,531.9,476,536,477.6z"/>
			
				<linearGradient id="SVGID_96_" gradientUnits="userSpaceOnUse" x1="2173.4004" y1="1343.7972" x2="2179.5103" y2="1377.0608" gradientTransform="matrix(-1 0 0 -1 2731.7078 1834)">
				<stop  offset="3.610000e-02" style="stop-color:#B0BEC5"/>
				<stop  offset="1" style="stop-color:#546E7A"/>
			</linearGradient>
			<path class="st114" d="M541.6,517.5c1.6,10.3,33.1-2,33.1-7.7v-3.7c0-1.3,1.1-2.5,2.5-2.5c2.2,0,4-1.7,4-3.9v-2.8
				c0-2.1-1.7-3.9-3.8-4h-0.1c-2.2-0.1-3.9,1.7-4,3.9l-0.1,2.5H571l-1.9-11.1l-2.4-2.8l-0.9-9.9h-24.1l-0.3,39.9
				C541.4,516.2,541.4,517,541.6,517.5z"/>
			<path class="st115" d="M539,490.9v2.5c0,3.1,2.3,5.6,5.1,5.6h0.8c3.2,0,5.7-2.7,5.8-6.2v-1.1h1v1.8c0,3.1,2.5,5.6,5.6,5.6h0.9
				c3.5,0,6.3-2.7,6.4-6.2v-1.1h10.1c2.3,0,4.6,0.8,6.4,2.4l0.3,0.3c0.3,0.2,0.7,0.2,1-0.1c0.2-0.3,0.2-0.7-0.1-1l-0.3-0.3
				c-2-1.8-4.7-2.8-7.4-2.8h-10.2c-0.3-1.5-1.6-2.5-3.1-2.5h-6.5c-1.5,0-2.8,1.1-3.1,2.5h-1.1c-0.3-1.5-1.5-2.5-2.9-2.5h-5.9
				C540.2,487.8,538.8,489.3,539,490.9z M553,493.6l0.1-2.6c0-0.9,0.7-1.7,1.7-1.7h6.5c0.9,0,1.7,0.8,1.7,1.7l-0.1,1.9
				c0,2.7-2.2,4.8-4.9,4.8h-0.9C554.8,497.7,553,495.9,553,493.6L553,493.6z M540.3,493.6l-0.2-2.6c0-0.9,0.7-1.7,1.5-1.7h5.9
				c0.8,0,1.5,0.8,1.5,1.7v1.9c0,2.7-1.9,4.8-4.3,4.8h-0.8C541.9,497.7,540.3,495.9,540.3,493.6L540.3,493.6z"/>
		</g>
		<g>
			
				<rect x="509.3" y="542.5" transform="matrix(0.1388 -0.9903 0.9903 0.1388 -98.5311 973.7237)" class="st88" width="2.5" height="2"/>
			
				<rect x="498.4" y="532.3" transform="matrix(0.1388 -0.9903 0.9903 0.1388 -106.4622 961.5211)" class="st88" width="2.5" height="19.3"/>
			<path class="st88" d="M488.6,541.6c0.2,0.1,0.3,0.1,0.4,0.1l0.4,0.1l0.3-2.4l-0.4-0.1c-0.1,0-0.2,0-0.4,0L488.6,541.6z"/>
			<path class="st88" d="M488.4,539.3c-1.5,0-3.8,0.1-3.9,0.6c0,0.5,2.2,1.2,3.6,1.6L488.4,539.3z"/>
		</g>
		<path class="st116" d="M538.2,608.6c0.2,0.3,0.4,0.6,0.6,0.9c0.9,1.2,2.2,2,3.1,3.1c0.3,0.4,0.6,0.9,0.8,1.4
			c0.5,1.5,1.9,2.5,3.5,2.2l0,0c-0.1,2.1,0.6,5,2.7,4.9c0.5-0.1,0.9-0.3,1.4-0.4c4.9-1.4,8.2,5.3,13.1,6.6c3.3,0.9,6.9-1,9.1-3.7
			s9.9-13,11.3-16.2c2.4-5.4,5.7-10.5,9.6-15c0.6-0.7,1.2-1.4,1.5-2.3c0.3-1.1,0-2.3,0.5-3.4c1-2.3,4.7-2.6,5.1-5
			c0.2-1.5-1.1-2.8-1.3-4.3c-0.1-1,0.3-2,0.7-3c3.9-9.1,8.4-19,5.2-28.3c-0.8-2.4-2-4.3-3.6-6c-9.1-9.7-25.4-5.6-29.2,7.2
			c0,0.2-0.1,0.3-0.1,0.5c-1.4,5.2-3.1,10.3-5.6,15.1c-1.2,2.3-2.6,4.6-2.9,7.2c-0.1,0.9,0,1.8-0.5,2.5s-1.3,1.1-1.7,1.8
			c-0.4,0.9-4.8,13-5.9,13.3c-1.1,0.3-1.9,1.1-2.9,1.4c-1.3,0.4-2.7,0-3.9-0.7C547.1,592.7,539.4,604.2,538.2,608.6z"/>
		<g>
			
				<linearGradient id="SVGID_97_" gradientUnits="userSpaceOnUse" x1="2207.2664" y1="1262.1801" x2="2188.5896" y2="1198.5409" gradientTransform="matrix(-1 0 0 -1 2731.7078 1834)">
				<stop  offset="3.610000e-02" style="stop-color:#B0BEC5"/>
				<stop  offset="1" style="stop-color:#546E7A"/>
			</linearGradient>
			<polygon class="st117" points="538.9,609.6 502.1,562.9 507.3,558 549,588.4 			"/>
			
				<linearGradient id="SVGID_98_" gradientUnits="userSpaceOnUse" x1="2221.1318" y1="1258.1108" x2="2202.4551" y2="1194.4717" gradientTransform="matrix(-1 0 0 -1 2731.7078 1834)">
				<stop  offset="3.610000e-02" style="stop-color:#B0BEC5"/>
				<stop  offset="1" style="stop-color:#546E7A"/>
			</linearGradient>
			<path class="st118" d="M505.4,561.4c-1.2,0.9-1.9,2.2-3.2,1.6c-4.4-1.9-4.4-18.1-2.6-19.2c1-0.7,2-1.3,3.1-1.6
				c1.2-0.3,2.4-0.3,3.4,0.4c1.4,1,1.6,3,1.7,4.8C507.9,552,509,558.5,505.4,561.4z"/>
			
				<linearGradient id="SVGID_99_" gradientUnits="userSpaceOnUse" x1="2221.0637" y1="1258.1307" x2="2202.3872" y2="1194.4918" gradientTransform="matrix(-1 0 0 -1 2731.7078 1834)">
				<stop  offset="3.610000e-02" style="stop-color:#B0BEC5"/>
				<stop  offset="1" style="stop-color:#546E7A"/>
			</linearGradient>
			<path class="st119" d="M499.7,541.3c-0.8-0.5-1.4-1.2-2.3-0.8c-1,0.5-1.1,2.1-2.5,1.8c-0.3-1.4,1.4-3.8,2.8-4
				c2.5-0.2,9.3,3.1,9.4,5.7C503.7,546.1,501.9,542.9,499.7,541.3z"/>
			
				<linearGradient id="SVGID_100_" gradientUnits="userSpaceOnUse" x1="2223.0332" y1="1257.5529" x2="2204.3564" y2="1193.9137" gradientTransform="matrix(-1 0 0 -1 2731.7078 1834)">
				<stop  offset="3.610000e-02" style="stop-color:#B0BEC5"/>
				<stop  offset="1" style="stop-color:#546E7A"/>
			</linearGradient>
			<path class="st120" d="M498.5,544.5c-0.8-0.5-1.4-1.2-2.3-0.8c-1,0.5-1.1,2.1-2.5,1.8c-0.3-1.4,1.4-3.8,2.8-4
				c2.5-0.2,9.3,3.1,9.4,5.7C502.5,549.3,500.7,546.1,498.5,544.5z"/>
			
				<linearGradient id="SVGID_101_" gradientUnits="userSpaceOnUse" x1="2224.6946" y1="1257.0653" x2="2206.0181" y2="1193.4263" gradientTransform="matrix(-1 0 0 -1 2731.7078 1834)">
				<stop  offset="3.610000e-02" style="stop-color:#B0BEC5"/>
				<stop  offset="1" style="stop-color:#546E7A"/>
			</linearGradient>
			<path class="st121" d="M497.4,546.9c-0.8-0.5-1.4-1.2-2.3-0.8c-1,0.5-1.1,2.1-2.5,1.8c-0.3-1.4,1.4-3.8,2.8-4
				c2.5-0.2,9.3,3.1,9.4,5.7C501.4,551.7,499.6,548.5,497.4,546.9z"/>
			
				<linearGradient id="SVGID_102_" gradientUnits="userSpaceOnUse" x1="2225.5945" y1="1256.8011" x2="2206.9177" y2="1193.162" gradientTransform="matrix(-1 0 0 -1 2731.7078 1834)">
				<stop  offset="3.610000e-02" style="stop-color:#B0BEC5"/>
				<stop  offset="1" style="stop-color:#546E7A"/>
			</linearGradient>
			<path class="st122" d="M497.2,548.9c-0.6-0.4-1.1-0.9-1.7-0.6c-0.8,0.3-0.9,1.5-1.9,1.3c-0.2-1.1,1-2.9,2.1-3
				c1.9-0.2,7,2.3,7,4.2C500.1,552.4,498.8,550,497.2,548.9z"/>
		</g>
		<path class="st18" d="M551.3,846.6c2.4,2.1,15.6,0.4,17.6-1.3c2.3-1.9,2.8-6.6,4.3-9.4c2.3-4.3,4.9-8.5,7.4-12.7
			c1.2-2.1,2.2-7.2,1.6-9.8c-0.6-2.4-6.9-3.9-10.7-5.3c-2.6,2.9-5.1,5.9-7.7,8.8c0.1,0.2,0.3,0.4,0.4,0.6c1.2,1.8-0.7,12.8-4.1,16.2
			c-0.5,0.6-0.7,1.4-0.2,2.1c0,0.1,0.1,0.2,0.2,0.3c-0.8,0.5-1.6,1.1-1,2.1C557.7,839.6,548,843.6,551.3,846.6z"/>
	</g>
</g>
</svg>
