<?xml version="1.0" encoding="utf-8"?>
<!-- Generator: Adobe Illustrator 22.1.0, SVG Export Plug-In . SVG Version: 6.00 Build 0)  -->
<svg version="1.1" id="Layer_1" xmlns="http://www.w3.org/2000/svg" xmlns:xlink="http://www.w3.org/1999/xlink" x="0px" y="0px"
	 viewBox="0 0 1210.8 1106.1" style="enable-background:new 0 0 1210.8 1106.1;" xml:space="preserve">
<style type="text/css">
	.st0{fill:#F6F7FC;}
</style>
<g id="Layer_x0020_1">
	<path class="st0" d="M0,683.6L0,683.6c0-62.3,30.9-138.4,57.7-181.2c32.1-51.3,60.3-87,107-126.4c27.7-23.4,63.8-45.7,96.3-62
		c118.6-59.3,226.8-75.3,375.8-149.1c24.1-11.9,42.4-24.7,64.8-37.9c23-13.6,41-28.2,63.9-41.7C865,26.5,896.8,0,1033.1,0
		c111.1,0,149,56.2,177.7,63.9v764.2c-11,2.9-57,51.9-68.8,64.6c-5.5,6-5.9,8-11.1,13.9c-9.4,10.7-16.3,14.7-26.3,23.7
		c-116.9,104-285.1,175.7-449.2,175.7c-144.1,0-233.1-15.9-361-66.7c-74.8-29.7-171.1-90.6-220.6-154.4
		c-18.1-23.2-37.5-47.1-49.2-75.8C3.1,756.1,0,743.6,0,683.6L0,683.6z"/>
</g>
</svg>
