<?xml version="1.0" encoding="utf-8"?>
<!-- Generator: Adobe Illustrator 22.1.0, SVG Export Plug-In . SVG Version: 6.00 Build 0)  -->
<svg version="1.1" id="Layer_1" xmlns="http://www.w3.org/2000/svg" xmlns:xlink="http://www.w3.org/1999/xlink" x="0px" y="0px"
	 viewBox="0 0 1600 950" style="enable-background:new 0 0 1600 950;" xml:space="preserve">
<style type="text/css">
	.st0{opacity:0.5;fill:#E7E6F3;enable-background:new    ;}
	.st1{opacity:0.5;fill:#D0CDE6;enable-background:new    ;}
	.st2{opacity:0.5;fill:#FCE8E8;enable-background:new    ;}
	.st3{opacity:0.5;}
	.st4{clip-path:url(#SVGID_2_);fill:#DAF0FC;}
	.st5{clip-path:url(#SVGID_4_);fill:#C9EAF7;}
	.st6{fill:#58BA84;}
	.st7{fill:#3B9A66;}
	.st8{fill:#ECECF6;}
	.st9{fill:none;stroke:#E9EBF6;stroke-width:1.0016;stroke-linecap:round;stroke-linejoin:round;stroke-miterlimit:10;}
	.st10{fill:#E9EBF6;}
	.st11{fill:#FFFFFF;}
	.st12{fill:#7AC699;}
	.st13{fill:#4CB178;}
	.st14{fill:none;stroke:#051D32;stroke-width:0.5281;stroke-linecap:round;stroke-linejoin:round;stroke-miterlimit:10;}
	.st15{fill:#223972;}
	.st16{fill:url(#SVGID_5_);}
	.st17{fill:url(#SVGID_6_);}
	.st18{fill:#383838;}
	.st19{fill:url(#SVGID_7_);}
	.st20{fill:url(#SVGID_8_);}
	.st21{fill:url(#SVGID_9_);}
	.st22{fill:url(#SVGID_10_);}
	.st23{fill:url(#SVGID_11_);}
	.st24{fill:url(#SVGID_12_);}
	.st25{fill:url(#SVGID_13_);}
	.st26{fill:url(#SVGID_14_);}
	.st27{fill:url(#SVGID_15_);}
	.st28{fill:url(#SVGID_16_);}
	.st29{fill:url(#SVGID_17_);}
	.st30{fill:url(#SVGID_18_);}
	.st31{fill:url(#SVGID_19_);}
	.st32{fill:url(#SVGID_20_);}
	.st33{fill:url(#SVGID_21_);}
	.st34{fill:url(#SVGID_22_);}
	.st35{fill:url(#SVGID_23_);}
	.st36{fill:url(#SVGID_24_);}
	.st37{fill:url(#SVGID_25_);}
	.st38{fill:url(#SVGID_26_);}
	.st39{fill:url(#SVGID_27_);}
	.st40{fill:url(#SVGID_28_);}
	.st41{fill:url(#SVGID_29_);}
	.st42{fill:url(#SVGID_30_);}
	.st43{fill:url(#SVGID_31_);}
	.st44{fill:url(#SVGID_32_);}
	.st45{fill:url(#SVGID_33_);}
	.st46{fill:url(#SVGID_34_);}
	.st47{fill:url(#SVGID_35_);}
	.st48{fill:url(#SVGID_36_);}
	.st49{fill:url(#SVGID_37_);}
	.st50{fill:url(#SVGID_38_);}
	.st51{fill:url(#SVGID_39_);}
	.st52{fill:url(#SVGID_40_);}
	.st53{fill:url(#SVGID_41_);}
	.st54{fill:url(#SVGID_42_);}
	.st55{fill:url(#SVGID_43_);}
	.st56{fill:url(#SVGID_44_);}
	.st57{fill:url(#SVGID_45_);}
	.st58{fill:url(#SVGID_46_);}
	.st59{fill:url(#SVGID_47_);}
	.st60{fill:url(#SVGID_48_);}
	.st61{fill:url(#SVGID_49_);}
	.st62{fill:url(#SVGID_50_);}
	.st63{fill:url(#SVGID_51_);}
	.st64{fill:url(#SVGID_52_);}
	.st65{fill:url(#SVGID_53_);}
	.st66{fill:url(#SVGID_54_);}
	.st67{fill:url(#SVGID_55_);}
	.st68{fill:url(#SVGID_56_);}
	.st69{fill:url(#SVGID_57_);}
	.st70{fill:url(#SVGID_58_);}
	.st71{fill:url(#SVGID_59_);}
	.st72{fill:url(#SVGID_60_);}
	.st73{opacity:0.75;fill:url(#SVGID_61_);enable-background:new    ;}
	.st74{fill:url(#SVGID_62_);}
	.st75{fill:url(#SVGID_63_);}
	.st76{fill:url(#SVGID_64_);}
	.st77{fill:url(#SVGID_65_);}
	.st78{opacity:0.3;fill:#008CA6;enable-background:new    ;}
	.st79{opacity:0.4;fill:none;stroke:#008CA6;stroke-width:0.5564;stroke-miterlimit:10;enable-background:new    ;}
	.st80{fill:none;stroke:#F9FAFB;stroke-width:0.5564;stroke-miterlimit:10;}
	.st81{opacity:0.2;fill:#005078;enable-background:new    ;}
	.st82{fill:#9D9C97;}
	.st83{fill:#D6D4CA;}
	.st84{fill:url(#SVGID_66_);}
	.st85{fill:url(#SVGID_67_);}
	.st86{fill:url(#SVGID_68_);}
	.st87{fill:#008CA6;}
	.st88{fill:url(#SVGID_69_);}
	.st89{fill:url(#SVGID_70_);}
	.st90{fill:url(#SVGID_71_);}
	.st91{fill:url(#SVGID_72_);}
	.st92{fill:#F9FAFB;}
	.st93{fill:url(#SVGID_73_);}
	.st94{fill:url(#SVGID_74_);}
	.st95{fill:url(#SVGID_75_);}
	.st96{fill:url(#SVGID_76_);}
	.st97{fill:url(#SVGID_77_);}
	.st98{fill:url(#SVGID_78_);}
	.st99{fill:url(#SVGID_79_);}
	.st100{fill:url(#SVGID_80_);}
	.st101{fill:#CBC9C2;}
	.st102{opacity:0.32;fill:url(#SVGID_81_);enable-background:new    ;}
	.st103{fill:#A6ACC8;}
	.st104{fill:#707A9A;}
	.st105{fill:#C4C9DD;}
	.st106{fill:#97A0BF;}
	.st107{fill:#EDEAD3;}
	.st108{fill:#F3795A;}
	.st109{fill:url(#SVGID_82_);}
	.st110{fill:#172B54;}
	.st111{fill:none;stroke:#94988D;stroke-width:1.015;stroke-linecap:round;stroke-miterlimit:10;}
	.st112{fill:#61ADBB;}
	.st113{fill:#7BC6D4;}
	.st114{fill:#5F5051;}
	.st115{fill:#EEEAE8;}
	.st116{fill:#AFBDC4;}
	.st117{fill:#94988D;}
</style>
<path class="st0" d="M1210.8,894.6c1.4-0.1,2.6-0.2,3.9-0.3c12.5-19.3,26.8-37.7,40.9-56c45.7-59.2,88.8-115.1,69-193.3
	c-22-86.8-84.3-139.2-144.6-189.9c-66.1-55.6-128.5-108.1-136.5-201.3c-7-81.9,32.3-171.3,111.1-253.8h-4.3
	c-77.9,82.4-116.8,171.9-109.9,254.1c8,94.5,71,147.4,137.5,203.4c59.9,50.4,121.8,102.4,143.6,188.2c19.4,76.8-23.3,132-68.5,190.7
	C1238.4,855.3,1223.7,874.4,1210.8,894.6z"/>
<path class="st1" d="M1392.7,0c-51.2,82.5-110.8,163.5-178.5,241.7C1084.3,391.5,937.5,514.3,789.8,597
	c-123.4,68.8-238,104.3-335.7,104.3c-21.2,0-41.7-1.7-61.2-5C242.4,670.4,84.4,529.8,25.4,369.2C-25.5,231,18.6,113,69.6,0h-2.8
	c-51,113.2-94.9,231.3-43.9,370c28.5,77.6,81.4,153.6,148.6,214c68.1,61.2,146.6,101.9,220.9,114.7c19.7,3.4,40.3,5.1,61.7,5.1
	c98.2,0,213.3-35.6,337-104.7c148.1-82.7,295.2-205.8,425.2-355.7c67.1-77.4,127.1-159.2,179-243.4L1392.7,0L1392.7,0z"/>
<path class="st2" d="M298.9,0h-4.2c-22.3,34.4-42.6,76-57.7,125.9l1.7,0.5l1.7,0.5C255.7,76.4,276.2,34.5,298.9,0z"/>
<path class="st2" d="M1564.5,295.1c-13.9-78.6-87.9-160.9-171.9-191.2c-79.5-28.8-145.6,2-209.6,31.8
	c-63.3,29.4-123,57.2-189.6,23.4C923.8,123.6,888.6,61.8,856.5,0.1h-3.9c32.5,62.7,68,125.9,139.4,162.1
	c68,34.5,128.5,6.4,192.5-23.3c63.3-29.4,128.8-59.9,206.9-31.7c83,30,156,111.1,169.7,188.6c5,28.1,3.1,59.6-4.9,93.2
	c-24.6,103.5-107.4,226.8-227.9,332.4c-207.5,181.9-453.9,251.7-658.8,186.6c-148.6-47.2-281.9-166.7-365.6-328
	C224.4,427.2,200.6,257.8,240.3,127l-1.7-0.5l-1.7-0.5c-2.4,7.7-4.5,15.7-6.4,23.7c-30.4,127.9-4.9,287.3,70.2,432
	C385,743.8,519,863.9,668.5,911.4c206.1,65.4,453.7-4.6,662.2-187.4C1491.1,583.2,1585.1,410.9,1564.5,295.1z"/>
<g>
	<g class="st3">
		<g>
			<g>
				<defs>
					<path id="SVGID_1_" d="M1114.7,508.6c0,0-60.6,70.2-193,91.4C720,632.2,724.1,882.4,942.6,933.4s160.5-31.9,469.7-10.6
						s234.2-209.6,121.7-280.8c-116.3-73.7-7.2-205.1-179.8-233.2C1218.5,386.6,1114.7,508.6,1114.7,508.6z"/>
				</defs>
				<clipPath id="SVGID_2_">
					<use xlink:href="#SVGID_1_"  style="overflow:visible;"/>
				</clipPath>
				<path class="st4" d="M1620.7,854.3c35.1-68.7-19-169.5-86.8-212.4c-116.3-73.7-7.2-205.1-179.8-233.2
					c-135.7-22.2-239.5,99.8-239.5,99.8s-60.6,70.2-193,91.4c-146.1,23.3-184.2,160.9-111.3,254.5H1620.7z"/>
			</g>
			<g>
				<defs>
					<path id="SVGID_3_" d="M1114.7,508.6c0,0-60.6,70.2-193,91.4C720,632.2,724.1,882.4,942.6,933.4s160.5-31.9,469.7-10.6
						s234.2-209.6,121.7-280.8c-116.3-73.7-7.2-205.1-179.8-233.2C1218.5,386.6,1114.7,508.6,1114.7,508.6z"/>
				</defs>
				<clipPath id="SVGID_4_">
					<use xlink:href="#SVGID_3_"  style="overflow:visible;"/>
				</clipPath>
				<path class="st5" d="M1114.8,854.3c-174.4-120.7-112.9-364.9-112.9-364.9l-227.5,48.8l-40.9,82.3l23,233.8H1114.8z"/>
			</g>
		</g>
	</g>
	<g>
		<path class="st6" d="M830.2,808c-1.3,0.1-33.8-2.6-36.3-32.7s17.9-38.2,11.4-71.6s-21.2-42.5,10-68c0,0,13.9-10.3,14.1-24.2
			c0.2-16.6,28.1-36.8,47.7-26.4c19.5,10.4,15.6,27.6,0.1,55.8c-15.5,28.1,0.5,32.4,3.9,41.3c3.4,8.8,11.1,17.9-5,39.8
			c-16.1,21.9,4.8,47.2-8.8,68.1C867.4,790.1,855.4,805.7,830.2,808z"/>
		<g>
			<path class="st7" d="M836.8,854.1c0.7-0.2,1.1-0.9,1-1.6c-20.5-91.4,10.8-218,11.2-219.2c0.2-0.7-0.3-1.5-1-1.7
				c-0.7-0.2-1.5,0.3-1.7,1c-0.3,1.3-31.8,128.5-11.2,220.5C835.2,853.8,836,854.3,836.8,854.1C836.7,854.1,836.8,854.1,836.8,854.1
				z"/>
			<path class="st7" d="M836.9,689.5c0.1,0,0.2-0.1,0.2-0.1c0.7-0.3,1-1.2,0.6-1.9c-0.1-0.2-7.8-16.2-11.3-30
				c-0.2-0.7-0.9-1.2-1.7-1c-0.8,0.2-1.2,0.9-1,1.7c3.5,14,11.4,30.3,11.5,30.5C835.6,689.4,836.3,689.7,836.9,689.5z"/>
			<path class="st7" d="M832.6,727.1c0.2-0.1,0.4-0.2,0.5-0.3c6.7-5.9,23.6-17.2,23.8-17.4c0.6-0.4,0.8-1.3,0.4-1.9
				c-0.4-0.6-1.3-0.8-1.9-0.4c-0.7,0.5-17.3,11.5-24.1,17.5c-0.6,0.5-0.6,1.4-0.1,2C831.6,727.1,832.1,727.2,832.6,727.1z"/>
		</g>
	</g>
	<path class="st8" d="M885.5,384.8c0,0,9.2-10.6,14.9-15.5c10.2-8.7,21.9-24.2,59.2-12.8c2.9,0.9,5.7,2.1,8.5,3.2
		c3.3,1.4,13.5,1.5,23.9-6.9c16.6-13.2,23.1-23.1,45.9-23.4c26.5-0.4,30.7,32.6,51.3,41.1c13.1,5.4,47.6,10.7,54.8,13.1L885.5,384.8
		z"/>
	<path class="st9" d="M1332.9,319.5c0,0,4.7-5.4,7.6-7.9c5.2-4.5,11.2-12.4,30.3-6.6c1.5,0.5,2.9,1.1,4.3,1.7
		c1.7,0.7,6.9,0.7,12.3-3.5c8.5-6.8,11.8-11.9,23.4-12c13.5-0.2,15.7,16.7,26.2,21c6.7,2.7,24.3,5.5,28,6.7L1332.9,319.5z"/>
	<path class="st10" d="M1673.9,532c0,0-4.7-5.4-7.6-7.9c-5.2-4.5-11.2-12.4-30.3-6.6c-1.5,0.5-2.9,1.1-4.3,1.7
		c-1.7,0.7-6.9,0.7-12.3-3.5c-8.5-6.8-11.8-11.9-23.4-12c-13.5-0.2-15.7,16.7-26.2,21c-6.7,2.7-24.3,5.5-28,6.7L1673.9,532z"/>
	<g>
		<path class="st11" d="M1564.1,732.3l-1.4-3.8l-1.4,3.8c-1.2,3.2-3.8,6-7.4,7.6l0,0l0,0c3.6,1.7,6.4,4.4,7.4,7.6l1.4,3.8l1.4-3.8
			c1.2-3.2,3.8-6,7.4-7.6l0,0l0,0C1568.1,738.3,1565.3,735.6,1564.1,732.3z"/>
		<path class="st11" d="M915.9,645.9l-1.4-3.8l-1.4,3.8c-1.2,3.2-3.8,6-7.4,7.6l0,0l0,0c3.6,1.7,6.4,4.4,7.4,7.6l1.4,3.8l1.4-3.8
			c1.2-3.2,3.8-6,7.4-7.6l0,0l0,0C919.7,651.9,917,649.1,915.9,645.9z"/>
		<path class="st11" d="M1364.4,448.6l-2.3-6.5l-2.3,6.5c-1.9,5.5-6.5,10.1-12.5,12.8l0,0l0,0c6.2,2.7,10.7,7.4,12.5,12.8l2.3,6.5
			l2.3-6.5c1.9-5.5,6.5-10.1,12.5-12.8l0,0l0,0C1370.7,458.7,1366.2,454.1,1364.4,448.6z"/>
	</g>
	<g>
		<path class="st12" d="M914.7,817.6c-1.3,1-12.6-19.7-15.4-46c0,0-1.3-12.9,11-6.4c0,0-12.6-56.6,21.1-52.3
			c5.8,0.7,9.1,2.1,12.5,5.7c4.5,5,7.1,13,1.7,24.6c-10.7,23.1-20.2,32.2-15.6,44.4C934.8,799.9,933.3,803.4,914.7,817.6z"/>
		<path class="st13" d="M918.1,854.5c0.7-0.1,1.1-0.8,1-1.5c-7.8-38,3.4-102,4.8-104.9c0.4-0.6,0.3-1.3-0.3-1.7
			c-0.6-0.4-1.4-0.2-1.8,0.3c-2.4,3.2-12.7,69.9-5.2,106.7C916.8,854.2,917.4,854.6,918.1,854.5z"/>
	</g>
	<line class="st14" x1="781.4" y1="854.3" x2="1673.7" y2="854.3"/>
</g>
<g>
	<polygon class="st15" points="1271.3,383.8 1311.5,360.4 1312.7,361 1294.6,390.4 	"/>
	
		<linearGradient id="SVGID_5_" gradientUnits="userSpaceOnUse" x1="-787.7769" y1="543.5142" x2="-792.5117" y2="569.6802" gradientTransform="matrix(0.9966 -8.220000e-02 8.220000e-02 0.9966 2028.8134 -214.1801)">
		<stop  offset="0" style="stop-color:#CDD1D7"/>
		<stop  offset="0.3612" style="stop-color:#BEC2CC"/>
		<stop  offset="1" style="stop-color:#999FB2"/>
	</linearGradient>
	<path class="st16" d="M1186.6,380.7c-0.7-1.5-0.3-3.2,1-4.2c4.8-3.5,17.7-11,36.3-6.1c21.4,5.7,140.2,40.1,164.6,47.2
		c1.2,0.4,1.2,2.1-0.1,2.4c-8.4,1.9-28,5.2-54.4,3.7c-35.5-2-113.6-18.4-133.5-28.6C1192.5,391,1188.4,384.3,1186.6,380.7z"/>
	
		<linearGradient id="SVGID_6_" gradientUnits="userSpaceOnUse" x1="-787.3359" y1="540.9496" x2="-791.3063" y2="562.8917" gradientTransform="matrix(0.9966 -8.220000e-02 8.220000e-02 0.9966 2028.8134 -214.1801)">
		<stop  offset="0" style="stop-color:#CDD1D7"/>
		<stop  offset="0.3612" style="stop-color:#BEC2CC"/>
		<stop  offset="1" style="stop-color:#999FB2"/>
	</linearGradient>
	<path class="st17" d="M1222.1,376.5c14,3.2,122.7,34.1,158.6,44.9c3.1-0.5,5.7-1,7.5-1.5c1.3-0.3,1.3-2.1,0.1-2.4
		c-24.4-7.1-143.1-41.5-164.6-47.2c-18.6-4.9-31.5,2.5-36.3,6.1c-1.3,1-1.8,2.7-1,4.2c-0.9-2.5,3.8-1,11.1-2.7
		C1202.5,376.7,1214.7,374.7,1222.1,376.5z"/>
	<g>
		<path class="st18" d="M1199.4,372.4c-0.6-0.4-1.1-0.8-1.6-1.3c-1.2,0.4-2.7,1.1-2.7,1.1s0.7,0.7,1.8,1.5c0.4,0.3,0.9,0.3,1.2,0
			C1198.7,373.2,1199.1,372.7,1199.4,372.4z"/>
		<path class="st18" d="M1203.1,374.2c-0.5-0.2-1.8-0.6-3.1-1.4c-0.2,0.3-0.7,0.8-1.3,1.4c-0.3,0.2-0.3,0.7,0.1,0.9
			c1.6,1,3.5,2,5.5,2.2C1204.2,377.2,1204.6,374.7,1203.1,374.2z"/>
	</g>
	<g>
		<g>
			
				<linearGradient id="SVGID_7_" gradientUnits="userSpaceOnUse" x1="-706.6885" y1="937.9366" x2="-706.6885" y2="934.2249" gradientTransform="matrix(0.9613 0.2758 -0.2758 0.9613 2174.7761 -319.1042)">
				<stop  offset="0" style="stop-color:#CDD1D7"/>
				<stop  offset="0.3612" style="stop-color:#BEC2CC"/>
				<stop  offset="1" style="stop-color:#999FB2"/>
			</linearGradient>
			<path class="st19" d="M1237.8,388l-2.3-0.7c-0.1,0-0.2-0.1-0.1-0.3l1-3.3c0-0.1,0.1-0.2,0.3-0.1l2.3,0.7c0.1,0,0.2,0.1,0.1,0.3
				l-1,3.3C1238,388,1237.9,388,1237.8,388z"/>
			
				<linearGradient id="SVGID_8_" gradientUnits="userSpaceOnUse" x1="-706.7491" y1="937.7252" x2="-706.7491" y2="934.4474" gradientTransform="matrix(0.9613 0.2758 -0.2758 0.9613 2174.7761 -319.1042)">
				<stop  offset="0" style="stop-color:#999FB2"/>
				<stop  offset="0.6388" style="stop-color:#BEC2CC"/>
				<stop  offset="1" style="stop-color:#CDD1D7"/>
			</linearGradient>
			<path class="st20" d="M1237.7,387.7l-2-0.6c0-0.1-0.1-0.1-0.1-0.2l0.9-3c0.1,0,0.1-0.1,0.2-0.1l2,0.6c0,0.1,0.1,0.1,0.1,0.2
				l-0.9,3C1237.8,387.7,1237.7,387.7,1237.7,387.7z"/>
		</g>
		<g>
			
				<linearGradient id="SVGID_9_" gradientUnits="userSpaceOnUse" x1="-702.7167" y1="937.9366" x2="-702.7167" y2="934.2249" gradientTransform="matrix(0.9613 0.2758 -0.2758 0.9613 2174.7761 -319.1042)">
				<stop  offset="0" style="stop-color:#CDD1D7"/>
				<stop  offset="0.3612" style="stop-color:#BEC2CC"/>
				<stop  offset="1" style="stop-color:#999FB2"/>
			</linearGradient>
			<path class="st21" d="M1241.6,389.1l-2.3-0.7c-0.1,0-0.2-0.1-0.1-0.3l1-3.3c0-0.1,0.1-0.2,0.3-0.1l2.3,0.7c0.1,0,0.2,0.1,0.1,0.3
				l-1,3.3C1241.9,389.1,1241.8,389.2,1241.6,389.1z"/>
			
				<linearGradient id="SVGID_10_" gradientUnits="userSpaceOnUse" x1="-702.6561" y1="937.7224" x2="-702.6561" y2="934.4445" gradientTransform="matrix(0.9613 0.2758 -0.2758 0.9613 2174.7761 -319.1042)">
				<stop  offset="0" style="stop-color:#999FB2"/>
				<stop  offset="0.6388" style="stop-color:#BEC2CC"/>
				<stop  offset="1" style="stop-color:#CDD1D7"/>
			</linearGradient>
			<path class="st22" d="M1241.6,388.9l-2-0.6c0-0.1-0.1-0.1-0.1-0.2l0.9-3c0.1,0,0.1-0.1,0.2-0.1l2,0.6c0,0.1,0.1,0.1,0.1,0.2
				l-0.9,3C1241.6,388.8,1241.6,388.8,1241.6,388.9z"/>
		</g>
		<g>
			
				<linearGradient id="SVGID_11_" gradientUnits="userSpaceOnUse" x1="-698.6237" y1="937.9365" x2="-698.6237" y2="934.2249" gradientTransform="matrix(0.9613 0.2758 -0.2758 0.9613 2174.7761 -319.1042)">
				<stop  offset="0" style="stop-color:#CDD1D7"/>
				<stop  offset="0.3612" style="stop-color:#BEC2CC"/>
				<stop  offset="1" style="stop-color:#999FB2"/>
			</linearGradient>
			<path class="st23" d="M1245.6,390.2l-2.3-0.7c-0.1,0-0.2-0.1-0.1-0.3l1-3.3c0-0.1,0.1-0.2,0.3-0.1l2.3,0.7c0.1,0,0.2,0.1,0.1,0.3
				l-1,3.3C1245.9,390.2,1245.7,390.2,1245.6,390.2z"/>
			
				<linearGradient id="SVGID_12_" gradientUnits="userSpaceOnUse" x1="-698.6843" y1="937.7224" x2="-698.6843" y2="934.4445" gradientTransform="matrix(0.9613 0.2758 -0.2758 0.9613 2174.7761 -319.1042)">
				<stop  offset="0" style="stop-color:#999FB2"/>
				<stop  offset="0.6388" style="stop-color:#BEC2CC"/>
				<stop  offset="1" style="stop-color:#CDD1D7"/>
			</linearGradient>
			<path class="st24" d="M1245.5,389.9l-2-0.6c0-0.1-0.1-0.1-0.1-0.2l0.9-3c0.1,0,0.1-0.1,0.2-0.1l2,0.6c0,0.1,0.1,0.1,0.1,0.2
				l-0.9,3C1245.6,389.9,1245.6,389.9,1245.5,389.9z"/>
		</g>
		<g>
			
				<linearGradient id="SVGID_13_" gradientUnits="userSpaceOnUse" x1="-694.5577" y1="937.9365" x2="-694.5577" y2="934.2249" gradientTransform="matrix(0.9613 0.2758 -0.2758 0.9613 2174.7761 -319.1042)">
				<stop  offset="0" style="stop-color:#CDD1D7"/>
				<stop  offset="0.3612" style="stop-color:#BEC2CC"/>
				<stop  offset="1" style="stop-color:#999FB2"/>
			</linearGradient>
			<path class="st25" d="M1249.5,391.3l-2.3-0.7c-0.1,0-0.2-0.1-0.1-0.3l1-3.3c0-0.1,0.1-0.2,0.3-0.1l2.3,0.7c0.1,0,0.2,0.1,0.1,0.3
				l-1,3.3C1249.7,391.3,1249.6,391.4,1249.5,391.3z"/>
			
				<linearGradient id="SVGID_14_" gradientUnits="userSpaceOnUse" x1="-694.5913" y1="937.7224" x2="-694.5913" y2="934.4445" gradientTransform="matrix(0.9613 0.2758 -0.2758 0.9613 2174.7761 -319.1042)">
				<stop  offset="0" style="stop-color:#999FB2"/>
				<stop  offset="0.6388" style="stop-color:#BEC2CC"/>
				<stop  offset="1" style="stop-color:#CDD1D7"/>
			</linearGradient>
			<path class="st26" d="M1249.4,391.1l-2-0.6c0-0.1-0.1-0.1-0.1-0.2l0.9-3c0.1,0,0.1-0.1,0.2-0.1l2,0.6c0,0.1,0.1,0.1,0.1,0.2
				l-0.9,3C1249.5,391,1249.5,391,1249.4,391.1z"/>
		</g>
		<g>
			
				<linearGradient id="SVGID_15_" gradientUnits="userSpaceOnUse" x1="-690.4647" y1="937.9365" x2="-690.4647" y2="934.2247" gradientTransform="matrix(0.9613 0.2758 -0.2758 0.9613 2174.7761 -319.1042)">
				<stop  offset="0" style="stop-color:#CDD1D7"/>
				<stop  offset="0.3612" style="stop-color:#BEC2CC"/>
				<stop  offset="1" style="stop-color:#999FB2"/>
			</linearGradient>
			<path class="st27" d="M1253.4,392.5l-2.3-0.7c-0.1,0-0.2-0.1-0.1-0.3l1-3.3c0-0.1,0.1-0.2,0.3-0.1l2.3,0.7c0.1,0,0.2,0.1,0.1,0.3
				l-1,3.3C1253.6,392.4,1253.5,392.5,1253.4,392.5z"/>
			
				<linearGradient id="SVGID_16_" gradientUnits="userSpaceOnUse" x1="-690.5253" y1="937.7224" x2="-690.5253" y2="934.4445" gradientTransform="matrix(0.9613 0.2758 -0.2758 0.9613 2174.7761 -319.1042)">
				<stop  offset="0" style="stop-color:#999FB2"/>
				<stop  offset="0.6388" style="stop-color:#BEC2CC"/>
				<stop  offset="1" style="stop-color:#CDD1D7"/>
			</linearGradient>
			<path class="st28" d="M1253.3,392.2l-2-0.6c0-0.1-0.1-0.1-0.1-0.2l0.9-3c0.1,0,0.1-0.1,0.2-0.1l2,0.6c0,0.1,0.1,0.1,0.1,0.2
				l-0.9,3C1253.4,392.2,1253.4,392.2,1253.3,392.2z"/>
		</g>
		<g>
			
				<linearGradient id="SVGID_17_" gradientUnits="userSpaceOnUse" x1="-686.3987" y1="937.9365" x2="-686.3987" y2="934.2247" gradientTransform="matrix(0.9613 0.2758 -0.2758 0.9613 2174.7761 -319.1042)">
				<stop  offset="0" style="stop-color:#CDD1D7"/>
				<stop  offset="0.3612" style="stop-color:#BEC2CC"/>
				<stop  offset="1" style="stop-color:#999FB2"/>
			</linearGradient>
			<path class="st29" d="M1257.3,393.6l-2.3-0.7c-0.1,0-0.2-0.1-0.1-0.3l1-3.3c0-0.1,0.1-0.2,0.3-0.1l2.3,0.7c0.1,0,0.2,0.1,0.1,0.3
				l-1,3.3C1257.5,393.6,1257.4,393.7,1257.3,393.6z"/>
			
				<linearGradient id="SVGID_18_" gradientUnits="userSpaceOnUse" x1="-686.4323" y1="937.7224" x2="-686.4323" y2="934.4444" gradientTransform="matrix(0.9613 0.2758 -0.2758 0.9613 2174.7761 -319.1042)">
				<stop  offset="0" style="stop-color:#999FB2"/>
				<stop  offset="0.6388" style="stop-color:#BEC2CC"/>
				<stop  offset="1" style="stop-color:#CDD1D7"/>
			</linearGradient>
			<path class="st30" d="M1257.2,393.4l-2-0.6c0-0.1-0.1-0.1-0.1-0.2l0.9-3c0.1,0,0.1-0.1,0.2-0.1l2,0.6c0,0.1,0.1,0.1,0.1,0.2
				l-0.9,3C1257.3,393.3,1257.2,393.3,1257.2,393.4z"/>
		</g>
		<g>
			
				<linearGradient id="SVGID_19_" gradientUnits="userSpaceOnUse" x1="-682.3057" y1="937.9365" x2="-682.3057" y2="934.2247" gradientTransform="matrix(0.9613 0.2758 -0.2758 0.9613 2174.7761 -319.1042)">
				<stop  offset="0" style="stop-color:#CDD1D7"/>
				<stop  offset="0.3612" style="stop-color:#BEC2CC"/>
				<stop  offset="1" style="stop-color:#999FB2"/>
			</linearGradient>
			<path class="st31" d="M1261.3,394.7l-2.3-0.7c-0.1,0-0.2-0.1-0.1-0.3l1-3.3c0-0.1,0.1-0.2,0.3-0.1l2.3,0.7c0.1,0,0.2,0.1,0.1,0.3
				l-1,3.3C1261.4,394.6,1261.4,394.7,1261.3,394.7z"/>
			
				<linearGradient id="SVGID_20_" gradientUnits="userSpaceOnUse" x1="-682.3663" y1="937.7224" x2="-682.3663" y2="934.4444" gradientTransform="matrix(0.9613 0.2758 -0.2758 0.9613 2174.7761 -319.1042)">
				<stop  offset="0" style="stop-color:#999FB2"/>
				<stop  offset="0.6388" style="stop-color:#BEC2CC"/>
				<stop  offset="1" style="stop-color:#CDD1D7"/>
			</linearGradient>
			<path class="st32" d="M1261.2,394.5l-2-0.6c0-0.1-0.1-0.1-0.1-0.2l0.9-3c0.1,0,0.1-0.1,0.2-0.1l2,0.6c0,0.1,0.1,0.1,0.1,0.2
				l-0.9,3C1261.3,394.4,1261.2,394.5,1261.2,394.5z"/>
		</g>
		<g>
			
				<linearGradient id="SVGID_21_" gradientUnits="userSpaceOnUse" x1="-678.3339" y1="937.9365" x2="-678.3339" y2="934.2247" gradientTransform="matrix(0.9613 0.2758 -0.2758 0.9613 2174.7761 -319.1042)">
				<stop  offset="0" style="stop-color:#CDD1D7"/>
				<stop  offset="0.3612" style="stop-color:#BEC2CC"/>
				<stop  offset="1" style="stop-color:#999FB2"/>
			</linearGradient>
			<path class="st33" d="M1265.1,395.8l-2.3-0.7c-0.1,0-0.2-0.1-0.1-0.3l1-3.3c0-0.1,0.1-0.2,0.3-0.1l2.3,0.7c0.1,0,0.2,0.1,0.1,0.3
				l-1,3.3C1265.4,395.8,1265.2,395.8,1265.1,395.8z"/>
			
				<linearGradient id="SVGID_22_" gradientUnits="userSpaceOnUse" x1="-678.3947" y1="937.7224" x2="-678.3947" y2="934.4444" gradientTransform="matrix(0.9613 0.2758 -0.2758 0.9613 2174.7761 -319.1042)">
				<stop  offset="0" style="stop-color:#999FB2"/>
				<stop  offset="0.6388" style="stop-color:#BEC2CC"/>
				<stop  offset="1" style="stop-color:#CDD1D7"/>
			</linearGradient>
			<path class="st34" d="M1265,395.5l-2-0.6c0-0.1-0.1-0.1-0.1-0.2l0.9-3c0.1,0,0.1-0.1,0.2-0.1l2,0.6c0,0.1,0.1,0.1,0.1,0.2l-0.9,3
				C1265.1,395.5,1265.1,395.5,1265,395.5z"/>
		</g>
		<g>
			
				<linearGradient id="SVGID_23_" gradientUnits="userSpaceOnUse" x1="-674.2679" y1="937.9365" x2="-674.2679" y2="934.2247" gradientTransform="matrix(0.9613 0.2758 -0.2758 0.9613 2174.7761 -319.1042)">
				<stop  offset="0" style="stop-color:#CDD1D7"/>
				<stop  offset="0.3612" style="stop-color:#BEC2CC"/>
				<stop  offset="1" style="stop-color:#999FB2"/>
			</linearGradient>
			<path class="st35" d="M1269,396.9l-2.3-0.7c-0.1,0-0.2-0.1-0.1-0.3l1-3.3c0-0.1,0.1-0.2,0.3-0.1l2.3,0.7c0.1,0,0.2,0.1,0.1,0.3
				l-1,3.3C1269.2,396.9,1269.1,397,1269,396.9z"/>
			
				<linearGradient id="SVGID_24_" gradientUnits="userSpaceOnUse" x1="-674.3016" y1="937.7224" x2="-674.3016" y2="934.4444" gradientTransform="matrix(0.9613 0.2758 -0.2758 0.9613 2174.7761 -319.1042)">
				<stop  offset="0" style="stop-color:#999FB2"/>
				<stop  offset="0.6388" style="stop-color:#BEC2CC"/>
				<stop  offset="1" style="stop-color:#CDD1D7"/>
			</linearGradient>
			<path class="st36" d="M1268.9,396.7l-2-0.6c0-0.1-0.1-0.1-0.1-0.2l0.9-3c0.1,0,0.1-0.1,0.2-0.1l2,0.6c0,0.1,0.1,0.1,0.1,0.2
				l-0.9,3C1269,396.6,1269,396.6,1268.9,396.7z"/>
		</g>
		<g>
			
				<linearGradient id="SVGID_25_" gradientUnits="userSpaceOnUse" x1="-670.1749" y1="937.9365" x2="-670.1749" y2="934.2247" gradientTransform="matrix(0.9613 0.2758 -0.2758 0.9613 2174.7761 -319.1042)">
				<stop  offset="0" style="stop-color:#CDD1D7"/>
				<stop  offset="0.3612" style="stop-color:#BEC2CC"/>
				<stop  offset="1" style="stop-color:#999FB2"/>
			</linearGradient>
			<path class="st37" d="M1272.9,398.1l-2.3-0.7c-0.1,0-0.2-0.1-0.1-0.3l1-3.3c0-0.1,0.1-0.2,0.3-0.1l2.3,0.7c0.1,0,0.2,0.1,0.1,0.3
				l-1,3.3C1273.1,398.1,1273,398.1,1272.9,398.1z"/>
			
				<linearGradient id="SVGID_26_" gradientUnits="userSpaceOnUse" x1="-670.2357" y1="937.7224" x2="-670.2357" y2="934.4444" gradientTransform="matrix(0.9613 0.2758 -0.2758 0.9613 2174.7761 -319.1042)">
				<stop  offset="0" style="stop-color:#999FB2"/>
				<stop  offset="0.6388" style="stop-color:#BEC2CC"/>
				<stop  offset="1" style="stop-color:#CDD1D7"/>
			</linearGradient>
			<path class="st38" d="M1272.8,397.8l-2-0.6c0-0.1-0.1-0.1-0.1-0.2l0.9-3c0.1,0,0.1-0.1,0.2-0.1l2,0.6c0,0.1,0.1,0.1,0.1,0.2
				l-0.9,3C1272.9,397.8,1272.9,397.8,1272.8,397.8z"/>
		</g>
		<g>
			
				<linearGradient id="SVGID_27_" gradientUnits="userSpaceOnUse" x1="-666.1089" y1="937.9365" x2="-666.1089" y2="934.2247" gradientTransform="matrix(0.9613 0.2758 -0.2758 0.9613 2174.7761 -319.1042)">
				<stop  offset="0" style="stop-color:#CDD1D7"/>
				<stop  offset="0.3612" style="stop-color:#BEC2CC"/>
				<stop  offset="1" style="stop-color:#999FB2"/>
			</linearGradient>
			<path class="st39" d="M1276.8,399.2l-2.3-0.7c-0.1,0-0.2-0.1-0.1-0.3l1-3.3c0-0.1,0.1-0.2,0.3-0.1l2.3,0.7c0.1,0,0.2,0.1,0.1,0.3
				l-1,3.3C1277,399.2,1276.9,399.3,1276.8,399.2z"/>
			
				<linearGradient id="SVGID_28_" gradientUnits="userSpaceOnUse" x1="-666.1426" y1="937.7224" x2="-666.1426" y2="934.4444" gradientTransform="matrix(0.9613 0.2758 -0.2758 0.9613 2174.7761 -319.1042)">
				<stop  offset="0" style="stop-color:#999FB2"/>
				<stop  offset="0.6388" style="stop-color:#BEC2CC"/>
				<stop  offset="1" style="stop-color:#CDD1D7"/>
			</linearGradient>
			<path class="st40" d="M1276.7,399l-2-0.6c0-0.1-0.1-0.1-0.1-0.2l0.9-3c0.1,0,0.1-0.1,0.2-0.1l2,0.6c0,0.1,0.1,0.1,0.1,0.2l-0.9,3
				C1276.8,398.9,1276.7,398.9,1276.7,399z"/>
		</g>
		<g>
			
				<linearGradient id="SVGID_29_" gradientUnits="userSpaceOnUse" x1="-662.0159" y1="937.9365" x2="-662.0159" y2="934.2247" gradientTransform="matrix(0.9613 0.2758 -0.2758 0.9613 2174.7761 -319.1042)">
				<stop  offset="0" style="stop-color:#CDD1D7"/>
				<stop  offset="0.3612" style="stop-color:#BEC2CC"/>
				<stop  offset="1" style="stop-color:#999FB2"/>
			</linearGradient>
			<path class="st41" d="M1280.8,400.3l-2.3-0.7c-0.1,0-0.2-0.1-0.1-0.3l1-3.3c0-0.1,0.1-0.2,0.3-0.1l2.3,0.7c0.1,0,0.2,0.1,0.1,0.3
				l-1,3.3C1281,400.2,1280.9,400.3,1280.8,400.3z"/>
			
				<linearGradient id="SVGID_30_" gradientUnits="userSpaceOnUse" x1="-662.0767" y1="937.7222" x2="-662.0767" y2="934.4444" gradientTransform="matrix(0.9613 0.2758 -0.2758 0.9613 2174.7761 -319.1042)">
				<stop  offset="0" style="stop-color:#999FB2"/>
				<stop  offset="0.6388" style="stop-color:#BEC2CC"/>
				<stop  offset="1" style="stop-color:#CDD1D7"/>
			</linearGradient>
			<path class="st42" d="M1280.7,400l-2-0.6c0-0.1-0.1-0.1-0.1-0.2l0.9-3c0.1,0,0.1-0.1,0.2-0.1l2,0.6c0,0.1,0.1,0.1,0.1,0.2l-0.9,3
				C1280.8,400,1280.7,400,1280.7,400z"/>
		</g>
		<g>
			
				<linearGradient id="SVGID_31_" gradientUnits="userSpaceOnUse" x1="-658.0443" y1="937.9365" x2="-658.0443" y2="934.2247" gradientTransform="matrix(0.9613 0.2758 -0.2758 0.9613 2174.7761 -319.1042)">
				<stop  offset="0" style="stop-color:#CDD1D7"/>
				<stop  offset="0.3612" style="stop-color:#BEC2CC"/>
				<stop  offset="1" style="stop-color:#999FB2"/>
			</linearGradient>
			<path class="st43" d="M1284.6,401.4l-2.3-0.7c-0.1,0-0.2-0.1-0.1-0.3l1-3.3c0-0.1,0.1-0.2,0.3-0.1l2.3,0.7c0.1,0,0.2,0.1,0.1,0.3
				l-1,3.3C1284.9,401.4,1284.8,401.4,1284.6,401.4z"/>
			
				<linearGradient id="SVGID_32_" gradientUnits="userSpaceOnUse" x1="-658.1049" y1="937.7222" x2="-658.1049" y2="934.4444" gradientTransform="matrix(0.9613 0.2758 -0.2758 0.9613 2174.7761 -319.1042)">
				<stop  offset="0" style="stop-color:#999FB2"/>
				<stop  offset="0.6388" style="stop-color:#BEC2CC"/>
				<stop  offset="1" style="stop-color:#CDD1D7"/>
			</linearGradient>
			<path class="st44" d="M1284.5,401.1l-2-0.6c0-0.1-0.1-0.1-0.1-0.2l0.9-3c0.1,0,0.1-0.1,0.2-0.1l2,0.6c0,0.1,0.1,0.1,0.1,0.2
				l-0.9,3C1284.6,401.1,1284.6,401.1,1284.5,401.1z"/>
		</g>
		<g>
			
				<linearGradient id="SVGID_33_" gradientUnits="userSpaceOnUse" x1="-653.9512" y1="937.9365" x2="-653.9512" y2="934.2247" gradientTransform="matrix(0.9613 0.2758 -0.2758 0.9613 2174.7761 -319.1042)">
				<stop  offset="0" style="stop-color:#CDD1D7"/>
				<stop  offset="0.3612" style="stop-color:#BEC2CC"/>
				<stop  offset="1" style="stop-color:#999FB2"/>
			</linearGradient>
			<path class="st45" d="M1288.5,402.6l-2.3-0.7c-0.1,0-0.2-0.1-0.1-0.3l1-3.3c0-0.1,0.1-0.2,0.3-0.1l2.3,0.7c0.1,0,0.2,0.1,0.1,0.3
				l-1,3.3C1288.8,402.5,1288.6,402.6,1288.5,402.6z"/>
			
				<linearGradient id="SVGID_34_" gradientUnits="userSpaceOnUse" x1="-654.0119" y1="937.7222" x2="-654.0119" y2="934.4444" gradientTransform="matrix(0.9613 0.2758 -0.2758 0.9613 2174.7761 -319.1042)">
				<stop  offset="0" style="stop-color:#999FB2"/>
				<stop  offset="0.6388" style="stop-color:#BEC2CC"/>
				<stop  offset="1" style="stop-color:#CDD1D7"/>
			</linearGradient>
			<path class="st46" d="M1288.4,402.3l-2-0.6c0-0.1-0.1-0.1-0.1-0.2l0.9-3c0.1,0,0.1-0.1,0.2-0.1l2,0.6c0,0.1,0.1,0.1,0.1,0.2
				l-0.9,3C1288.5,402.2,1288.5,402.3,1288.4,402.3z"/>
		</g>
		<g>
			
				<linearGradient id="SVGID_35_" gradientUnits="userSpaceOnUse" x1="-649.8853" y1="937.9365" x2="-649.8853" y2="934.2247" gradientTransform="matrix(0.9613 0.2758 -0.2758 0.9613 2174.7761 -319.1042)">
				<stop  offset="0" style="stop-color:#CDD1D7"/>
				<stop  offset="0.3612" style="stop-color:#BEC2CC"/>
				<stop  offset="1" style="stop-color:#999FB2"/>
			</linearGradient>
			<path class="st47" d="M1292.4,403.7l-2.3-0.7c-0.1,0-0.2-0.1-0.1-0.3l1-3.3c0-0.1,0.1-0.2,0.3-0.1l2.3,0.7c0.1,0,0.2,0.1,0.1,0.3
				l-1,3.3C1292.6,403.7,1292.5,403.7,1292.4,403.7z"/>
			
				<linearGradient id="SVGID_36_" gradientUnits="userSpaceOnUse" x1="-649.9459" y1="937.7222" x2="-649.9459" y2="934.4444" gradientTransform="matrix(0.9613 0.2758 -0.2758 0.9613 2174.7761 -319.1042)">
				<stop  offset="0" style="stop-color:#999FB2"/>
				<stop  offset="0.6388" style="stop-color:#BEC2CC"/>
				<stop  offset="1" style="stop-color:#CDD1D7"/>
			</linearGradient>
			<path class="st48" d="M1292.3,403.4l-2-0.6c0-0.1-0.1-0.1-0.1-0.2l0.9-3c0.1,0,0.1-0.1,0.2-0.1l2,0.6c0,0.1,0.1,0.1,0.1,0.2
				l-0.9,3C1292.4,403.4,1292.4,403.4,1292.3,403.4z"/>
		</g>
		<g>
			
				<linearGradient id="SVGID_37_" gradientUnits="userSpaceOnUse" x1="-645.8193" y1="937.9365" x2="-645.8193" y2="934.2247" gradientTransform="matrix(0.9613 0.2758 -0.2758 0.9613 2174.7761 -319.1042)">
				<stop  offset="0" style="stop-color:#CDD1D7"/>
				<stop  offset="0.3612" style="stop-color:#BEC2CC"/>
				<stop  offset="1" style="stop-color:#999FB2"/>
			</linearGradient>
			<path class="st49" d="M1296.3,404.7l-2.3-0.7c-0.1,0-0.2-0.1-0.1-0.3l1-3.3c0-0.1,0.1-0.2,0.3-0.1l2.3,0.7c0.1,0,0.2,0.1,0.1,0.3
				l-1,3.3C1296.5,404.7,1296.4,404.8,1296.3,404.7z"/>
			
				<linearGradient id="SVGID_38_" gradientUnits="userSpaceOnUse" x1="-645.8529" y1="937.7222" x2="-645.8529" y2="934.4444" gradientTransform="matrix(0.9613 0.2758 -0.2758 0.9613 2174.7761 -319.1042)">
				<stop  offset="0" style="stop-color:#999FB2"/>
				<stop  offset="0.6388" style="stop-color:#BEC2CC"/>
				<stop  offset="1" style="stop-color:#CDD1D7"/>
			</linearGradient>
			<path class="st50" d="M1296.2,404.5l-2-0.6c0-0.1-0.1-0.1-0.1-0.2l0.9-3c0.1,0,0.1-0.1,0.2-0.1l2,0.6c0,0.1,0.1,0.1,0.1,0.2
				l-0.9,3C1296.3,404.5,1296.3,404.5,1296.2,404.5z"/>
		</g>
		<g>
			
				<linearGradient id="SVGID_39_" gradientUnits="userSpaceOnUse" x1="-641.7263" y1="937.9365" x2="-641.7263" y2="934.2247" gradientTransform="matrix(0.9613 0.2758 -0.2758 0.9613 2174.7761 -319.1042)">
				<stop  offset="0" style="stop-color:#CDD1D7"/>
				<stop  offset="0.3612" style="stop-color:#BEC2CC"/>
				<stop  offset="1" style="stop-color:#999FB2"/>
			</linearGradient>
			<path class="st51" d="M1300.3,405.9l-2.3-0.7c-0.1,0-0.2-0.1-0.1-0.3l1-3.3c0-0.1,0.1-0.2,0.3-0.1l2.3,0.7c0.1,0,0.2,0.1,0.1,0.3
				l-1,3.3C1300.5,405.9,1300.4,405.9,1300.3,405.9z"/>
			
				<linearGradient id="SVGID_40_" gradientUnits="userSpaceOnUse" x1="-641.7869" y1="937.7222" x2="-641.7869" y2="934.4444" gradientTransform="matrix(0.9613 0.2758 -0.2758 0.9613 2174.7761 -319.1042)">
				<stop  offset="0" style="stop-color:#999FB2"/>
				<stop  offset="0.6388" style="stop-color:#BEC2CC"/>
				<stop  offset="1" style="stop-color:#CDD1D7"/>
			</linearGradient>
			<path class="st52" d="M1300.2,405.6l-2-0.6c0-0.1-0.1-0.1-0.1-0.2l0.9-3c0.1,0,0.1-0.1,0.2-0.1l2,0.6c0,0.1,0.1,0.1,0.1,0.2
				l-0.9,3C1300.3,405.6,1300.2,405.6,1300.2,405.6z"/>
		</g>
		<g>
			
				<linearGradient id="SVGID_41_" gradientUnits="userSpaceOnUse" x1="-637.6603" y1="937.9365" x2="-637.6603" y2="934.2247" gradientTransform="matrix(0.9613 0.2758 -0.2758 0.9613 2174.7761 -319.1042)">
				<stop  offset="0" style="stop-color:#CDD1D7"/>
				<stop  offset="0.3612" style="stop-color:#BEC2CC"/>
				<stop  offset="1" style="stop-color:#999FB2"/>
			</linearGradient>
			<path class="st53" d="M1304.2,407l-2.3-0.7c-0.1,0-0.2-0.1-0.1-0.3l1-3.3c0-0.1,0.1-0.2,0.3-0.1l2.3,0.7c0.1,0,0.2,0.1,0.1,0.3
				l-1,3.3C1304.4,407,1304.3,407.1,1304.2,407z"/>
			
				<linearGradient id="SVGID_42_" gradientUnits="userSpaceOnUse" x1="-637.6939" y1="937.7222" x2="-637.6939" y2="934.4444" gradientTransform="matrix(0.9613 0.2758 -0.2758 0.9613 2174.7761 -319.1042)">
				<stop  offset="0" style="stop-color:#999FB2"/>
				<stop  offset="0.6388" style="stop-color:#BEC2CC"/>
				<stop  offset="1" style="stop-color:#CDD1D7"/>
			</linearGradient>
			<path class="st54" d="M1304.1,406.8l-2-0.6c0-0.1-0.1-0.1-0.1-0.2l0.9-3c0.1,0,0.1-0.1,0.2-0.1l2,0.6c0,0.1,0.1,0.1,0.1,0.2
				l-0.9,3C1304.2,406.7,1304.1,406.7,1304.1,406.8z"/>
		</g>
		<g>
			
				<linearGradient id="SVGID_43_" gradientUnits="userSpaceOnUse" x1="-633.6615" y1="937.9362" x2="-633.6615" y2="934.2246" gradientTransform="matrix(0.9613 0.2758 -0.2758 0.9613 2174.7761 -319.1042)">
				<stop  offset="0" style="stop-color:#CDD1D7"/>
				<stop  offset="0.3612" style="stop-color:#BEC2CC"/>
				<stop  offset="1" style="stop-color:#999FB2"/>
			</linearGradient>
			<path class="st55" d="M1308,408.2l-2.3-0.7c-0.1,0-0.2-0.1-0.1-0.3l1-3.3c0-0.1,0.1-0.2,0.3-0.1l2.3,0.7c0.1,0,0.2,0.1,0.1,0.3
				l-1,3.3C1308.3,408.1,1308.1,408.2,1308,408.2z"/>
			
				<linearGradient id="SVGID_44_" gradientUnits="userSpaceOnUse" x1="-633.7221" y1="937.722" x2="-633.7221" y2="934.4444" gradientTransform="matrix(0.9613 0.2758 -0.2758 0.9613 2174.7761 -319.1042)">
				<stop  offset="0" style="stop-color:#999FB2"/>
				<stop  offset="0.6388" style="stop-color:#BEC2CC"/>
				<stop  offset="1" style="stop-color:#CDD1D7"/>
			</linearGradient>
			<path class="st56" d="M1307.9,407.9l-2-0.6c0-0.1-0.1-0.1-0.1-0.2l0.9-3c0.1,0,0.1-0.1,0.2-0.1l2,0.6c0,0.1,0.1,0.1,0.1,0.2
				l-0.9,3C1308,407.8,1308,407.9,1307.9,407.9z"/>
		</g>
		<g>
			
				<linearGradient id="SVGID_45_" gradientUnits="userSpaceOnUse" x1="-629.5955" y1="937.9362" x2="-629.5955" y2="934.2246" gradientTransform="matrix(0.9613 0.2758 -0.2758 0.9613 2174.7761 -319.1042)">
				<stop  offset="0" style="stop-color:#CDD1D7"/>
				<stop  offset="0.3612" style="stop-color:#BEC2CC"/>
				<stop  offset="1" style="stop-color:#999FB2"/>
			</linearGradient>
			<path class="st57" d="M1311.9,409.3l-2.3-0.7c-0.1,0-0.2-0.1-0.1-0.3l1-3.3c0-0.1,0.1-0.2,0.3-0.1l2.3,0.7c0.1,0,0.2,0.1,0.1,0.3
				l-1,3.3C1312.1,409.3,1312,409.3,1311.9,409.3z"/>
			
				<linearGradient id="SVGID_46_" gradientUnits="userSpaceOnUse" x1="-629.6561" y1="937.722" x2="-629.6561" y2="934.4444" gradientTransform="matrix(0.9613 0.2758 -0.2758 0.9613 2174.7761 -319.1042)">
				<stop  offset="0" style="stop-color:#999FB2"/>
				<stop  offset="0.6388" style="stop-color:#BEC2CC"/>
				<stop  offset="1" style="stop-color:#CDD1D7"/>
			</linearGradient>
			<path class="st58" d="M1311.8,409l-2-0.6c0-0.1-0.1-0.1-0.1-0.2l0.9-3c0.1,0,0.1-0.1,0.2-0.1l2,0.6c0,0.1,0.1,0.1,0.1,0.2l-0.9,3
				C1311.9,409,1311.9,409,1311.8,409z"/>
		</g>
		<g>
			
				<linearGradient id="SVGID_47_" gradientUnits="userSpaceOnUse" x1="-625.5025" y1="937.9362" x2="-625.5025" y2="934.2246" gradientTransform="matrix(0.9613 0.2758 -0.2758 0.9613 2174.7761 -319.1042)">
				<stop  offset="0" style="stop-color:#CDD1D7"/>
				<stop  offset="0.3612" style="stop-color:#BEC2CC"/>
				<stop  offset="1" style="stop-color:#999FB2"/>
			</linearGradient>
			<path class="st59" d="M1315.9,410.4l-2.3-0.7c-0.1,0-0.2-0.1-0.1-0.3l1-3.3c0-0.1,0.1-0.2,0.3-0.1l2.3,0.7c0.1,0,0.2,0.1,0.1,0.3
				l-1,3.3C1316,410.3,1315.9,410.4,1315.9,410.4z"/>
			
				<linearGradient id="SVGID_48_" gradientUnits="userSpaceOnUse" x1="-625.5631" y1="937.722" x2="-625.5631" y2="934.4444" gradientTransform="matrix(0.9613 0.2758 -0.2758 0.9613 2174.7761 -319.1042)">
				<stop  offset="0" style="stop-color:#999FB2"/>
				<stop  offset="0.6388" style="stop-color:#BEC2CC"/>
				<stop  offset="1" style="stop-color:#CDD1D7"/>
			</linearGradient>
			<path class="st60" d="M1315.8,410.1l-2-0.6c0-0.1-0.1-0.1-0.1-0.2l0.9-3c0.1,0,0.1-0.1,0.2-0.1l2,0.6c0,0.1,0.1,0.1,0.1,0.2
				l-0.9,3C1315.9,410,1315.9,410.1,1315.8,410.1z"/>
		</g>
		<g>
			
				<linearGradient id="SVGID_49_" gradientUnits="userSpaceOnUse" x1="-621.4365" y1="937.9362" x2="-621.4365" y2="934.2246" gradientTransform="matrix(0.9613 0.2758 -0.2758 0.9613 2174.7761 -319.1042)">
				<stop  offset="0" style="stop-color:#CDD1D7"/>
				<stop  offset="0.3612" style="stop-color:#BEC2CC"/>
				<stop  offset="1" style="stop-color:#999FB2"/>
			</linearGradient>
			<path class="st61" d="M1319.8,411.5l-2.3-0.7c-0.1,0-0.2-0.1-0.1-0.3l1-3.3c0-0.1,0.1-0.2,0.3-0.1l2.3,0.7c0.1,0,0.2,0.1,0.1,0.3
				l-1,3.3C1320,411.5,1319.9,411.5,1319.8,411.5z"/>
			
				<linearGradient id="SVGID_50_" gradientUnits="userSpaceOnUse" x1="-621.4971" y1="937.722" x2="-621.4971" y2="934.4444" gradientTransform="matrix(0.9613 0.2758 -0.2758 0.9613 2174.7761 -319.1042)">
				<stop  offset="0" style="stop-color:#999FB2"/>
				<stop  offset="0.6388" style="stop-color:#BEC2CC"/>
				<stop  offset="1" style="stop-color:#CDD1D7"/>
			</linearGradient>
			<path class="st62" d="M1319.7,411.2l-2-0.6c0-0.1-0.1-0.1-0.1-0.2l0.9-3c0.1,0,0.1-0.1,0.2-0.1l2,0.6c0,0.1,0.1,0.1,0.1,0.2
				l-0.9,3C1319.8,411.2,1319.7,411.2,1319.7,411.2z"/>
		</g>
		<g>
			
				<linearGradient id="SVGID_51_" gradientUnits="userSpaceOnUse" x1="-617.3705" y1="937.9362" x2="-617.3705" y2="934.2246" gradientTransform="matrix(0.9613 0.2758 -0.2758 0.9613 2174.7761 -319.1042)">
				<stop  offset="0" style="stop-color:#CDD1D7"/>
				<stop  offset="0.3612" style="stop-color:#BEC2CC"/>
				<stop  offset="1" style="stop-color:#999FB2"/>
			</linearGradient>
			<path class="st63" d="M1323.7,412.6l-2.3-0.7c-0.1,0-0.2-0.1-0.1-0.3l1-3.3c0-0.1,0.1-0.2,0.3-0.1l2.3,0.7c0.1,0,0.2,0.1,0.1,0.3
				l-1,3.3C1323.9,412.6,1323.8,412.7,1323.7,412.6z"/>
			
				<linearGradient id="SVGID_52_" gradientUnits="userSpaceOnUse" x1="-617.4041" y1="937.722" x2="-617.4041" y2="934.4444" gradientTransform="matrix(0.9613 0.2758 -0.2758 0.9613 2174.7761 -319.1042)">
				<stop  offset="0" style="stop-color:#999FB2"/>
				<stop  offset="0.6388" style="stop-color:#BEC2CC"/>
				<stop  offset="1" style="stop-color:#CDD1D7"/>
			</linearGradient>
			<path class="st64" d="M1323.6,412.4l-2-0.6c0-0.1-0.1-0.1-0.1-0.2l0.9-3c0-0.1,0.1-0.1,0.2-0.1l2,0.6c0,0.1,0.1,0.1,0.1,0.2
				l-0.9,3C1323.7,412.3,1323.6,412.3,1323.6,412.4z"/>
		</g>
		<g>
			
				<linearGradient id="SVGID_53_" gradientUnits="userSpaceOnUse" x1="-613.3717" y1="937.9362" x2="-613.3717" y2="934.2246" gradientTransform="matrix(0.9613 0.2758 -0.2758 0.9613 2174.7761 -319.1042)">
				<stop  offset="0" style="stop-color:#CDD1D7"/>
				<stop  offset="0.3612" style="stop-color:#BEC2CC"/>
				<stop  offset="1" style="stop-color:#999FB2"/>
			</linearGradient>
			<path class="st65" d="M1327.5,413.8l-2.3-0.7c-0.1,0-0.2-0.1-0.1-0.3l1-3.3c0-0.1,0.1-0.2,0.3-0.1l2.3,0.7c0.1,0,0.2,0.1,0.1,0.3
				l-1,3.3C1327.8,413.7,1327.7,413.8,1327.5,413.8z"/>
			
				<linearGradient id="SVGID_54_" gradientUnits="userSpaceOnUse" x1="-613.4323" y1="937.722" x2="-613.4323" y2="934.4444" gradientTransform="matrix(0.9613 0.2758 -0.2758 0.9613 2174.7761 -319.1042)">
				<stop  offset="0" style="stop-color:#999FB2"/>
				<stop  offset="0.6388" style="stop-color:#BEC2CC"/>
				<stop  offset="1" style="stop-color:#CDD1D7"/>
			</linearGradient>
			<path class="st66" d="M1327.4,413.5l-2-0.6c0-0.1-0.1-0.1-0.1-0.2l0.9-3c0.1,0,0.1-0.1,0.2-0.1l2,0.6c0,0.1,0.1,0.1,0.1,0.2
				l-0.9,3C1327.5,413.5,1327.5,413.5,1327.4,413.5z"/>
		</g>
		<g>
			
				<linearGradient id="SVGID_55_" gradientUnits="userSpaceOnUse" x1="-609.3057" y1="937.9362" x2="-609.3057" y2="934.2246" gradientTransform="matrix(0.9613 0.2758 -0.2758 0.9613 2174.7761 -319.1042)">
				<stop  offset="0" style="stop-color:#CDD1D7"/>
				<stop  offset="0.3612" style="stop-color:#BEC2CC"/>
				<stop  offset="1" style="stop-color:#999FB2"/>
			</linearGradient>
			<path class="st67" d="M1331.4,414.8l-2.3-0.7c-0.1,0-0.2-0.1-0.1-0.3l1-3.3c0-0.1,0.1-0.2,0.3-0.1l2.3,0.7c0.1,0,0.2,0.1,0.1,0.3
				l-1,3.3C1331.7,414.8,1331.5,414.9,1331.4,414.8z"/>
			
				<linearGradient id="SVGID_56_" gradientUnits="userSpaceOnUse" x1="-609.3394" y1="937.722" x2="-609.3394" y2="934.4441" gradientTransform="matrix(0.9613 0.2758 -0.2758 0.9613 2174.7761 -319.1042)">
				<stop  offset="0" style="stop-color:#999FB2"/>
				<stop  offset="0.6388" style="stop-color:#BEC2CC"/>
				<stop  offset="1" style="stop-color:#CDD1D7"/>
			</linearGradient>
			<path class="st68" d="M1331.3,414.6l-2-0.6c0-0.1-0.1-0.1-0.1-0.2l0.9-3c0-0.1,0.1-0.1,0.2-0.1l2,0.6c0,0.1,0.1,0.1,0.1,0.2
				l-0.9,3C1331.4,414.5,1331.4,414.5,1331.3,414.6z"/>
		</g>
		<g>
			
				<linearGradient id="SVGID_57_" gradientUnits="userSpaceOnUse" x1="-605.2127" y1="937.9362" x2="-605.2127" y2="934.2246" gradientTransform="matrix(0.9613 0.2758 -0.2758 0.9613 2174.7761 -319.1042)">
				<stop  offset="0" style="stop-color:#CDD1D7"/>
				<stop  offset="0.3612" style="stop-color:#BEC2CC"/>
				<stop  offset="1" style="stop-color:#999FB2"/>
			</linearGradient>
			<path class="st69" d="M1335.4,416l-2.3-0.7c-0.1,0-0.2-0.1-0.1-0.3l1-3.3c0-0.1,0.1-0.2,0.3-0.1l2.3,0.7c0.1,0,0.2,0.1,0.1,0.3
				l-1,3.3C1335.6,415.9,1335.5,416,1335.4,416z"/>
			
				<linearGradient id="SVGID_58_" gradientUnits="userSpaceOnUse" x1="-605.2733" y1="937.722" x2="-605.2733" y2="934.4441" gradientTransform="matrix(0.9613 0.2758 -0.2758 0.9613 2174.7761 -319.1042)">
				<stop  offset="0" style="stop-color:#999FB2"/>
				<stop  offset="0.6388" style="stop-color:#BEC2CC"/>
				<stop  offset="1" style="stop-color:#CDD1D7"/>
			</linearGradient>
			<path class="st70" d="M1335.3,415.7l-2-0.6c0-0.1-0.1-0.1-0.1-0.2l0.9-3c0.1,0,0.1-0.1,0.2-0.1l2,0.6c0,0.1,0.1,0.1,0.1,0.2
				l-0.9,3C1335.4,415.6,1335.4,415.7,1335.3,415.7z"/>
		</g>
		<g>
			
				<linearGradient id="SVGID_59_" gradientUnits="userSpaceOnUse" x1="-601.1467" y1="937.9362" x2="-601.1467" y2="934.2246" gradientTransform="matrix(0.9613 0.2758 -0.2758 0.9613 2174.7761 -319.1042)">
				<stop  offset="0" style="stop-color:#CDD1D7"/>
				<stop  offset="0.3612" style="stop-color:#BEC2CC"/>
				<stop  offset="1" style="stop-color:#999FB2"/>
			</linearGradient>
			<path class="st71" d="M1339.3,417.1l-2.3-0.7c-0.1,0-0.2-0.1-0.1-0.3l1-3.3c0-0.1,0.1-0.2,0.3-0.1l2.3,0.7c0.1,0,0.2,0.1,0.1,0.3
				l-1,3.3C1339.5,417.1,1339.4,417.1,1339.3,417.1z"/>
			
				<linearGradient id="SVGID_60_" gradientUnits="userSpaceOnUse" x1="-601.2073" y1="937.722" x2="-601.2073" y2="934.4441" gradientTransform="matrix(0.9613 0.2758 -0.2758 0.9613 2174.7761 -319.1042)">
				<stop  offset="0" style="stop-color:#999FB2"/>
				<stop  offset="0.6388" style="stop-color:#BEC2CC"/>
				<stop  offset="1" style="stop-color:#CDD1D7"/>
			</linearGradient>
			<path class="st72" d="M1339.2,416.8l-2-0.6c0-0.1-0.1-0.1-0.1-0.2l0.9-3c0-0.1,0.1-0.1,0.2-0.1l2,0.6c0,0.1,0.1,0.1,0.1,0.2
				l-0.9,3C1339.3,416.8,1339.3,416.8,1339.2,416.8z"/>
		</g>
	</g>
	<g>
		<path class="st15" d="M1233.8,406c0,0,11.8-6.9,32.3-2.5c16.9,3.5,48.4,14.5,49,18.3c0.3,1.9-1.2,1.4,0.9,3.1l52,27.6l-9-1.3
			L1233.8,406z"/>
		
			<linearGradient id="SVGID_61_" gradientUnits="userSpaceOnUse" x1="1250.5674" y1="550.6201" x2="1357.6106" y2="550.6201" gradientTransform="matrix(1 0 0 1 0 -126)">
			<stop  offset="0" style="stop-color:#CDD1D7"/>
			<stop  offset="0.6983" style="stop-color:#DCDDDF"/>
			<stop  offset="1" style="stop-color:#E4E4E4"/>
		</linearGradient>
		<path class="st73" d="M1250.6,402.1l107,45.1l-41.8-22.3c-2.1-1.8-0.6-1.4-0.9-3.1c-0.6-3.9-32.2-14.8-49-18.3
			C1260.1,402.3,1255,401.9,1250.6,402.1z"/>
	</g>
	<g>
		
			<linearGradient id="SVGID_62_" gradientUnits="userSpaceOnUse" x1="1350.4548" y1="527.1236" x2="1408.1915" y2="527.1236" gradientTransform="matrix(1 0 0 1 0 -126)">
			<stop  offset="0" style="stop-color:#F5841F"/>
			<stop  offset="0.1793" style="stop-color:#F5861F"/>
			<stop  offset="0.4088" style="stop-color:#F68D20"/>
			<stop  offset="0.6654" style="stop-color:#F79735"/>
			<stop  offset="0.94" style="stop-color:#F9A655"/>
			<stop  offset="1" style="stop-color:#F8AA5C"/>
		</linearGradient>
		<path class="st74" d="M1350.5,406.6c6.1-0.7,33-14.4,43.5-19.8c2.7-1.4,5.9-1.7,8.8-0.7l5.4,1.9l-22.8,28.7L1350.5,406.6z"/>
		
			<linearGradient id="SVGID_63_" gradientUnits="userSpaceOnUse" x1="-694.2057" y1="563.1333" x2="-700.5479" y2="549.1138" gradientTransform="matrix(0.9966 -8.220000e-02 8.220000e-02 0.9966 2028.8134 -214.1801)">
			<stop  offset="0" style="stop-color:#CDD1D7"/>
			<stop  offset="0.3612" style="stop-color:#BEC2CC"/>
			<stop  offset="1" style="stop-color:#999FB2"/>
		</linearGradient>
		<path class="st75" d="M1393.5,389.1c2.7-1.4,5.9-1.7,8.8-0.7l4.4,1.5l1.6-2l-5.4-1.9c-2.9-1-6.1-0.8-8.8,0.7
			c-10.5,5.5-37.4,19.1-43.5,19.8l0,0C1358.7,409,1384.6,393.7,1393.5,389.1z"/>
	</g>
	<g>
		
			<linearGradient id="SVGID_64_" gradientUnits="userSpaceOnUse" x1="1368.6874" y1="550.105" x2="1408.0934" y2="550.105" gradientTransform="matrix(1 0 0 1 0 -126)">
			<stop  offset="0" style="stop-color:#F5841F"/>
			<stop  offset="0.1793" style="stop-color:#F5861F"/>
			<stop  offset="0.4088" style="stop-color:#F68D20"/>
			<stop  offset="0.6654" style="stop-color:#F79735"/>
			<stop  offset="0.94" style="stop-color:#F9A655"/>
			<stop  offset="1" style="stop-color:#F8AA5C"/>
		</linearGradient>
		<path class="st76" d="M1368.7,418.1c0.6-0.4,31.1,12.4,31.1,12.4l8.3,1.1l-22.3-13.2l-13.7-1.6L1368.7,418.1z"/>
		
			<linearGradient id="SVGID_65_" gradientUnits="userSpaceOnUse" x1="-681.7579" y1="599.9031" x2="-697.0046" y2="566.1997" gradientTransform="matrix(0.9966 -8.220000e-02 8.220000e-02 0.9966 2028.8134 -214.1801)">
			<stop  offset="0" style="stop-color:#CDD1D7"/>
			<stop  offset="0.3612" style="stop-color:#BEC2CC"/>
			<stop  offset="1" style="stop-color:#999FB2"/>
		</linearGradient>
		<polygon class="st77" points="1371.9,416.7 1408.1,431.5 1385.7,418.3 		"/>
	</g>
</g>
<g>
	<g>
		<rect x="1032.2" y="558.9" class="st78" width="110.3" height="55.5"/>
		<rect x="1117" y="493.8" class="st78" width="171.7" height="109.4"/>
		<rect x="1238.4" y="632.8" class="st78" width="71.1" height="53.3"/>
	</g>
	<g>
		<g>
			<rect x="1018.4" y="516.4" class="st79" width="72.1" height="31.8"/>
			<rect x="1196.6" y="613.4" class="st79" width="71.1" height="54.4"/>
		</g>
		<g>
			<rect x="1126.2" y="501" class="st80" width="152.8" height="31.3"/>
			<rect x="1126.2" y="538.7" class="st80" width="71.4" height="31.8"/>
			<rect x="1206.3" y="538.7" class="st80" width="72.7" height="31.8"/>
			<rect x="1126.2" y="576.4" class="st80" width="152.8" height="16.2"/>
		</g>
	</g>
</g>
<g>
	<path class="st81" d="M1327.2,859.4c0,2.1-56.5,11.7-75.2,11.7s-23.4,8.1-54.5,6.3c-11.5-0.7-38.4-12.6-42.9-12.6
		c-95.4,0-172.6-2.4-172.6-5.4c0-2.9,77.3-5.4,172.6-5.4c34.3,0,76-0.5,102.8,0C1305.2,855,1327.2,857.5,1327.2,859.4z"/>
	<g>
		<g>
			<g>
				<polygon class="st82" points="1055.7,829.9 1045.8,863.4 1049.6,863.4 1060.9,829.9 				"/>
				<polygon class="st83" points="1068.8,829.9 1060.9,829.9 1049.6,863.4 1054.2,863.4 				"/>
			</g>
			<g>
				<polygon class="st82" points="1004,825.5 994.1,858.9 998,858.9 1009.2,825.5 				"/>
				<polygon class="st83" points="1017.2,825.5 1009.2,825.5 998,858.9 1002.6,858.9 				"/>
			</g>
		</g>
		<g>
			<g>
				<polygon class="st82" points="1251.3,820.6 1261.2,854 1257.3,854 1246.2,820.6 				"/>
				<polygon class="st83" points="1238.2,820.6 1246.2,820.6 1257.3,854 1252.7,854 				"/>
			</g>
			<g>
				<polygon class="st82" points="1302.9,825.5 1312.8,858.9 1309,858.9 1297.7,825.5 				"/>
				<polygon class="st83" points="1289.8,825.5 1297.7,825.5 1309,858.9 1304.4,858.9 				"/>
			</g>
		</g>
		<g>
			
				<linearGradient id="SVGID_66_" gradientUnits="userSpaceOnUse" x1="1130.879" y1="857.0706" x2="1130.879" y2="919.6375" gradientTransform="matrix(1 0 0 1 0 -126)">
				<stop  offset="0" style="stop-color:#008CA6"/>
				<stop  offset="1" style="stop-color:#00435B"/>
			</linearGradient>
			<path class="st84" d="M1216.2,664.3h-26.3h-178.7l27.9,125.1h185.6h25.9v-90.5C1250.7,679.8,1235.3,664.3,1216.2,664.3z"/>
			
				<linearGradient id="SVGID_67_" gradientUnits="userSpaceOnUse" x1="1025.1593" y1="817.6304" x2="1025.1593" y2="916.0839" gradientTransform="matrix(1 0 0 1 0 -126)">
				<stop  offset="5.380000e-02" style="stop-color:#005078"/>
				<stop  offset="1" style="stop-color:#172B54"/>
			</linearGradient>
			<path class="st85" d="M1011.2,664.3v125.1h27.9v-97C1039.2,676.9,1026.7,664.3,1011.2,664.3L1011.2,664.3z"/>
		</g>
		
			<linearGradient id="SVGID_68_" gradientUnits="userSpaceOnUse" x1="1273.5542" y1="883.903" x2="1273.5542" y2="919.856" gradientTransform="matrix(1 0 0 1 0 -126)">
			<stop  offset="5.380000e-02" style="stop-color:#005078"/>
			<stop  offset="1" style="stop-color:#172B54"/>
		</linearGradient>
		<path class="st86" d="M1317.7,828.8v-90.6h-62.6c-14.2,0-25.7,11.5-25.7,25.7v73h55.9h24.3L1317.7,828.8z"/>
		<path class="st87" d="M1317.7,738.2L1317.7,738.2v90.6c0,4.5-3.6,8.1-8.1,8.1h-24.3v-66.3C1285.3,752.8,1299.8,738.2,1317.7,738.2
			z"/>
		
			<linearGradient id="SVGID_69_" gradientUnits="userSpaceOnUse" x1="1184.2045" y1="922.097" x2="1184.2045" y2="916.0594" gradientTransform="matrix(1 0 0 1 0 -126)">
			<stop  offset="5.380000e-02" style="stop-color:#005078"/>
			<stop  offset="1" style="stop-color:#172B54"/>
		</linearGradient>
		<rect x="1078.4" y="789.4" class="st88" width="211.5" height="40.5"/>
		<rect x="1078.4" y="796.6" class="st87" width="211.5" height="40.5"/>
		<path class="st87" d="M1047.4,738.2L1047.4,738.2c17.9,0,32.4,14.5,32.4,32.4v66.3h-32.4V738.2z"/>
		
			<linearGradient id="SVGID_70_" gradientUnits="userSpaceOnUse" x1="1018.6403" y1="868.553" x2="1018.6403" y2="1008.8549" gradientTransform="matrix(1 0 0 1 0 -126)">
			<stop  offset="5.380000e-02" style="stop-color:#005078"/>
			<stop  offset="1" style="stop-color:#172B54"/>
		</linearGradient>
		<path class="st89" d="M1001.3,836.9h46.1v-98.7h-47.8c-5.3,0-9.6,4.3-9.6,9.6v77.7C989.9,831.9,995,836.9,1001.3,836.9z"/>
	</g>
	<g>
		<g>
			<g>
				
					<linearGradient id="SVGID_71_" gradientUnits="userSpaceOnUse" x1="1116.6749" y1="814.574" x2="1145.3391" y2="814.574" gradientTransform="matrix(1 0 0 1 0 -126)">
					<stop  offset="0" style="stop-color:#689AD1"/>
					<stop  offset="1" style="stop-color:#223972;stop-opacity:0.9697"/>
				</linearGradient>
				<path class="st90" d="M1135.1,719.6c2.5-4.4,6.1-8.2,10.2-11.1c-2.1-1.9-7.2-6.7-7.4-7.4s-0.3-28.5-0.1-34.4
					c0.1-3.3-1.1-7.1-4-8.5c-2.3-1.1-5.1-0.6-7.3,0.7c-4.5,2.7-6.7,8-8.3,12.9c-4.5,13.4,2.8,36.6,3,37.4
					C1121.6,710.4,1130.9,717.5,1135.1,719.6z"/>
				
					<linearGradient id="SVGID_72_" gradientUnits="userSpaceOnUse" x1="1135.1284" y1="844.7678" x2="1165.2233" y2="844.7678" gradientTransform="matrix(1 0 0 1 0 -126)">
					<stop  offset="0" style="stop-color:#F8E6DA"/>
					<stop  offset="1" style="stop-color:#F9B8AA;stop-opacity:0.9697"/>
				</linearGradient>
				<path class="st91" d="M1145.4,708.5l19.9,16.6l-2.1,3.9l-28-9.3C1135.1,719.6,1141.4,708.4,1145.4,708.5z"/>
				<g>
					<polygon class="st92" points="1165.3,725 1171.6,739.4 1170.3,741 1162.2,734.1 1163.1,728.9 					"/>
					<polygon class="st92" points="1166.7,737.8 1165.3,742.1 1161.7,744.5 1161.6,743.7 1164,741.2 1165.4,736.8 					"/>
					<polygon class="st92" points="1168.2,738.5 1167.7,743 1164.8,746.2 1164.4,745.4 1166.3,742.3 1166.7,737.7 					"/>
					<polygon class="st92" points="1169.8,739.1 1170.2,743.6 1167.8,747.2 1167.4,746.6 1168.6,743.2 1168.1,738.7 					"/>
					<polygon class="st92" points="1171.6,739.4 1172,743.8 1169.6,747.4 1169.2,746.9 1170.4,743.4 1169.9,738.9 					"/>
				</g>
			</g>
			
				<linearGradient id="SVGID_73_" gradientUnits="userSpaceOnUse" x1="1074.8459" y1="826.3367" x2="1144.1123" y2="826.3367" gradientTransform="matrix(1 0 0 1 0 -126)">
				<stop  offset="0" style="stop-color:#689AD1"/>
				<stop  offset="1" style="stop-color:#223972;stop-opacity:0.9697"/>
			</linearGradient>
			<path class="st93" d="M1108.2,636.8c-1.6,0-3,0.6-4.5,1.2c-8.1,3.3-16.2,6.6-24.3,9.9c-1.4,0.5-2.7,1.2-3.5,2.4
				c-0.7,1.1-0.8,2.5-0.9,3.7c-1.5,34.3,7.4,77.9,19.6,110c16.4,0.2,32.8-6.7,49.5-9.8c-8.2-22.3-12.5-59.2-3.7-81.2
				c1.6-3.9,0.9-10.9-0.7-14.8c-0.7-1.8-16.7-15.7-26.7-20.1C1111.6,637.4,1109.9,636.7,1108.2,636.8z"/>
			<g>
				
					<linearGradient id="SVGID_74_" gradientUnits="userSpaceOnUse" x1="1065.1042" y1="816.7043" x2="1098.6907" y2="816.7043" gradientTransform="matrix(1 0 0 1 0 -126)">
					<stop  offset="0" style="stop-color:#689AD1"/>
					<stop  offset="1" style="stop-color:#223972;stop-opacity:0.97"/>
				</linearGradient>
				<path class="st94" d="M1091.2,731.9c1.3-6,3.8-11.8,7.4-16.7c-3-1.4-10.8-4.9-11.4-5.7c-0.7-0.8,0.4-44.8-1.7-51.7
					c-1.2-3.8-3.9-7.7-7.8-8.2c-3-0.4-6.1,1.3-8,3.6c-4.1,4.8-4.6,11.7-4.6,18c0,17.2,5.6,53.1,6.2,54
					C1072.1,726.4,1085.6,731.1,1091.2,731.9z"/>
				
					<linearGradient id="SVGID_75_" gradientUnits="userSpaceOnUse" x1="1091.2197" y1="849.4734" x2="1127.7855" y2="849.4734" gradientTransform="matrix(1 0 0 1 0 -126)">
					<stop  offset="0" style="stop-color:#F8E6DA"/>
					<stop  offset="1" style="stop-color:#F9B8AA;stop-opacity:0.9697"/>
				</linearGradient>
				<path class="st95" d="M1098.7,715.2l29.1,11.4l-0.9,5.2h-35.7C1091.2,731.9,1094,716.6,1098.7,715.2z"/>
				<g>
					
						<linearGradient id="SVGID_76_" gradientUnits="userSpaceOnUse" x1="1126.9076" y1="860.6971" x2="1140.4841" y2="860.6971" gradientTransform="matrix(1 0 0 1 0 -126)">
						<stop  offset="0" style="stop-color:#F8E6DA"/>
						<stop  offset="1" style="stop-color:#F9B8AA;stop-opacity:0.9697"/>
					</linearGradient>
					<polygon class="st96" points="1127.8,726.6 1140.5,740.6 1139.7,742.8 1127.8,738.1 1126.9,731.9 					"/>
					
						<linearGradient id="SVGID_77_" gradientUnits="userSpaceOnUse" x1="1130.7112" y1="871.1368" x2="1134.3446" y2="871.1368" gradientTransform="matrix(1 0 0 1 0 -126)">
						<stop  offset="0" style="stop-color:#F8E6DA"/>
						<stop  offset="1" style="stop-color:#F9B8AA;stop-opacity:0.9697"/>
					</linearGradient>
					<polygon class="st97" points="1134.3,740.7 1134.3,746.2 1131.2,750.3 1130.7,749.4 1132.5,745.5 1132.4,740 					"/>
					
						<linearGradient id="SVGID_78_" gradientUnits="userSpaceOnUse" x1="1134.3446" y1="871.7249" x2="1137.5225" y2="871.7249" gradientTransform="matrix(1 0 0 1 0 -126)">
						<stop  offset="0" style="stop-color:#F8E6DA"/>
						<stop  offset="1" style="stop-color:#F9B8AA;stop-opacity:0.9697"/>
					</linearGradient>
					<polygon class="st98" points="1136.4,740.9 1137.5,746.2 1135.4,750.9 1134.7,750.2 1135.6,746 1134.3,740.6 					"/>
					
						<linearGradient id="SVGID_79_" gradientUnits="userSpaceOnUse" x1="1136.3771" y1="872.019" x2="1140.5692" y2="872.019" gradientTransform="matrix(1 0 0 1 0 -126)">
						<stop  offset="0" style="stop-color:#F8E6DA"/>
						<stop  offset="1" style="stop-color:#F9B8AA;stop-opacity:0.9697"/>
					</linearGradient>
					<polygon class="st99" points="1138.4,741 1140.6,746 1139.3,751.1 1138.5,750.5 1138.6,746.2 1136.4,741.1 					"/>
					
						<linearGradient id="SVGID_80_" gradientUnits="userSpaceOnUse" x1="1138.4728" y1="871.5779" x2="1142.6649" y2="871.5779" gradientTransform="matrix(1 0 0 1 0 -126)">
						<stop  offset="0" style="stop-color:#F8E6DA"/>
						<stop  offset="1" style="stop-color:#F9B8AA;stop-opacity:0.9697"/>
					</linearGradient>
					<polygon class="st100" points="1140.5,740.6 1142.6,745.6 1141.5,750.6 1140.7,750 1140.8,745.7 1138.4,740.7 					"/>
				</g>
			</g>
		</g>
		<polygon class="st92" points="1166.7,737.6 1165.9,743.5 1167.1,743.5 1168.5,739.7 		"/>
		<g>
			<polygon class="st82" points="1212.5,776 1196.6,768.6 1122.4,790.7 1181.7,793.3 1181.7,802.7 1188.7,822.1 1210.8,789.4 			"/>
			<polygon class="st101" points="1202.3,864.7 1210.8,789.4 1184.1,809.6 1192.7,865 			"/>
			<path class="st83" d="M1268.9,803.4c-0.2-0.4-46.7-40.5-46.7-40.5l-15.4-7.8l-4.7,22.9l57.5,28.3
				C1259.8,806.3,1268.9,803.4,1268.9,803.4z"/>
			<path class="st83" d="M1094.9,763.8l5.6,16.3c4.2,12.3,17.6,19.5,31.1,16.9l74.5-18.8c5.9-1.2,10.1-6.1,10.1-11.8l0,0
				c0-6.7-5.7-12-12.7-12l-67.7,0.3L1094.9,763.8z"/>
		</g>
		
			<radialGradient id="SVGID_81_" cx="1213.6716" cy="827.8499" r="162.2488" gradientTransform="matrix(1 0 0 1 0 -126)" gradientUnits="userSpaceOnUse">
			<stop  offset="1.060000e-02" style="stop-color:#EDEAD3"/>
			<stop  offset="1" style="stop-color:#FDD7AD;stop-opacity:0"/>
		</radialGradient>
		<path class="st102" d="M1238.2,706.6l140.4-58.1l-38.5-71.8c-36.3-47.4-109.9-64.7-176.1-59.1l-51.6,10.2l62,180.8L1238.2,706.6z"
			/>
		<g>
			<g>
				<path class="st103" d="M1321.8,473.3c-0.5-0.5-0.4-0.3-0.5-0.3C1322.1,473.8,1321.8,473.2,1321.8,473.3z"/>
				<polygon class="st103" points="1328.5,482.1 1328.4,481.9 1329.2,483.4 				"/>
				<path class="st103" d="M1332.3,491.8c0-0.5-0.3-1.4-0.7-2.5c-0.4-1-0.8-2.1-1.1-2.9l-0.1-0.3l-0.5-0.7
					C1331,487.5,1331.9,490.2,1332.3,491.8z"/>
				<path class="st103" d="M1333,497.3c0-0.4,0.3,1.2-0.2-1.3c0,0.1,0,0.2,0,0.2C1332.9,496.5,1332.9,496.8,1333,497.3z"/>
				<path class="st103" d="M1332.8,496.3C1332.6,495.2,1332.9,497,1332.8,496.3L1332.8,496.3z"/>
				<path class="st103" d="M1333.4,501.3c0-0.5-0.1-1-0.1-1.5c0,0.3,0,1.6,0,1.1C1333.3,502.4,1333.3,502.1,1333.4,501.3z"/>
				<path class="st103" d="M1333.6,502.6l-0.1-0.8C1333.5,502,1333.5,502.2,1333.6,502.6z"/>
				<path class="st103" d="M1333.4,500.3l0.1,1.6c0-0.2,0.1-0.2,0-0.7C1333.5,501.3,1333.5,501,1333.4,500.3z"/>
				<path class="st103" d="M1333.3,499.4c0-0.8-0.1-1.9,0.1-0.4c-0.1-1.4-0.3-2-0.3-1.9C1333.1,497.3,1333.2,498.1,1333.3,499.4z"/>
				<path class="st103" d="M1332.6,492.3c-0.1-0.4-0.1-0.7-0.2-1.1l-0.3-0.9C1332.2,490.7,1332.6,492.3,1332.6,492.3z"/>
				<path class="st103" d="M1332.7,510.1c0,0.1,0.2-0.5,0.3-0.6l0.1-1.1C1333,509,1332.8,510.1,1332.7,510.1z"/>
				<path class="st103" d="M1332.9,509.6l-0.2,1.6C1333,509.8,1333,509.5,1332.9,509.6z"/>
				<path class="st103" d="M1333.8,502.9l-0.2-2.6c0.1,1.1,0.2,2.1,0.2,3.1C1333.8,503.3,1333.8,503.1,1333.8,502.9z"/>
				<polygon class="st103" points="1331.2,516 1331.4,515.1 1331,516.7 				"/>
				<path class="st103" d="M1329.8,519.7c0.2-0.6-0.5,0.8-0.3,0.1c-0.5,1-0.8,1.9-1.1,2.6C1328.9,521.8,1329.2,520.9,1329.8,519.7z"
					/>
				<path class="st103" d="M1327.9,523.8c0.2-0.4,0.4-0.8,0.6-1.3C1328.2,523,1328,523.4,1327.9,523.8z"/>
				<path class="st103" d="M1332.1,513.8c0,0.1-0.2,0.3-0.5,1.2l0.3-0.6C1332,514.2,1332,514,1332.1,513.8z"/>
				<path class="st103" d="M1331.9,514.4L1331.9,514.4c-0.2,0.7-0.4,1.1-0.4,1.3C1331.5,515.5,1331.7,515.1,1331.9,514.4z"/>
				<path class="st103" d="M1332.1,513.7c0,0.1,0,0.1,0,0.2C1332.1,513.7,1332.1,513.7,1332.1,513.7z"/>
				<path class="st103" d="M1333.5,507.1c0,1-0.2,2.9,0.1,1C1333.6,507.4,1333.4,508.5,1333.5,507.1z"/>
				<path class="st103" d="M1332.5,513l0.4-1.7c0,0-0.1,0.3-0.1-0.1L1332.5,513z"/>
				<polygon class="st103" points="1332.3,513.7 1332.5,513 1332.3,513.6 				"/>
				<path class="st103" d="M1329.3,521.3c-0.2,0.7-0.6,1.4-1.1,2.2c0.5-0.9,1-1.8,1.4-2.6C1329.6,520.7,1329.7,520.3,1329.3,521.3z"
					/>
				<path class="st103" d="M1330.8,518c0,0,0,0.1-0.1,0.2C1330.8,518.1,1330.8,518,1330.8,518z"/>
				<polygon class="st103" points="1323.4,531 1323.5,530.9 1323.5,530.8 				"/>
				<path class="st103" d="M1329.7,520.7c0.3-0.7,0.5-1.1,0.6-1.5C1330.1,519.7,1329.8,520.2,1329.7,520.7
					C1329.6,520.9,1329.6,521,1329.7,520.7z"/>
				<path class="st103" d="M1326.6,526c0.2-0.3,0.5-0.7,0.7-1.1C1327.1,525.2,1326.7,525.9,1326.6,526z"/>
				<path class="st103" d="M1330.6,518.4L1330.6,518.4C1330.5,518.5,1330.5,518.5,1330.6,518.4z"/>
				<path class="st103" d="M1330.6,518.4c-0.1,0.4-0.2,0.7-0.3,0.9c0.1-0.4,0.3-0.8,0.4-1.2C1330.7,518.3,1330.6,518.3,1330.6,518.4
					z"/>
				<path class="st103" d="M1322.2,533.5c0-0.2,1.2-1.7,2.3-3c0.9-1.4,0-0.7-1,0.3c0,0.1,0.1,0.1-1,1.5c0.4-0.4,2.4-2.9,1.6-1.7
					c-1.3,1.9-1.2,1.5-1.9,2.3c0.7-0.6-1.7,2.4-1.3,2.1c0.4-0.5,0.8-1,1.3-1.6C1322.3,533.4,1321.8,533.9,1322.2,533.5z"/>
				<path class="st103" d="M1325.4,528.3l0.4-0.6c-0.5,0.7-0.8,1.1-1.5,1.9c-0.7,1-0.8,1.2-0.8,1.3l1.1-1.4l1-1.4L1325.4,528.3z"/>
				<path class="st103" d="M1327.4,525c-0.2,0.5-1,2-0.4,1.2c1.1-1.8,0.7-1.3,1.2-2.4C1326.6,526.8,1328.6,523.1,1327.4,525
					c0.4-0.6,0.6-1.1,0.9-1.6C1328,523.9,1327.7,524.4,1327.4,525c0-0.1,0-0.1,0-0.2l0,0l0,0c0.1-0.1,0.1-0.2,0,0
					C1327.4,524.8,1327.4,524.8,1327.4,525L1327.4,525c-0.5,0.8-0.1,0.1,0-0.2l0,0l0,0c-0.6,1-1.1,1.9-1.7,2.8
					C1326.1,527.2,1326.5,526.4,1327.4,525z"/>
				<path class="st103" d="M1333.6,509.8C1333.6,509.9,1333.6,509.9,1333.6,509.8C1333.5,510.1,1333.5,510.2,1333.6,509.8z"/>
				<path class="st103" d="M1333.3,511.2c0-0.2,0-0.5,0.2-1.2c0.1-0.7,0.1,0,0.1,0c0-0.5,0.2-1.7-0.1-0.2v0.2
					c-0.2,1.3-0.8,2.9-0.8,2.7C1332.8,512.4,1333,512,1333.3,511.2z"/>
				<path class="st103" d="M1330.8,518.5c-0.3,0.9-0.7,1.7-1,2.5l0.7-1.3h-0.1C1331,518.4,1330.8,518.7,1330.8,518.5z"/>
				<path class="st103" d="M1323.1,531.2l0.1-0.4c-0.3,0.5-0.5,0.9-0.9,1.4C1322.7,531.9,1322.9,531.5,1323.1,531.2z"/>
				<path class="st103" d="M1320.9,533.9v-0.2c-0.2,0.3-0.4,0.5-0.6,0.8L1320.9,533.9z"/>
				<path class="st103" d="M1289.6,611.9l-0.3-0.7C1289.4,611.5,1289.5,611.7,1289.6,611.9z"/>
				<path class="st103" d="M1290.9,617.4L1290.9,617.4C1290.9,617.3,1290.9,617.2,1290.9,617.4z"/>
				<path class="st103" d="M1252.7,588.9c-0.8,0.9-1.6,2-1.5,1.9l0.3-0.3C1252,589.8,1252.4,589.3,1252.7,588.9z"/>
				<path class="st103" d="M1260,641.4c-0.1-0.1-0.2-0.1-0.3-0.2c-0.3-0.1-0.6-0.1-0.8-0.2C1259.2,641.2,1259.6,641.3,1260,641.4z"
					/>
				<path class="st103" d="M1260.9,641.2c0.5,0.2,1,0.3,1.5,0.5C1262,641.6,1261.5,641.5,1260.9,641.2z"/>
				<path class="st103" d="M1264.5,597.1l-0.9,0.1C1265,597.2,1264.4,597.2,1264.5,597.1z"/>
				<path class="st103" d="M1292.4,556.6c-0.9,0.5-1.6,0.9-2.2,1.3C1291.3,557.3,1292.2,556.9,1292.4,556.6z"/>
				<path class="st103" d="M1291.4,613.6c-0.2-0.5-0.2-0.7-0.3-0.7C1291.3,613.5,1291.4,613.8,1291.4,613.6z"/>
				<path class="st103" d="M1287.7,559.4c0.2-0.1,0.3-0.2,0.5-0.3c0.6-0.4,1.3-0.8,2.1-1.3C1289.5,558.4,1288.6,558.8,1287.7,559.4z
					"/>
				<path class="st103" d="M1208.6,681.9c0,0.1,0,0.2,0,0.3C1208.6,682.2,1208.6,682.1,1208.6,681.9z"/>
				<path class="st103" d="M1214.8,715.1c-0.1-0.3-0.2-0.9-0.4-1.4C1214.5,714,1214.6,714.4,1214.8,715.1z"/>
				<path class="st103" d="M1310.6,543.8C1311.1,543.4,1310.7,543.7,1310.6,543.8L1310.6,543.8z"/>
				<path class="st103" d="M1313.7,541.8c-0.1,0.1-0.2,0.2-0.2,0.2C1313.5,542,1313.6,541.9,1313.7,541.8z"/>
				<path class="st103" d="M1281.7,564.1L1281.7,564.1C1281.9,564,1281.8,564,1281.7,564.1z"/>
				<path class="st103" d="M1311.4,543.2c-0.2,0.2-0.5,0.4-0.8,0.6C1310.9,543.6,1311,543.5,1311.4,543.2z"/>
				<path class="st103" d="M1311.3,543.2c0.2-0.2,0.4-0.3,0.5-0.4C1311.9,542.7,1311.8,542.8,1311.3,543.2z"/>
				<path class="st103" d="M1309.8,544.5c0.3-0.3,0.7-0.5,1-0.8c-0.1,0.1-0.2,0.1-0.1,0.1C1310.5,543.9,1310.2,544.1,1309.8,544.5z"
					/>
				<path class="st103" d="M1219.5,622.4L1219.5,622.4C1219,623.1,1219.1,622.9,1219.5,622.4z"/>
				<path class="st103" d="M1245.7,607.3L1245.7,607.3L1245.7,607.3L1245.7,607.3z"/>
				<path class="st103" d="M1245.3,609.9c0-1.2,0.2-1.8,0.4-2.6l-0.5,0.8C1245.2,608.7,1245.2,609.3,1245.3,609.9z"/>
				<path class="st103" d="M1281.2,601.3c0.5,0.4,1,0.7,1.5,1.2c-1.9-1.3-3.2-2.1-1.9-1c0.1,0,0.5,0.2,1.1,0.6c0.6,0.4,1.3,1,2,1.6
					c0.6,0.7,1.3,1.3,1.8,1.8s0.8,0.9,0.9,0.9c0.2,0.3,0.5,0.7,0.7,1.1c-0.2-0.3-0.2-0.3-0.4-0.6c1.1,2.1,1.3,1.3,2.5,4.1
					c0.4,1,0.6,1.8,0.3,1.1c0.4,0.7,0.6,1.5,0.8,2.3c0.2,0.7,0.1,0.5-0.1-0.1c0.2,0.6,0.3,1.2,0.4,1.8s0.3,1.2,0.3,1.8l0,0
					c0.1,0.5,0.3,1.7,0.4,2.3c0,1,0-0.5-0.1-0.2c0,0.7,0.1,1.4,0.1,2.1c-0.1,0.4-0.1,0.2-0.1-0.3s-0.1-1.3-0.1-2
					c-0.4,1.9,0.3,1.7-0.6,5.7c0.1-0.6,0.2-1.3,0.3-1.9c-0.2,0.6-0.3,1.3-0.5,2.1c-0.2,0.8-0.5,1.7-0.8,2.6c0.1-0.2,0.5-1.3,0.8-2
					c0.3-0.7,0.4-1.1,0.2,0c-0.1,0.3-0.2,0.7-0.3,1.1c-0.1,0.4-0.2,0.9-0.4,1.5c-0.1,0-0.2,0.3-0.4,0.7c-0.2,0.5-0.4,1.1-0.8,1.7
					l-0.1-0.2c-0.7,1.4-0.6,1.3-1,2.2c-0.2,0.4-0.4,0.7-0.6,0.9c-0.2,0.2-0.4,0.4-0.5,0.5c-0.3,0.2-0.4,0.4-0.6,0.5
					c-1.9,2.1,1.5-1.3-0.8,1.2c-0.4,0.4-0.8,0.8-1.2,1.1s-0.8,0.7-1.2,1c-0.4,0.4-0.9,0.6-1.4,1c-0.5,0.3-1,0.7-1.7,1
					c-1.5,0.7,0.2-0.2-0.3,0c-0.4,0.2-0.8,0.6-1.3,0.8c-0.3,0.1-0.2,0-0.2,0c-1.1,0.5,0,0.2-1.9,0.9c-0.2,0.1-1.2,0.4-2.4,0.6
					c-0.6,0.1-1.3,0.2-2,0.3c-0.7,0.1-1.3,0.1-1.9,0.3c-0.6,0,0.3-0.1,0.1-0.2c-1.7,0.1-2.4,0.2-2.9,0.1c-0.6,0-1.2,0.1-2.5-0.1
					l-1.1-0.3c-0.4-0.1-0.7-0.2-1.1-0.4c0.8,0.3,0.7,0.3,0.1,0.2c-0.3,0-0.7-0.1-1.1-0.2c-0.4-0.1-0.9-0.3-1.4-0.4
					c0.6,0.3,1,0.6,1.4,0.6c-0.5-0.1-1-0.3-1.5-0.5c-0.5-0.2-1-0.3-1.5-0.6c-0.3-0.2,0-0.1,0.5,0.1c-0.2-0.1-0.4-0.2-0.5-0.2
					c-1-0.6-0.4-0.4,0.3-0.1c0.3,0.2,0.7,0.4,1,0.5c0.8,0.2,1.5,0.3,1.3,0.2c-0.2-0.1-0.6-0.2-1-0.3c0.2,0,0.3,0.1,0.2,0
					c-0.1-0.1-0.4-0.1-0.9-0.3c-0.2-0.1-0.4-0.3-0.6-0.5h-0.2c-0.6-0.3-1.2-0.6-1.7-1l-1.6-1.1c-2.3-1.6-4.4-3-6.9-6.9
					c0.7,0.9,0.3,0.1,0.5,0.1c0.5,1.2,2,2.8,3.5,4.5c-0.8-0.9-0.6-0.8-0.4-0.5c-1-1-1.9-2.1-2.6-3.1c0.2,0-0.4-0.8-0.9-1.8
					c0.1,0.4-0.3-0.2-0.9-1.2c-0.5-1-1.1-2.3-1.4-3c0.1-0.1,0.2,0.2,1.1,2.2c-0.7-2.2-1.4-2.6-1.9-4.8c0.1,0.5,0.2,0.8,0.3,0.9
					c-0.2-0.6-0.5-1.6-0.6-2.3c-0.1-0.8-0.2-1.3-0.1-1l0.1,0.5c-0.2-0.8-0.3-1.9-0.4-2.9c-0.2-1.1-0.1-2.3-0.2-3.3
					c0-2.2,0.1-4,0-4.3c0,0,0.2,0.5,0.2,0.7c0-1,0-2,0-3c0.1-1,0.1-2.1,0.3-3c0.1,0.6,1-1.3,0.5,1.5c0.2-0.8,0.5-1.7,0.9-3.3
					c-0.2,0.5-0.6,1.3-0.5,0.5c0.4-1,0.6-1.3,0.7-1.7c0.2-0.4,0.3-0.8,0.9-2c-0.4,0.8-0.3-0.2,0.2-1.4c0,0.2,0.3,0,0.2,0.5l0.5-1.6
					l0.6-1.5c-0.3,0.8,0.2,0.2,0.6-0.4c-0.2,0.3,1.3-2.5,1.7-3.2l-0.7,1.2c0.9-1.6,1.3-2.4,1.7-3.1c0.4-0.8,0.8-1.6,1.9-3
					c-0.2,0.4-0.3,1.1,0.8-0.4c0.2-0.4,0.6-1.3,1.3-2.4c0.7-1.1,1.5-2.4,2.5-3.5l0.5-0.4c0.5-0.6,1.1-1.3,1.7-1.9
					c-1,1.2-3.5,4.7-4.8,6.7c0.9-1,0.3-0.2,1.6-1.8c0.5-0.5-0.6,0.9-1,1.4c1-1.2,2.1-2.4,3.1-3.5c-0.1,0,0.4-0.7,1.1-1.4
					c0.6-0.7,1.3-1.4,1.1-1.4c-0.6,0.6-1.2,1.3-1.8,1.9l-1.7,2c-0.3,0.1,1.6-2.5,4.1-4.9c0.7-0.5-0.3,0.7-0.2,0.7
					c0.3-0.3,2.3-2.3,2.5-2.5c-0.4,0.3-0.7,0.7-1,1c0.7-0.6,1.3-1.2,1.9-1.7c0.6-0.6,1.2-1.2,2.2-1.8c0.6-0.5,2-1.3,2-1.5
					c-1.2,0.6-1.7,0.3-1.2-0.4c0.2-0.2,3.3-2.4,4.2-2.7c1.2-0.6-1.4,1.5-0.4,0.9c0-0.1,0.6-0.5,0.8-0.7c0.7-0.5-0.2,0.3,1.3-0.7
					c0.1-0.3,2.9-2.1,0.6-0.6c1.4-1.1,1.6-1,3.2-2.2c-0.6,0.3,1.3-1.4,2.7-2.4c-0.1,0.1,0.3-0.1,0.5-0.1c3-2,4.7-2.8,7.4-4.6
					c0.3-0.1,1.7-0.9,1.2-0.5c0.4-0.3,0.7-0.6,1.6-1.1c1.8-0.9-2,1.3-0.6,0.6c0.1-0.2,2.2-1.6,3.3-2.4c-0.5,0.1-2.8,1.8-4.1,2.6
					c-0.1-0.2,2-1.8,4.8-3.7c2.3-1.6,1.1-0.5,1.5-0.8c4.3-2.8,3.5-2.7,7.1-5.1c1.5-0.9,0.2,0.2,0.6,0.1c-1.8,1.4-2.8,1.9-4.1,2.7
					l1.6-1c-0.6,0.5-1.8,1.3-2.5,1.8c0.6-0.3,2.5-1.6,4.5-3c2.1-1.5,4.3-3.1,5.9-4.4c0.5-0.5,1.5-1.3,1-1c-0.3,0.3-0.7,0.6-1,0.8
					c-1,0.7,1.8-1.7,0.5-0.7c0.6-0.6,1.3-1.2,2.1-1.9c0.7-0.7,1.5-1.4,2.5-2.2l0.4-0.2c-0.1,0-1.2,1-1.7,1.5
					c0.7-0.7,2.8-2.4,3.4-3.2l-1.3,1.1c0.6-0.6,1.3-1.3,1.9-2.1c0.7-0.8,1.4-1.5,2.1-2.3c-0.8,0.6-0.3,0.4-1.5,1.4
					c0.5-0.4-0.4,0.6-1.3,1.5c-0.9,0.9-1.8,1.7-0.9,1.1c-1.3,0.9-2,1.8-3.6,2.9c0.1,0,0.6-0.4-0.8,0.8c-0.1,0.1-0.2,0.2-0.3,0.3
					c0,0-0.1,0-0.1,0.1c0,0,0.1,0,0.1-0.1c-0.1,0.1-0.1,0.1,0,0c0.3-0.3,0.6-0.5,0.8-0.5c-0.6,0.7-2.7,2.5-3.4,3
					c-0.9,0.6,0.3-0.3-0.2,0c-0.4,0.3-0.7,0.7-1.1,1c-0.2,0-2.4,1.5-0.4,0l-1.8,1.4c-1.1,0.7-2.5,1.8-3.4,2.5
					c-0.9,0.6-2.2,1.6-1.4,1l-2.8,2l0,0c-2.9,1.9-5.9,4-9.4,5.9c-1,0.7-2,1.3-3.6,2.4l-0.4,0.1c-1.3,0.8-3.8,2.4-4.3,2.7
					c-1.6,0.6-6.1,4-8.2,5.6v0.2c-1.5,1.1-2.8,2.2-4.6,3.6h0.2c-1.5,1.3-3.9,3.1-6.1,5.3c0.1-0.2,0.7-0.7,1.1-1.1
					c-2.8,2.4-5.3,5.7-7.4,8.2c-0.5,0.7-0.9,1.2-1.3,1.6c0-0.1,0.1-0.1,0.1-0.2c-0.1,0.1-0.1,0.2-0.2,0.3c-0.2,0.3-0.5,0.6-0.7,0.9
					c0.2-0.3,0.4-0.5,0.6-0.8c-0.4,0.5-1,1.4-1.5,2.2l-0.3,0.3c0,0.1-0.1,0.1-0.1,0.2c-0.6,0.8-0.4,0.7,0,0.3
					c-0.2,0.4-0.5,0.8-0.6,1.1c-0.6,0.5-1.2,2.3-1.9,3c-0.1,0.3-0.6,1.4-1.1,2.5s-0.9,2.3-0.9,2.5c0,0-0.2,0.3,0-0.2
					c-0.5,1-0.8,2-1.1,2.9l-0.3,0.4c-0.2,0.8-0.3,1.6-0.4,2.4c-0.3,0.7-0.4,1.2-0.5,1.3c-0.1,0.1-0.1-0.1,0-0.8
					c-0.5,3.3-0.5,2.7-0.7,5.6l-0.1-0.2c-0.1,1,0,2.6-0.1,3.3c-0.1,1.2-0.1,4,0.6,7.4c0.3,1.7,0.8,3.3,1.4,5
					c0.6,1.7,1.4,3.1,2.1,4.5c-0.2-0.6,0.2,0,0.6,0.8s1,1.7,1.2,1.7c0.2,0.3,0.6,1,0,0.3c2,2.4,3,3.5,4.8,4.7
					c0.2,0.3-0.6-0.3-0.4-0.1c0.1,0.1,0.3,0.2,0.5,0.4c0.2,0.1,0.4,0.3,0.6,0.4c0.3,0.2-0.4-0.2-0.8-0.5c2.6,1.9,3.1,1.7,3.3,1.6
					c0.7,0.4,1.2,0.7,1.7,0.9c0.5,0.2,1,0.3,1.6,0.5c0.5,0.2,1.4,0.6-0.5,0c0.3,0.1,0.8,0.3,1.5,0.5c0.3,0.1,0.7,0.2,1.1,0.3
					c0.4,0.1,0.8,0.1,1.2,0.2c1.5,0.3,2.9,0.3,3,0.3c0.3,0.1,1.5,0,1.8,0c1.2,0,1.9-0.1,2.5-0.2c0.7,0,1.3-0.2,2.5-0.4l-0.7,0.1
					c0.9-0.4,2-0.5,3.7-1.1l0,0c2.1-0.7,2.5-1,2.9-1.2c0.4-0.2,0.9-0.4,2.7-1.5h-0.3c0.1-0.2,0.9-0.8,1.9-1.5c1-0.8,2.2-1.8,2.8-2.7
					l-0.7,0.7c0.9-1.1,2.7-2.8,3.3-4.1c0.2-0.3-0.2,0.5-0.4,0.9c0.9-1.6,1-1.8,0.9-1.8c-0.1,0-0.2,0.1,0.3-1.3
					c0.3-0.5,0,0.7,0.7-1.1c0.1-0.2,0.2-0.7,0.3-1.3c0.1-0.3,0.1-0.6,0.2-1c0.1-0.4,0.1-0.7,0.2-1.1c0.1-0.4,0.1-0.8,0.2-1.2
					c0-0.4,0.1-0.8,0.1-1.2c0.1-0.8,0.1-1.6,0.1-2.2c-0.1,0.6-0.1,1.1-0.2-0.2c0-1-0.1-2.3-0.2-3.5c-0.2-1.3-0.4-2.5-0.8-3.3
					c-0.1-0.2-0.1-0.3,0-0.4c-0.2-0.7-0.7-1.9-1.1-2.8c-0.5-1-1-2-1.3-2.3c-0.1-0.3-0.5-1-1-1.8c-0.3-0.4-0.6-0.8-0.9-1.2
					c-0.2-0.2-0.3-0.4-0.5-0.6l-0.6-0.6c-0.4-0.4-0.8-0.8-1.1-1.1c-0.4-0.3-0.7-0.6-1-0.8c-0.6-0.5-1-0.8-0.9-0.9
					c-1.3-0.9-2.5-1.7-3.9-2.3h0.1c-2.6-1.3-3.7-1.4-4.7-1.6c-0.7-0.2-0.2-0.1-0.1-0.1c-0.5-0.1-1-0.3-1.4-0.4
					c-0.4-0.1-0.8-0.2-1.2-0.2c-0.7-0.1-1.3-0.2-1.8-0.3c-0.5-0.1-1.1-0.1-1.7-0.1s-1.3,0-2.2,0l-0.4-0.1c-0.5,0-2,0-3.9,0.1
					c-2,0.1-4.2,0.5-6.3,1c0,0,0.1-0.1,0.4-0.2c-2.3,0.6-5,1.3-7.3,2.1c-1.2,0.4-2.2,0.8-3,1.2c-0.9,0.4-1.5,0.8-1.8,1
					c-0.9,0.4-1.8,1-2.7,1.5c3.5-1.8-0.4,0.5,1.1-0.2c-1.4,0.7-3.6,1.8-2,0.8l0.3-0.1c0.3-0.3-0.9,0.3-2,0.9
					c-1.2,0.7-2.3,1.4-2.3,1.3c-6.6,4.2-12.3,9.4-16.6,15.4l0.7-0.6c-0.5,0.7-1.1,1.4-1.5,2.1c-0.4,0.5-0.6,0.7,0.4-0.9
					c-0.7,0.7-1.7,2.5-1.7,2.6c-2,3,0.5-1.3,0-0.4c-0.3,0.4-0.5,0.9-0.8,1.3l0.2-0.3c-0.5,1.1-0.6,1.2-1.7,3.1
					c-0.7,1.2-0.4,0.6-0.7,1.1c0,0,0,0-0.1,0.1c-0.1,0.1-0.2,0.3-0.3,0.6l-1.4,2.9l0.7-1.1c-0.6,1.3-1.2,2.7-0.5,1.5
					c-0.3,0.5-0.7,1.4-1.2,2.5c-0.5,1.2-1,2.5-1.4,3.9c-0.9,2.7-1.6,5.5-1.8,6.1c-0.2,1-0.4,2-0.6,2.9c-0.2,1-0.4,2.2-0.6,3.3
					c0.1-0.6,0.3-0.9,0,1.2c-0.1-0.4-0.3,0.5-0.5,1.8c-0.2,1.3-0.4,2.8-0.5,3.6c0.1-0.8,0,0.8,0,2.2c-0.1,1.4-0.1,2.6,0.1,1.5
					c-0.1,1.8-0.1,0.1-0.3,1.5c0,4.1-0.1,9.2,0.5,14.3c0.1,0.1,0-0.8,0.2,0.3l0.1,2.7c0.2,1,0.4,0.9,0.5,2.7c0-0.3,0-0.7,0.1,0
					c1.2,10,4.1,20.2,6.5,30.1c-0.3-1.4,0-0.5,0.3,0.6c-0.2-0.7,0.1,0,0.1-0.2l1,4.1c0.4,0.7,1.3,4.4,1.6,4.8l-0.4-1.3
					c0.7,1.7-0.3-2.5,0-2.4c-0.8-1.9-1.2-5.2-2.4-8.3c-0.1-0.7,0.2,0.6,0.2,0.2c-0.3-0.8-0.6-1.8-1.1-3.5l0.1,0.2
					c-1.4-5.1-1.8-7.3-2.9-13v0.5c-0.2-1.3-0.3-1.5-0.4-2.1c-0.5-1.4,0.7,3.5,0.2,2.3c-0.1-0.9-0.5-3-0.9-5.2s-0.7-4.2-0.7-4.8
					c-0.3-2-0.1,0.6-0.4-1.4v-0.5l-0.2-0.5c-0.2-1.3-0.1-2-0.1-2c0,0.3,0.1,0.9,0.2,1.2c-0.2-1.7-0.6-4.6-0.6-5.2l0.1,1.9
					c-0.7-5.3-0.8-11.8-0.7-16.9l-0.1,0.4c0-2,0.1-2.7,0.2-3.5s0.2-1.7,0.4-3.8v0.2c0-0.9,0.2-2,0.4-3.1c0,0.6,0.1,0,0.2-0.4
					c0.1-0.5,0.2-0.9,0.1-0.2c0.7-4.2,0.3-2.1,0.6-4.9l0.2-0.6c0.1-1,0.1-1.1,0.6-3.1c-0.4,1.8,0.5-1.3,0.1,0.7
					c1.4-4.3,1.8-6.5,2.8-8.2c0.3-1-0.1-0.1-0.6,0.9c-0.4,1-0.8,2.2-0.6,1.6c-0.4,0.9,0.3-1.7,1-2.9c0.6-1.4,1.2-2.2,2.8-5.4
					c-0.2,0.3-0.2,0.4-0.3,0.7c0.7-1.2,1.1-2.5,2.1-3.7c0.3-0.9,1.1-1.9,1.1-2.2c-0.6,0.9-1.2,1.9-1.7,2.8c0.4-0.8,0.9-1.7,1.4-2.5
					c0.6-0.9,1.2-2,2.2-3.1c-0.1,0.2-0.6,1-1,1.6c0.6-0.7,1-1.5,1.6-2.2c0,0.2-0.6,1-1.3,2c-0.7,1-1.5,2.2-2,3.1
					c0.5-0.8,2-3.2,1.6-2.3c0.3-0.7,0.8-1.4,1.5-2.2c0.6-0.8,1.4-1.7,2.1-2.6v0.2c0.2-0.3,0.7-1,1.2-1.5c-0.3,0.4-0.5,0.7-0.7,1.1
					c0.6-0.8,1.3-1.5,2-2.2c0.7-0.7,1.4-1.3,2.1-2c-2.7,2.8-0.8,0.5-2,1.7c1.7-1.8,2.3-2.3,2.8-2.6c0.7-0.5,1.3-1,3.4-2.7
					c-0.6,0.5-2.2,1.8-1.4,1c0.8-0.7,1.9-1.5,2.5-1.8c2.8-2.3-0.5,0.2,0.7-0.8c1.1-0.6,1.5-1.1,2.7-2.1l0.1,0.1
					c3.5-2.1,0.8-0.9,4-2.6l-1.3,0.9l1.7-1l-0.3,0.3c0.9-0.6,1.5-0.9,2.2-1.2c0.6-0.3,1.2-0.6,2.2-1c-0.5,0.1,0.1-0.3,1.9-1.1
					c1.2-0.4-0.6,0.4,1.8-0.6c-0.5,0.3-1.1,0.6-2.2,0.9c-0.1,0.1-0.5,0.3-0.6,0.4c0.7-0.3,1.4-0.6,2.2-0.9c0.8-0.3,1.5-0.6,1.9-0.7
					c-0.3,0.1-0.8,0.2-1,0.3c1.2-0.5,2.4-1,3.5-1.4c0.6-0.1,0.1,0.1-0.3,0.2c0.7-0.2,1.2-0.4,2.3-0.8c-0.3,0.2-0.2,0.3-1.7,0.8
					c1.2-0.4,2.3-0.7,3.4-1c0.2,0,1.9-0.2,1.4-0.1c2-0.3,4.8-1,7.4-0.9c0.1,0,0.4-0.1,1-0.1c2.5,0.1,4.6,0.3,7.4,0.9
					c0.5,0.2,1.1,0.4,1.6,0.6c2.2,0.7-2.1-0.9,1.6,0.2c2.5,0.9,0.9,0.5,1.7,0.9c1.3,0.5,3.4,1.4,5.2,3
					C1282.4,602.1,1281.9,601.7,1281.2,601.3z M1290.6,625.9c0.1-0.5,0.2-1.6,0.3-2C1291,624.5,1290.8,625,1290.6,625.9z
					 M1256.4,639.3c0.4,0.2,0.9,0.6,1.5,0.9c-0.2-0.1-0.5-0.2-0.8-0.4C1256.8,639.6,1256.5,639.4,1256.4,639.3z M1304.1,548.9
					C1304.1,548.9,1304,548.9,1304.1,548.9C1303,549.6,1303.4,549.4,1304.1,548.9z M1306.1,547.5
					C1306.3,547.3,1306.3,547.3,1306.1,547.5c0,0-0.5,0.4-1,0.8C1305.3,548.2,1305.6,548,1306.1,547.5z M1214.5,628.8l0.3-0.4
					C1214.3,629.4,1214.4,629.1,1214.5,628.8z"/>
				<path class="st103" d="M1260.8,641.3c0.1,0.1,0.2,0.1,0.2,0.2C1261.2,641.5,1261.2,641.4,1260.8,641.3z"/>
				<path class="st103" d="M1264.7,597.1L1264.7,597.1c-0.1,0-0.2,0-0.2,0H1264.7z"/>
				<path class="st103" d="M1273.5,570.3c-0.4,0.3-0.7,0.5-0.9,0.6C1272.7,570.9,1272.9,570.7,1273.5,570.3z"/>
				<path class="st103" d="M1316.3,538.5l-1.2,1.2c0.6-0.6,0.8-0.7,1.1-1C1316.2,538.7,1315.9,538.9,1316.3,538.5z"/>
				<path class="st103" d="M1326.1,528.3c0.1-0.2,0.3-0.4,0.4-0.6h-0.1C1325.9,528.5,1325.5,529,1326.1,528.3z"/>
				<path class="st103" d="M1317.7,537.8c0.2,0,0.9-0.8,1.7-1.7l-0.1,0.2C1319.4,536,1318.6,536.9,1317.7,537.8z"/>
				<path class="st103" d="M1319.6,536c0.2-0.3,0.5-0.5,0.7-0.8C1320.3,535,1320,535.5,1319.6,536z"/>
				<path class="st103" d="M1308.7,545.4c0.5-0.3,0.2-0.3,0.5-0.5C1309.6,544.4,1306.4,547.4,1308.7,545.4z"/>
				<polygon class="st103" points="1318.6,537.4 1318.3,537.6 1317.9,538.2 				"/>
				<path class="st103" d="M1311.9,543.5c0.5-0.4,1-0.8,1.5-1.2c0,0,0.1-0.2,0.3-0.4C1312.8,542.8,1311.8,543.5,1311.9,543.5z"/>
				<path class="st103" d="M1313.7,542c0.5-0.4,0.9-0.8,1.1-1C1314.6,541.2,1314,541.7,1313.7,542z"/>
				<polygon class="st103" points="1316.9,539.2 1316.4,539.5 1315.6,540.4 				"/>
				<path class="st103" d="M1295.9,555l-1.7,1.1c-0.2,0.2,0.3-0.1,1-0.5C1295.5,555.3,1296.1,554.9,1295.9,555z"/>
				<path class="st103" d="M1301.1,552c-0.5,0.3-0.5,0.3-0.8,0.4v0.2L1301.1,552z"/>
				<path class="st103" d="M1296.2,555.3c-0.1,0.2-2.4,1.7-0.3,0.3C1296.1,555.4,1297.8,554.3,1296.2,555.3z"/>
				<polygon class="st103" points="1270.8,571.8 1271.2,571.4 1271,571.3 				"/>
				<path class="st103" d="M1252.8,591.2c1.4-2,0.2-0.6,1.5-2.3c0.3-0.5-1.1,1.4-0.8,0.9C1252.7,591,1252.3,591.7,1252.8,591.2z"/>
				<path class="st103" d="M1253.5,589.8c0.1-0.2,0.3-0.4,0.4-0.6C1253.7,589.5,1253.6,589.7,1253.5,589.8z"/>
				<polygon class="st103" points="1216.3,720.6 1216.6,722.1 1216.5,721.1 				"/>
				<path class="st103" d="M1217.2,723.3l-0.1,0.4l0.4,0.9C1217.4,724.2,1217.2,723.6,1217.2,723.3z"/>
				<path class="st103" d="M1288.9,629.6L1288.9,629.6c0.1-0.1,0.3-0.4,0.5-1.1L1288.9,629.6z"/>
				<polygon class="st103" points="1288.7,610.2 1288.8,610.5 1288.7,609.8 				"/>
				<path class="st103" d="M1276.5,599.2c0.3,0.1,0.7,0.3,1,0.4c0.3,0.2,0.7,0.3,1,0.5C1277.2,599.4,1276.4,599,1276.5,599.2z"/>
			</g>
			<polygon class="st104" points="1334.2,488.7 1326.8,484.9 1329.5,482.7 			"/>
			<path class="st105" d="M1305.3,457.5l14.7,33.3l9.4-8.1c0,0,4.6,7.2,4.7,5.9c0.1-1.2,0-8.4,0-8.4l9.3-6.1L1305.3,457.5z"/>
			<polygon class="st106" points="1305.5,457.8 1333.6,480.1 1333.8,487.5 1330.6,482.3 			"/>
		</g>
		<g>
			<path class="st107" d="M1161.2,751.5h65.4l9.8-40.1c0.9-3.7-1.9-7.3-5.7-7.3h-53.4c-2.7,0-5,1.9-5.7,4.5L1161.2,751.5z"/>
			<path class="st83" d="M1163.9,751.5l10.4-42.8c0.7-2.6,2.9-4.5,5.7-4.5h53.4c2,0,3.6,1,4.7,2.4l-44.9,44.9L1163.9,751.5
				L1163.9,751.5z"/>
			<path class="st101" d="M1238.2,706.6c1,1.4,1.4,3,1,4.8l-9.8,40.1h-36.2L1238.2,706.6z"/>
			<path class="st82" d="M1134.2,751.5h56.5l-3.3,3.3H1131C1131,752.9,1132.4,751.5,1134.2,751.5z"/>
			<path class="st82" d="M1229.4,751.5c0,1.9-1.5,3.3-3.3,3.3h-38.7l3.3-3.3H1229.4z"/>
			<path class="st107" d="M1131,754.8h29.7c1.9,0,3.3-1.5,3.3-3.3h-29.7C1132.4,751.5,1131,752.9,1131,754.8z"/>
		</g>
		<g>
			<path class="st108" d="M1141.1,619.5c2.3,1.6,5.5,1.7,7.7,0.1c2.3-1.6,3.4-4.5,2.8-7.2c4.3,1.5,9.2-3.8,7.4-7.9
				c2.7-0.3,5.2-2.8,5.3-5.6c0.1-2.8-2-5.5-4.7-6.1c1.3-3.4,0.3-7.6-2.4-10.2c-2.6-2.5-7-3.2-10.3-1.7c-0.1-4.4-3-8.6-7.2-10.2
				c-4.1-1.6-9.1-0.5-12.2,2.7c-6.9-4.5-17.4-1.1-20.4,6.5c-5.6-0.3-10.7,5.4-9.6,10.9c-3.2-0.1-6.5,2.2-7.5,5.3
				c-1.1,3.1,0.1,6.9,2.6,8.8c-3.5,4.2-0.7,11.8,4.7,12.7c-1.7,1.4-2.2,3.9-1,5.8c1.1,1.9,3.7,2.5,5.6,1.7c-0.4,2.9,1.2,6,3.7,7.4
				c2.5,1.5,6,1.2,8.2-0.6L1141.1,619.5z"/>
			<g>
				
					<linearGradient id="SVGID_82_" gradientUnits="userSpaceOnUse" x1="1102.8654" y1="754.8953" x2="1146.7805" y2="754.8953" gradientTransform="matrix(1 0 0 1 0 -126)">
					<stop  offset="0" style="stop-color:#F8E6DA"/>
					<stop  offset="1" style="stop-color:#F9B8AA;stop-opacity:0.9697"/>
				</linearGradient>
				<path class="st109" d="M1142.2,602.9c2.2,1.1,2.8,3.9,2.5,6.3c-0.3,2.4-1.4,4.6-1.8,7c-0.5,2.4-0.2,5.1,1.7,6.7
					c0.9,0.7,2.3,1.4,2.3,2.5c0,1.6-2.2,1.8-3.5,2.5c-2.1,1.2-2.5,3.9-2.5,6.4c-0.1,2.4-0.6,5.2-2.7,6.2c-2.7,1.3-5.7-1.5-8.6-2.3
					c-2.7-0.7-5.7,0.4-7.8,2.3c-2.2,1.9-7.8,12.4-9.3,14.8c-5-0.6-9.2-7.6-9.3-15.1l14.4-17.4c-1.8,0.2-3.4-0.9-4.3-2.5
					c-0.9-1.5-0.7-3.5,0.6-4.8c1.2-1.3,6.2-2.8,6.1,2.9c0,0,3.4-3.2,4.8-7.8C1127.5,600.4,1142.2,602.9,1142.2,602.9z"/>
			</g>
		</g>
		<polygon class="st110" points="1192.7,865 1202.3,864.7 1214.6,870.7 1229.9,871.9 1232.2,875.4 1189.4,877.3 		"/>
		<polygon class="st110" points="1259.7,806.3 1268.9,803.4 1282.3,805.8 1297.4,802.7 1300.6,805.4 1260,819.1 		"/>
	</g>
</g>
<g>
	<ellipse class="st81" cx="1379.9" cy="852" rx="29" ry="2.6"/>
	<g>
		<g>
			<polyline class="st111" points="1386.1,763.7 1380.5,783.4 1380.9,803.7 			"/>
			<line class="st111" x1="1371" y1="763.8" x2="1380.5" y2="783.4"/>
		</g>
		<g>
			<g>
				<g>
					<path class="st112" d="M1356.3,757.9c6.1,8.9,12.6,12,16.7,9.5l-22.2-32.5C1350.7,737.6,1350.8,749.9,1356.3,757.9z"/>
					<path class="st113" d="M1350.8,734.3c0,0,0,0.2,0,0.6l22.2,32.5c0.1-0.1,0.2-0.1,0.3-0.2c4-2.7,3.7-10.1-2.5-19.1
						C1364.6,739,1350.8,734.3,1350.8,734.3z"/>
					<path class="st114" d="M1368.2,760c-1.5-2.2-3-4.4-4.5-6.6c-2.9-4.4-6-8.7-9.1-13c0,0-0.1,0-0.1,0.1c2,3,3.9,6,6,8.9
						c-1.8-0.2-3.7-0.3-5.6-0.1c-0.1,0-0.2,0.2-0.1,0.2c1.8,0.3,3.8,0.3,5.8,0.2c0.9,1.4,1.8,2.6,2.7,4c1.5,2.2,2.9,4.4,4.5,6.6
						c1.5,2.2,2.8,4.5,4.5,6.6c0.1,0.1,0.4-0.1,0.3-0.2C1371.4,764.2,1369.7,762.1,1368.2,760z"/>
					<path class="st114" d="M1366.1,757.3c-3-0.3-6.2-0.4-9.3-0.2c-0.1,0-0.1,0.1,0,0.1C1359.8,757.5,1363,757.6,1366.1,757.3
						C1366.2,757.4,1366.2,757.3,1366.1,757.3z"/>
					<path class="st114" d="M1365.8,746.6c-0.5,1.2-1,2.4-1.4,3.5c-0.4,1.1-0.9,2.2-1.1,3.1c0,0.1,0.1,0.1,0.2,0
						c0.6-1.1,0.9-2.1,1.3-3.1c0.4-1.2,0.8-2.4,1.2-3.5C1365.9,746.5,1365.8,746.5,1365.8,746.6z"/>
					<path class="st114" d="M1371.3,755c-0.8,2.1-1.8,4-2.3,6.1c0,0.1,0.1,0.1,0.2,0C1370.3,759,1370.7,757,1371.3,755
						C1371.4,754.9,1371.3,754.9,1371.3,755z"/>
					<path class="st114" d="M1371,763.8c-2.5-0.3-5.1-0.3-7.6-0.2c-0.1,0-0.1,0.1,0,0.1C1365.8,764,1368.5,764.1,1371,763.8
						C1371.1,764,1371.1,763.8,1371,763.8z"/>
				</g>
				<g>
					<path class="st112" d="M1358.1,794.9c8.3,9.1,16.3,11.5,20.4,8.1l-30.4-33.4C1348.6,772.7,1350.7,786.7,1358.1,794.9z"/>
					<path class="st113" d="M1348.1,769c0,0,0,0.2,0.1,0.6l30.4,33.4c0.1-0.1,0.2-0.2,0.3-0.2c4.1-3.7,2.5-12.1-5.9-21.4
						C1364.5,772.1,1348.1,769,1348.1,769z"/>
					<path class="st114" d="M1371.9,795.3c-2.1-2.3-4.1-4.5-6.2-6.8c-4.1-4.5-8.2-8.9-12.4-13.3c0,0-0.2,0-0.1,0.1
						c2.7,3,5.4,6.2,8.1,9.2c-2.1,0.1-4.2,0.3-6.4,0.8c-0.1,0-0.2,0.2,0,0.2c2.1,0.1,4.4-0.3,6.7-0.8c1.3,1.4,2.5,2.7,3.7,4.1
						c2.1,2.3,4.1,4.5,6.1,6.8c2.1,2.3,3.9,4.7,6.2,6.7c0.2,0.1,0.5-0.1,0.4-0.3C1376.2,799.7,1374,797.5,1371.9,795.3z"/>
					<path class="st114" d="M1369.2,792.6c-3.4,0.1-7.1,0.5-10.7,1.3c-0.1,0-0.1,0.1,0,0.1c3.4-0.1,7.1-0.5,10.7-1.2
						C1369.3,792.8,1369.3,792.6,1369.2,792.6z"/>
					<path class="st114" d="M1367.1,780.5c-0.4,1.4-0.7,2.8-1.1,4.2c-0.3,1.3-0.7,2.5-0.7,3.7c0,0.1,0.2,0.1,0.2,0
						c0.5-1.3,0.7-2.5,0.9-3.8C1366.7,783.2,1366.9,781.8,1367.1,780.5C1367.2,780.4,1367.1,780.5,1367.1,780.5z"/>
					<path class="st114" d="M1374.7,789.2c-0.6,2.5-1.4,4.9-1.6,7.3c0,0.1,0.2,0.1,0.2,0C1374.1,794,1374.4,791.6,1374.7,789.2
						C1374.8,789.1,1374.7,789.1,1374.7,789.2z"/>
					<path class="st114" d="M1375.7,799.2c-2.8,0-5.9,0.5-8.7,1.1c-0.1,0-0.1,0.2,0,0.2c2.8-0.1,5.8-0.4,8.7-1
						C1375.8,799.4,1375.9,799.2,1375.7,799.2z"/>
				</g>
				<g>
					<path class="st112" d="M1404.9,790.2c-5.7,12.6-13.3,17.9-19,15.8l20.9-46.3C1407.4,763.2,1410.1,778.8,1404.9,790.2z"/>
					<path class="st113" d="M1406.5,759.1c0,0,0.1,0.3,0.1,0.7l-20.9,46.3c-0.1-0.1-0.3-0.1-0.4-0.2c-5.7-2.5-7-12-1.1-24.9
						C1390.2,768,1406.5,759.1,1406.5,759.1z"/>
					<path class="st114" d="M1390.3,795.5c1.4-3.1,2.8-6.2,4.2-9.3c2.8-6.2,5.7-12.4,8.6-18.6c0-0.1,0.2,0,0.2,0.1
						c-1.9,4.2-3.6,8.4-5.5,12.6c2.3-0.6,4.6-1.2,7.1-1.4c0.1,0,0.2,0.2,0.1,0.2c-2.2,0.8-4.8,1.2-7.4,1.5c-0.9,2-1.7,3.8-2.5,5.7
						c-1.4,3.1-2.8,6.3-4.2,9.3c-1.4,3.1-2.5,6.4-4.2,9.3c-0.1,0.2-0.6,0-0.5-0.2C1387.1,801.6,1388.9,798.6,1390.3,795.5z"/>
					<path class="st114" d="M1392.2,791.6c3.7-1.1,7.7-1.9,11.9-2.4c0.1,0,0.2,0.1,0.1,0.1c-3.7,1.1-7.7,1.9-11.8,2.5
						C1392.2,791.8,1392.1,791.7,1392.2,791.6z"/>
					<path class="st114" d="M1390.3,777.9c0.9,1.4,1.8,2.7,2.5,4.1c0.8,1.3,1.6,2.5,2.1,3.8c0,0.1-0.1,0.1-0.2,0
						c-1-1.2-1.6-2.5-2.3-3.7C1391.6,780.8,1390.8,779.4,1390.3,777.9C1390.1,777.9,1390.3,777.9,1390.3,777.9z"/>
					<path class="st114" d="M1385.2,789.9c1.5,2.4,3.1,4.7,4.2,7.2c0.1,0.2-0.2,0.2-0.3,0.1c-1.7-2.4-2.8-4.8-4.1-7.3
						C1385,789.9,1385.2,789.8,1385.2,789.9z"/>
					<path class="st114" d="M1387.5,801c3-0.9,6.4-1.5,9.7-2c0.1,0,0.2,0.1,0.1,0.1C1394.3,800,1390.9,800.8,1387.5,801
						C1387.4,801.3,1387.3,801.1,1387.5,801z"/>
				</g>
				<g>
					<path class="st112" d="M1398.1,758.8c-4.2,7.4-9.2,10.1-12.5,8.4l15.5-26.8C1401.3,742.5,1401.9,752.2,1398.1,758.8z"/>
					<path class="st113" d="M1401.1,740c0,0,0,0.2,0,0.4l-15.5,26.8c-0.1,0-0.2-0.1-0.2-0.1c-3.2-1.9-3.4-7.7,0.9-15.2
						C1390.5,744.5,1401.1,740,1401.1,740z"/>
					<path class="st101" d="M1388.9,761.1c1.1-1.8,2.1-3.6,3.1-5.4c2.1-3.6,4.2-7.2,6.4-10.8c0,0,0.1,0,0.1,0.1
						c-1.4,2.5-2.7,4.9-4.1,7.4c1.4-0.2,2.8-0.4,4.4-0.4c0.1,0,0.1,0.1,0.1,0.1c-1.4,0.3-3,0.4-4.5,0.5c-0.6,1.1-1.3,2.3-1.9,3.3
						c-1.1,1.8-2.1,3.6-3.1,5.4c-1.1,1.8-2,3.7-3.1,5.4c-0.1,0.1-0.3,0-0.3-0.2C1386.6,764.6,1387.9,762.9,1388.9,761.1z"/>
					<path class="st114" d="M1390.4,758.9c2.4-0.4,4.8-0.7,7.4-0.7c0.1,0,0.1,0.1,0,0.1C1395.4,758.7,1392.9,759,1390.4,758.9
						C1390.4,759,1390.3,758.9,1390.4,758.9z"/>
					<path class="st114" d="M1390.1,750.5c0.5,0.9,0.9,1.8,1.3,2.6c0.4,0.8,0.8,1.6,1,2.5c0,0.1-0.1,0.1-0.1,0
						c-0.5-0.8-0.8-1.6-1.2-2.5C1390.6,752.2,1390.3,751.4,1390.1,750.5C1390,750.4,1390,750.4,1390.1,750.5z"/>
					<path class="st114" d="M1386.1,757.4c0.8,1.6,1.6,3,2.2,4.6c0,0.1-0.1,0.1-0.2,0C1387.3,760.5,1386.7,758.9,1386.1,757.4
						C1386,757.3,1386.1,757.3,1386.1,757.4z"/>
					<path class="st114" d="M1386.9,764.3c1.9-0.4,4-0.5,6-0.6c0.1,0,0.1,0.1,0,0.1C1391,764.1,1389,764.4,1386.9,764.3
						C1386.8,764.4,1386.8,764.3,1386.9,764.3z"/>
				</g>
				<g>
					<rect x="1356.9" y="800.2" class="st115" width="47.5" height="7.6"/>
					<rect x="1356.9" y="807.8" class="st82" width="47.5" height="3.3"/>
					<polygon class="st115" points="1404.5,849.4 1404.5,811.1 1356.9,811.1 1356.9,830.6 1377.2,849.4 					"/>
					<polygon class="st116" points="1393.3,849.4 1356.9,817.4 1356.9,849.4 					"/>
					<polygon class="st117" points="1356.9,849.4 1356.9,852.6 1379.4,852.6 1375.8,849.4 					"/>
					<polygon class="st82" points="1404.5,849.4 1375.8,849.4 1379.4,852.6 1404.5,852.6 					"/>
				</g>
			</g>
		</g>
	</g>
</g>
</svg>
