<?xml version="1.0" encoding="iso-8859-1"?>
<!-- Generator: Adobe Illustrator 22.1.0, SVG Export Plug-In . SVG Version: 6.00 Build 0)  -->
<svg version="1.1" id="Layer_1" xmlns="http://www.w3.org/2000/svg" xmlns:xlink="http://www.w3.org/1999/xlink" x="0px" y="0px"
	 viewBox="0 0 512 512" style="enable-background:new 0 0 512 512;" xml:space="preserve">
<g>
	<g>
		<g>
			<path d="M136.013,96.14V68.283c5.907,1.936,9.62,5.833,9.62,9.447c0,4.427,3.589,8.017,8.017,8.017s8.017-3.589,8.017-8.017
				c0-12.784-10.768-23.198-25.654-25.983v-1.274c0-4.427-3.589-8.017-8.017-8.017s-8.017,3.589-8.017,8.017v1.274
				c-14.885,2.786-25.654,13.2-25.654,25.983c0,17.862,14.266,25.369,25.654,29.69v27.858c-5.907-1.936-9.62-5.833-9.62-9.447
				c0-4.427-3.589-8.017-8.017-8.017s-8.017,3.589-8.017,8.017c0,12.784,10.768,23.198,25.654,25.983v1.274
				c0,4.427,3.589,8.017,8.017,8.017c4.428,0,8.017-3.589,8.017-8.017v-1.274c14.885-2.786,25.654-13.2,25.654-25.983
				C161.667,107.968,147.401,100.461,136.013,96.14z M119.98,89.929c-7.992-3.917-9.62-7.338-9.62-12.199
				c0-3.614,3.713-7.511,9.62-9.447V89.929z M136.013,135.277v-21.646c7.992,3.917,9.62,7.338,9.62,12.199
				C145.633,129.444,141.92,133.341,136.013,135.277z"/>
		</g>
	</g>
	<g>
		<g>
			<path d="M256.264,59.558h-68.409c-4.427,0-8.017,3.589-8.017,8.017c0,4.427,3.589,8.017,8.017,8.017h68.409
				c4.427,0,8.017-3.589,8.017-8.017C264.281,63.148,260.691,59.558,256.264,59.558z"/>
		</g>
	</g>
	<g>
		<g>
			<path d="M196.406,127.968h-8.551c-4.427,0-8.017,3.589-8.017,8.017s3.589,8.017,8.017,8.017h8.551
				c4.427,0,8.017-3.589,8.017-8.017S200.833,127.968,196.406,127.968z"/>
		</g>
	</g>
	<g>
		<g>
			<path d="M341.776,187.824H102.343c-4.427,0-8.017,3.589-8.017,8.017s3.589,8.017,8.017,8.017h239.433
				c4.427,0,8.017-3.589,8.017-8.017S346.203,187.824,341.776,187.824z"/>
		</g>
	</g>
	<g>
		<g>
			<path d="M179.303,239.131h-25.654c-4.427,0-8.017,3.589-8.017,8.017s3.589,8.017,8.017,8.017h25.654
				c4.427,0,8.017-3.589,8.017-8.017S183.731,239.131,179.303,239.131z"/>
		</g>
	</g>
	<g>
		<g>
			<path d="M119.445,239.131h-17.102c-4.427,0-8.017,3.589-8.017,8.017s3.589,8.017,8.017,8.017h17.102
				c4.427,0,8.017-3.589,8.017-8.017S123.872,239.131,119.445,239.131z"/>
		</g>
	</g>
	<g>
		<g>
			<path d="M179.303,273.336h-25.654c-4.427,0-8.017,3.589-8.017,8.017c0,4.427,3.589,8.017,8.017,8.017h25.654
				c4.427,0,8.017-3.589,8.017-8.017C187.32,276.925,183.731,273.336,179.303,273.336z"/>
		</g>
	</g>
	<g>
		<g>
			<path d="M119.445,273.336h-17.102c-4.427,0-8.017,3.589-8.017,8.017c0,4.427,3.589,8.017,8.017,8.017h17.102
				c4.427,0,8.017-3.589,8.017-8.017S123.872,273.336,119.445,273.336z"/>
		</g>
	</g>
	<g>
		<g>
			<path d="M179.303,307.541h-25.654c-4.427,0-8.017,3.589-8.017,8.017s3.589,8.017,8.017,8.017h25.654
				c4.427,0,8.017-3.589,8.017-8.017S183.731,307.541,179.303,307.541z"/>
		</g>
	</g>
	<g>
		<g>
			<path d="M119.445,307.541h-17.102c-4.427,0-8.017,3.589-8.017,8.017s3.589,8.017,8.017,8.017h17.102
				c4.427,0,8.017-3.589,8.017-8.017S123.872,307.541,119.445,307.541z"/>
		</g>
	</g>
	<g>
		<g>
			<path d="M179.303,341.745h-25.654c-4.427,0-8.017,3.589-8.017,8.017s3.589,8.017,8.017,8.017h25.654
				c4.427,0,8.017-3.589,8.017-8.017S183.731,341.745,179.303,341.745z"/>
		</g>
	</g>
	<g>
		<g>
			<path d="M119.445,341.745h-17.102c-4.427,0-8.017,3.589-8.017,8.017s3.589,8.017,8.017,8.017h17.102
				c4.427,0,8.017-3.589,8.017-8.017S123.872,341.745,119.445,341.745z"/>
		</g>
	</g>
	<g>
		<g>
			<path d="M179.303,375.95h-25.654c-4.427,0-8.017,3.589-8.017,8.017s3.589,8.017,8.017,8.017h25.654
				c4.427,0,8.017-3.589,8.017-8.017S183.731,375.95,179.303,375.95z"/>
		</g>
	</g>
	<g>
		<g>
			<path d="M119.445,375.95h-17.102c-4.427,0-8.017,3.589-8.017,8.017s3.589,8.017,8.017,8.017h17.102
				c4.427,0,8.017-3.589,8.017-8.017S123.872,375.95,119.445,375.95z"/>
		</g>
	</g>
	<g>
		<g>
			<path d="M281.918,127.968h-8.551c-4.427,0-8.017,3.589-8.017,8.017s3.589,8.017,8.017,8.017h8.551
				c4.427,0,8.017-3.589,8.017-8.017S286.345,127.968,281.918,127.968z"/>
		</g>
	</g>
	<g>
		<g>
			<path d="M324.673,127.968h-8.551c-4.427,0-8.017,3.589-8.017,8.017s3.589,8.017,8.017,8.017h8.551
				c4.427,0,8.017-3.589,8.017-8.017S329.101,127.968,324.673,127.968z"/>
		</g>
	</g>
	<g>
		<g>
			<path d="M239.162,127.968h-8.551c-4.427,0-8.017,3.589-8.017,8.017s3.589,8.017,8.017,8.017h8.551
				c4.427,0,8.017-3.589,8.017-8.017S243.589,127.968,239.162,127.968z"/>
		</g>
	</g>
	<g>
		<g>
			<path d="M273.366,93.763h-85.512c-4.427,0-8.017,3.589-8.017,8.017s3.589,8.017,8.017,8.017h85.512
				c4.427,0,8.017-3.589,8.017-8.017S277.794,93.763,273.366,93.763z"/>
		</g>
	</g>
	<g>
		<g>
			<path d="M427.288,222.029h-34.739v-128.8c0-2.126-0.844-4.165-2.348-5.668L304.688,2.048c-1.503-1.504-3.542-2.348-5.668-2.348
				H76.689C62.838-0.3,51.57,10.968,51.57,24.819v410.455c0,13.851,11.268,25.119,25.119,25.119h128.802v17.637
				c0,18.566,15.105,33.67,33.67,33.67h188.126c18.566,0,33.67-15.105,33.67-33.67V255.699
				C460.958,237.133,445.853,222.029,427.288,222.029z M307.037,27.07l58.142,58.142h-40.505c-9.725,0-17.637-7.912-17.637-17.637
				V27.07z M205.491,255.699v188.66H76.689c-5.01,0-9.086-4.076-9.086-9.086V24.819c0-5.01,4.076-9.086,9.086-9.086h214.314v51.842
				c0,18.566,15.105,33.67,33.67,33.67h51.842v120.783H239.162C220.596,222.029,205.491,237.133,205.491,255.699z M444.925,478.03
				c0,9.725-7.912,17.637-17.637,17.637H239.162c-9.725,0-17.637-7.912-17.637-17.637V255.699c0-9.725,7.912-17.637,17.637-17.637
				h188.126c9.725,0,17.637,7.912,17.637,17.637L444.925,478.03L444.925,478.03z"/>
		</g>
	</g>
	<g>
		<g>
			<path d="M410.185,256.233H256.264c-9.136,0-16.568,7.432-16.568,16.568v34.205c0,9.136,7.432,16.568,16.568,16.568h153.921
				c9.136,0,16.568-7.432,16.568-16.568v-34.205C426.753,263.665,419.321,256.233,410.185,256.233z M410.72,307.006
				c0,0.295-0.239,0.534-0.534,0.534H256.264c-0.295,0-0.534-0.239-0.534-0.534v-34.205c0-0.295,0.239-0.534,0.534-0.534h153.921
				c0.295,0,0.534,0.239,0.534,0.534L410.72,307.006L410.72,307.006z"/>
		</g>
	</g>
	<g>
		<g>
			<path d="M273.366,350.296h-17.102c-9.136,0-16.568,7.432-16.568,16.568v17.102c0,9.136,7.432,16.568,16.568,16.568h17.102
				c9.136,0,16.568-7.432,16.568-16.568v-17.102C289.934,357.728,282.502,350.296,273.366,350.296z M273.901,383.967
				c0,0.295-0.239,0.534-0.534,0.534h-17.103c-0.295,0-0.534-0.239-0.534-0.534v-17.102c0-0.295,0.239-0.534,0.534-0.534h17.102
				c0.295,0,0.534,0.239,0.534,0.534v17.102H273.901z"/>
		</g>
	</g>
	<g>
		<g>
			<path d="M410.185,350.296h-17.102c-9.136,0-16.568,7.432-16.568,16.568v17.102c0,9.136,7.432,16.568,16.568,16.568h17.102
				c9.136,0,16.568-7.432,16.568-16.568v-17.102C426.753,357.728,419.321,350.296,410.185,350.296z M410.72,383.967
				c0,0.295-0.239,0.534-0.534,0.534h-17.102c-0.295,0-0.534-0.239-0.534-0.534v-17.102c0-0.295,0.239-0.534,0.534-0.534h17.102
				c0.295,0,0.534,0.239,0.534,0.534V383.967z"/>
		</g>
	</g>
	<g>
		<g>
			<path d="M341.776,350.296h-17.102c-9.136,0-16.568,7.432-16.568,16.568v17.102c0,9.136,7.432,16.568,16.568,16.568h17.102
				c9.136,0,16.568-7.432,16.568-16.568v-17.102C358.344,357.728,350.912,350.296,341.776,350.296z M342.31,383.967
				c0,0.295-0.239,0.534-0.534,0.534h-17.102c-0.295,0-0.534-0.239-0.534-0.534v-17.102c0-0.295,0.239-0.534,0.534-0.534h17.102
				c0.295,0,0.534,0.239,0.534,0.534V383.967z"/>
		</g>
	</g>
	<g>
		<g>
			<path d="M273.366,418.706h-17.102c-9.136,0-16.568,7.432-16.568,16.568v17.102c0,9.136,7.432,16.568,16.568,16.568h17.102
				c9.136,0,16.568-7.432,16.568-16.568v-17.102C289.934,426.138,282.502,418.706,273.366,418.706z M273.901,452.376
				c0,0.295-0.239,0.534-0.534,0.534h-17.103c-0.295,0-0.534-0.239-0.534-0.534v-17.102c0-0.295,0.239-0.534,0.534-0.534h17.102
				c0.295,0,0.534,0.239,0.534,0.534v17.102H273.901z"/>
		</g>
	</g>
	<g>
		<g>
			<path d="M410.185,418.706h-17.102c-9.136,0-16.568,7.432-16.568,16.568v17.102c0,9.136,7.432,16.568,16.568,16.568h17.102
				c9.136,0,16.568-7.432,16.568-16.568v-17.102C426.753,426.138,419.321,418.706,410.185,418.706z M410.72,452.376
				c0,0.295-0.239,0.534-0.534,0.534h-17.102c-0.295,0-0.534-0.239-0.534-0.534v-17.102c0-0.295,0.239-0.534,0.534-0.534h17.102
				c0.295,0,0.534,0.239,0.534,0.534V452.376z"/>
		</g>
	</g>
	<g>
		<g>
			<path d="M341.776,418.706h-17.102c-9.136,0-16.568,7.432-16.568,16.568v17.102c0,9.136,7.432,16.568,16.568,16.568h17.102
				c9.136,0,16.568-7.432,16.568-16.568v-17.102C358.344,426.138,350.912,418.706,341.776,418.706z M342.31,452.376
				c0,0.295-0.239,0.534-0.534,0.534h-17.102c-0.295,0-0.534-0.239-0.534-0.534v-17.102c0-0.295,0.239-0.534,0.534-0.534h17.102
				c0.295,0,0.534,0.239,0.534,0.534V452.376z"/>
		</g>
	</g>
</g>
</svg>
