<?xml version="1.0" encoding="iso-8859-1"?>
<!-- Generator: Adobe Illustrator 22.1.0, SVG Export Plug-In . SVG Version: 6.00 Build 0)  -->
<svg version="1.1" id="Layer_1" xmlns="http://www.w3.org/2000/svg" xmlns:xlink="http://www.w3.org/1999/xlink" x="0px" y="0px"
	 viewBox="0 0 512 512" style="enable-background:new 0 0 512 512;" xml:space="preserve">
<g>
	<g>
		<g>
			<path style="fill:#FF8500;" d="M352.142,347.597c-4.1,0-7.5,3.4-7.5,7.5v17.7c0,4.1,3.4,7.5,7.5,7.5s7.5-3.4,7.5-7.5v-17.7
				C359.642,350.997,356.242,347.597,352.142,347.597z"/>
		</g>
	</g>
	<g>
		<g>
			<path style="fill:#FF8500;" d="M380.842,347.597c-4.1,0-7.5,3.4-7.5,7.5v17.7c0,4.1,3.4,7.5,7.5,7.5s7.5-3.4,7.5-7.5v-17.7
				C388.342,350.997,385.042,347.597,380.842,347.597z"/>
		</g>
	</g>
	<g>
		<g>
			<path style="fill:#FF8500;" d="M352.142,396.997c-4.1,0-7.5,3.4-7.5,7.5v17.7c0,4.1,3.4,7.5,7.5,7.5s7.5-3.4,7.5-7.5v-17.7
				C359.642,400.397,356.242,396.997,352.142,396.997z"/>
		</g>
	</g>
	<g>
		<g>
			<path style="fill:#FF8500;" d="M380.842,396.997c-4.1,0-7.5,3.4-7.5,7.5v17.7c0,4.1,3.4,7.5,7.5,7.5s7.5-3.4,7.5-7.5v-17.7
				C388.342,400.397,385.042,396.997,380.842,396.997z"/>
		</g>
	</g>
	<g>
		<g>
			<path style="fill:#FF8500;" d="M131.642,347.597c-4.1,0-7.5,3.4-7.5,7.5v17.7c0,4.1,3.4,7.5,7.5,7.5c4.1,0,7.5-3.4,7.5-7.5v-17.7
				C139.142,350.997,135.742,347.597,131.642,347.597z"/>
		</g>
	</g>
	<g>
		<g>
			<path style="fill:#FF8500;" d="M160.342,347.597c-4.1,0-7.5,3.4-7.5,7.5v17.7c0,4.1,3.4,7.5,7.5,7.5s7.5-3.4,7.5-7.5v-17.7
				C167.842,350.997,164.542,347.597,160.342,347.597z"/>
		</g>
	</g>
	<g>
		<g>
			<path style="fill:#FF8500;" d="M131.642,396.997c-4.1,0-7.5,3.4-7.5,7.5v17.7c0,4.1,3.4,7.5,7.5,7.5c4.1,0,7.5-3.4,7.5-7.5v-17.7
				C139.142,400.397,135.742,396.997,131.642,396.997z"/>
		</g>
	</g>
	<g>
		<g>
			<path style="fill:#FF8500;" d="M160.342,396.997c-4.1,0-7.5,3.4-7.5,7.5v17.7c0,4.1,3.4,7.5,7.5,7.5s7.5-3.4,7.5-7.5v-17.7
				C167.842,400.397,164.542,396.997,160.342,396.997z"/>
		</g>
	</g>
	<g>
		<g>
			<path style="fill:#FF8500;" d="M238.642,347.597c-4.1,0-7.5,3.4-7.5,7.5v17.7c0,4.1,3.4,7.5,7.5,7.5s7.5-3.4,7.5-7.5v-17.7
				C246.142,350.997,242.742,347.597,238.642,347.597z"/>
		</g>
	</g>
	<g>
		<g>
			<path style="fill:#FF8500;" d="M267.342,347.597c-4.1,0-7.5,3.4-7.5,7.5v17.7c0,4.1,3.4,7.5,7.5,7.5s7.5-3.4,7.5-7.5v-17.7
				C274.842,350.997,271.442,347.597,267.342,347.597z"/>
		</g>
	</g>
	<path style="fill:#FF8500;" d="M436.242,257.397h-236.7c-3.2,0-5.8,2.6-5.8,5.8v2.7c0,3.6,2.9,6.5,6.5,6.5h236l0,0V257.397z"/>
	<path style="fill:#FF8500;" d="M76.342,257.397h91.3c3.2,0,5.8,2.6,5.8,5.8v2.8c0,3.5-2.9,6.4-6.4,6.4h-90.7
		C76.342,272.397,76.342,257.397,76.342,257.397z"/>
	<path d="M453.242,469.897h-36.4v-39c0-4.1-3.4-7.5-7.5-7.5s-7.5,3.4-7.5,7.5v39h-55.6c0.6-1.9,0.9-3.9,0.9-6c0-10-7-18.3-16.3-20.5
		v-117h71v69.5c0,4.1,3.4,7.5,7.5,7.5s7.5-3.4,7.5-7.5v-77v-19.5c0.1,0,1.4,0,1.3,0c10,0,18.1-8.1,18.1-18.1c0-23.2,0-26.9-0.1-30.6
		c0-3.8-1.9-7.4-5-9.7l-126.5-91.1c-11.3-8.2-21.9-5.5-27.4-6v-46.7h69.6c6.2,0,11.2-5,11.2-11.2v-54.4c0-5.7-4.7-10.4-10.4-10.4
		h-70.4v-0.3c0-12.7-11.7-23.7-25.9-20.4c-9.9,2.5-16.1,11.1-16.1,20.4v20.8c0,4.1,3.4,7.5,7.5,7.5s7.5-3.4,7.5-7.5v-20.8
		c0-3.1,2.4-5.9,5.9-6s6.1,2.7,6.1,6v7.8c0,11.6,0,102,0,115.2h-12v-67.2c0-4.1-3.4-7.5-7.5-7.5s-7.5,3.4-7.5,7.5v67.2
		c-7.6,0.6-17.6-2.2-28.4,5.5l-124,89.5c-4.1,2.9-6.5,7.7-6.5,12.7c0,31.4-0.4,31.5,0.7,35.2c4.3,13.8,18.5,12.7,18.6,12.7
		c0,33.7,0,130.2,0,170.5h-36.3c-11.8,0-21.1,9.9-21,20.5c-0.6,11,8.7,21.5,21,21.5h393.9c11.6,0,21-9.4,21-21
		C474.242,479.497,464.942,469.897,453.242,469.897z M277.242,36.197h65.9v46h-65.9V36.197z M332.042,463.897c0,3.3-2.7,6-6,6h-33
		c-3.3,0-6-2.7-6-6s2.7-6,6-6c6.3,0,26.7,0,33,0C329.342,457.897,332.042,460.597,332.042,463.897z M272.942,469.897h-11.9v-58.9
		h27.4v32.4C276.642,446.097,269.442,458.297,272.942,469.897z M218.542,443.397v-32.4h27.4v58.9h-11.9
		C237.542,458.197,230.142,446.097,218.542,443.397z M160.742,469.897h-50v-143.5h65.5v117
		C164.542,446.097,157.242,458.097,160.742,469.897z M110.742,311.397v-12h65.5v12H110.742z M180.942,457.897c0.1,0,33.1,0,33.6,0
		c2.8,0.3,5.1,2.5,5.4,5.4c0.4,3.5-2.4,6.6-6,6.6h-33c-3.3,0-6-2.7-6-6S177.542,457.897,180.942,457.897z M191.242,442.897
		c0-21.4,0-125.8,0-143.5h12.3c0,22.5,0,80.8,0,104.1v39.4H191.242z M218.542,395.997v-69.6h69.8v69.6
		C269.542,395.997,229.542,395.997,218.542,395.997z M218.542,311.397v-12h69.8v12H218.542z M303.442,442.897v-39.4
		c0-23.4,0-81.7,0-104.1h12.3c0,17.6,0,122.1,0,143.5H303.442z M401.742,311.397h-71v-12h71V311.397z M91.442,257.397
		c0.1-5.5-0.2-6,0.3-6.4c130-92.7,123.7-92.2,132.3-92.2c22.9,0,39.9,0,61.9,0c10,0,3.6,0,135.1,93.6c0,0.1,0.1,5.4,0.1,5v15
		c0,9.2,0.1,9.1-0.1,9.8c-0.4,1.2-1.5,2.2-2.9,2.2c-72.7,0-144.8,0-234.3,0c-16,0-78.8,0-89.4,0c-1.6,0-2.6-1.1-2.9-2.2
		c-0.2-0.7-0.1-0.8-0.1-9.8 M453.242,496.897h-393.9c-3.8,0-6.7-3.6-5.8-7.3c0.1-0.1,1.1-4.7,5.8-4.7c105.2,0,328.9,0,393.9,0
		c3,0,5.8,2.2,6,6.2C459.142,494.297,456.442,496.897,453.242,496.897z"/>
</g>
</svg>
