<?xml version="1.0" encoding="utf-8"?>
<!-- Generator: Adobe Illustrator 22.1.0, SVG Export Plug-In . SVG Version: 6.00 Build 0)  -->
<svg version="1.1" id="Capa_1" xmlns="http://www.w3.org/2000/svg" xmlns:xlink="http://www.w3.org/1999/xlink" x="0px" y="0px"
	 viewBox="0 0 480 480" style="enable-background:new 0 0 480 480;" xml:space="preserve">
<style type="text/css">
	.st0{fill:#FFFFFF;}
</style>
<g>
	<g>
		<rect x="180.3" y="265.1" class="st0" width="13.9" height="13.9"/>
	</g>
</g>
<g>
	<g>
		<rect x="152.5" y="265.1" class="st0" width="13.9" height="13.9"/>
	</g>
</g>
<g>
	<g>
		<rect x="263.5" y="285.9" class="st0" width="13.9" height="13.9"/>
	</g>
</g>
<g>
	<g>
		<rect x="235.7" y="285.9" class="st0" width="13.9" height="13.9"/>
	</g>
</g>
<g>
	<g>
		<rect x="263.5" y="258.1" class="st0" width="13.9" height="13.9"/>
	</g>
</g>
<g>
	<g>
		<rect x="235.7" y="258.1" class="st0" width="13.9" height="13.9"/>
	</g>
</g>
<g>
	<g>
		<rect x="263.5" y="230.4" class="st0" width="13.9" height="13.9"/>
	</g>
</g>
<g>
	<g>
		<rect x="235.7" y="230.4" class="st0" width="13.9" height="13.9"/>
	</g>
</g>
<g>
	<g>
		<rect x="263.5" y="202.7" class="st0" width="13.9" height="13.9"/>
	</g>
</g>
<g>
	<g>
		<rect x="235.7" y="202.7" class="st0" width="13.9" height="13.9"/>
	</g>
</g>
<g>
	<g>
		<rect x="263.5" y="174.9" class="st0" width="13.9" height="13.9"/>
	</g>
</g>
<g>
	<g>
		<rect x="235.7" y="174.9" class="st0" width="13.9" height="13.9"/>
	</g>
</g>
<g>
	<g>
		<rect x="124.8" y="265.1" class="st0" width="13.9" height="13.9"/>
	</g>
</g>
<g>
	<g>
		<rect x="180.3" y="237.3" class="st0" width="13.9" height="13.9"/>
	</g>
</g>
<g>
	<g>
		<rect x="152.5" y="237.3" class="st0" width="13.9" height="13.9"/>
	</g>
</g>
<g>
	<g>
		<rect x="124.8" y="237.3" class="st0" width="13.9" height="13.9"/>
	</g>
</g>
<g>
	<g>
		<rect x="180.3" y="209.6" class="st0" width="13.9" height="13.9"/>
	</g>
</g>
<g>
	<g>
		<rect x="152.5" y="209.6" class="st0" width="13.9" height="13.9"/>
	</g>
</g>
<g>
	<g>
		<rect x="124.8" y="209.6" class="st0" width="13.9" height="13.9"/>
	</g>
</g>
<g>
	<g>
		<rect x="180.3" y="181.9" class="st0" width="13.9" height="13.9"/>
	</g>
</g>
<g>
	<g>
		<rect x="152.5" y="181.9" class="st0" width="13.9" height="13.9"/>
	</g>
</g>
<g>
	<g>
		<rect x="124.8" y="181.9" class="st0" width="13.9" height="13.9"/>
	</g>
</g>
<g>
	<g>
		<rect x="180.3" y="154.1" class="st0" width="13.9" height="13.9"/>
	</g>
</g>
<g>
	<g>
		<rect x="152.5" y="154.1" class="st0" width="13.9" height="13.9"/>
	</g>
</g>
<g>
	<g>
		<rect x="124.8" y="154.1" class="st0" width="13.9" height="13.9"/>
	</g>
</g>
<g>
	<g>
		<rect x="180.3" y="126.4" class="st0" width="13.9" height="13.9"/>
	</g>
</g>
<g>
	<g>
		<rect x="152.5" y="126.4" class="st0" width="13.9" height="13.9"/>
	</g>
</g>
<g>
	<g>
		<rect x="124.8" y="126.4" class="st0" width="13.9" height="13.9"/>
	</g>
</g>
<g>
	<g>
		<rect x="117.9" y="355.2" class="st0" width="13.9" height="13.9"/>
	</g>
</g>
<g>
	<g>
		<rect x="145.6" y="355.2" class="st0" width="55.5" height="13.9"/>
	</g>
</g>
<g>
	<g>
		<rect x="90.1" y="382.9" class="st0" width="145.6" height="13.9"/>
	</g>
</g>
<g>
	<g>
		<path class="st0" d="M427.3,354.5c16.1-3.3,27.7-17.5,27.7-34c0-51.3-13.3-83.2-34.7-83.2c-21.4,0-34.7,31.9-34.7,83.2
			c0,16.5,11.6,30.7,27.7,34v111.6h-66.7v-41.6h6.9c3.8,0,6.9-3.1,6.9-6.9v-48.5c0-2.7-1.6-5.1-4-6.3l-29.7-13.9
			c-2.1-1-4.6-0.8-6.6,0.4c-4.8,3-9.8,5.6-15.1,7.6V161.1c0-2.8-1.7-5.3-4.3-6.4l-78.9-32.9V70.9c0-3.8-3.1-6.9-6.9-6.9
			c-0.8,0-1.7,0.1-2.4,0.4L101.6,106c-2.7,1-4.5,3.6-4.5,6.5v224.7C81.5,346,67.8,357.8,56.8,372c-0.8,1.2-1.3,2.6-1.3,4v41.6
			c0,3.8,3.1,6.9,6.9,6.9h6.9v41.6H41.6V354.5c16.1-3.3,27.7-17.5,27.7-34c0-51.3-13.3-83.2-34.7-83.2S0,269.2,0,320.5
			c0,16.5,11.6,30.7,27.7,34v111.6H0V480h480v-13.9h-52.7V354.5L427.3,354.5z M27.7,340.1c-8.3-2.9-13.8-10.7-13.9-19.5
			c0-47.8,12.2-69.3,20.8-69.3s20.8,21.5,20.8,69.3c0,8.8-5.6,16.6-13.9,19.5v-19.5H27.7V340.1z M221.9,136.8l69.3,28.9v147.9h-69.3
			L221.9,136.8L221.9,136.8z M221.9,327.5h69.3v33.3c-4.6,0.9-9.2,1.3-13.9,1.3c-20.6,0-32.8-8.2-46.9-17.7
			c-2.8-1.8-5.6-3.7-8.5-5.5L221.9,327.5L221.9,327.5z M110.9,117.3L208,80.9v211.9h-97.1V117.3z M110.9,306.7H208v24.4
			c-15.1-7.3-31.8-10.9-48.5-10.6c-16.7,0-33.2,3.4-48.5,9.9L110.9,306.7L110.9,306.7z M69.3,378.4c22.2-27.1,55.1-43.2,90.1-44
			c31,0,47.4,11,63.2,21.6c14.7,9.8,29.8,20,54.7,20c16.5,0,32.7-4.5,46.9-13l22.4,10.4v37.2H69.3C69.3,410.7,69.3,378.4,69.3,378.4
			z M97.1,466.1H83.2v-41.6h13.9V466.1z M159.5,466.1H111v-13.9h48.5V466.1z M159.5,438.4H111v-13.9h48.5V438.4z M201.1,466.1h-27.7
			v-41.6h27.7V466.1z M242.7,466.1H215v-41.6h27.7V466.1z M305.1,466.1h-48.5v-13.9h48.5V466.1z M305.1,438.4h-48.5v-13.9h48.5
			V438.4z M332.8,466.1h-13.9v-41.6h13.9V466.1z M413.4,340.1c-8.3-2.9-13.8-10.7-13.9-19.5c0-47.8,12.2-69.3,20.8-69.3
			c8.6,0,20.8,21.5,20.8,69.3c0,8.8-5.6,16.6-13.9,19.5v-19.5h-13.9v19.5H413.4z"/>
	</g>
</g>
<g>
	<g>
		<rect x="318.9" y="382.9" class="st0" width="13.9" height="13.9"/>
	</g>
</g>
<g>
	<path class="st0" d="M407.4,113.1l41.8-35.5c1.4-1.3,2.1-3.1,1.8-5c-0.3-1.8-1.6-3.4-3.3-4.1l-25-9.4c-1.3-0.5-2.8-0.4-4.1,0.2
		l-32.3,14.6l-39.2-14.8l35.6-29.3c1.5-1.2,2.2-3.1,1.9-5c-0.3-1.9-1.6-3.4-3.4-4.1l-19.9-7.5c-1.5-0.6-3.3-0.4-4.6,0.4l-50.4,30.1
		l-27.5-10.4c-10.5-4-32.8-3.7-37.5,8.7c-1,2.9-1.1,6.2-0.1,9.1c0.5,1.6,1.7,2.9,3.3,3.5L402.2,114
		C403.9,114.6,406,114.3,407.4,113.1z M251.2,45.7c1.4-3.8,14.9-5.8,23.7-2.4l30,11.3c1.5,0.6,3.3,0.4,4.6-0.4L359.9,24l8.9,3.3
		l-35.6,29.4c-1.5,1.2-2.2,3.1-1.9,5c0.3,1.9,1.6,3.4,3.3,4.1l49.9,18.8c1.3,0.5,2.8,0.4,4.1-0.2L421,69.8l14.4,5.4l-32.6,27.6
		L251.2,45.7z"/>
	<path class="st0" d="M394.7,42.9l25,9.4c2.8,1,5.8-0.3,6.8-3.1s-0.3-5.8-3.1-6.8l-25-9.4c-2.8-1-5.8,0.3-6.8,3.1
		C390.5,38.8,392,41.8,394.7,42.9z"/>
	<path class="st0" d="M377.2,59.1l10,3.8c2.8,1,5.8-0.3,6.8-3.1s-0.3-5.8-3.1-6.8l-10-3.8c-2.8-1-5.8,0.3-6.8,3.1
		C373.1,55,374.4,58,377.2,59.1z"/>
	<path class="st0" d="M440.8,117.1l-10-3.8c-2.8-1-5.8,0.3-6.8,3.1c-1,2.8,0.3,5.8,3.1,6.8l10,3.8c2.8,1,5.8-0.3,6.8-3.1
		C444.9,121.2,443.5,118.2,440.8,117.1z"/>
</g>
</svg>
