<?xml version="1.0" encoding="iso-8859-1"?>
<!-- Generator: Adobe Illustrator 19.0.0, SVG Export Plug-In . SVG Version: 6.00 Build 0)  -->
<svg version="1.1" id="Capa_1" xmlns="http://www.w3.org/2000/svg" xmlns:xlink="http://www.w3.org/1999/xlink" x="0px" y="0px"
	 viewBox="0 0 511.996 511.996" style="enable-background:new 0 0 511.996 511.996;" xml:space="preserve">
<polygon style="fill:#4398D1;" points="503.46,494.929 503.46,409.597 503.46,401.064 503.46,392.531 486.394,392.531 
	486.394,341.332 503.46,341.332 503.46,324.266 486.394,324.266 486.394,273.066 503.46,273.066 503.46,256 486.394,256 
	486.394,204.801 503.46,204.801 503.46,187.734 486.394,187.734 486.394,136.535 503.46,136.535 503.46,119.469 486.394,119.469 
	486.394,59.737 469.328,59.737 469.328,8.537 366.929,8.537 366.929,59.737 349.863,59.737 349.863,119.469 332.797,119.469 
	332.797,136.535 349.863,136.535 349.863,187.734 332.797,187.734 332.797,204.801 349.863,204.801 349.863,256 332.797,256 
	332.797,273.066 349.863,273.066 349.863,324.266 332.797,324.266 332.797,341.332 349.863,341.332 349.863,392.531 
	332.797,392.531 332.797,401.064 332.797,409.597 332.797,494.929 324.263,494.929 324.263,511.996 511.994,511.996 
	511.994,494.929 "/>
<polygon style="fill:#3E8CC7;" points="511.994,494.929 503.46,494.929 503.46,409.597 503.46,401.064 503.46,392.531 
	486.394,392.531 486.394,341.332 503.46,341.332 503.46,324.266 486.394,324.266 486.394,273.066 503.46,273.066 503.46,256 
	486.394,256 486.394,204.801 503.46,204.801 503.46,187.734 486.394,187.734 486.394,136.535 503.46,136.535 503.46,119.469 
	486.394,119.469 486.394,59.737 469.328,59.737 469.328,8.537 443.728,8.537 443.728,511.996 511.994,511.996 "/>
<g>
	<path style="fill:#3582BD;" d="M426.662,93.869c0-4.71-3.823-8.533-8.533-8.533c-4.71,0-8.533,3.823-8.533,8.533v25.6h17.066
		V93.869z"/>
	<path style="fill:#3582BD;" d="M392.529,93.869c0-4.71-3.823-8.533-8.533-8.533s-8.533,3.823-8.533,8.533v25.6h17.066V93.869z"/>
	<path style="fill:#3582BD;" d="M460.794,93.869c0-4.71-3.823-8.533-8.533-8.533s-8.533,3.823-8.533,8.533v25.6h17.066V93.869z"/>
	<path style="fill:#3582BD;" d="M409.595,42.67c0-4.71-3.823-8.533-8.533-8.533c-4.71,0-8.533,3.823-8.533,8.533v17.066h17.066
		V42.67z"/>
	<path style="fill:#3582BD;" d="M443.728,42.67c0-4.71-3.823-8.533-8.533-8.533c-4.71,0-8.533,3.823-8.533,8.533v17.066h17.066
		V42.67z"/>
	<path style="fill:#3582BD;" d="M426.662,162.135c0-4.71-3.823-8.533-8.533-8.533c-4.71,0-8.533,3.823-8.533,8.533v25.6h17.066
		V162.135z"/>
	<path style="fill:#3582BD;" d="M392.529,162.135c0-4.71-3.823-8.533-8.533-8.533s-8.533,3.823-8.533,8.533v25.6h17.066V162.135z"/>
	<path style="fill:#3582BD;" d="M460.794,162.135c0-4.71-3.823-8.533-8.533-8.533s-8.533,3.823-8.533,8.533v25.6h17.066V162.135z"/>
	<path style="fill:#3582BD;" d="M426.662,230.4c0-4.71-3.823-8.533-8.533-8.533c-4.71,0-8.533,3.823-8.533,8.533V256h17.066V230.4z"
		/>
	<path style="fill:#3582BD;" d="M392.529,230.4c0-4.71-3.823-8.533-8.533-8.533s-8.533,3.823-8.533,8.533V256h17.066V230.4z"/>
	<path style="fill:#3582BD;" d="M460.794,230.4c0-4.71-3.823-8.533-8.533-8.533s-8.533,3.823-8.533,8.533V256h17.066V230.4z"/>
	<path style="fill:#3582BD;" d="M426.662,298.666c0-4.71-3.823-8.533-8.533-8.533c-4.71,0-8.533,3.823-8.533,8.533v25.6h17.066
		V298.666z"/>
	<path style="fill:#3582BD;" d="M392.529,298.666c0-4.71-3.823-8.533-8.533-8.533s-8.533,3.823-8.533,8.533v25.6h17.066V298.666z"/>
	<path style="fill:#3582BD;" d="M460.794,298.666c0-4.71-3.823-8.533-8.533-8.533s-8.533,3.823-8.533,8.533v25.6h17.066V298.666z"/>
	<path style="fill:#3582BD;" d="M426.662,366.931c0-4.71-3.823-8.533-8.533-8.533c-4.71,0-8.533,3.823-8.533,8.533v25.6h17.066
		V366.931z"/>
	<path style="fill:#3582BD;" d="M392.529,366.931c0-4.71-3.823-8.533-8.533-8.533s-8.533,3.823-8.533,8.533v25.6h17.066V366.931z"/>
	<path style="fill:#3582BD;" d="M460.794,366.931c0-4.71-3.823-8.533-8.533-8.533s-8.533,3.823-8.533,8.533v25.6h17.066V366.931z"/>
	<path style="fill:#3582BD;" d="M418.128,426.664c-9.429,0-17.066,7.637-17.066,17.066v51.199h34.133V443.73
		C435.195,434.301,427.558,426.664,418.128,426.664z"/>
	<path style="fill:#3582BD;" d="M486.394,426.664c-9.429,0-17.066,7.637-17.066,17.066v51.199h34.133V443.73
		C503.46,434.301,495.823,426.664,486.394,426.664z"/>
	<path style="fill:#3582BD;" d="M349.863,426.664c-9.429,0-17.066,7.637-17.066,17.066v51.199h34.133V443.73
		C366.929,434.301,359.292,426.664,349.863,426.664z"/>
</g>
<rect x="0.002" y="494.921" style="fill:#FDB62F;" width="153.597" height="17.066"/>
<rect x="93.867" y="494.921" style="fill:#FFA230;" width="59.732" height="17.066"/>
<rect x="8.535" y="110.927" style="fill:#FDB62F;" width="136.531" height="119.465"/>
<rect x="102.4" y="110.927" style="fill:#FFA230;" width="42.666" height="119.465"/>
<polygon style="fill:#FA962A;" points="145.066,110.936 8.535,110.936 42.668,76.803 110.934,76.803 "/>
<circle style="fill:#E5E5E5;" cx="76.801" cy="170.66" r="34.133"/>
<rect x="25.602" y="230.392" style="fill:#FDB62F;" width="102.398" height="281.595"/>
<rect x="93.867" y="230.392" style="fill:#FFA230;" width="34.133" height="281.595"/>
<rect x="42.668" y="42.662" style="fill:#FDB62F;" width="68.266" height="34.133"/>
<g>
	<polygon style="fill:#FA962A;" points="42.668,42.67 76.801,8.537 110.934,42.67 	"/>
	<rect x="51.201" y="255.991" style="fill:#FA962A;" width="17.066" height="51.199"/>
	<rect x="85.334" y="255.991" style="fill:#FA962A;" width="17.066" height="51.199"/>
	<rect x="51.201" y="460.788" style="fill:#FA962A;" width="17.066" height="51.199"/>
	<rect x="85.334" y="460.788" style="fill:#FA962A;" width="17.066" height="51.199"/>
	<rect x="51.201" y="392.522" style="fill:#FA962A;" width="17.066" height="51.199"/>
	<rect x="85.334" y="392.522" style="fill:#FA962A;" width="17.066" height="51.199"/>
	<rect x="51.201" y="324.257" style="fill:#FA962A;" width="17.066" height="51.199"/>
	<rect x="85.334" y="324.257" style="fill:#FA962A;" width="17.066" height="51.199"/>
</g>
<rect x="25.602" y="230.392" style="fill:#FFA230;" width="102.398" height="17.066"/>
<polygon style="fill:#CF4737;" points="298.664,187.734 298.664,153.602 213.332,153.602 213.332,187.734 179.199,315.732 
	230.398,315.732 255.998,230.4 281.597,315.732 332.797,315.732 "/>
<g>
	<path style="fill:#DE4C3C;" d="M278.312,76.803l-2.688-17.263c-1.007-6.485-5.163-12.057-11.093-14.865V8.537
		c0-4.71-3.823-8.533-8.533-8.533c-4.71,0-8.533,3.823-8.533,8.533v36.138c-5.931,2.807-10.086,8.38-11.093,14.865l-2.688,17.263
		l-11.818,76.799h68.266L278.312,76.803z"/>
	<path style="fill:#DE4C3C;" d="M414.34,494.929l-64.477-145.064v-34.133h-187.73v34.133L97.656,494.929H76.801v17.066h119.465
		v-17.066h-22.041l22.698-54.484c13.593-32.622,51.063-48.05,83.694-34.457c15.582,6.494,27.963,18.875,34.457,34.457l22.698,54.484
		H315.73v17.066h119.465v-17.066H414.34z"/>
</g>
<g>
	<path style="fill:#CF4737;" d="M196.266,511.996v-17.066h-22.041l13.064-31.368c-29.397,19.541-57.463,35.754-81.338,48.434
		H196.266z"/>
	<path style="fill:#CF4737;" d="M414.34,494.929l-64.477-145.064V316.15c-24.183,31.487-51.583,60.372-81.748,86.185
		c21.034,4.028,38.655,18.329,46.933,38.084l22.724,54.51H315.73v17.066h119.465v-17.066L414.34,494.929L414.34,494.929z"/>
	<path style="fill:#CF4737;" d="M225.125,132.397l-3.26,21.205h68.266l-10.385-67.506
		C263.43,103.631,245.101,119.17,225.125,132.397z"/>
</g>
<path d="M76.801,204.801c18.85,0,34.133-15.283,34.133-34.133s-15.283-34.133-34.133-34.133s-34.133,15.283-34.133,34.133
	S57.951,204.801,76.801,204.801z M76.801,153.602c9.429,0,17.066,7.637,17.066,17.066s-7.637,17.066-17.066,17.066
	s-17.066-7.637-17.066-17.066S67.38,153.602,76.801,153.602z"/>
<rect x="51.201" y="255.991" width="17.066" height="51.199"/>
<rect x="85.334" y="255.991" width="17.066" height="51.199"/>
<rect x="51.201" y="392.522" width="17.066" height="51.199"/>
<rect x="85.334" y="392.522" width="17.066" height="51.199"/>
<rect x="51.201" y="324.257" width="17.066" height="51.199"/>
<rect x="85.334" y="324.257" width="17.066" height="51.199"/>
<path d="M503.46,392.531h-8.533v-51.199h8.533v-17.066h-8.533v-51.199h8.533V256h-8.533v-51.199h8.533v-17.066h-8.533v-51.199h8.533
	v-17.066h-8.533V59.737c0-4.71-3.823-8.533-8.533-8.533h-8.533V8.537c0-4.71-3.823-8.533-8.533-8.533H366.929
	c-4.71,0-8.533,3.823-8.533,8.533v42.666h-8.533c-4.71,0-8.533,3.823-8.533,8.533v59.732h-8.533v17.066h8.533v51.199h-8.533v17.066
	h8.533V256h-8.533v17.066h8.533v34.133h-1.98l-32.153-120.574v-33.023c0-4.71-3.823-8.533-8.533-8.533h-1.212l-13.363-86.834
	c-1.613-10.701-9.216-19.532-19.558-22.715V0.004h-17.066v35.515c-10.342,3.183-17.945,12.015-19.558,22.715l-13.363,86.834h-1.212
	c-4.71,0-8.533,3.823-8.533,8.533v33.023l-32.153,120.574h-10.513c-4.71,0-8.533,3.823-8.533,8.533v32.315l-17.066,38.399V238.934
	h8.533c4.71,0,8.533-3.823,8.533-8.533V110.936c0-0.179-0.094-0.333-0.102-0.512c-0.051-0.777-0.205-1.536-0.461-2.27
	c-0.077-0.273-0.171-0.538-0.282-0.802c-0.401-0.887-0.947-1.698-1.613-2.398l-0.051-0.06L119.467,73.27v-30.6
	c0-0.179-0.094-0.333-0.102-0.512c-0.051-0.777-0.205-1.536-0.461-2.27c-0.085-0.273-0.179-0.538-0.29-0.802
	c-0.393-0.887-0.939-1.698-1.613-2.398l-0.051-0.06L82.817,2.496c-3.336-3.328-8.729-3.328-12.066,0L36.618,36.629l-0.026,0.068
	c-0.657,0.7-1.203,1.51-1.604,2.389c-0.102,0.265-0.196,0.529-0.282,0.802c-0.256,0.725-0.41,1.485-0.461,2.261
	c-0.017,0.188-0.111,0.341-0.111,0.521v30.6L2.511,104.894l-0.051,0.06c-0.666,0.7-1.212,1.51-1.613,2.398
	c-0.111,0.265-0.205,0.529-0.282,0.802c-0.256,0.725-0.41,1.493-0.461,2.261c0,0.188-0.102,0.341-0.102,0.521V230.4
	c0,4.71,3.823,8.533,8.533,8.533h8.533v255.996H0.002v17.066h196.263v-17.066h-12.8l21.333-51.199
	c11.784-28.279,44.253-41.65,72.532-29.866c13.508,5.623,24.243,16.358,29.866,29.866l21.333,51.199h-12.8v17.066h196.263V401.064
	C511.994,396.354,508.179,392.531,503.46,392.531z M460.794,452.263v42.666h-17.066v-42.666
	c0.043-14.088-11.341-25.548-25.437-25.591c-8.03-0.026-15.607,3.738-20.446,10.146l-12.092-27.221h109.174v18.636
	c-2.731-1.007-5.623-1.544-8.533-1.57C472.263,426.664,460.794,438.124,460.794,452.263z M423.675,494.929l-14.08-31.684v-10.982
	c0-4.71,3.823-8.533,8.533-8.533c4.71,0,8.533,3.823,8.533,8.533v42.666H423.675z M477.861,392.531h-17.066v-25.6
	c0-4.71-3.823-8.533-8.533-8.533s-8.533,3.823-8.533,8.533v25.6h-17.066v-25.6c0-4.71-3.823-8.533-8.533-8.533
	c-4.71,0-8.533,3.823-8.533,8.533v25.6h-17.066v-25.6c0-4.71-3.823-8.533-8.533-8.533s-8.533,3.823-8.533,8.533v19.515
	l-17.066-38.399v-6.716h119.465V392.531z M375.463,17.071h85.332v34.133h-17.066V42.67c0-4.71-3.823-8.533-8.533-8.533
	c-4.71,0-8.533,3.823-8.533,8.533v8.533h-17.066V42.67c0-4.71-3.823-8.533-8.533-8.533c-4.71,0-8.533,3.823-8.533,8.533v8.533
	h-17.066V17.071z M358.396,68.27h119.465v51.199h-17.066v-25.6c0-4.71-3.823-8.533-8.533-8.533s-8.533,3.823-8.533,8.533v25.6
	h-17.066v-25.6c0-4.71-3.823-8.533-8.533-8.533c-4.71,0-8.533,3.823-8.533,8.533v25.6h-17.066v-25.6c0-4.71-3.823-8.533-8.533-8.533
	s-8.533,3.823-8.533,8.533v25.6h-17.066V68.27z M358.396,136.535h119.465v51.199h-17.066v-25.6c0-4.71-3.823-8.533-8.533-8.533
	s-8.533,3.823-8.533,8.533v25.6h-17.066v-25.6c0-4.71-3.823-8.533-8.533-8.533c-4.71,0-8.533,3.823-8.533,8.533v25.6h-17.066v-25.6
	c0-4.71-3.823-8.533-8.533-8.533s-8.533,3.823-8.533,8.533v25.6h-17.066V136.535z M358.396,204.801h119.465V256h-17.066v-25.6
	c0-4.71-3.823-8.533-8.533-8.533s-8.533,3.823-8.533,8.533V256h-17.066v-25.6c0-4.71-3.823-8.533-8.533-8.533
	c-4.71,0-8.533,3.823-8.533,8.533V256h-17.066v-25.6c0-4.71-3.823-8.533-8.533-8.533s-8.533,3.823-8.533,8.533V256h-17.066V204.801z
	 M477.861,273.066v51.199h-17.066v-25.6c0-4.71-3.823-8.533-8.533-8.533s-8.533,3.823-8.533,8.533v25.6h-17.066v-25.6
	c0-4.71-3.823-8.533-8.533-8.533c-4.71,0-8.533,3.823-8.533,8.533v25.6h-17.066v-25.6c0-4.71-3.823-8.533-8.533-8.533
	s-8.533,3.823-8.533,8.533v25.6h-17.066v-51.199H477.861z M221.865,162.135h68.266v17.066h-68.266V162.135z M255.998,51.203
	c5.615-0.026,10.393,4.079,11.221,9.634l1.143,7.432h-24.746l1.143-7.432C245.587,55.274,250.383,51.169,255.998,51.203z
	 M241.005,85.336h29.986l9.19,59.732h-48.366L241.005,85.336z M219.894,196.268h72.208l29.602,110.931h-33.757l-23.773-79.248
	c-1.348-4.514-6.11-7.083-10.624-5.726c-2.748,0.828-4.907,2.978-5.726,5.726l-23.773,79.248h-33.757L219.894,196.268z
	 M270.129,307.199h-28.262l14.131-47.103L270.129,307.199z M341.33,324.266v17.066H170.666v-17.066H341.33z M136.533,221.867H17.069
	V119.469h119.465V221.867z M51.201,51.203H102.4V68.27H51.201V51.203z M76.801,20.603l13.534,13.534H63.267L76.801,20.603z
	 M46.201,85.336h61.2l17.066,17.066H29.134L46.201,85.336z M68.268,494.929v-34.133H51.201v34.133H34.135V238.934h85.332v185.913
	L102.4,463.246v-2.449H85.334v34.133L68.268,494.929L68.268,494.929z M347.021,494.929l-24.072-57.77
	c-15.411-36.974-57.872-54.459-94.855-39.048c-17.655,7.356-31.692,21.393-39.048,39.048l-24.072,57.77H107l60.671-136.531h176.637
	l22.621,50.875v0.324h0.145l37.922,85.332H347.021z M477.861,494.929v-42.666c0-4.71,3.823-8.533,8.533-8.533
	s8.533,3.823,8.533,8.533v42.666H477.861z"/>
<g>
</g>
<g>
</g>
<g>
</g>
<g>
</g>
<g>
</g>
<g>
</g>
<g>
</g>
<g>
</g>
<g>
</g>
<g>
</g>
<g>
</g>
<g>
</g>
<g>
</g>
<g>
</g>
<g>
</g>
</svg>
