<?xml version="1.0" encoding="iso-8859-1"?>
<!-- Generator: Adobe Illustrator 22.1.0, SVG Export Plug-In . SVG Version: 6.00 Build 0)  -->
<svg version="1.1" id="Layer_1" xmlns="http://www.w3.org/2000/svg" xmlns:xlink="http://www.w3.org/1999/xlink" x="0px" y="0px"
	 viewBox="0 0 512 512" style="enable-background:new 0 0 512 512;" xml:space="preserve">
<g>
	<g>
		<g>
			<rect x="0.288" y="494.851" style="fill:#FF8500;" width="166.3" height="17.1"/>
		</g>
	</g>
	<g>
		<g>
			<rect x="315.988" y="494.851" width="119.5" height="17.1"/>
		</g>
	</g>
	<g>
		<g>
			<path style="fill:#FF8500;" d="M145.388,102.351H8.788c-4.7,0-8.5,3.8-8.5,8.5v119.5c0,4.7,3.8,8.5,8.5,8.5h136.5
				c4.7,0,8.5-3.8,8.5-8.5v-119.5C153.888,106.151,150.088,102.351,145.388,102.351z M136.788,221.851h-119.4v-102.4h119.5
				L136.788,221.851L136.788,221.851z"/>
		</g>
	</g>
	<g>
		<g>
			<path style="fill:#FF8500;" d="M151.388,104.851l-34.1-34.1c-1.6-1.6-3.8-2.5-6-2.5h-68.3c-2.3,0-4.4,0.9-6,2.5l-34.2,34.1
				c-2.4,2.4-3.2,6.1-1.9,9.3c1.3,3.2,4.4,5.3,7.9,5.3h136.5c3.4,0,6.6-2.1,7.9-5.3
				C154.588,110.951,153.788,107.251,151.388,104.851z M29.388,102.351l17.1-17.1h61.2l17.1,17.1H29.388z"/>
		</g>
	</g>
	<g>
		<g>
			<path style="fill:#FF8500;" d="M77.088,136.451c-18.8,0-34.1,15.3-34.1,34.1s15.3,34.1,34.1,34.1s34.1-15.3,34.1-34.1
				S95.888,136.451,77.088,136.451z M77.088,187.651c-9.4,0-17.1-7.7-17.1-17.1c0-9.4,7.7-17.1,17.1-17.1s17.1,7.7,17.1,17.1
				S86.488,187.651,77.088,187.651z"/>
		</g>
	</g>
	<g>
		<g>
			<path style="fill:#FF8500;" d="M128.288,221.851h-102.4c-4.7,0-8.5,3.8-8.5,8.5v281.6h17.1v-273.1h85.3v225.6l17.1-37.8v-196.3
				C136.788,225.651,132.988,221.851,128.288,221.851z"/>
		</g>
	</g>
	<g>
		<g>
			<path style="fill:#FF8500;" d="M111.188,34.051h-68.2c-4.7,0-8.5,3.8-8.5,8.5v34.1c0,4.7,3.8,8.5,8.5,8.5h68.3
				c4.7,0,8.5-3.8,8.5-8.5v-34C119.788,37.951,115.888,34.051,111.188,34.051z M102.688,68.251h-51.2v-17.1h51.2V68.251z"/>
		</g>
	</g>
	<g>
		<g>
			<path style="fill:#FF8500;" d="M117.288,36.551l-34.2-34.1c-3.3-3.3-8.7-3.3-12.1,0l-34.1,34.1c-2.4,2.4-3.2,6.1-1.9,9.3
				s4.4,5.3,7.9,5.3h68.3c3.4,0,6.6-2.1,7.9-5.3C120.388,42.651,119.688,39.051,117.288,36.551z M63.588,34.051l13.5-13.5l13.5,13.5
				H63.588z"/>
		</g>
	</g>
	<g>
		<g>
			<rect x="51.488" y="255.951" style="fill:#FF8500;" width="17.1" height="51.2"/>
		</g>
	</g>
	<g>
		<g>
			<rect x="85.588" y="255.951" style="fill:#FF8500;" width="17.1" height="51.2"/>
		</g>
	</g>
	<g>
		<g>
			<rect x="51.488" y="460.751" style="fill:#FF8500;" width="17.1" height="51.2"/>
		</g>
	</g>
	<g>
		<g>
			<rect x="85.588" y="460.751" style="fill:#FF8500;" width="17.1" height="51.2"/>
		</g>
	</g>
	<g>
		<g>
			<rect x="51.488" y="392.451" style="fill:#FF8500;" width="17.1" height="51.2"/>
		</g>
	</g>
	<g>
		<g>
			<rect x="85.588" y="392.451" style="fill:#FF8500;" width="17.1" height="51.2"/>
		</g>
	</g>
	<g>
		<g>
			<rect x="51.488" y="324.251" style="fill:#FF8500;" width="17.1" height="51.2"/>
		</g>
	</g>
	<g>
		<g>
			<rect x="85.588" y="324.251" style="fill:#FF8500;" width="17.1" height="51.2"/>
		</g>
	</g>
	<g>
		<g>
			<path d="M426.188,499.951l-68.3-153.6c-1.4-3.1-4.4-5.1-7.8-5.1h-187.7c-3.4,0-6.4,2-7.8,5.1l-68.2,153.6
				c-1.2,2.6-0.9,5.7,0.6,8.1s4.3,3.9,7.2,3.9h76.8c3.4,0,6.6-2.1,7.9-5.2l26.3-63c8.6-20.8,28.7-34.2,51.1-34.2l0,0
				c22.5,0,42.5,13.4,51.1,34.2l26.3,63c1.3,3.2,4.4,5.2,7.9,5.2h76.8c2.9,0,5.6-1.5,7.2-3.9S427.388,502.551,426.188,499.951z
				 M347.288,494.851l-24.1-57.7c-11.3-27.1-37.5-44.7-66.9-44.7l0,0c-29.4,0-55.6,17.5-66.9,44.7l-24.1,57.7h-58l60.7-136.5h176.6
				l60.7,136.5H347.288z"/>
		</g>
	</g>
	<g>
		<g>
			<path d="M350.188,307.151h-187.8c-4.7,0-8.5,3.8-8.5,8.5v34.1h17.1v-25.6h170.7v25.6h17.1v-34.1
				C358.688,310.951,354.888,307.151,350.188,307.151z"/>
		</g>
	</g>
	<g>
		<g>
			<path d="M307.188,185.451c-1-3.7-4.4-6.3-8.2-6.3h-85.3c-3.9,0-7.3,2.6-8.3,6.3l-34.1,128l16.5,4.4l32.4-121.7h72.2l32.5,121.7
				l16.5-4.4L307.188,185.451z"/>
		</g>
	</g>
	<g>
		<g>
			<path d="M264.488,227.951c-1.1-3.6-4.4-6.1-8.2-6.1s-7.1,2.5-8.2,6.1l-25.6,85.3l16.4,4.9l17.4-58.1l17.4,58.1l16.4-4.9
				L264.488,227.951z"/>
		</g>
	</g>
	<g>
		<g>
			<path d="M298.988,145.051h-85.3c-4.7,0-8.5,3.8-8.5,8.5v34.1c0,4.7,3.8,8.5,8.5,8.5h85.3c4.7,0,8.5-3.8,8.5-8.5v-34.1
				C307.488,148.851,303.688,145.051,298.988,145.051z M290.388,179.151h-68.3v-17.1h68.3V179.151z"/>
		</g>
	</g>
	<g>
		<g>
			<path d="M284.388,58.551c-1.9-13.9-14-24.4-28-24.4c0,0,0,0-0.1,0c-14.1,0-26.1,10.5-28,24.3l-14.5,93.9l16.9,2.6l14.5-94
				c0.8-5.5,5.6-9.7,11.2-9.7l0,0l0,0c5.6,0,10.4,4.2,11.2,9.8l14.5,93.9l16.9-2.6L284.388,58.551z"/>
		</g>
	</g>
	<g>
		<g>
			<rect x="247.788" y="-0.049" width="17.1" height="42.7"/>
		</g>
	</g>
	<g>
		<g>
			<rect x="230.688" y="68.251" width="42.7" height="17.1"/>
		</g>
	</g>
	<g>
		<g>
			<path d="M486.688,51.151h-136.5c-4.7,0-8.5,3.8-8.5,8.5v290.1h17.1v-281.5h119.5v324.3h-102.5v17.1h110.9c4.7,0,8.5-3.8,8.5-8.5
				v-341.5C495.188,54.951,491.388,51.151,486.688,51.151z"/>
		</g>
	</g>
	<g>
		<g>
			<rect x="333.088" y="119.451" width="170.7" height="17.1"/>
		</g>
	</g>
	<g>
		<g>
			<path d="M418.388,85.251c-4.7,0-8.5,3.8-8.5,8.5v34.2c0,4.7,3.8,8.5,8.5,8.5s8.5-3.8,8.5-8.5v-34.1
				C426.988,89.151,423.188,85.251,418.388,85.251z"/>
		</g>
	</g>
	<g>
		<g>
			<path d="M384.288,85.251c-4.7,0-8.5,3.8-8.5,8.5v34.2c0,4.7,3.8,8.5,8.5,8.5s8.5-3.8,8.5-8.5v-34.1
				C392.788,89.151,388.988,85.251,384.288,85.251z"/>
		</g>
	</g>
	<g>
		<g>
			<path d="M452.588,85.251c-4.7,0-8.5,3.8-8.5,8.5v34.2c0,4.7,3.8,8.5,8.5,8.5s8.5-3.8,8.5-8.5v-34.1
				C461.088,89.151,457.288,85.251,452.588,85.251z"/>
		</g>
	</g>
	<g>
		<g>
			<path d="M469.588-0.049h-102.4c-4.7,0-8.5,3.8-8.5,8.5v51.2c0,4.7,3.8,8.5,8.5,8.5h102.4c4.7,0,8.5-3.8,8.5-8.5v-51.2
				C478.188,3.751,474.388-0.049,469.588-0.049z M461.088,51.151h-85.3v-34.1h85.3V51.151z"/>
		</g>
	</g>
	<g>
		<g>
			<path d="M401.388,34.051c-4.7,0-8.5,3.8-8.5,8.5v17.1c0,4.7,3.8,8.5,8.5,8.5s8.5-3.8,8.5-8.5v-17
				C409.888,37.951,406.088,34.051,401.388,34.051z"/>
		</g>
	</g>
	<g>
		<g>
			<path d="M435.488,34.051c-4.7,0-8.5,3.8-8.5,8.5v8.5c0,4.7,3.8,8.5,8.5,8.5s8.5-3.8,8.5-8.5v-8.5
				C443.988,37.951,440.188,34.051,435.488,34.051z"/>
		</g>
	</g>
	<g>
		<g>
			<path d="M503.788,392.451h-128v17.1h119.5v102.4h17v-110.9C512.288,396.351,508.488,392.451,503.788,392.451z"/>
		</g>
	</g>
	<g>
		<g>
			<path d="M418.388,426.651c-14.1,0-25.6,11.5-25.6,25.6v13.1h17.1v-13.1c0-4.7,3.8-8.5,8.5-8.5s8.5,3.8,8.5,8.5v51.2h17.1v-51.2
				C443.988,438.151,432.488,426.651,418.388,426.651z"/>
		</g>
	</g>
	<g>
		<g>
			<rect x="418.388" y="494.851" width="85.3" height="17.1"/>
		</g>
	</g>
	<g>
		<g>
			<path d="M486.688,426.651c-14.1,0-25.6,11.5-25.6,25.6v51.2h17.1v-51.2c0-4.7,3.8-8.5,8.5-8.5s8.5,3.8,8.5,8.5v51.2h17.1v-51.2
				C512.288,438.151,500.788,426.651,486.688,426.651z"/>
		</g>
	</g>
	<g>
		<g>
			<rect x="333.088" y="187.651" width="170.7" height="17.1"/>
		</g>
	</g>
	<g>
		<g>
			<path d="M418.388,153.551c-4.7,0-8.5,3.8-8.5,8.5v34.1c0,4.7,3.8,8.5,8.5,8.5s8.5-3.8,8.5-8.5v-34.1
				C426.988,157.351,423.188,153.551,418.388,153.551z"/>
		</g>
	</g>
	<g>
		<g>
			<path d="M384.288,153.551c-4.7,0-8.5,3.8-8.5,8.5v34.1c0,4.7,3.8,8.5,8.5,8.5s8.5-3.8,8.5-8.5v-34.1
				C392.788,157.351,388.988,153.551,384.288,153.551z"/>
		</g>
	</g>
	<g>
		<g>
			<path d="M452.588,153.551c-4.7,0-8.5,3.8-8.5,8.5v34.1c0,4.7,3.8,8.5,8.5,8.5s8.5-3.8,8.5-8.5v-34.1
				C461.088,157.351,457.288,153.551,452.588,153.551z"/>
		</g>
	</g>
	<g>
		<g>
			<rect x="333.088" y="255.951" width="170.7" height="17.1"/>
		</g>
	</g>
	<g>
		<g>
			<path d="M418.388,221.851c-4.7,0-8.5,3.8-8.5,8.5v34.1c0,4.7,3.8,8.5,8.5,8.5s8.5-3.8,8.5-8.5v-34.1
				C426.988,225.651,423.188,221.851,418.388,221.851z"/>
		</g>
	</g>
	<g>
		<g>
			<path d="M384.288,221.851c-4.7,0-8.5,3.8-8.5,8.5v34.1c0,4.7,3.8,8.5,8.5,8.5s8.5-3.8,8.5-8.5v-34.1
				C392.788,225.651,388.988,221.851,384.288,221.851z"/>
		</g>
	</g>
	<g>
		<g>
			<path d="M452.588,221.851c-4.7,0-8.5,3.8-8.5,8.5v34.1c0,4.7,3.8,8.5,8.5,8.5s8.5-3.8,8.5-8.5v-34.1
				C461.088,225.651,457.288,221.851,452.588,221.851z"/>
		</g>
	</g>
	<g>
		<g>
			<rect x="350.188" y="324.251" width="153.6" height="17.1"/>
		</g>
	</g>
	<g>
		<g>
			<path d="M418.388,290.051c-4.7,0-8.5,3.8-8.5,8.5v34.1c0,4.7,3.8,8.5,8.5,8.5s8.5-3.8,8.5-8.5v-34.1
				C426.988,293.951,423.188,290.051,418.388,290.051z"/>
		</g>
	</g>
	<g>
		<g>
			<path d="M384.288,290.051c-4.7,0-8.5,3.8-8.5,8.5v34.1c0,4.7,3.8,8.5,8.5,8.5s8.5-3.8,8.5-8.5v-34.1
				C392.788,293.951,388.988,290.051,384.288,290.051z"/>
		</g>
	</g>
	<g>
		<g>
			<path d="M452.588,290.051c-4.7,0-8.5,3.8-8.5,8.5v34.1c0,4.7,3.8,8.5,8.5,8.5s8.5-3.8,8.5-8.5v-34.1
				C461.088,293.951,457.288,290.051,452.588,290.051z"/>
		</g>
	</g>
	<g>
		<g>
			<rect x="367.188" y="392.451" width="136.5" height="17.1"/>
		</g>
	</g>
	<g>
		<g>
			<path d="M418.388,358.351c-4.7,0-8.5,3.8-8.5,8.5v34.1c0,4.7,3.8,8.5,8.5,8.5s8.5-3.8,8.5-8.5v-34.1
				C426.988,362.151,423.188,358.351,418.388,358.351z"/>
		</g>
	</g>
	<g>
		<g>
			<path d="M384.288,358.351c-4.7,0-8.5,3.8-8.5,8.5v34.1c0,4.7,3.8,8.5,8.5,8.5s8.5-3.8,8.5-8.5v-34.1
				C392.788,362.151,388.988,358.351,384.288,358.351z"/>
		</g>
	</g>
	<g>
		<g>
			<path d="M452.588,358.351c-4.7,0-8.5,3.8-8.5,8.5v34.1c0,4.7,3.8,8.5,8.5,8.5s8.5-3.8,8.5-8.5v-34.1
				C461.088,362.151,457.288,358.351,452.588,358.351z"/>
		</g>
	</g>
</g>
</svg>
