<?xml version="1.0" encoding="utf-8"?>
<!-- Generator: Adobe Illustrator 22.1.0, SVG Export Plug-In . SVG Version: 6.00 Build 0)  -->
<svg version="1.1" id="Layer_1" xmlns="http://www.w3.org/2000/svg" xmlns:xlink="http://www.w3.org/1999/xlink" x="0px" y="0px"
	 viewBox="0 0 4842 1450" style="enable-background:new 0 0 4842 1450;" xml:space="preserve">
<style type="text/css">
	.st0{fill:#373435;}
	.st1{fill:#FF8500;}
	.st2{fill:#013475;}
	.st3{font-family:'Roboto-Light';}
	.st4{font-size:277.5816px;}
</style>
<g>
	<g id="_1080741152_2_">
		<g>
			<path class="st0" d="M470.1,1106.6c21.5,36.7,32,77.3,32,121.6v204.2H17V714.2h210.4c42,0,81.6,10.5,119.3,31.1
				c10.9,6.2,19.6,12.4,26.2,17.1c30,22.9,53.9,51.1,70.6,84.4c17.1,33.4,26.2,69.1,26.7,107.3c-0.5,41.1-10,78.7-28.6,112.6
				C453.4,1080.4,463,1093.8,470.1,1106.6L470.1,1106.6z M404.3,1228.3c0-32-9.1-61.1-27.1-86.3l-4.7-5.8l-10-10.9
				c-19.6-19.6-42.9-32.4-69.6-39.6c-8.6-2-19.1-3.3-32.4-3.3v-96.9c35.3,0,68.7,7.6,102,22.4c6.2-17.1,10-35.3,10-52.5
				c0-19.1-3.3-37.7-10.9-54.9c-7.1-16.7-17.1-32-31.1-45.3c-13.8-13.3-29.1-23.8-47.2-31.5c-16.2-7.1-35.3-10.9-55.8-10.9H114.4
				v523.3h290v-107.9H404.3z M1019.6,948.4V1433H772.5c-42.4-0.9-82-12.4-118.7-34.9c-36.7-22-65.3-51.1-86.8-88.2
				s-32-77.3-32-119.7c0-43.4,10.9-84,32.4-121.6c22-37.7,51.1-66.7,88.2-88.7c37.2-21.5,77.8-32,121.6-32
				c26.7,0,52.5,3.8,77.8,12.4c24.8,8.6,47.7,19.6,67.8,35.3v-47.7L1019.6,948.4L1019.6,948.4z M922.8,1190.6
				c0-19.1-3.3-37.7-10.9-55.3c-7.6-17.6-17.6-33.8-31.5-47.2s-29.1-24.3-47.2-31.5c-17.6-7.6-36.2-10.9-55.3-10.9
				c-38.2,0-72.9,14.3-102.5,42.4c-13.8,13.8-24.3,29.1-31.1,47.2c-7.1,17.6-10.9,36.2-10.9,55.3c0,39.1,13.8,73.5,42,102.5
				c29.6,27.6,64,42,102.5,42h145.1L922.8,1190.6L922.8,1190.6z M3160.2,1045.1h-122c-38.2,0-72.9,14.3-102.5,42.4
				c-13.8,13.8-24.3,29.1-31.1,47.2c-7.1,17.6-10.9,36.2-10.9,55.3v241.8h-97.3v-248c0.9-42.4,12.4-82,34.9-118.7
				c22-36.7,51.1-65.3,88.2-86.8c37.2-20.9,77.3-31.1,119.7-31.1h122L3160.2,1045.1L3160.2,1045.1z M3404,941.7
				c43.4,0,84,10.9,121.1,32.4c37.2,22,66.3,52,88.2,89.7c21.5,38.2,32,80.2,32,126v0.9c0,45.3-10.9,87.3-32,124.5
				c-21.5,37.7-50.6,67.8-88.2,90.2c-37.2,22.4-78.2,33.8-122,33.8c-43.4,0-84-10.9-121.6-32.4c-37.7-22-66.3-52-88.2-90.2
				c-22-37.2-32.4-79.1-32.4-126v-0.9c0-45.3,10.9-87.3,32-124.9c21.5-38.2,51.1-67.8,88.7-90.2
				C3318.5,952.6,3359.1,941.7,3404,941.7L3404,941.7L3404,941.7z M3507.4,1301.3c29.1-29.1,43.4-65.8,43.4-110.7
				s-14.3-81.6-43.4-110.7c-29.1-29.1-64-43.4-104.4-43.4s-75.3,14.3-104.4,43.4c-28.6,28.6-42.4,65.3-42.4,110.7
				s14.3,82,42.4,110.7c13.8,13.8,29.6,24.3,47.7,31.5c17.6,7.6,37.2,10.9,56.3,10.9s38.7-3.3,56.2-10.9
				C3477.8,1325.5,3493.6,1314.6,3507.4,1301.3z"/>
			<path class="st1" d="M1693.6,1431.5h-97.8v-241.3c0-19.6-3.3-38.2-10.9-55.8c-7.6-17.1-17.6-33.4-31.5-47.2
				c-13.8-13.8-29.1-24.3-47.2-31.5c-17.6-7.6-36.2-10.9-55.3-10.9H1427v386.4h-96.9v-386.4h-163.6v387.3h-97.3V947.9h381.6
				c43.4,0,84,10.9,121.6,32.4c37.2,22,66.7,51.1,88.7,88.2c22,36.7,32.4,77.3,32.4,121.6L1693.6,1431.5L1693.6,1431.5z
				 M2214.3,948.4V1433h-246.6c-42.4-0.9-82-12.4-118.7-34.9c-36.7-22-65.3-51.1-86.8-88.2c-21.5-37.2-32-77.3-32-119.7
				c0-43.4,10.9-84,32.4-121.6c22-37.2,51.1-66.7,88.2-88.7c37.2-21.5,77.8-32,121.6-32c26.7,0,52.5,3.8,77.8,12.4
				c24.8,8.6,47.7,19.6,67.8,35.3v-47.7L2214.3,948.4L2214.3,948.4z M2117.6,1190.6c0-19.1-3.3-37.7-10.9-55.3s-17.6-33.8-31.5-47.2
				c-13.8-13.8-29.1-24.3-47.2-31.5c-17.6-7.6-36.2-10.9-55.3-10.9c-38.2,0-72.9,14.3-102.5,42.4c-13.8,13.8-24.3,29.1-31.1,47.2
				c-7.1,17.6-10.9,36.2-10.9,55.3c0,39.1,13.8,73.5,42,102.5c29.6,27.6,64,42,102.5,42h145.5L2117.6,1190.6L2117.6,1190.6z
				 M2747.6,1432.4h-97.8v-241.8c0-19.1-3.3-37.7-10.9-55.3c-7.6-17.6-17.6-33.8-31.5-47.2c-13.8-13.8-29.1-24.3-47.2-31.5
				c-17.1-7.6-36.2-10.9-55.8-10.9h-143.1V1433h-97.8V948.8H2504c44.4,0,84.9,10.9,122,32c37.2,20.9,66.7,51.1,88.7,88.7
				c21.5,36.7,32,77.3,32,121.6L2747.6,1432.4L2747.6,1432.4L2747.6,1432.4z"/>
		</g>
	</g>
	<g id="_1080745664_2_">
		<path class="st1" d="M3833.7,1146.9c69.9,88.7,163.7,182.2,282.3,280.5c18.5,15.4,45.2,15.4,63.4,0
			c97.6-81.2,178.5-160.7,243.9-235c20.2-23,39.1-45.6,56.5-67.5c17.1-21.6,32.9-42.5,47.6-63c29.8-41.4,55.2-77.1,77.1-112.4
			c22.6-36.7,42.1-72.6,59.6-114.8c10.3-25.3,19.9-52.8,29.5-83.6c0,0-171.6,34.3-171.6,34.6c-6.5,15.8-21.6,37.3-40.1,59.9
			c-16.8,19.9-36.3,40.4-55.5,57.5c-14.7,13-30.1,25.3-46.9,36.3c-65.8,44.2-143.5,69.9-231.6,69.9
			c-231.2-0.7-388.5-170.6-426.5-385.4c-12-68.5-11.3-140.1,11.3-200c64.7-171.6,185.3-269.2,368.9-290.1c50-5.8,95.6-3.1,135.6,4.1
			c59.3,10.6,155.2,45.2,202.1,93.2c1.4,1.4,132.2-40.8,132.2-40.8c-32.9-38-75-70.6-120.6-96.3c-36.7-20.6-75.7-37.3-114.8-48.6
			c-127.1-37.7-260.3-30.8-352.8-7.2c-91.1,23.3-166.5,67.8-226.4,125c-96.3,91.8-158.6,225.1-174.7,356.6
			c-16.1,130.2,24.7,261,88,381.6C3717.6,990.3,3775.8,1073.2,3833.7,1146.9L3833.7,1146.9z"/>
		<path class="st2" d="M3898.5,791c-27.7,2.4-40.1,25.3,1,25.3c85.3,0,306.2-17.1,466.6-40.1c48.3-7.2,110.3-15.4,155.9-31.9
			c48.6-17.8,46.6-87-19.2-76.4c-48,7.5-121.3,29.8-147.6,36.7C4225.3,738.2,4039.9,778,3898.5,791z M4678.5,256.9
			c-40.4,15.8-83.9,32.2-130.2,50c-83.9,32.2-168.5,64.4-253.8,94.5c-79.5,27.7-159.6,53.8-240.5,76c-85.3,23.3-167.5,41.4-241.5,50
			c-79.8,9.2-150.4,7.5-205.5-9.9c-90.8-28.8-107.9-83.6-102.8-142.8c5.8-67.5,57.5-126.1,145.9-212
			c-108.2,46.2-187,148.3-201.1,219.2c-15.4,76-4.1,152.1,66.1,208.6c38,30.5,94.5,44.9,163.1,46.9c63.7,1.7,138-6.9,217.5-21.9
			c100.4-19.5,209.3-49.7,316.9-83.9c103.1-32.5,204.8-68.5,297-102.4c75.4-27.4,144.2-52.4,202.1-73c22.3-7.9,43.5-15.4,62.3-21.6
			c27.1-9.2,39.7-26.4,42.5-43.8c2.7-19.9-7.2-40.4-24.7-51.7C4760,216.9,4712.7,243.9,4678.5,256.9L4678.5,256.9z M4755.2,521.1
			c-16.4,5.5-32.9,10.6-49.3,16.1c-11.3,3.4-23,7.5-34.9,11.3c-25,8.2-49.7,16.1-74.7,24.3c-88,28.1-178.5,56.2-268.9,81.2
			c-95.6,26.4-191.5,49-286.7,65.8c-94.2,16.4-187.4,27.1-278.2,28.4c-97.3,1.4-177.1-11.3-210.3-51c-4.5-5.8-5.1-11.3,3.1-11
			c65.4,5.1,130.9,5.1,196.3,0c92.1-6.9,185.7-21.6,279.5-42.5c101.1-22.3,202.4-51.7,303.2-84.3c84.3-27.1,167.8-56.5,250.1-86
			c13.4-5.1,27.1-9.6,40.4-14.7c12.7-4.5,25.7-9.2,38.4-13.7c13.7-5.1,27.7-9.9,41.4-15.4c24.3-8.9,50.7-23,76.4-13.4
			c28.8,11,44.2,46.2,21.9,75.4C4794.6,502.6,4778.8,513.2,4755.2,521.1L4755.2,521.1z"/>
	</g>
</g>
<text transform="matrix(1 0 0 1 1068.5796 893.4443)" class="st3 st4">Travel Holding</text>
</svg>
