<?xml version="1.0" encoding="iso-8859-1"?>
<!-- Generator: Adobe Illustrator 22.1.0, SVG Export Plug-In . SVG Version: 6.00 Build 0)  -->
<svg version="1.1" id="Layer_1" xmlns="http://www.w3.org/2000/svg" xmlns:xlink="http://www.w3.org/1999/xlink" x="0px" y="0px"
	 viewBox="0 0 512 512" style="enable-background:new 0 0 512 512;" xml:space="preserve">
<g>
	<rect x="267.778" y="442.151" style="fill:#FF8500;" width="34.9" height="46.5"/>
	<g>
		<g>
			<path d="M500.578,488.651h-23.3v-47.7c19.8-4.7,34.9-23.3,34.9-45.4s-31.4-59.3-38.4-66.3c-4.7-4.7-12.8-4.7-17.5,0
				c-5.8,7-37.2,44.2-37.2,66.3s15.1,39.6,34.9,45.4v47.7h-128v-58.2c0-7-4.7-11.6-11.6-11.6h-116.4c-7,0-11.6,4.7-11.6,11.6v58.2
				h-58.2v-372.3h69.8c7,0,11.6-4.7,11.6-11.6v-35h93.1v34.9c0,7,4.7,11.6,11.6,11.6h69.9v337.5c0,7,4.7,11.6,11.6,11.6
				c7,0,11.6-4.7,11.6-11.6v-349.1c0-7-4.7-11.6-11.6-11.6h-69.8v-34.9c0-7-4.7-11.6-11.6-11.6h-46.5v-35
				c-0.1-6.9-4.7-11.6-11.7-11.6s-11.6,4.7-11.6,11.6v34.9h-46.5c-7,0-11.6,4.7-11.6,11.6v34.9h-69.8c-7,0-11.6,4.7-11.6,11.6v395.6
				c0,7,4.7,11.6,11.6,11.6h81.5h116.4h186.2c7,0,11.6-4.7,11.6-11.6S507.478,488.651,500.578,488.651z M244.578,488.651h-34.9
				v-46.5h34.9V488.651z M302.678,488.651h-34.9v-46.5h34.9V488.651z M442.378,395.551c0-7,10.5-24.4,23.3-40.7
				c12.8,15.1,23.3,32.6,23.3,40.7c0,12.8-10.5,23.3-23.3,23.3S442.378,408.351,442.378,395.551z"/>
		</g>
	</g>
	<g>
		<g>
			<path style="fill:#FF8500;" d="M349.278,139.551h-186.2c-7,0-11.6,4.7-11.6,11.6c0,7,4.7,11.6,11.6,11.6h186.2
				c7,0,11.6-4.7,11.6-11.6S356.278,139.551,349.278,139.551z"/>
		</g>
	</g>
	<g>
		<g>
			<path style="fill:#FF8500;" d="M349.278,186.151h-186.2c-7,0-11.6,4.7-11.6,11.6s4.7,11.6,11.6,11.6h186.2
				c7,0,11.6-4.7,11.6-11.6S356.278,186.151,349.278,186.151z"/>
		</g>
	</g>
	<g>
		<g>
			<path style="fill:#FF8500;" d="M349.278,232.651h-186.2c-7,0-11.6,4.7-11.6,11.6s4.7,11.6,11.6,11.6h186.2
				c7,0,11.6-4.7,11.6-11.6S356.278,232.651,349.278,232.651z"/>
		</g>
	</g>
	<g>
		<g>
			<path style="fill:#FF8500;" d="M349.278,279.251h-186.2c-7,0-11.6,4.7-11.6,11.6s4.7,11.6,11.6,11.6h186.2
				c7,0,11.6-4.7,11.6-11.6S356.278,279.251,349.278,279.251z"/>
		</g>
	</g>
	<g>
		<g>
			<path style="fill:#FF8500;" d="M349.278,325.751h-186.2c-7,0-11.6,4.7-11.6,11.6c0,7,4.7,11.6,11.6,11.6h186.2
				c7,0,11.6-4.7,11.6-11.6S356.278,325.751,349.278,325.751z"/>
		</g>
	</g>
	<g>
		<g>
			<path style="fill:#FF8500;" d="M349.278,372.351h-186.2c-7,0-11.6,4.7-11.6,11.6s4.7,11.6,11.6,11.6h186.2
				c7,0,11.6-4.7,11.6-11.6S356.278,372.351,349.278,372.351z"/>
		</g>
	</g>
	<g>
		<g>
			<path style="fill:#FF8500;" d="M279.478,93.051h-46.5c-7,0-11.6,4.7-11.6,11.6s4.7,11.6,11.6,11.6h46.5c7,0,11.6-4.7,11.6-11.6
				S286.478,93.051,279.478,93.051z"/>
		</g>
	</g>
	<g>
		<g>
			<path d="M69.978,488.651h-11.6v-47.7c19.8-5.8,34.9-23.3,34.9-45.4s-31.4-59.3-38.4-66.3c-4.7-4.7-12.8-4.7-17.5,0
				c-5.8,7-37.2,44.2-37.2,66.3c0,22.1,15.1,39.6,34.9,45.4v47.7h-23.3c-7,0-11.6,4.7-11.6,11.6s4.7,11.7,11.6,11.7h58.2
				c7,0,11.6-4.7,11.6-11.6S76.978,488.651,69.978,488.651z M23.478,395.551c0-7,10.5-24.4,23.3-40.7c12.8,15.1,23.3,32.6,23.3,40.7
				c0,12.8-10.5,23.3-23.3,23.3S23.478,408.351,23.478,395.551z"/>
		</g>
	</g>
</g>
</svg>
