<?xml version="1.0" encoding="utf-8"?>
<!-- Generator: Adobe Illustrator 22.1.0, SVG Export Plug-In . SVG Version: 6.00 Build 0)  -->
<svg version="1.1" id="Layer_1" xmlns="http://www.w3.org/2000/svg" xmlns:xlink="http://www.w3.org/1999/xlink" x="0px" y="0px"
	 viewBox="0 0 512 512" style="enable-background:new 0 0 512 512;" xml:space="preserve">
<style type="text/css">
	.st0{fill:#FFFFFF;}
</style>
<path class="st0" d="M230,462.4c0-14-11.4-25.4-25.4-25.4c-14,0-25.4,11.4-25.4,25.4s11.4,25.4,25.4,25.4
	C218.6,487.8,230,476.4,230,462.4z M204.6,472.8c-5.7,0-10.4-4.7-10.4-10.4s4.7-10.4,10.4-10.4c5.7,0,10.4,4.7,10.4,10.4
	S210.3,472.8,204.6,472.8z"/>
<path class="st0" d="M225.2,47.7c4.1,0,7.5-3.4,7.5-7.5c0-4.1-3.4-7.5-7.5-7.5h-41.3c-4.1,0-7.5,3.4-7.5,7.5c0,4.1,3.4,7.5,7.5,7.5
	H225.2z"/>
<path class="st0" d="M267,284.6c-3,0-5.5,4.1-5.5,6.9c0,5.5,8.9,11.9,20.8,12.2v2.8c0,1.3,1.5,2.5,3.3,2.5c1.7,0,3.3-1.2,3.3-2.5v-3
	c11-1.8,18.5-8.7,18.5-20.8c0-13.3-9.8-17.8-18.5-21v-17.3c6.6,0.5,8.8,3.6,11.6,3.6c3.6,0,5.2-4.5,5.2-6.8c0-5.7-10.4-7.6-16.8-7.8
	v-2.6c0-1.3-1.7-2.5-3.3-2.5c-1.9,0-3.3,1.2-3.3,2.5v2.8c-9.8,1.3-19,6.7-19,19.1c0,12.6,10.1,16.4,19,19.7V292
	C273.7,291,270.7,284.6,267,284.6z M288.2,274.8c4.2,1.9,7.4,4.2,7.4,9c0,4.6-3,7.2-7.4,8V274.8z M275.2,251.4
	c0-3.7,2.9-6.1,7.9-6.9v14.8C278.6,257.6,275.2,255.8,275.2,251.4z"/>
<path class="st0" d="M284.4,339.1c0.1,0,0.2,0,0.3,0c0.1,0,0.2,0,0.3,0c39-0.1,70.8-32,70.8-71.1c0-39.2-31.9-71.1-71.1-71.1
	c-39.2,0-71.1,31.9-71.1,71.1C213.6,307.1,245.4,338.9,284.4,339.1z M284.7,211.9c30.9,0,56.1,25.1,56.1,56.1
	c0,30.8-25.1,56-56,56.1l0,0c0,0-0.1,0-0.1,0c-30.8-0.1-55.9-25.2-55.9-56.1C228.6,237.1,253.8,211.9,284.7,211.9z"/>
<path class="st0" d="M448.9,258c4.1,0,7.5-3.4,7.5-7.5v-61c0-19.1-15.5-34.6-34.6-34.6h-68.7V35.4c0-19.5-15.9-35.4-35.4-35.4H91.4
	C71.9,0,56,15.9,56,35.4v441.3c0,19.5,15.9,35.4,35.4,35.4h95.7c4.1,0,7.5-3.4,7.5-7.5c0-4.1-3.4-7.5-7.5-7.5H91.4
	c-11.2,0-20.4-9.1-20.4-20.4V35.4C71,24.1,80.1,15,91.4,15h226.4c11.2,0,20.4,9.1,20.4,20.4v119.6h-19.5c0-7.2,0-63.9,0-70.9
	c0-8.4-6.9-15.3-15.3-15.3c-12.5,0-192.5,0-197.6,0c-8.4,0-15.3,6.9-15.3,15.3v329.4c0,8.4,6.9,15.3,15.3,15.3h197.6
	c8.4,0,15.3-6.9,15.3-15.3v-32.3h19.5v95.6c0,11.2-9.1,20.4-20.4,20.4h-95.7c-4.1,0-7.5,3.4-7.5,7.5c0,4.1,3.4,7.5,7.5,7.5h95.7
	c19.5,0,35.4-15.9,35.4-35.4v-95.6h68.7c19.1,0,34.6-15.5,34.6-34.6v-61c0-4.1-3.4-7.5-7.5-7.5c-4.1,0-7.5,3.4-7.5,7.5v61
	c0,10.8-8.8,19.6-19.6,19.6c-12.5,0-200,0-209.8,0v-6.9h168.4c6.1,0,11-4.9,11-11v-10.4c0-12,9.8-21.8,21.8-21.8h10.4
	c6,0,11-4.9,11-11v-74.1c0-6-4.9-11-11-11h-10.4c-12,0-21.8-9.8-21.8-21.8v-10.4c0-6.1-4.9-11-11-11H212.1v-6.9h209.8
	c10.8,0,19.6,8.8,19.6,19.6v61C441.4,254.6,444.8,258,448.9,258z M105.5,84c0-0.2,0.1-0.3,0.3-0.3H135v23.6h-29.5V84z M376.4,191.8
	v6.4c0,20.3,16.5,36.8,36.8,36.8h6.4V301h-6.4c-20.3,0-36.8,16.5-36.8,36.8v6.4H212.1V191.8H376.4z M303.7,154.9h-91.6v-6.1
	c0-4.1-3.4-7.5-7.5-7.5s-7.5,3.4-7.5,7.5V390c0,4.1,3.4,7.5,7.5,7.5s7.5-3.4,7.5-7.5v-8.9h91.6v32.3c0,0.2-0.1,0.3-0.3,0.3H105.8
	c-0.2,0-0.3-0.1-0.3-0.3V122.3h198.2V154.9z M303.7,107.3H150V83.7h153.4c0.2,0,0.3,0.1,0.3,0.3V107.3z"/>
</svg>
