<?xml version="1.0" encoding="UTF-8" standalone="no"?>
<!-- Generator: Adobe Illustrator 22.1.0, SVG Export Plug-In . SVG Version: 6.00 Build 0)  -->

<svg
   xmlns:dc="http://purl.org/dc/elements/1.1/"
   xmlns:cc="http://creativecommons.org/ns#"
   xmlns:rdf="http://www.w3.org/1999/02/22-rdf-syntax-ns#"
   xmlns:svg="http://www.w3.org/2000/svg"
   xmlns="http://www.w3.org/2000/svg"
   xmlns:sodipodi="http://sodipodi.sourceforge.net/DTD/sodipodi-0.dtd"
   xmlns:inkscape="http://www.inkscape.org/namespaces/inkscape"
   version="1.1"
   id="Layer_1"
   x="0px"
   y="0px"
   viewBox="0 0 133.017 531.449"
   style="enable-background:new 0 0 133.017 531.449;"
   xml:space="preserve"
   sodipodi:docname="plane2.svg"
   inkscape:version="0.92.4 (33fec40, 2019-01-16)"><metadata
   id="metadata3777"><rdf:RDF><cc:Work
       rdf:about=""><dc:format>image/svg+xml</dc:format><dc:type
         rdf:resource="http://purl.org/dc/dcmitype/StillImage" /><dc:title></dc:title></cc:Work></rdf:RDF></metadata><defs
   id="defs3775" /><sodipodi:namedview
   pagecolor="#ffffff"
   bordercolor="#666666"
   borderopacity="1"
   objecttolerance="10"
   gridtolerance="10"
   guidetolerance="10"
   inkscape:pageopacity="0"
   inkscape:pageshadow="2"
   inkscape:window-width="1440"
   inkscape:window-height="845"
   id="namedview3773"
   showgrid="false"
   inkscape:zoom="1.1797934"
   inkscape:cx="-40.289859"
   inkscape:cy="265.72449"
   inkscape:window-x="0"
   inkscape:window-y="27"
   inkscape:window-maximized="1"
   inkscape:current-layer="Layer_1" />
<g
   id="Layer_x0020_1">
	<path
   style="fill:#CADAF7;"
   d="M 124.11719 6.4511719 L 123.87109 6.6601562 L 124.11719 6.9511719 L 124.11719 6.4511719 z M 115.92188 13.353516 L 110.55859 18.34375 L 110.56055 18.345703 L 108.4668 20.292969 L 110.08594 22.025391 L 112.17773 20.076172 L 117.53906 15.085938 L 115.92188 13.353516 z M 100.99023 27.490234 L 98.994141 29.535156 L 98.988281 29.53125 L 93.875 34.769531 L 95.566406 36.429688 L 97.5625 34.384766 L 97.566406 34.388672 L 102.68164 29.150391 L 100.99023 27.490234 z M 86.863281 42.472656 L 84.96875 44.609375 L 84.966797 44.607422 L 80.109375 50.082031 L 81.882812 51.650391 L 81.882812 51.660156 L 83.779297 49.523438 L 88.636719 44.050781 L 86.863281 42.472656 z M 73.623047 58.207031 L 71.591797 60.732422 L 71.509766 60.671875 L 70.265625 62.380859 L 69.035156 63.910156 L 69.109375 63.96875 L 67.199219 66.591797 L 69.117188 67.982422 L 72.154297 63.8125 L 75.470703 59.693359 L 73.623047 58.207031 z M 61.021484 74.964844 L 57.001953 81.089844 L 55.433594 83.480469 L 57.414062 84.779297 L 61.435547 78.654297 L 61.433594 78.652344 L 63.001953 76.263672 L 61.021484 74.964844 z M 49.835938 92.234375 L 48.384766 94.701172 L 48.380859 94.699219 L 44.669922 101.01172 L 46.710938 102.2168 L 48.162109 99.75 L 48.164062 99.751953 L 51.876953 93.441406 L 49.835938 92.234375 z M 39.679688 110.12695 L 36.275391 116.61133 L 36.277344 116.61133 L 34.945312 119.14844 L 37.039062 120.25195 L 38.369141 117.71484 L 41.771484 111.22852 L 39.679688 110.12695 z M 30.552734 128.58203 L 29.185547 131.53516 L 29.048828 131.48047 L 27.912109 134.29297 L 27.480469 135.22461 L 27.525391 135.24609 L 26.304688 138.26562 L 28.501953 139.15234 L 30.101562 135.19336 L 32.697266 129.58203 L 30.552734 128.58203 z M 29.626953 136.2207 L 29.634766 136.22461 L 29.625 136.22461 L 29.626953 136.2207 z M 22.283203 147.88672 L 19.880859 154.80469 L 18.941406 157.50781 L 21.179688 158.2793 L 22.117188 155.57812 L 23.083984 152.79492 L 23.582031 151.36133 L 24.521484 148.6582 L 22.283203 147.88672 z M 15.570312 167.36523 L 13.527344 174.39648 L 13.529297 174.39648 L 12.734375 177.13867 L 15.013672 177.79883 L 17.054688 170.76758 L 17.052734 170.76758 L 17.849609 168.02539 L 15.570312 167.36523 z M 10.042969 187.20312 L 9.3867188 189.98633 L 9.3828125 189.98633 L 7.7011719 197.11133 L 10.011719 197.6582 L 10.667969 194.875 L 10.671875 194.875 L 12.353516 187.75 L 10.042969 187.20312 z M 5.7226562 207.33008 L 4.4023438 214.53906 L 4.4042969 214.53906 L 3.8886719 217.35352 L 6.21875 217.77734 L 6.7324219 214.96289 L 7.4277344 211.16992 L 7.5371094 210.56836 L 8.0527344 207.75391 L 5.7226562 207.33008 z M 2.5996094 227.6875 L 2.1757812 230.93359 L 2.0429688 230.92383 L 1.8476562 233.44336 L 1.6503906 234.94531 L 1.7285156 234.95508 L 1.4746094 238.22461 L 3.8359375 238.41016 C 3.8359375 238.41016 4.0283534 235.91718 4.1953125 233.76758 L 4.9492188 227.99609 L 2.5996094 227.6875 z M 0.84765625 248.625 L 0.84765625 258.81055 L 2.6289062 258.85742 L 2.7011719 256.00195 L 2.8886719 248.67969 L 0.84765625 248.625 z M 2.3828125 269.1582 L 0.84765625 269.19922 L 0.84765625 279.38281 L 2.640625 279.33594 L 2.5683594 276.47852 L 2.3828125 269.1582 z M 3.0625 289.62695 L 0.84765625 289.80078 L 0.84765625 291.69336 L 1.2695312 297.11328 L 1.2734375 297.11328 L 1.4941406 299.96875 L 3.8554688 299.7832 L 3.2890625 292.48242 L 3.2851562 292.48242 L 3.0625 289.62695 z M 4.9589844 310.02344 L 2.6074219 310.33203 L 3.5566406 317.5918 L 3.5585938 317.5918 L 3.9296875 320.42578 L 6.2792969 320.11719 L 5.9082031 317.28125 L 4.9589844 310.02344 z M 8.0742188 330.25391 L 5.7441406 330.67578 L 7.0644531 337.88477 L 7.578125 340.69922 L 9.9082031 340.27539 L 9.3925781 337.46094 L 9.3945312 337.46094 L 8.0742188 330.25391 z M 12.394531 350.27734 L 10.083984 350.82422 L 10.833984 354.00195 L 10.796875 354.01172 L 11.007812 354.73828 L 11.765625 357.94922 L 11.927734 357.91016 L 12.837891 361.04297 L 15.117188 360.38281 L 13.3125 354.17383 L 12.394531 350.27734 z M 17.941406 370.29297 L 15.703125 371.06641 L 18.105469 377.98438 L 18.107422 377.98438 L 19.044922 380.68555 L 21.283203 379.91211 L 18.880859 372.99414 L 18.878906 372.99414 L 17.941406 370.29297 z M 24.787109 389.5957 L 22.591797 390.48242 L 23.664062 393.13281 L 26.408203 399.91797 L 28.603516 399.03125 L 25.861328 392.24609 L 25.859375 392.24609 L 24.787109 389.5957 z M 32.769531 408.44336 L 30.613281 409.44336 L 33.6875 416.08594 L 33.691406 416.08398 L 34.894531 418.68359 L 37.039062 417.68359 L 35.837891 415.08594 L 35.841797 415.08594 L 32.769531 408.44336 z M 41.822266 426.78906 L 39.730469 427.89258 L 41.238281 430.76758 L 41.132812 430.83008 L 42.416016 433.00977 L 43.132812 434.37891 L 43.199219 434.34375 L 44.84375 437.14062 L 46.886719 435.93555 L 44.435547 431.76758 L 41.822266 426.78906 z M 52.001953 444.86523 L 50.021484 446.16406 L 51.591797 448.55469 L 51.587891 448.55664 L 55.609375 454.68164 L 57.589844 453.38281 L 56.019531 450.99219 L 56.021484 450.99023 L 52.001953 444.86523 z M 63.302734 461.92969 L 61.384766 463.32227 L 63.066406 465.63086 L 63.064453 465.63281 L 67.375 471.55078 L 69.292969 470.1582 L 67.611328 467.84961 L 63.302734 461.92969 z M 75.5625 478.31445 L 73.716797 479.80078 L 78.304688 485.50195 L 78.306641 485.5 L 80.099609 487.72852 L 81.945312 486.24414 L 77.355469 480.54297 L 75.5625 478.31445 z M 88.740234 493.96875 L 86.966797 495.53516 L 91.822266 501.00977 L 91.824219 501.00781 L 93.720703 503.14453 L 95.494141 501.57617 L 90.636719 496.10156 L 90.634766 496.10352 L 88.740234 493.96875 z M 102.86719 509.14648 L 101.24805 510.87891 L 103.3418 512.82617 L 108.70312 517.81836 L 110.32227 516.08594 L 108.22852 514.13672 L 102.86719 509.14648 z M 117.86914 523.05469 L 116.34375 524.85938 L 121.93164 529.59375 L 121.93555 529.58984 L 124.11719 531.43945 L 124.11719 528.3418 L 120.05469 524.90039 L 120.05078 524.9043 L 117.86914 523.05469 z "
   id="path3765" />
	<path
   style="fill:#CADAF7;"
   d="M9.435,159.301c0.34-3.557-0.031-2.846,5.692-5.548c5.104-2.279,3.588-0.186,5.352-5.372   c1.547-4.743,5.114-11.291,6.259-14.931c-2.712-1.217-16.436-0.918-20.747-1.969c0.392-0.969,0.701-1.743,1.155-2.774   c0.691-1.619,0.412-1.371,2.557-1.774c4.63-0.98,19.458-4.135,22.159-5.032c1.588-3.413,5.341-12.992,7.847-14.962   c1.186-0.928,3.248-2.258,4.135-0.547c2.134,4.228-2.341,11.58-4.784,16.869c-0.99,2.124-0.629,1.681,0.577,3.743   c1.258,2.258,10.755,18.323,10.744,19.581c-0.093,0.454-1.454,3.289-1.691,3.877c-1.33-1.072-2.712-2.351-3.96-3.609l-7.589-7.146   c-1.114-1.258-2.629-2.537-3.898-3.547c-1.011,2.526-2.145,4.908-3.227,7.486c-5.393,12.786-6.393,8.29-4.083,15.251   c1.217,3.918,2.712,5.599-0.392,7.6c-4.475-6.032-9.115-8.167-16.127-7.187l0,0L9.435,159.301z"
   id="path3767" />
	<path
   style="fill:#CADAF7;"
   d="M31.017,268.086c0,50.392,9.486,88.039,28.284,131.708c4.919,11.425,13.384,27.356,20.313,37.678   c1.64,2.444,2.248,3.774,3.836,6.166l20.973,28.026c3.238,4.135,15.715,17.828,19.581,20.417V47.092   c-5.486,3.681-10.085,9.713-14.302,14.704c-36.46,43.112-56.165,79.522-70.302,135.688c-5.073,20.169-8.393,46.009-8.393,70.602   H31.017z"
   id="path3769" />
</g>
<rect
   id="rect3781"
   width="2.5428181"
   height="54.246784"
   x="0.847606"
   y="-53.399178" /></svg>