<?xml version="1.0" encoding="iso-8859-1"?>
<!-- Generator: Adobe Illustrator 22.1.0, SVG Export Plug-In . SVG Version: 6.00 Build 0)  -->
<svg version="1.1" id="Layer_1" xmlns="http://www.w3.org/2000/svg" xmlns:xlink="http://www.w3.org/1999/xlink" x="0px" y="0px"
	 viewBox="0 0 133.017 531.449" style="enable-background:new 0 0 133.017 531.449;" xml:space="preserve">
<g id="Layer_x0020_1">
	<path style="fill:#CADAF7;" d="M123.458,527.789l-1.526,1.804l-5.589-4.733l1.526-1.805L123.458,527.789L123.458,527.789z
		 M125.644,529.635l-1.526,1.804l-5.589-4.733l1.526-1.805L125.644,529.635z M108.229,514.137l-1.619,1.732l-5.362-4.991
		l1.619-1.732L108.229,514.137z M110.322,516.086l-1.619,1.732l-5.362-4.991l1.619-1.732L110.322,516.086z M93.597,499.443
		l-1.774,1.567l-4.857-5.475l1.774-1.567L93.597,499.443z M95.494,501.577l-1.774,1.567l-4.857-5.475l1.774-1.567L95.494,501.577z
		 M80.151,484.017l-1.846,1.485l-4.589-5.702l1.846-1.485L80.151,484.017z M81.945,486.244l-1.846,1.485l-4.589-5.702l1.846-1.485
		L81.945,486.244z M67.612,467.849l-1.918,1.392l-4.31-5.919l1.918-1.392L67.612,467.849z M69.293,470.159l-1.918,1.392l-4.31-5.919
		l1.918-1.392L69.293,470.159z M56.022,450.99l-1.98,1.299l-4.021-6.125l1.98-1.299L56.022,450.99z M57.589,453.382l-1.98,1.299
		l-4.021-6.125l1.98-1.299L57.589,453.382z M45.226,433.275l-2.093,1.103l-3.403-6.486l2.093-1.103L45.226,433.275z M35.832,415.085
		l-2.145,1l-3.073-6.641l2.155-1l3.073,6.641H35.832z M37.039,417.684l-2.145,1l-3.073-6.641l2.145-1L37.039,417.684z
		 M27.531,396.38l-2.196,0.887l-2.743-6.785l2.196-0.887L27.531,396.38z M28.604,399.031l-2.196,0.887l-2.743-6.785l2.196-0.887
		L28.604,399.031z M20.344,377.212l-2.238,0.773l-2.403-6.919l2.238-0.773L20.344,377.212z M21.283,379.913l-2.238,0.773
		l-2.403-6.919l2.238-0.773L21.283,379.913z M14.075,357.403l-2.31,0.547l-1.681-7.125l2.31-0.547L14.075,357.403z M9.394,337.461
		l-2.33,0.423l-1.32-7.208l2.33-0.423L9.394,337.461z M9.909,340.276l-2.33,0.423l-1.32-7.208l2.33-0.423L9.909,340.276z
		 M5.908,317.282l-2.351,0.309l-0.949-7.259l2.351-0.309L5.908,317.282z M6.28,320.117l-2.351,0.309l-0.949-7.259l2.351-0.309
		L6.28,320.117z M3.63,296.927l-2.361,0.186l-0.567-7.3l2.361-0.186L3.63,296.927z M3.856,299.783l-2.361,0.186l-0.567-7.3
		l2.361-0.186L3.856,299.783z M2.568,276.479l-2.372,0.062L0.01,269.22l2.372-0.062L2.568,276.479z M2.64,279.336l-2.372,0.062
		l-0.186-7.321l2.372-0.062L2.64,279.336z M2.702,256.001l-2.372-0.062l0.186-7.321l2.372,0.062L2.702,256.001z M2.629,258.857
		l-2.372-0.062l0.186-7.321l2.372,0.062L2.629,258.857z M4.001,235.255l-2.351-0.309l0.949-7.259l2.351,0.309L4.001,235.255z
		 M6.733,214.962l-2.33-0.423l1.32-7.208l2.33,0.423L6.733,214.962z M6.218,217.777l-2.33-0.423l1.32-7.208l2.33,0.423
		L6.218,217.777z M10.672,194.875l-2.31-0.546l1.681-7.125l2.31,0.546L10.672,194.875z M10.012,197.659l-2.31-0.547l1.681-7.125
		l2.31,0.546L10.012,197.659z M15.807,175.057l-2.279-0.66l2.042-7.032l2.279,0.66L15.807,175.057z M15.013,177.799l-2.279-0.66
		l2.042-7.032l2.279,0.66L15.013,177.799z M22.118,155.578l-2.238-0.773l2.403-6.919l2.238,0.773L22.118,155.578z M21.18,158.28
		l-2.238-0.773l2.403-6.919l2.238,0.773L21.18,158.28z M29.635,136.224l-2.155-1l3.073-6.641l2.145,1l-3.073,6.641H29.635z
		 M38.369,117.715l-2.093-1.103l3.403-6.486l2.093,1.103L38.369,117.715z M37.039,120.251l-2.093-1.103l3.403-6.486l2.093,1.103
		L37.039,120.251z M48.165,99.752l-2.042-1.206l3.712-6.311l2.042,1.206L48.165,99.752z M46.711,102.217l-2.042-1.206l3.712-6.311
		l2.042,1.206L46.711,102.217z M58.981,82.388l-1.98-1.299l4.021-6.125l1.98,1.299L58.981,82.388z M57.414,84.78l-1.98-1.299
		l4.021-6.125l1.98,1.299L57.414,84.78z M70.881,65.395l-1.846-1.485l4.589-5.702l1.846,1.485L70.881,65.395z M83.78,49.515
		l-1.774-1.567l4.857-5.475l1.774,1.578l-4.857,5.475V49.515z M81.883,51.65l-1.774-1.567l4.857-5.475l1.774,1.578l-4.857,5.475
		V51.65z M97.567,34.388l-1.691-1.66l5.114-5.238l1.691,1.66L97.567,34.388z M95.566,36.43l-1.691-1.66l5.114-5.238l1.691,1.66
		L95.566,36.43z M112.178,20.076l-1.619-1.732l5.362-4.991l1.619,1.732L112.178,20.076z M110.085,22.025l-1.619-1.732l5.362-4.991
		l1.619,1.732L110.085,22.025z M127.696,6.321l-1.444-1.877l5.805-4.455l0.959,1.248v1.011l-5.321,4.083L127.696,6.321z
		 M46.886,435.935l-2.042,1.206l-3.712-6.311l2.042-1.206L46.886,435.935z M15.117,360.383l-2.279,0.66l-2.042-7.032l2.279-0.66
		L15.117,360.383z M3.836,238.41l-2.361-0.186l0.567-7.3l2.361,0.186C4.403,231.109,3.836,238.41,3.836,238.41z M28.501,139.152
		l-2.196-0.887l2.743-6.785l2.196,0.887L28.501,139.152z M69.117,67.983l-1.918-1.392l4.31-5.919l1.918,1.392L69.117,67.983z
		 M125.397,8.465l-1.526-1.804l5.589-4.733l1.526,1.804L125.397,8.465z"/>
	<path style="fill:#CADAF7;" d="M9.435,159.301c0.34-3.557-0.031-2.846,5.692-5.548c5.104-2.279,3.588-0.186,5.352-5.372
		c1.547-4.743,5.114-11.291,6.259-14.931c-2.712-1.217-16.436-0.918-20.747-1.969c0.392-0.969,0.701-1.743,1.155-2.774
		c0.691-1.619,0.412-1.371,2.557-1.774c4.63-0.98,19.458-4.135,22.159-5.032c1.588-3.413,5.341-12.992,7.847-14.962
		c1.186-0.928,3.248-2.258,4.135-0.547c2.134,4.228-2.341,11.58-4.784,16.869c-0.99,2.124-0.629,1.681,0.577,3.743
		c1.258,2.258,10.755,18.323,10.744,19.581c-0.093,0.454-1.454,3.289-1.691,3.877c-1.33-1.072-2.712-2.351-3.96-3.609l-7.589-7.146
		c-1.114-1.258-2.629-2.537-3.898-3.547c-1.011,2.526-2.145,4.908-3.227,7.486c-5.393,12.786-6.393,8.29-4.083,15.251
		c1.217,3.918,2.712,5.599-0.392,7.6c-4.475-6.032-9.115-8.167-16.127-7.187l0,0L9.435,159.301z"/>
	<path style="fill:#CADAF7;" d="M31.017,268.086c0,50.392,9.486,88.039,28.284,131.708c4.919,11.425,13.384,27.356,20.313,37.678
		c1.64,2.444,2.248,3.774,3.836,6.166l20.973,28.026c3.238,4.135,15.715,17.828,19.581,20.417V47.092
		c-5.486,3.681-10.085,9.713-14.302,14.704c-36.46,43.112-56.165,79.522-70.302,135.688c-5.073,20.169-8.393,46.009-8.393,70.602
		H31.017z"/>
</g>
</svg>
