<?xml version="1.0" encoding="iso-8859-1"?>
<!-- Generator: Adobe Illustrator 22.1.0, SVG Export Plug-In . SVG Version: 6.00 Build 0)  -->
<svg version="1.1" id="Layer_1" xmlns="http://www.w3.org/2000/svg" xmlns:xlink="http://www.w3.org/1999/xlink" x="0px" y="0px"
	 viewBox="0 0 512 512" style="enable-background:new 0 0 512 512;" xml:space="preserve">
<g>
	<path d="M511.254,37.199c0-18.75-15.248-33.999-33.999-33.999H35.272c-18.75,0-33.999,15.248-33.999,33.999
		c0,15.801,10.88,28.992,25.499,32.792v412.71l25.499-25.499L103.27,508.2l50.998-50.998l50.998,50.998l50.998-50.998l50.998,50.998
		l50.998-50.998l50.998,50.998l50.998-50.998l25.499,25.499V69.991C500.375,66.191,511.254,53,511.254,37.199z M468.756,441.665
		l-8.5-8.5l-50.998,50.998l-50.998-50.998l-50.998,50.998l-50.998-50.998l-50.998,50.998l-50.998-50.998l-50.998,50.998
		l-50.998-50.998l-8.5,8.5V71.198V45.699h424.984v25.499L468.756,441.665L468.756,441.665z M485.755,51.912V28.699H26.772v23.213
		c-5.074-2.932-8.5-8.432-8.5-14.713c0-9.375,7.624-16.999,16.999-16.999h441.983c9.375,0,16.999,7.624,16.999,16.999
		C494.255,43.48,490.829,48.98,485.755,51.912z"/>
	<path d="M375.259,343.188H247.764c-4.692,0-8.5,3.799-8.5,8.5c0,4.7,3.808,8.5,8.5,8.5h127.495c4.692,0,8.5-3.799,8.5-8.5
		S379.951,343.188,375.259,343.188z"/>
	<path d="M411.723,345.652c-1.53,1.606-2.465,3.731-2.465,6.035c0,2.21,0.935,4.42,2.465,6.035c1.615,1.53,3.825,2.465,6.035,2.465
		s4.42-0.935,6.035-2.465c1.53-1.615,2.465-3.825,2.465-6.035c0-2.303-0.935-4.428-2.465-6.035
		C420.563,342.508,414.953,342.508,411.723,345.652z"/>
	<path d="M417.758,224.192H290.263c-4.692,0-8.5,3.799-8.5,8.5s3.808,8.5,8.5,8.5h127.495c4.692,0,8.5-3.799,8.5-8.5
		S422.449,224.192,417.758,224.192z"/>
	<path d="M417.758,283.69h-84.997c-4.692,0-8.5,3.799-8.5,8.5c0,4.7,3.808,8.5,8.5,8.5h84.997c4.692,0,8.5-3.799,8.5-8.5
		C426.257,287.489,422.449,283.69,417.758,283.69z"/>
	<path d="M239.264,292.189c0,4.7,3.808,8.5,8.5,8.5h16.999c4.692,0,8.5-3.799,8.5-8.5c0-4.7-3.808-8.5-8.5-8.5h-16.999
		C243.072,283.69,239.264,287.489,239.264,292.189z"/>
	<path d="M383.759,173.194c0-4.7-3.808-8.5-8.5-8.5H247.764c-4.692,0-8.5,3.799-8.5,8.5c0,4.7,3.808,8.5,8.5,8.5h127.495
		C379.951,181.694,383.759,177.894,383.759,173.194z"/>
	<path d="M411.723,167.159c-1.53,1.606-2.465,3.731-2.465,6.035c0,2.21,0.935,4.42,2.465,6.035c1.615,1.53,3.825,2.465,6.035,2.465
		c2.295,0,4.42-0.935,6.035-2.465c1.53-1.615,2.465-3.825,2.465-6.035s-0.935-4.428-2.465-6.035
		C420.648,164.014,414.868,164.014,411.723,167.159z"/>
	<path d="M262.299,238.726c1.53-1.615,2.465-3.74,2.465-6.035c0-2.303-0.935-4.428-2.465-6.035c-3.145-3.145-8.84-3.145-12.07,0
		c-1.53,1.606-2.465,3.731-2.465,6.035c0,2.295,0.935,4.42,2.465,6.035c1.615,1.53,3.825,2.465,6.035,2.465
		C258.474,241.191,260.684,240.256,262.299,238.726z"/>
	<path d="M304.797,298.224c1.53-1.615,2.465-3.74,2.465-6.035c0-2.303-0.935-4.505-2.465-6.035c-3.145-3.145-8.84-3.145-12.07,0
		c-1.53,1.606-2.465,3.825-2.465,6.035s0.935,4.42,2.465,6.035c1.615,1.53,3.825,2.465,6.035,2.465S303.182,299.754,304.797,298.224
		z"/>
	<path d="M145.768,182.552v-9.358c0-4.7-3.808-8.5-8.5-8.5s-8.5,3.799-8.5,8.5v9.384c-9.273,1.887-17.722,6.808-23.952,14.177
		c-5.193,6.137-7.599,13.99-6.749,22.125c0.867,8.321,5.151,16.039,11.755,21.173l18.946,14.738v46.221
		c-9.868-3.519-16.999-12.868-16.999-23.935c0-4.7-3.808-8.5-8.5-8.5s-8.5,3.799-8.5,8.5c0,20.518,14.628,37.688,33.999,41.64v7.463
		c0,4.7,3.808,8.5,8.5,8.5s8.5-3.799,8.5-8.5v-7.497c9.273-1.887,17.722-6.808,23.961-14.177c5.193-6.154,7.59-14.007,6.74-22.142
		c-0.875-8.313-5.151-16.022-11.755-21.147l-18.946-14.73v-46.221c9.868,3.519,16.999,12.869,16.999,23.935c0,4.7,3.808,8.5,8.5,8.5
		s8.5-3.799,8.5-8.5C179.767,203.674,165.139,186.504,145.768,182.552z M154.276,274.638c2.966,2.303,4.896,5.78,5.287,9.503
		c0.365,3.485-0.637,6.825-2.813,9.392c-2.958,3.493-6.783,5.941-10.982,7.437v-32.962L154.276,274.638z M120.26,226.64
		c-2.975-2.312-4.896-5.788-5.287-9.52c-0.357-3.476,0.637-6.808,2.813-9.384c2.958-3.493,6.783-5.941,10.982-7.437v32.953
		L120.26,226.64z"/>
	<circle cx="341.261" cy="96.697" r="8.5"/>
	<circle cx="307.262" cy="96.697" r="8.5"/>
	<circle cx="375.259" cy="96.697" r="8.5"/>
	<circle cx="273.263" cy="96.697" r="8.5"/>
	<circle cx="409.258" cy="96.697" r="8.5"/>
	<circle cx="171.267" cy="96.697" r="8.5"/>
	<circle cx="205.266" cy="96.697" r="8.5"/>
	<circle cx="239.264" cy="96.697" r="8.5"/>
	<circle cx="443.257" cy="96.697" r="8.5"/>
	<circle cx="137.268" cy="96.697" r="8.5"/>
	<circle cx="103.27" cy="96.697" r="8.5"/>
	<circle cx="69.271" cy="96.697" r="8.5"/>
</g>
</svg>
