<?xml version="1.0" encoding="utf-8"?>
<!-- Generator: Adobe Illustrator 22.1.0, SVG Export Plug-In . SVG Version: 6.00 Build 0)  -->
<svg version="1.1" id="Layer_1" xmlns="http://www.w3.org/2000/svg" xmlns:xlink="http://www.w3.org/1999/xlink" x="0px" y="0px"
	 viewBox="0 0 512 512" style="enable-background:new 0 0 512 512;" xml:space="preserve">
<style type="text/css">
	.st0{fill:#FFFFFF;}
</style>
<g>
	<g>
		<path class="st0" d="M354.1,187.7c41,0,74.4-33.4,74.4-74.4S395.1,39,354.1,39s-74.4,33.4-74.4,74.4S313.1,187.7,354.1,187.7z
			 M354.1,58.4c30.4,0,55.1,24.7,55.1,55.1s-24.7,55.1-55.1,55.1S299,143.9,299,113.5S323.8,58.4,354.1,58.4z"/>
		<path class="st0" d="M9.6,512h492.7c5.4,0,9.6-4.3,9.6-9.6c0-5.3-4.3-9.6-9.6-9.6h-8.2v-43.4c0-5.4-4.3-9.6-9.6-9.6H428V286.7
			c0-5.4-4.3-9.6-9.6-9.6h-49.9v-25.5c0-5.4-4.3-9.6-9.6-9.6s-9.6,4.3-9.6,9.6v25.5h-49.9c-5.4,0-9.6,4.3-9.6,9.6v37H248
			c-5.4,0-9.6,4.3-9.6,9.6v84.2c-21.1-9.8-44.3-15.1-68.4-15.1c-32.3,0-63.1,9.4-89.4,26.7L75,223.8c16-2.5,28.2-16.5,28.2-33.1
			c0-15.5-10.5-28.6-24.8-32.3l-3.3-41.2c-0.5-5-4.6-8.9-9.6-8.9h-1.1v-88c0-5.4-4.3-9.6-9.6-9.6s-9.6,4.3-9.6,9.6v88.1H44
			c-5,0-9.3,3.9-9.6,8.9l-3.3,41.2c-14.3,3.9-24.8,16.9-24.8,32.3c0,16.7,12.2,30.5,28.2,33.1l-8.1,268.7H9.6
			c-5.4,0-9.6,4.3-9.6,9.6C0,507.5,4.3,512,9.6,512z M70.2,492.7v-25.5h198.7v25.5H70.2L70.2,492.7z M474.8,459v33.7H428V459H474.8z
			 M308.8,296.3h100v27.3h-14.4c-5.4,0-9.6,4.3-9.6,9.6c0,5.3,4.3,9.6,9.6,9.6h14.4V355h-14.4c-5.4,0-9.6,4.3-9.6,9.6
			c0,5.3,4.3,9.6,9.6,9.6h14.4v12.2h-14.4c-5.4,0-9.6,4.3-9.6,9.6c0,5.3,4.3,9.6,9.6,9.6h14.4v12.2h-14.4c-5.4,0-9.6,4.3-9.6,9.6
			c0,5.3,4.3,9.6,9.6,9.6h14.4v12.2h-14.4c-5.4,0-9.6,4.3-9.6,9.6c0,5.3,4.3,9.6,9.6,9.6h14.4V492h-32.2V333.3
			c0-5.4-4.3-9.6-9.6-9.6h-58.2L308.8,296.3L308.8,296.3z M357.3,342.9v12.8h-53.8c-5.4,0-9.6,4.3-9.6,9.6s4.3,9.6,9.6,9.6h53.8v9.5
			h-53.8c-5.4,0-9.6,4.3-9.6,9.6s4.3,9.6,9.6,9.6h53.8v9.5h-53.8c-5.4,0-9.6,4.3-9.6,9.6s4.3,9.6,9.6,9.6h53.8v10.1h-53.8
			c-5.4,0-9.6,4.3-9.6,9.6c0,5.3,4.3,9.6,9.6,9.6h53.8v30.7h-69.1V457c0-3.3-1.7-6.2-4.3-7.9c-6.3-6.3-13-12-20.1-17h13.1
			c5.4,0,9.6-4.3,9.6-9.6c0-5.3-4.3-9.6-9.6-9.6h-19.5v-9.5h19.5c5.4,0,9.6-4.3,9.6-9.6c0-5.3-4.3-9.6-9.6-9.6h-19.5v-9.5h19.5
			c5.4,0,9.6-4.3,9.6-9.6c0-5.3-4.3-9.6-9.6-9.6h-19.5v-12.8L357.3,342.9L357.3,342.9z M252,447.9H87c24-17,52.4-26.2,82.5-26.2
			S228.1,430.9,252,447.9z M52.2,127.6h3.9l2.4,29.7h-8.7L52.2,127.6z M24.8,190.8c0-7.9,6.4-14.2,14.2-14.2h0.3h29.6h0.3
			c7.9,0,14.2,6.4,14.2,14.2c0,7.9-6.4,14.2-14.2,14.2H39C31.2,205,24.8,198.6,24.8,190.8z M53,224.3h2.3l5.9,219.5
			c-2.1,1.8-4.1,3.8-6.1,5.7c-2.5,1.7-4.2,4.6-4.3,7.9v35.2h-5.1L53,224.3z"/>
	</g>
</g>
</svg>
