<?xml version="1.0" encoding="utf-8"?>
<!-- Generator: Adobe Illustrator 22.1.0, SVG Export Plug-In . SVG Version: 6.00 Build 0)  -->
<svg version="1.1" id="Layer_1" xmlns="http://www.w3.org/2000/svg" xmlns:xlink="http://www.w3.org/1999/xlink" x="0px" y="0px"
	 viewBox="0 0 541.5 474.8" style="enable-background:new 0 0 541.5 474.8;" xml:space="preserve">
<style type="text/css">
	.st0{fill:none;stroke:#FFFFFF;stroke-width:9.26;stroke-miterlimit:2.6131;}
	.st1{fill:#FFFFFF;}
</style>
<g id="Layer_x0020_1">
	<path class="st0" d="M93.6,21.5c0,10.1,12,11.1,17.2,14c1.9,1,36.6-13.4,47.5-13.5c11.7-0.4,49.2,13.5,49.6,13.3
		c1-0.5,3.1-0.5,9-3.4c15-7.5,9.9-14.4-2.6-19.4c-13.1-5.3-32.5-8-51.7-8.4c-16.3-0.3-32.4,1-44.2,3.9
		C112.1,9.5,93.6,14.9,93.6,21.5L93.6,21.5z M110.8,35.5c-1.7-0.4-2,3.6-5,4.6c-7.7,2.7-6.4,10.7,3.3,11.5c0,12,6,26,12.7,35.8
		c6.2,9,14.6,16.7,23.7,18.9c-2.6,1.8-6.2,2.5-11.7,5.4c-9.9,5.1-18.7,12.5-26.5,21c-10.4,11.5-19.5,25.9-26.4,41.4
		c-5.3,12-9,24.7-11.3,37.7C67.9,221.8,67,232,67,242h41c4.2-17.8,6.8-46.2,5.5-34.7l-1.9,30.6c-0.1,1,0.4,1.8,1.1,1
		c0.1-0.2,0.3-0.4,0.4-0.7c16.9-32.4,59-94.3,75.3-124.9c-2.5-1.3-11.1-5.9-14.7-6.2c1.2-1,0.3-0.4,2.1-1.5c1.1-0.7,1.8-0.9,3-1.5
		c9-4.4,16.5-12.5,21.6-21.9c3.9-7.2,8.7-20.2,9.3-28.4c0.3-3.7-0.3-1.4,4.2-2.9c4.1-1.4,7.9-4.7,4.5-8.5c-2.3-2.6-7.3-6.2-10.7-7.2
		c-0.5-0.1-37.7-12.8-49.6-13.3C148.1,22.6,113.2,36.1,110.8,35.5L110.8,35.5z M268.4,176.3c5.1,1.6,12.9-1.6,18,0l14.3,10.2
		l-0.3,0.8c-5.5-1.7-11-8.5-14.3-10.2c-5.1-1.6-13,1.6-18.1,0C268.2,176.9,268.3,176.6,268.4,176.3L268.4,176.3z M114.9,242.1h94.4
		v-54.7c5.4,3.6,11.6,11.1,20.4,17c19,12.6,37,15.5,58.1,6.9c11.1-4.5,16.5-15.7,12.6-23.9l34.6-21.9L312.3,129l-52.9,33.7
		c0,0,7,10.6,8.2,14.6c-1.3,0.6-2,1-6.5,0.2c-9.8-1.8-18.4-10.1-24.7-17.3L220.9,142c-3.8-4.6-27.7-27.4-32.5-28.7
		c-6.6,12.9-65.7,106.6-75.3,124.9C112.4,239.8,112.8,242.1,114.9,242.1L114.9,242.1z"/>
	<path class="st0" d="M372.2,114.7c6.8,6.6,19.3,12.7,31.7,12c12.4-0.8,22.9-4.8,31-13.5c9.9-10.6,14.2-23.8,12.7-36.6
		C444.5,49,423.1,36.7,402,37.2c-26.2,0.6-42.4,18.8-44.4,39.3C356.3,89.6,360.8,103.7,372.2,114.7L372.2,114.7z M311.4,268.5
		c0,19,24.1,23.6,32.5,8.8c3.5-6.3,10.1-43.2,12.2-52.5c0,10.9,0,21.9,0,32.8c-0.1,17.8,3.7,21.9,3.7,30c0,17.5-1.1,161.9,0.5,168.1
		c2.7,10,10.7,14.7,18.8,15.1h2.4c6.1-0.3,11.9-3.1,15.2-7.8c4.3-6.2,4.2-8.8,4.1-18.7V324.7c0-21.9,2.4-24.5,2.8-0.4
		c0.6,33.3,0,103.1-0.1,119.1c0,8.8,0,13.5,4,18.8c3.9,5.2,9.2,7.9,14.6,8.5h4.7c7.6-0.9,14.8-6,17.6-14.7
		c2.4-7.7,1.1-88.2,1.1-100.1c0-22.5,0.2-45,0-67.5c-0.1-13.9,3.7-3.5,3.7-30.1c0-11.2,0-22.5,0-33.7c1.4,2.9,1.5,4.7,2.2,7.8
		l5.3,25.7c1.6,9.1,2.8,25.6,15.2,26.7v14.6h-8.2v93H492c2.1,0,2.7-0.6,2.7-2.7v-87.5c0-3.7-2.9-2.7-10-2.7c0-16.4-1.3-14,3.2-17.7
		c11.2-9.1,4.2-27.8,0.9-43c-7.2-32.9-28.5-82.8-57.4-102.1c-12.8-8.5-18.8-8.6-32.4-8.6c-33.4,0-65.3,51.2-75.1,80.8
		C318,226.5,311.4,247.9,311.4,268.5L311.4,268.5z"/>
	<path class="st0" d="M32.5,299.6l255.2,0.1v-47.4H32.5V299.6L32.5,299.6z M44.4,302.6v164.9H275V302.6H44.4L44.4,302.6z"/>
	<path class="st1" d="M209.7,353.7c5-6.7,8-13.7,8-18.6c0-1.6-0.3-2.9-0.9-3.8c-0.1-0.1-0.2-0.4-0.6-0.7c-0.3-0.3-0.6-0.5-0.6-0.5
		c-1-0.7-2.2-1-3.9-1c-5,0-11.9,3-18.6,8c-5.4,4.1-10.8,9.8-18.3,17.7c-1.3,1.3-2.6,2.7-4,4.2l-14.5-4.4l0,0c0.6-0.6,1-1.5,0.9-2.3
		c0-0.9-0.3-1.7-1-2.3l-2.6-2.6c-0.6-0.6-1.4-1-2.3-1c-0.9,0-1.7,0.3-2.3,1l-3.9,3.9l-2.1-0.6c0.4-0.6,0.7-1.3,0.7-2
		c0-0.9-0.3-1.7-1-2.3l-2.6-2.6c-0.6-0.6-1.4-1-2.3-1s-1.7,0.3-2.3,1l-3.6,3.6l-14.8-4.4c-0.3-0.1-0.7-0.1-1.1-0.1
		c-1,0-2,0.4-2.7,1.1l-5.2,5.2c-0.6,0.6-0.9,1.4-0.9,2.1c0,1.1,0.6,2.1,1.6,2.7l31.1,17.3c0.2,0.1,0.6,0.4,0.8,0.6l8.8,8.8
		c-8.3,8.7-15.7,17.2-21.4,24.5c-0.5,0.7-1,1.3-1.5,2l-24-2.2c-0.1,0-0.3,0-0.4,0c-1.1,0-2.2,0.5-3,1.2l-2.4,2.4
		c-0.6,0.6-0.9,1.4-0.9,2.1c0,1.2,0.7,2.2,1.7,2.7l16.9,8c0.1,0.1,0.5,0.3,0.6,0.5l1.4,1.4c-0.4,1.2-0.7,2.3-0.7,3.2
		c0,1.3,0.4,2.3,1.2,3.1l0.1,0.1l0,0c0.8,0.8,1.8,1.2,3.1,1.2c0.9,0,2-0.2,3.2-0.7l1.4,1.4c0.1,0.1,0.4,0.5,0.4,0.6l8,16.9
		c0.5,1.1,1.5,1.8,2.7,1.8l0,0c0.8,0,1.6-0.3,2.1-0.9l2.5-2.5c0.7-0.8,1.2-1.8,1.2-3c0-0.1,0-0.2,0-0.3l-2.2-24.1
		c0.7-0.5,1.3-1,2-1.5c7.4-5.8,15.8-13.1,24.5-21.4l8.9,8.9c0.1,0.1,0.5,0.6,0.6,0.8l17.3,31c0.5,1,1.5,1.6,2.7,1.6
		c0.8,0,1.6-0.3,2.2-0.9l5.2-5.2c0.7-0.7,1.1-1.7,1.1-2.7c0-0.4-0.1-0.7-0.1-1l-4.4-14.8l3.6-3.6c0.6-0.6,1-1.4,1-2.3
		s-0.3-1.7-0.9-2.3l-2.6-2.6c-0.6-0.6-1.4-1-2.3-1c-0.7,0-1.4,0.2-2,0.7l-0.6-2.1l3.9-3.9c0.6-0.6,1-1.4,1-2.3s-0.3-1.7-1-2.3
		l-2.6-2.6c-0.6-0.6-1.4-1-2.3-1c-0.9,0-1.7,0.4-2.3,1l0,0l-4.3-14.5c1.5-1.4,2.9-2.8,4.3-4.1C200,364.5,205.7,359.1,209.7,353.7
		L209.7,353.7z"/>
	<path class="st1" d="M5.6,463.4h530.2c3.1,0,5.6,2.5,5.6,5.6l0,0c0,3.1-2.5,5.6-5.6,5.6H5.6c-3.1,0-5.6-2.5-5.6-5.6l0,0
		C0,465.9,2.5,463.4,5.6,463.4z"/>
</g>
</svg>
