<?xml version="1.0" encoding="iso-8859-1"?>
<!-- Generator: Adobe Illustrator 22.1.0, SVG Export Plug-In . SVG Version: 6.00 Build 0)  -->
<svg version="1.1" id="Layer_1" xmlns="http://www.w3.org/2000/svg" xmlns:xlink="http://www.w3.org/1999/xlink" x="0px" y="0px"
	 viewBox="0 0 512 512" style="enable-background:new 0 0 512 512;" xml:space="preserve">
<g>
	<g>
		<g>
			<path d="M252.614,333.891c-14.336,0-25.999,11.663-25.999,25.999s11.664,25.999,25.999,25.999s25.999-11.663,25.999-25.999
				S266.951,333.891,252.614,333.891z M252.614,365.89c-3.309,0-6-2.691-6-6s2.691-6,6-6s6,2.691,6,6S255.923,365.89,252.614,365.89
				z"/>
		</g>
	</g>
	<g>
		<g>
			<path d="M332.878,300.75c-1.86-1.86-4.44-2.931-7.07-2.931s-5.21,1.07-7.07,2.931c-1.87,1.859-2.93,4.439-2.93,7.069
				c0,2.631,1.06,5.211,2.93,7.07c1.86,1.861,4.44,2.93,7.07,2.93s5.21-1.069,7.07-2.93c1.86-1.859,2.93-4.439,2.93-7.07
				C335.808,305.189,334.738,302.609,332.878,300.75z"/>
		</g>
	</g>
	<g>
		<g>
			<path d="M460.994,143.987h-10.781L309.158,2.932c-3.905-3.905-10.238-3.905-14.142,0L258.88,39.069L114.356,0.344
				c-5.335-1.431-10.819,1.736-12.248,7.071L65.516,143.987h-24.51c-23.158,0-41.999,18.84-41.999,41.999
				c0,0.555,0.021,1.106,0.042,1.656c-0.023,0.275-0.042,0.551-0.042,0.832v273.528c0,27.568,22.43,49.998,49.999,49.998h357.989
				c0.155,0,0.307-0.01,0.462-0.012h53.536c27.569,0,49.998-22.429,49.998-49.999V193.985
				C510.992,166.415,488.563,143.987,460.994,143.987z M452.06,163.986h8.934c16.542,0,29.999,13.458,29.999,29.999v80.143
				c0,13.069-10.633,23.701-23.701,23.701h-10.298v-39.846c0-27.221-21.869-49.415-48.959-49.973L452.06,163.986z M268.94,57.293
				c0.001-0.001,0.002-0.003,0.003-0.004l33.145-33.145L432.854,154.91l-52.75,52.75H361.81l23.928-23.929
				c3.905-3.905,3.905-10.237,0-14.142c-8.095-8.095-8.095-21.265,0-29.36c3.905-3.905,3.905-10.237,0-14.143L330.91,71.26
				c-3.905-3.905-10.237-3.905-14.143,0c-8.095,8.096-21.266,8.096-29.36,0c-3.905-3.905-10.238-3.905-14.142,0l-136.4,136.401
				h-18.294L268.94,57.293z M239.511,170.091c-22.828,0-41.954,16.119-46.619,37.57h-27.745L281.213,91.595
				c12.811,7.636,28.937,7.636,41.748,0l42.441,42.441c-7.635,12.81-7.635,28.938,0,41.748l-31.877,31.877H286.13
				C281.465,186.209,262.34,170.091,239.511,170.091z M265.297,207.661h-51.568c4.058-10.277,14.083-17.57,25.784-17.57
				S261.238,197.384,265.297,207.661z M108.002,189.946l26.482-98.833c7.261,0.117,14.484-1.737,20.953-5.474
				c6.47-3.735,11.676-9.046,15.217-15.409l45.005,12.059L150.348,147.6L108.002,189.946z M118.839,22.25L242.55,55.398
				L231.989,65.96l-64.63-17.318c-2.563-0.687-5.292-0.327-7.588,0.999c-2.297,1.326-3.973,3.51-4.659,6.072
				c-1.436,5.356-4.871,9.833-9.673,12.606c-4.803,2.773-10.398,3.509-15.755,2.074c-5.333-1.43-10.818,1.736-12.247,7.071
				L82.463,207.985H69.071L118.839,22.25z M41.006,163.986h19.149l-11.79,43.999h-7.36c-12.131,0-21.999-9.869-21.999-21.999
				C19.007,173.855,28.877,163.986,41.006,163.986z M490.993,461.989c0,16.542-13.458,29.999-29.999,29.999h-14.018
				c6.287-8.36,10.018-18.745,10.018-29.987v-40.176h6c10.444,0,20.111-3.363,27.999-9.049V461.989z M490.993,373.827
				c0,15.439-12.561,27.999-27.999,27.999H253c-23.158,0-41.999-18.84-41.999-41.999s18.84-41.999,41.999-41.999h30.306
				c5.523,0,10-4.478,10-10s-4.477-10-10-10H253c-34.186,0-61.998,27.812-61.998,61.998s27.812,61.998,61.998,61.998h183.995V462
				c0,16.387-13.209,29.75-29.537,29.999H67.005V379.39c0-5.522-4.477-10-10-10s-10,4.478-10,10v112.536
				c-15.612-1.033-27.999-14.056-27.999-29.924v-240.26c6.403,3.954,13.938,6.242,21.999,6.242h365.989
				c16.542,0,29.999,13.458,29.999,29.999v39.846H364.69c-5.523,0-10,4.478-10,10s4.477,10,10,10h102.602
				c8.733,0,16.869-2.585,23.701-7.015L490.993,373.827L490.993,373.827z"/>
		</g>
	</g>
	<g>
		<g>
			<path d="M64.076,333.318c-1.86-1.859-4.44-2.93-7.07-2.93s-5.21,1.07-7.07,2.93s-2.93,4.44-2.93,7.07s1.07,5.21,2.93,7.07
				c1.86,1.86,4.44,2.93,7.07,2.93s5.21-1.07,7.07-2.93s2.93-4.44,2.93-7.07C67.005,337.758,65.935,335.178,64.076,333.318z"/>
		</g>
	</g>
</g>
</svg>
