<?xml version="1.0" ?><!DOCTYPE svg  PUBLIC '-//W3C//DTD SVG 1.1//EN'  'http://www.w3.org/Graphics/SVG/1.1/DTD/svg11.dtd'><svg height="67px" id="Layer_1" style="enable-background:new 0 0 67 67;" version="1.1" viewBox="0 0 67 67" width="67px" xml:space="preserve" xmlns="http://www.w3.org/2000/svg" xmlns:xlink="http://www.w3.org/1999/xlink"><path d="M41.305,44.365l3.091-1.854v1.687l-10.42,6.759L23.787,44.15  v-1.588l3.048,1.806l0.339,0.2l0.313-0.239l6.582-5.052l6.58,5.052l0.315,0.239L41.305,44.365z M34.091,25.305l10.021,5.757  L34,37.762l-10.049-6.331L34.091,25.305z M51.491,25.641l-10.324-6.597l-7.098,5.952l-6.938-5.952l-10.623,6.92l7.315,5.565  l-7.315,5.565l7.278,4.312l3.345,1.98l6.938-5.324l6.936,5.324l3.391-2.035l7.096-4.257l-6.775-5.808L51.491,25.641z M34,64  C17.432,64,4,50.568,4,34C4,17.431,17.432,4,34,4s30,13.431,30,30C64,50.568,50.568,64,34,64z" style="fill-rule:evenodd;clip-rule:evenodd;fill:#4D95D0;"/></svg>