<?xml version="1.0" ?><!DOCTYPE svg  PUBLIC '-//W3C//DTD SVG 1.1//EN'  'http://www.w3.org/Graphics/SVG/1.1/DTD/svg11.dtd'><svg enable-background="new 0 0 70 67" height="67px" id="Layer_1" version="1.1" viewBox="0 0 70 67" width="70px" xml:space="preserve" xmlns="http://www.w3.org/2000/svg" xmlns:xlink="http://www.w3.org/1999/xlink"><g><path d="M65.551,16.586c-0.266-0.15-0.539-0.245-0.818-0.288c-0.265-0.148-0.537-0.242-0.815-0.286   c-0.265-0.147-0.537-0.242-0.816-0.287c-0.266-0.146-0.538-0.241-0.817-0.288c-0.265-0.145-0.537-0.238-0.814-0.286   c-0.266-0.144-0.538-0.238-0.816-0.287c-0.267-0.144-0.54-0.238-0.819-0.288c-0.265-0.142-0.537-0.235-0.814-0.286   c-0.266-0.142-0.538-0.235-0.816-0.288c-0.267-0.141-0.539-0.234-0.817-0.287c-0.266-0.14-0.538-0.233-0.815-0.287   c-0.266-0.139-0.538-0.232-0.815-0.287c-0.268-0.139-0.541-0.232-0.819-0.288c-0.266-0.137-0.538-0.229-0.814-0.286   c-0.267-0.137-0.539-0.23-0.816-0.287c-0.267-0.137-0.539-0.229-0.816-0.287c-0.268-0.136-0.541-0.229-0.818-0.288   c-0.266-0.134-0.537-0.226-0.813-0.286c-0.267-0.135-0.541-0.228-0.818-0.288c-0.267-0.134-0.54-0.226-0.816-0.287   c-0.268-0.133-0.54-0.225-0.816-0.287c-0.267-0.133-0.539-0.225-0.815-0.287c-0.271-0.134-0.547-0.226-0.827-0.289   c-0.268-0.131-0.54-0.224-0.817-0.287c-0.27-0.132-0.544-0.225-0.823-0.288c-0.27-0.131-0.545-0.225-0.823-0.288   c-0.27-0.13-0.545-0.225-0.823-0.288c-0.27-0.128-0.544-0.225-0.822-0.287c-0.27-0.128-0.544-0.225-0.822-0.288   c-0.27-0.126-0.543-0.224-0.82-0.287c-0.271-0.126-0.545-0.225-0.823-0.288c-0.271-0.126-0.544-0.225-0.823-0.288   c-0.262-0.121-0.527-0.221-0.797-0.284c-0.271-0.127-0.549-0.226-0.829-0.292c-0.269-0.125-0.542-0.222-0.819-0.287   C36.649,6.408,36.377,6.31,36.1,6.245c-0.269-0.124-0.541-0.222-0.818-0.288c-0.27-0.123-0.543-0.222-0.822-0.288   c-0.27-0.122-0.542-0.221-0.819-0.287c-0.27-0.122-0.542-0.221-0.819-0.287c-0.27-0.122-0.542-0.221-0.818-0.287   c-0.27-0.121-0.541-0.22-0.818-0.287c-0.27-0.121-0.543-0.221-0.82-0.288c-0.27-0.12-0.542-0.22-0.818-0.287   C29.273,3.827,29,3.727,28.723,3.659c-0.27-0.119-0.542-0.219-0.818-0.287c-0.27-0.119-0.543-0.219-0.819-0.287   c-0.27-0.118-0.542-0.219-0.817-0.287c-0.271-0.118-0.544-0.22-0.821-0.288c-0.27-0.117-0.542-0.218-0.817-0.286   c-0.271-0.118-0.544-0.219-0.821-0.288c-0.269-0.116-0.538-0.216-0.813-0.285c-0.27-0.117-0.542-0.218-0.818-0.287   c-0.268-0.116-0.538-0.215-0.812-0.284c-0.271-0.117-0.544-0.217-0.82-0.288c-0.269-0.115-0.539-0.215-0.813-0.285   c-0.271-0.117-0.545-0.217-0.822-0.288c-0.268-0.115-0.537-0.213-0.811-0.284c-0.27-0.115-0.541-0.215-0.816-0.286   c-0.15-0.065-0.305-0.107-0.457-0.16C15.51-1.632,14.098-2.25,12.625-2.25C5.652-2.25,0,11.461,0,28.375   C0,45.289,5.652,59,12.625,59c1.473,0,2.886-0.618,4.199-1.742c0.151-0.052,0.304-0.094,0.453-0.158   c0.275-0.071,0.547-0.17,0.816-0.285c0.278-0.071,0.553-0.173,0.826-0.29c0.271-0.07,0.541-0.169,0.807-0.283   c0.275-0.069,0.548-0.17,0.817-0.286c0.275-0.069,0.547-0.169,0.816-0.285c0.274-0.069,0.546-0.17,0.815-0.285   c0.276-0.069,0.549-0.17,0.818-0.287c0.275-0.068,0.545-0.169,0.813-0.285c0.276-0.067,0.549-0.169,0.819-0.286   c0.277-0.068,0.552-0.17,0.823-0.289c0.275-0.067,0.546-0.168,0.815-0.286c0.277-0.067,0.549-0.168,0.819-0.287   c0.276-0.067,0.55-0.168,0.819-0.287c0.277-0.067,0.552-0.168,0.822-0.288c0.276-0.067,0.548-0.167,0.816-0.286   c0.277-0.067,0.55-0.167,0.82-0.287c0.276-0.066,0.549-0.167,0.818-0.287c0.277-0.066,0.551-0.166,0.82-0.287   c0.276-0.066,0.549-0.166,0.818-0.287c0.277-0.066,0.551-0.165,0.819-0.287c0.277-0.065,0.55-0.164,0.819-0.287   c0.279-0.065,0.554-0.165,0.824-0.288c0.275-0.065,0.547-0.164,0.814-0.286c0.277-0.065,0.551-0.164,0.82-0.287   c0.277-0.065,0.551-0.163,0.819-0.287c0.28-0.065,0.558-0.165,0.829-0.292c0.271-0.063,0.537-0.164,0.801-0.286   c0.277-0.063,0.549-0.162,0.817-0.286c0.278-0.063,0.553-0.161,0.823-0.288c0.277-0.063,0.552-0.16,0.822-0.287   c0.278-0.063,0.553-0.16,0.822-0.288c0.278-0.063,0.553-0.158,0.822-0.287c0.278-0.063,0.554-0.158,0.823-0.288   c0.279-0.063,0.555-0.157,0.825-0.289c0.277-0.063,0.551-0.156,0.819-0.287c0.278-0.063,0.553-0.155,0.822-0.287   c0.278-0.063,0.553-0.154,0.822-0.287c0.277-0.063,0.552-0.155,0.819-0.289c0.276-0.062,0.548-0.153,0.814-0.286   c0.276-0.061,0.55-0.153,0.816-0.287c0.277-0.06,0.55-0.152,0.817-0.287c0.276-0.06,0.549-0.151,0.815-0.286   c0.277-0.06,0.55-0.151,0.816-0.287c0.277-0.058,0.551-0.15,0.817-0.287c0.276-0.058,0.549-0.15,0.814-0.287   c-1.264,9.488-6.392,13.375-6.392,13.375s0,11.347,8.511,4.729c7.171-5.578,9.642-18.536,10.242-22.479   c2.097-1.32,3.646-5.932,3.646-11.431C70.125,22.091,68.103,16.965,65.551,16.586z M12.625,55C9.584,55,4,44.892,4,28.375   S9.584,1.75,12.625,1.75s8.625,10.108,8.625,26.625S15.666,55,12.625,55z"/><path d="M9.995,29.75c0,4.24,3.438,7.678,7.679,7.678c0.124,0,0.247-0.013,0.37-0.018C18.653,34.69,19,31.575,19,28.261   c0-2.145-0.146-4.205-0.414-6.13c-0.3-0.036-0.603-0.059-0.912-0.059C13.433,22.072,9.995,25.509,9.995,29.75z"/></g></svg>