<?xml version="1.0" encoding="utf-8"?>
<!-- Generator: Adobe Illustrator 22.1.0, SVG Export Plug-In . SVG Version: 6.00 Build 0)  -->
<svg version="1.1" id="Capa_1" xmlns="http://www.w3.org/2000/svg" xmlns:xlink="http://www.w3.org/1999/xlink" x="0px" y="0px"
	 viewBox="0 0 232.2 232.2" style="enable-background:new 0 0 232.2 232.2;" xml:space="preserve">
<g>
	<path d="M116.1,8c28.9,0,56,11.2,76.4,31.7s31.7,47.6,31.7,76.4s-11.2,56-31.7,76.4s-47.6,31.7-76.4,31.7s-56-11.2-76.4-31.7
		S8,144.9,8,116.1s11.2-56,31.7-76.4S87.2,8,116.1,8 M116.1,0C52,0,0,52,0,116.1s52,116.1,116.1,116.1s116.1-52,116.1-116.1
		S180.2,0,116.1,0L116.1,0z"/>
</g>
<g id="Play">
	<path d="M172.2,107.8l-77.7-49c-2.3-1.4-5.2-1.1-7.3-1.1c-8.6,0-8.6,6.7-8.6,8.3v100.1c0,1.4,0,8.3,8.6,8.3c2.2,0,5,0.2,7.3-1.1
		l77.7-49c5.1-3,5.4-6.4,5.3-7.7c0-0.4,0-0.7,0-1.1C177.6,114.2,177.3,110.8,172.2,107.8z"/>
</g>
</svg>
