<?xml version="1.0" encoding="utf-8"?>
<!-- Generator: Adobe Illustrator 22.1.0, SVG Export Plug-In . SVG Version: 6.00 Build 0)  -->
<svg version="1.1" id="Layer_1" xmlns="http://www.w3.org/2000/svg" xmlns:xlink="http://www.w3.org/1999/xlink" x="0px" y="0px"
	 viewBox="0 0 100 125" style="enable-background:new 0 0 100 125;" xml:space="preserve">
<style type="text/css">
	.st0{display:none;fill:none;}
</style>
<rect class="st0" width="100" height="100"/>
<g>
	<g>
		<rect x="78.6" y="38.4" width="1.5" height="9"/>
	</g>
	<g>
		<rect x="53" y="0.8" width="1.5" height="4.5"/>
	</g>
	<g>
		<path d="M56,17.4c0-1.5,1.5-1.5,1.5-3.8c0-1.5-3-3.8-3-6.8H53c0,3-3,5.3-3,6.8c0,2.3,1.5,2.3,1.5,3.8H56z"/>
	</g>
	<g>
		<path d="M74.1,67h10.5c0,0,3-1.5,3-4.5c0-4.5-7.5-9-7.5-13.5h-1.5c0,4.5-7.5,9-7.5,13.5C71.1,65.5,74.1,67,74.1,67z"/>
	</g>
	<g>
		<path d="M13.9,73v1.5l1.5,1.5c0,0,1.5,1.5,1.5,6c0,3-3,6-3,6v3.9c0.8-0.8,1.5-1.6,1.5-2.4v-1.5h4.5v1.5c0,0.9,0.9,1.8,1.8,2.7
			c0.6,0.6,1.3,1.3,1.8,2.1l2.4-2.4v-1.8l-1.5-1.5v-3.1c-0.6-0.7-1.5-2.1-1.5-3.6c0-2.1,1.4-3.2,2.5-4.1c1.1-0.9,2-1.7,2-3.4V73
			H13.9z"/>
	</g>
	<g>
		<polygon points="86,100.1 86,91.1 71.7,91.1 75.6,95 75.6,100.1 		"/>
	</g>
	<g>
		<path d="M86.1,70v-1.5H72.6V70l1.5,1.5v2.1c0.9,1,1.5,2.2,1.5,3.9c0,2.8-1.9,4.5-3,5.3v2.8l-1.5,1.5v2.4h15l1.6-3V82l-1.5-1.5V79
			l-1.5-1.5v-6L86.1,70z"/>
	</g>
	<g>
		<rect x="48.5" y="113.6" width="43.6" height="4.5"/>
	</g>
	<g>
		<path d="M13.9,71.5h13.5c0,0,3-1.5,3-4.5c0-6-9-7.5-9-16.5h-1.5c0,9-9,10.5-9,16.5C10.9,70,13.9,71.5,13.9,71.5z"/>
	</g>
	<g>
		<rect x="7.9" y="113.6" width="24.1" height="4.5"/>
	</g>
	<g>
		<rect x="3.4" y="119.6" width="93.2" height="4.5"/>
	</g>
	<g>
		<rect x="19.9" y="39.9" width="1.5" height="9"/>
	</g>
	<g>
		<path d="M43.3,57.7c0.7,1.2,1.8,2.1,2.9,3.1C48,62.5,50,64.2,50,67c0,2.6-0.9,4.2-1.5,5v2.5l0,0.4l-0.2,0.3c0,0-1.3,2.7-1.3,5.3
			c0,1.9,1.9,4.2,2.6,5l0.4,0.4v7.3l-1.5,1.5v5.4H59V95l3.9-3.9h0.6v-3.9L62,85.7v-2.8c-1.1-0.8-3-2.6-3-5.3c0-3,2-4.5,3.6-5.7
			c1.5-1.2,2.4-1.9,2.4-3.3v-7.8C63.7,55.5,62,49,62,49l1.5-3H44l1.5,3C45.5,49,44.4,53.3,43.3,57.7z"/>
	</g>
	<g>
		<path d="M60.5,39.9v-3H59c0,0-3-11.8-3-13.5c0-4.5,0-4.5,0-4.5h-4.5c0,0,0,0,0,4.5c0,1.8-3,13.5-3,13.5H47v3l-1.5,4.5H62
			L60.5,39.9z"/>
	</g>
	<g>
		<rect x="39.5" y="44.5" width="1.5" height="9"/>
	</g>
</g>
<g>
	<rect x="48.5" y="101.6" width="40.6" height="10.5"/>
</g>
<g>
	<rect x="66.5" y="58" width="1.5" height="9"/>
</g>
<g>
	<polygon points="47,118.1 33.5,118.1 33.5,94.1 32,92.6 32,91.1 48.5,91.1 48.5,92.6 47,94.1 	"/>
</g>
<g>
	<path d="M32,89.6v-3c0,0,3-3,3-6s-1.5-6-1.5-6V73H47v1.5c0,0-1.5,3-1.5,6s3,6,3,6v3H32z"/>
</g>
<g>
	<path d="M48.5,67c0-4.5-7.5-6-7.5-12h-1.5c0,6-7.5,7.5-7.5,12c0,3,1.5,4.5,1.5,4.5H47C47,71.5,48.5,70,48.5,67z"/>
</g>
<g>
	<polygon points="69.5,91.1 65,91.1 65,86.6 63.5,85.1 63.5,83.6 71.1,83.6 71.1,85.1 69.5,86.6 	"/>
</g>
<g>
	<polygon points="74.1,95.6 74.1,100.1 60.5,100.1 60.5,95.6 63.5,92.6 71.1,92.6 	"/>
</g>
<g>
	<path d="M71.1,82h-7.5c0,0-3-1.5-3-4.5c0-4.5,6-4.5,6-9H68c0,4.5,6,4.5,6,9C74.1,80.5,71.1,82,71.1,82z"/>
</g>
<g>
	<path d="M24.4,82c0,1.5,1.5,3,1.5,3h5.4c0.8-1,2.2-2.9,2.2-4.5c0-0.4,0-0.8-0.1-1.1c0,0,0,0,0,0c-1.3-1.1-2.9-2.2-2.9-4.9h-1.5
		C28.9,79,24.4,79,24.4,82z"/>
</g>
<g>
	<polygon points="32,94.7 30.5,93.2 30.5,86.6 25.9,86.6 25.9,88.1 27.4,89.6 27.4,92.6 24.4,95.6 21.4,101.6 21.4,112.1 32,112.1 	
		"/>
</g>
<g>
	<polygon points="19.9,112.1 19.9,101.6 13.9,101.6 13.9,103.1 15.4,104.6 15.4,112.1 	"/>
</g>
<g>
	<path d="M18.4,89.6c0,2.5,3.2,4,4.2,6.2l-2.1,4.3h-6.6c0,0-1.5-1.5-1.5-3c0-3,4.5-4.5,4.5-7.5H18.4z"/>
</g>
</svg>
