<?xml version="1.0" encoding="iso-8859-1"?>
<!-- Generator: Adobe Illustrator 19.0.0, SVG Export Plug-In . SVG Version: 6.00 Build 0)  -->
<svg version="1.1" id="Capa_1" xmlns="http://www.w3.org/2000/svg" xmlns:xlink="http://www.w3.org/1999/xlink" x="0px" y="0px"
	 viewBox="0 0 512 512" style="enable-background:new 0 0 512 512;" xml:space="preserve">
<circle style="fill:#E7F8FF;" cx="305.99" cy="256.05" r="198"/>
<ellipse style="fill:#BBECFF;" cx="303.52" cy="256.05" rx="82.52" ry="198"/>
<path style="fill:#82DCFF;" d="M304,255.999L304,255.999L304,255.999c-13.907-18.154-35.472-28.8-58.341-28.8h-42.976
	l-39.205-94.294h-37.761v94.294H74.744l-0.108,0.108L46,192.999H10l35.876,63l-35.876,63h36l28.636-34.308l0.108,0.108h50.973v94.4
	h37.761l39.205-94.4h42.976C268.529,284.799,290.093,274.154,304,255.999L304,255.999L304,255.999z"/>
<g>
	<polygon style="fill:#B6EBFF;" points="163.478,132.905 125.717,132.905 125.717,227.199 202.683,227.199 	"/>
	<path style="fill:#B6EBFF;" d="M74.683,284.738l0.061,0.061h50.973v94.4h37.761l39.205-94.4h42.976
		c0.944,0,1.884-0.025,2.823-0.061H74.683z"/>
	<polygon style="fill:#B6EBFF;" points="74.597,284.738 70.333,284.738 70.333,289.846 	"/>
</g>
<path d="M451.078,108.973C379.902,37.799,268.291,27.69,185.687,84.936c-4.539,3.146-5.669,9.376-2.522,13.916
	c3.146,4.539,9.376,5.667,13.915,2.523c19.204-13.309,40.146-22.578,61.752-27.926c-3.94,4.874-7.719,10.422-11.311,16.639
	c-14.325,24.798-24.969,58.72-30.78,98.097c-0.807,5.463,2.969,10.546,8.433,11.353c5.458,0.799,10.546-2.969,11.353-8.433
	c1.218-8.25,2.679-16.289,4.357-24.052h126.279c5.218,24.223,8.247,51.038,8.83,79h-28.004c-5.522,0-10,4.477-10,10
	c0,5.522,4.478,10,10,10h28.004c-0.583,27.962-3.612,54.777-8.83,79h-49.495c-5.522,0-10,4.478-10,10s4.478,10,10,10h44.517
	c-2.746,9.641-5.872,18.742-9.37,27.177c-12.671,30.56-28.904,49.015-45.053,51.519c-2.48,0.053-4.961,0.062-7.442,0.018
	c-28.217-4.245-54.965-56.755-64.53-127.995c-0.735-5.475-5.766-9.316-11.242-8.58c-5.474,0.735-9.315,5.769-8.58,11.242
	c5.469,40.732,16.037,75.948,30.562,101.841c3.817,6.805,7.852,12.837,12.07,18.096c-23.639-5.789-46.399-16.224-66.799-31.437
	c-4.428-3.299-10.692-2.389-13.994,2.039c-3.302,4.427-2.389,10.692,2.039,13.994c35.846,26.73,79.455,41.079,124.141,41.086
	c0.005,0,0.01,0,0.015,0c0.001,0,0.003,0,0.005,0c0.004,0,0.008,0,0.013,0c4.74,0,9.494-0.162,14.251-0.487
	c50.097-3.425,97.263-24.888,132.81-60.435C490.365,363.844,512,311.611,512,256.052S490.365,148.26,451.078,108.973z
	 M457.219,147.052h-74.302c-3.299-12.441-7.186-24.123-11.628-34.837c-6.487-15.645-13.939-28.626-22.115-38.729
	c32.312,8.008,62.79,24.658,87.762,49.63C444.421,130.6,451.186,138.61,457.219,147.052z M245.864,147.052
	c5.169-18.181,11.608-34.208,18.975-46.96c11.935-20.661,25.842-32.04,39.16-32.04c17.366,0,35.158,18.889,48.814,51.823
	c3.498,8.435,6.624,17.536,9.37,27.177H245.864z M387.577,167.052h82.115c13.024,24.171,20.584,51.018,22.041,79h-95.737
	C395.438,218.308,392.554,191.547,387.577,167.052z M395.996,266.052h95.737c-1.457,27.982-9.016,54.829-22.041,79h-82.115
	C392.554,320.557,395.438,293.796,395.996,266.052z M436.935,388.987c-24.743,24.744-55.162,41.242-87.434,49.226
	c8.048-10.044,15.387-22.889,21.788-38.325c4.443-10.715,8.329-22.396,11.628-34.837h74.302
	C451.186,373.494,444.421,381.504,436.935,388.987z"/>
<path d="M268.599,347.982c-1.87,1.86-2.93,4.44-2.93,7.07s1.06,5.21,2.93,7.069c1.86,1.86,4.44,2.931,7.07,2.931
	s5.21-1.07,7.07-2.931c1.859-1.859,2.93-4.439,2.93-7.069s-1.07-5.21-2.93-7.07c-1.86-1.86-4.44-2.93-7.07-2.93
	C273.03,345.052,270.46,346.121,268.599,347.982z"/>
<path d="M245.659,294.799c25.808,0,50.585-12.231,66.279-32.719c2.749-3.588,2.749-8.574,0-12.162
	c-15.694-20.488-40.472-32.719-66.279-32.719h-36.305l-36.643-88.133c-1.551-3.73-5.193-6.161-9.233-6.161h-37.761
	c-5.522,0-10,4.477-10,10v84.294H79.224l-25.547-30.608c-1.9-2.276-4.713-3.592-7.678-3.592H10c-3.562,0-6.855,1.895-8.646,4.974
	c-1.79,3.08-1.807,6.879-0.044,9.974l33.058,58.052L1.31,314.051c-1.763,3.095-1.746,6.895,0.044,9.974
	C3.144,327.105,6.437,329,10,329h36c2.965,0,5.777-1.315,7.677-3.592L79.225,294.8h36.493v84.399c0,5.522,4.478,10,10,10h37.761
	c4.041,0,7.686-2.433,9.235-6.165l36.644-88.234L245.659,294.799L245.659,294.799z M156.806,142.905l30.889,74.294h-51.978v-74.294
	H156.806z M76.098,274.799c-0.636-0.094-1.287-0.125-1.934-0.097c-2.797,0.133-5.411,1.432-7.205,3.581l-25.638,30.716H27.202
	l27.363-48.052c1.747-3.067,1.747-6.829,0-9.896l-27.363-48.052h14.119l25.638,30.716c1.799,2.156,4.422,3.456,7.228,3.582
	c0.643,0.028,1.287-0.005,1.918-0.098H245.66c16.918,0,33.254,6.912,45.085,18.8c-11.831,11.888-28.167,18.8-45.085,18.8H76.098z
	 M156.804,369.198h-21.086v-74.46h52.009L156.804,369.198z"/>
<path d="M11.5,142.902c2.63,0,5.21-1.06,7.069-2.93c1.86-1.86,2.931-4.43,2.931-7.07c0-2.63-1.07-5.21-2.931-7.07
	c-1.859-1.86-4.439-2.93-7.069-2.93s-5.21,1.07-7.07,2.93s-2.93,4.44-2.93,7.07s1.069,5.21,2.93,7.07
	C6.29,141.842,8.87,142.902,11.5,142.902z"/>
<path d="M48,142.905h42.5c5.522,0,10-4.477,10-10c0-5.523-4.478-10-10-10H48c-5.522,0-10,4.477-10,10
	C38,138.428,42.477,142.905,48,142.905z"/>
<path d="M80.718,369.198H19c-5.522,0-10,4.478-10,10s4.478,10,10,10h61.718c5.522,0,10-4.478,10-10S86.24,369.198,80.718,369.198z"
	/>
<g>
</g>
<g>
</g>
<g>
</g>
<g>
</g>
<g>
</g>
<g>
</g>
<g>
</g>
<g>
</g>
<g>
</g>
<g>
</g>
<g>
</g>
<g>
</g>
<g>
</g>
<g>
</g>
<g>
</g>
</svg>
