<?xml version="1.0" encoding="iso-8859-1"?>
<!-- Generator: Adobe Illustrator 22.1.0, SVG Export Plug-In . SVG Version: 6.00 Build 0)  -->
<svg version="1.1" id="Layer_1" xmlns="http://www.w3.org/2000/svg" xmlns:xlink="http://www.w3.org/1999/xlink" x="0px" y="0px"
	 viewBox="0 0 512 512" style="enable-background:new 0 0 512 512;" xml:space="preserve">
<g>
	<circle style="fill:#FF8403;" cx="256" cy="256" r="256"/>
</g>
<path style="fill:#FFFFF9;" d="M371,331H154c-6.6,0-12,5.4-12,12l0,0c0,6.6,5.4,12,12,12h217c6.6,0,12-5.4,12-12l0,0
	C383,336.4,377.6,331,371,331z"/>
<path style="fill:#FFFFF9;" d="M270,245H154c-6.6,0-12,5.4-12,12l0,0c0,6.6,5.4,12,12,12h116c6.6,0,12-5.4,12-12l0,0
	C282,250.4,276.6,245,270,245z"/>
<path style="fill:#FFFFF9;" d="M371,160H154c-6.6,0-12,5.4-12,12v0c0,6.6,5.4,12,12,12h217c6.6,0,12-5.4,12-12v0
	C383,165.4,377.6,160,371,160z"/>
</svg>
