<?xml version="1.0" encoding="iso-8859-1"?>
<!-- Generator: Adobe Illustrator 22.1.0, SVG Export Plug-In . SVG Version: 6.00 Build 0)  -->
<svg version="1.1" id="&#x421;&#x43B;&#x43E;&#x439;_1"
	 xmlns="http://www.w3.org/2000/svg" xmlns:xlink="http://www.w3.org/1999/xlink" x="0px" y="0px" viewBox="0 0 32 32"
	 style="enable-background:new 0 0 32 32;" xml:space="preserve">
<g id="Check_Circle">
	<path style="fill:#121313;" d="M16,0C7.163,0,0,7.163,0,16s7.163,16,16,16c8.836,0,16-7.164,16-16C32,7.163,24.836,0,16,0z M16,30
		C8.268,30,2,23.732,2,16S8.268,2,16,2s14,6.268,14,14S23.732,30,16,30z"/>
	<path style="fill:#121313;" d="M23.3,10.393L13.012,20.589l-4.281-4.196c-0.394-0.391-1.034-0.391-1.428,0
		c-0.395,0.391-0.395,1.024,0,1.414l4.999,4.899c0.41,0.361,1.023,0.401,1.428,0l10.999-10.899c0.394-0.39,0.394-1.024,0-1.414
		C24.334,10.003,23.695,10.003,23.3,10.393z"/>
</g>
</svg>
