<?xml version="1.0" encoding="iso-8859-1"?>
<!-- Generator: Adobe Illustrator 22.1.0, SVG Export Plug-In . SVG Version: 6.00 Build 0)  -->
<svg version="1.1" id="&#x421;&#x43B;&#x43E;&#x439;_1"
	 xmlns="http://www.w3.org/2000/svg" xmlns:xlink="http://www.w3.org/1999/xlink" x="0px" y="0px" viewBox="0 0 32 32"
	 style="enable-background:new 0 0 32 32;" xml:space="preserve">
<path id="Close" style="fill:#121313;" d="M18.332,16.022L31.498,2.928c0.631-0.625,0.631-1.636,0-2.26
	c-0.63-0.625-1.652-0.625-2.282,0L16.061,13.752L2.784,0.473c-0.63-0.631-1.652-0.631-2.282,0c-0.63,0.633-0.63,1.657,0,2.288
	L13.769,16.03L0.454,29.272c-0.63,0.625-0.63,1.636,0,2.26c0.63,0.625,1.652,0.625,2.282,0l13.304-13.23l13.224,13.225
	c0.63,0.631,1.652,0.631,2.282,0c0.63-0.633,0.63-1.657,0-2.288L18.332,16.022z"/>
</svg>
