<?xml version="1.0" encoding="iso-8859-1"?>
<!-- Generator: Adobe Illustrator 22.1.0, SVG Export Plug-In . SVG Version: 6.00 Build 0)  -->
<svg version="1.1" id="Layer_1" xmlns="http://www.w3.org/2000/svg" xmlns:xlink="http://www.w3.org/1999/xlink" x="0px" y="0px"
	 viewBox="0 0 67 67" style="enable-background:new 0 0 67 67;" xml:space="preserve">
<path style="fill:#4D95D0;" d="M41.305,44.365l3.091-1.854v1.687l-10.42,6.759L23.787,44.15v-1.588l3.048,1.806l0.339,0.2
	l0.313-0.239l6.582-5.052l6.58,5.052l0.315,0.239L41.305,44.365z M34.091,25.305l10.021,5.757L34,37.762l-10.049-6.331
	L34.091,25.305z M51.491,25.641l-10.324-6.597l-7.098,5.952l-6.938-5.952l-10.623,6.92l7.315,5.565l-7.315,5.565l7.278,4.312
	l3.345,1.98l6.938-5.324l6.936,5.324l3.391-2.035l7.096-4.257l-6.775-5.808L51.491,25.641z M34,64C17.432,64,4,50.568,4,34
	C4,17.431,17.432,4,34,4s30,13.431,30,30C64,50.568,50.568,64,34,64z"/>
</svg>
