<?xml version="1.0" encoding="iso-8859-1"?>
<!-- Generator: Adobe Illustrator 22.1.0, SVG Export Plug-In . SVG Version: 6.00 Build 0)  -->
<svg version="1.1" id="Social_Icons" xmlns="http://www.w3.org/2000/svg" xmlns:xlink="http://www.w3.org/1999/xlink" x="0px"
	 y="0px" viewBox="0 0 128 128" style="enable-background:new 0 0 128 128;" xml:space="preserve">
<g id="_x37__stroke">
	<g id="Instagram_1_">
		<rect style="fill:none;" width="128" height="128"/>
		
			<radialGradient id="Instagram_2_" cx="19.1111" cy="1.5556" r="163.5519" gradientTransform="matrix(1 0 0 -1 0 130)" gradientUnits="userSpaceOnUse">
			<stop  offset="0" style="stop-color:#FFB140"/>
			<stop  offset="0.2559" style="stop-color:#FF5445"/>
			<stop  offset="0.599" style="stop-color:#FC2B82"/>
			<stop  offset="1" style="stop-color:#8E40B7"/>
		</radialGradient>
		<path id="Instagram" style="fill:url(#Instagram_2_);" d="M105.843,29.837c0,4.242-3.439,7.68-7.68,7.68s-7.68-3.438-7.68-7.68
			s3.439-7.68,7.68-7.68C102.405,22.157,105.843,25.595,105.843,29.837z M64,85.333c-11.782,0-21.333-9.551-21.333-21.333
			S52.218,42.667,64,42.667S85.333,52.218,85.333,64S75.782,85.333,64,85.333z M64,31.135c-18.151,0-32.865,14.714-32.865,32.865
			S45.849,96.865,64,96.865S96.865,82.151,96.865,64C96.865,45.849,82.151,31.135,64,31.135z M64,11.532
			c17.089,0,19.113,0.065,25.861,0.373c6.24,0.285,9.629,1.327,11.884,2.204c2.987,1.161,5.119,2.548,7.359,4.788
			c2.24,2.239,3.627,4.371,4.788,7.359c0.876,2.255,1.919,5.644,2.204,11.884c0.308,6.749,0.373,8.773,0.373,25.862
			s-0.065,19.113-0.373,25.861c-0.285,6.24-1.327,9.629-2.204,11.884c-1.161,2.987-2.548,5.119-4.788,7.359
			c-2.239,2.24-4.371,3.627-7.359,4.788c-2.255,0.876-5.644,1.919-11.884,2.204c-6.748,0.308-8.772,0.373-25.861,0.373
			c-17.09,0-19.114-0.065-25.862-0.373c-6.24-0.285-9.629-1.327-11.884-2.204c-2.987-1.161-5.119-2.548-7.359-4.788
			c-2.239-2.239-3.627-4.371-4.788-7.359c-0.876-2.255-1.919-5.644-2.204-11.884c-0.308-6.749-0.373-8.773-0.373-25.861
			c0-17.089,0.065-19.113,0.373-25.862c0.285-6.24,1.327-9.629,2.204-11.884c1.161-2.987,2.548-5.119,4.788-7.359
			c2.239-2.24,4.371-3.627,7.359-4.788c2.255-0.876,5.644-1.919,11.884-2.204C44.887,11.597,46.911,11.532,64,11.532z M64,0
			C46.619,0,44.439,0.074,37.613,0.385C30.801,0.696,26.148,1.778,22.078,3.36c-4.209,1.635-7.778,3.824-11.336,7.382
			S4.995,17.869,3.36,22.078c-1.582,4.071-2.664,8.723-2.975,15.535C0.074,44.439,0,46.619,0,64s0.074,19.561,0.385,26.387
			c0.311,6.812,1.393,11.464,2.975,15.535c1.635,4.209,3.824,7.778,7.382,11.336s7.127,5.746,11.336,7.382
			c4.071,1.582,8.723,2.664,15.535,2.975C44.439,127.926,46.619,128,64,128s19.561-0.074,26.387-0.385
			c6.812-0.311,11.464-1.393,15.535-2.975c4.209-1.636,7.778-3.824,11.336-7.382c3.558-3.558,5.746-7.127,7.382-11.336
			c1.582-4.071,2.664-8.723,2.975-15.535C127.926,83.561,128,81.381,128,64s-0.074-19.561-0.385-26.387
			c-0.311-6.812-1.393-11.464-2.975-15.535c-1.636-4.209-3.824-7.778-7.382-11.336c-3.558-3.558-7.127-5.746-11.336-7.382
			c-4.071-1.582-8.723-2.664-15.535-2.975C83.561,0.074,81.381,0,64,0z"/>
	</g>
</g>
</svg>
