<?xml version="1.0" encoding="iso-8859-1"?>
<!-- Generator: Adobe Illustrator 22.1.0, SVG Export Plug-In . SVG Version: 6.00 Build 0)  -->
<svg version="1.1" id="Layer_1" xmlns="http://www.w3.org/2000/svg" xmlns:xlink="http://www.w3.org/1999/xlink" x="0px" y="0px"
	 viewBox="0 0 128 128" style="enable-background:new 0 0 128 128;" xml:space="preserve">
<circle style="fill:#31AF91;" cx="64" cy="64" r="64"/>
<path style="fill:#FFFFFF;" d="M103,57H71V25c0-0.6-0.4-1-1-1H58c-0.6,0-1,0.4-1,1v32H25c-0.6,0-1,0.4-1,1v12c0,0.6,0.4,1,1,1h32v32
	c0,0.6,0.4,1,1,1h12c0.6,0,1-0.4,1-1V71h32c0.6,0,1-0.4,1-1V58C104,57.4,103.6,57,103,57z"/>
</svg>
