<?xml version="1.0" encoding="iso-8859-1"?>
<!-- Generator: Adobe Illustrator 22.1.0, SVG Export Plug-In . SVG Version: 6.00 Build 0)  -->
<svg version="1.1" id="Layer_1" xmlns="http://www.w3.org/2000/svg" xmlns:xlink="http://www.w3.org/1999/xlink" x="0px" y="0px"
	 viewBox="0 0 67 67" style="enable-background:new 0 0 67 67;" xml:space="preserve">
<path style="fill:#63B4E4;" d="M18.557,29.106c0,0,2.816-2.22,3.755-1.11c0.938,1.11,4.521,14.509,5.718,16.98
	c1.044,2.168,3.924,5.033,7.081,2.986c3.156-2.046,13.652-11.007,15.53-21.588c1.878-10.579-12.63-8.363-14.166,0.854
	c3.841-2.306,5.891,0.936,3.926,4.608c-1.962,3.668-3.755,6.06-4.693,6.06c-0.937,0-1.658-2.455-2.731-6.745
	c-1.109-4.435-1.103-12.424-5.716-11.518c-4.351,0.854-10.068,7.681-10.068,7.681L18.557,29.106z M34,64C17.432,64,4,50.568,4,34
	C4,17.431,17.432,4,34,4s30,13.431,30,30C64,50.568,50.568,64,34,64z"/>
</svg>
