<?xml version="1.0" encoding="iso-8859-1"?>
<!-- Generator: Adobe Illustrator 22.1.0, SVG Export Plug-In . SVG Version: 6.00 Build 0)  -->
<svg version="1.1" id="Layer_1" xmlns="http://www.w3.org/2000/svg" xmlns:xlink="http://www.w3.org/1999/xlink" x="0px" y="0px"
	 viewBox="0 0 489.6 489.6" style="enable-background:new 0 0 489.6 489.6;" xml:space="preserve">
<g>
	<g>
		<path style="fill:#2C2F33;" d="M489.6,244.8C489.6,109.8,379.8,0,244.8,0S0,109.8,0,244.8s109.8,244.8,244.8,244.8
			S489.6,379.8,489.6,244.8z M469.8,244.8c0,124.1-100.9,225-225,225s-225-100.9-225-225s100.9-225,225-225S469.8,120.7,469.8,244.8
			z"/>
		<path style="fill:#2C2F33;" d="M298.4,251.8c3.9-3.9,3.9-10.1,0-14l-74.3-74.3c-3.9-3.9-10.1-3.9-14,0s-3.9,10.1,0,14l67.3,67.3
			l-67.3,67.3c-3.9,3.9-3.9,10.1,0,14c1.9,1.9,4.5,2.9,7,2.9s5.1-1,7-2.9L298.4,251.8z"/>
	</g>
</g>
</svg>
