<?xml version="1.0" encoding="utf-8"?>
<!-- Generator: Adobe Illustrator 22.1.0, SVG Export Plug-In . SVG Version: 6.00 Build 0)  -->
<svg version="1.1" id="Layer_1" xmlns="http://www.w3.org/2000/svg" xmlns:xlink="http://www.w3.org/1999/xlink" x="0px" y="0px"
	 viewBox="0 0 1600 1350" style="enable-background:new 0 0 1600 1350;" xml:space="preserve">
<style type="text/css">
	.st0{opacity:0.35;fill:#AAAAE8;enable-background:new    ;}
	.st1{opacity:0.35;fill:#EDC5C5;enable-background:new    ;}
	.st2{opacity:0.5;}
	.st3{clip-path:url(#SVGID_2_);fill:#ECF7FD;}
	.st4{clip-path:url(#SVGID_4_);fill:#C9EAF7;}
	.st5{fill:#ECECF6;}
	.st6{fill:none;stroke:#E9EBF6;stroke-width:1.0016;stroke-linecap:round;stroke-linejoin:round;stroke-miterlimit:10;}
	.st7{fill:#E9EBF6;}
	.st8{fill:#FFFFFF;}
	.st9{fill:none;stroke:#051D32;stroke-width:0.5281;stroke-linecap:round;stroke-linejoin:round;stroke-miterlimit:10;}
	.st10{fill:#58BA84;}
	.st11{fill:#3B9A66;}
	.st12{fill:#E8E8E8;}
	.st13{fill:#D6D6D6;}
	.st14{fill:#7AC699;}
	.st15{fill:#4CB178;}
	.st16{fill:#223972;}
	.st17{fill:url(#SVGID_5_);}
	.st18{fill:url(#SVGID_6_);}
	.st19{fill:#383838;}
	.st20{fill:url(#SVGID_7_);}
	.st21{fill:url(#SVGID_8_);}
	.st22{fill:url(#SVGID_9_);}
	.st23{fill:url(#SVGID_10_);}
	.st24{fill:url(#SVGID_11_);}
	.st25{fill:url(#SVGID_12_);}
	.st26{fill:url(#SVGID_13_);}
	.st27{fill:url(#SVGID_14_);}
	.st28{fill:url(#SVGID_15_);}
	.st29{fill:url(#SVGID_16_);}
	.st30{fill:url(#SVGID_17_);}
	.st31{fill:url(#SVGID_18_);}
	.st32{fill:url(#SVGID_19_);}
	.st33{fill:url(#SVGID_20_);}
	.st34{fill:url(#SVGID_21_);}
	.st35{fill:url(#SVGID_22_);}
	.st36{fill:url(#SVGID_23_);}
	.st37{fill:url(#SVGID_24_);}
	.st38{fill:url(#SVGID_25_);}
	.st39{fill:url(#SVGID_26_);}
	.st40{fill:url(#SVGID_27_);}
	.st41{fill:url(#SVGID_28_);}
	.st42{fill:url(#SVGID_29_);}
	.st43{fill:url(#SVGID_30_);}
	.st44{fill:url(#SVGID_31_);}
	.st45{fill:url(#SVGID_32_);}
	.st46{fill:url(#SVGID_33_);}
	.st47{fill:url(#SVGID_34_);}
	.st48{fill:url(#SVGID_35_);}
	.st49{fill:url(#SVGID_36_);}
	.st50{fill:url(#SVGID_37_);}
	.st51{fill:url(#SVGID_38_);}
	.st52{fill:url(#SVGID_39_);}
	.st53{fill:url(#SVGID_40_);}
	.st54{fill:url(#SVGID_41_);}
	.st55{fill:url(#SVGID_42_);}
	.st56{fill:url(#SVGID_43_);}
	.st57{fill:url(#SVGID_44_);}
	.st58{fill:url(#SVGID_45_);}
	.st59{fill:url(#SVGID_46_);}
	.st60{fill:url(#SVGID_47_);}
	.st61{fill:url(#SVGID_48_);}
	.st62{fill:url(#SVGID_49_);}
	.st63{fill:url(#SVGID_50_);}
	.st64{fill:url(#SVGID_51_);}
	.st65{fill:url(#SVGID_52_);}
	.st66{fill:url(#SVGID_53_);}
	.st67{fill:url(#SVGID_54_);}
	.st68{fill:url(#SVGID_55_);}
	.st69{fill:url(#SVGID_56_);}
	.st70{fill:url(#SVGID_57_);}
	.st71{fill:url(#SVGID_58_);}
	.st72{fill:url(#SVGID_59_);}
	.st73{fill:url(#SVGID_60_);}
	.st74{opacity:0.75;fill:url(#SVGID_61_);enable-background:new    ;}
	.st75{fill:url(#SVGID_62_);}
	.st76{fill:url(#SVGID_63_);}
	.st77{fill:url(#SVGID_64_);}
	.st78{fill:url(#SVGID_65_);}
	.st79{opacity:0.3;fill:#008CA6;enable-background:new    ;}
	.st80{opacity:0.4;fill:none;stroke:#008CA6;stroke-width:0.5564;stroke-miterlimit:10;enable-background:new    ;}
	.st81{fill:none;stroke:#F9FAFB;stroke-width:0.5564;stroke-miterlimit:10;}
	.st82{opacity:0.2;fill:#005078;enable-background:new    ;}
	.st83{fill:#9D9C97;}
	.st84{fill:#D6D4CA;}
	.st85{fill:url(#SVGID_66_);}
	.st86{fill:url(#SVGID_67_);}
	.st87{fill:url(#SVGID_68_);}
	.st88{fill:#008CA6;}
	.st89{fill:url(#SVGID_69_);}
	.st90{fill:url(#SVGID_70_);}
	.st91{fill:url(#SVGID_71_);}
	.st92{fill:url(#SVGID_72_);}
	.st93{fill:#F9FAFB;}
	.st94{fill:url(#SVGID_73_);}
	.st95{fill:url(#SVGID_74_);}
	.st96{fill:url(#SVGID_75_);}
	.st97{fill:url(#SVGID_76_);}
	.st98{fill:url(#SVGID_77_);}
	.st99{fill:url(#SVGID_78_);}
	.st100{fill:url(#SVGID_79_);}
	.st101{fill:url(#SVGID_80_);}
	.st102{fill:#CBC9C2;}
	.st103{opacity:0.32;fill:url(#SVGID_81_);enable-background:new    ;}
	.st104{fill:#A6ACC8;}
	.st105{fill:#707A9A;}
	.st106{fill:#C4C9DD;}
	.st107{fill:#97A0BF;}
	.st108{fill:#EDEAD3;}
	.st109{fill:#F3795A;}
	.st110{fill:url(#SVGID_82_);}
	.st111{fill:#172B54;}
	.st112{fill:#E48868;}
	.st113{fill:#96C4A8;}
	.st114{fill:#ECE0D3;}
	.st115{fill:#CFB199;}
	.st116{fill:#393762;}
	.st117{fill:#729D8F;}
	.st118{fill:#BA745D;}
	.st119{fill:#434341;}
	.st120{fill:#8CABEF;}
	.st121{fill:#6F6F6D;}
	.st122{fill:#9CBAEF;}
	.st123{fill:#5D66D3;}
	.st124{fill:#5046AF;}
	.st125{fill:#55C7A6;}
	.st126{fill:#41378C;}
	.st127{fill:none;stroke:#41378C;stroke-width:2.766;stroke-miterlimit:10;}
</style>
<path class="st0" d="M282.3,1349.7c-32.5,0-63.6-3.1-92.1-9.2c-51-10.9-89.2-30.5-110.4-56.8c-29.2-36.1-37.1-99.9-18.4-148.4
	c17.6-45.8,56.4-63.1,93.9-79.9c37.3-16.7,72.4-32.4,83-74.8c11.8-47.4-4.7-88.8-20.6-128.9c-17.7-44.5-34.4-86.5-13.7-134.3
	c19.3-44.7,66.5-79.7,132.9-98.6c36-10.3,73.9-11.6,112.6-4c30.9,6.1,53.3,16.1,62.9,20.4c73.1,32.7,138.9,108.2,176,202
	c18.5,46.7,29.1,96.5,30.6,144c1.6,51.7-7.1,100-25.9,143.6c-26.7,61.9-73.3,113.2-138.3,152.4c-56.4,34.1-124.5,57.3-197,67.2
	C332,1347.9,306.7,1349.7,282.3,1349.7z M400.4,611.2c-25,0-46.4,3.9-63.3,8.7c-66.1,18.8-113,53.6-132.2,98
	c-20.5,47.4-3.9,89.2,13.8,133.4c16,40.2,32.6,81.8,20.7,129.5c-10.7,42.9-46.2,58.8-83.7,75.6c-37.3,16.7-75.8,33.9-93.3,79.3
	c-18.6,48.2-10.8,111.5,18.2,147.3c21.1,26.1,59.1,45.6,109.8,56.4c50,10.7,107.8,12,167.1,3.9c159.5-21.8,284.5-103.7,334.3-219
	c36.1-83.6,34.4-188.1-4.6-286.7C650.1,744,584.5,668.7,511.7,636.2C470,617.5,432.3,611.2,400.4,611.2z"/>
<path class="st1" d="M409.8,69.2C419,61.8,428.4,55.4,438,50c36.2-20.2,83.9-29.9,134.3-27.2C622,25.4,670.9,39.7,710,63.1
	C786.8,109,805.9,184,824.3,256.5c18.4,72.2,35.7,140.4,108.8,172.7c81.5,36,161.2,19.3,238.2,3.1c85.3-18,166-34.9,245.3,17
	c48.7,31.9,85.6,82.4,109.7,150.2c19.1,53.6,24.3,102.9,26.1,119.1c7.2,67.9-2.1,136.3-27.8,203.4c-20.5,53.6-45.5,90.7-56.1,106.6
	l-0.6-0.4l0.6,0.4c-81.5,121.1-237.6,215.8-417.6,253.4c-89.7,18.7-182.5,22.2-268.2,10.1c-93.3-13.2-177.4-43.9-249.8-91.2
	c-52.8-34.5-99.7-78.4-139.2-130.4c-36.8-48.3-67.6-104-91.6-165.4c-43.6-111.9-64.2-241.6-59.5-374.8
	c3.9-109.3,24.3-212.9,59.1-299.6C330.7,158.3,367.7,103.2,409.8,69.2z M1366.1,1136.3c40.5-32.7,74.8-69.2,101.2-108.5
	c83.2-123.6,91.4-236.3,83.6-309c-13.3-124.7-61.3-220-135.1-268.3c-78.9-51.6-159.2-34.7-244.3-16.8
	c-77.2,16.3-157.1,33.1-239.1-3.2c-73.6-32.6-91-101.1-109.5-173.7c-18.4-72.2-37.4-146.9-113.6-192.5c-80.9-48.4-197.2-54-270.7-13
	c-9.5,5.3-18.9,11.7-28,19c-41.9,33.8-78.8,88.7-107.8,160.9c-34.8,86.5-55.2,190-59,299.1c-10.3,293.8,97.9,544,289.7,669.4
	c139.1,90.9,327.5,120.4,517,80.9C1171.8,1255.3,1282.2,1204,1366.1,1136.3z"/>
<g>
	<g class="st2">
		<g>
			<g>
				<g>
					<g>
						<g>
							<g>
								<g>
									<g>
										<g>
											<g>
												<g>
													<defs>
														<path id="SVGID_1_" d="M373.8,800c0,0-68,78.7-216.4,102.5c-226.2,36.1-221.6,316.7,23.4,373.9
															c245,57.2,180-35.8,526.7-11.9s262.6-235,136.5-314.9c-130.4-82.6-8.1-230-201.6-261.5
															C490.2,663.2,373.8,800,373.8,800z"/>
													</defs>
													<clipPath id="SVGID_2_">
														<use xlink:href="#SVGID_1_"  style="overflow:visible;"/>
													</clipPath>
													<path class="st3" d="M941.2,1187.6c39.4-77-21.3-190.1-97.3-238.2c-130.4-82.6-8.1-230-201.6-261.5
														C490.1,663,373.7,799.8,373.7,799.8s-68,78.7-216.4,102.5C-6.6,928.5-49.3,1082.8,32.5,1187.8h908.8L941.2,1187.6
														L941.2,1187.6z"/>
												</g>
											</g>
										</g>
									</g>
								</g>
							</g>
						</g>
					</g>
				</g>
			</g>
			<g>
				<g>
					<g>
						<g>
							<g>
								<g>
									<g>
										<g>
											<g>
												<g>
													<defs>
														<path id="SVGID_3_" d="M373.8,800c0,0-68,78.7-216.4,102.5c-226.2,36.1-221.6,316.7,23.4,373.9
															c245,57.2,180-35.8,526.7-11.9s262.6-235,136.5-314.9c-130.4-82.6-8.1-230-201.6-261.5
															C490.2,663.2,373.8,800,373.8,800z"/>
													</defs>
													<clipPath id="SVGID_4_">
														<use xlink:href="#SVGID_3_"  style="overflow:visible;"/>
													</clipPath>
													<path class="st4" d="M373.9,1187.6c-195.6-135.3-126.6-409.2-126.6-409.2L-7.8,833.2l-45.9,92.3l25.8,262.2
														L373.9,1187.6L373.9,1187.6z"/>
												</g>
											</g>
										</g>
									</g>
								</g>
							</g>
						</g>
					</g>
				</g>
			</g>
		</g>
	</g>
	<path class="st5" d="M116.8,661.1c0,0,10.3-11.9,16.7-17.4c11.4-9.8,24.6-27.1,66.4-14.4c3.3,1,6.4,2.4,9.5,3.6
		c3.7,1.6,15.1,1.7,26.8-7.7c18.6-14.8,25.9-25.9,51.5-26.2c29.7-0.4,34.4,36.6,57.5,46.1c14.7,6.1,53.4,12,61.5,14.7L116.8,661.1z"
		/>
	<path class="st6" d="M618.5,587.9c0,0,5.3-6.1,8.5-8.9c5.8-5,12.6-13.9,34-7.4c1.7,0.6,3.3,1.2,4.8,1.9c1.9,0.8,7.7,0.8,13.8-3.9
		c9.5-7.6,13.2-13.3,26.2-13.5c15.1-0.2,17.6,18.7,29.4,23.5c7.5,3,27.3,6.2,31.4,7.5L618.5,587.9z"/>
	<path class="st7" d="M1000.9,826.2c0,0-5.3-6.1-8.5-8.9c-5.8-5-12.6-13.9-34-7.4c-1.7,0.6-3.3,1.2-4.8,1.9
		c-1.9,0.8-7.7,0.8-13.8-3.9c-9.5-7.6-13.2-13.3-26.2-13.5c-15.1-0.2-17.6,18.7-29.4,23.5c-7.5,3-27.3,6.2-31.4,7.5L1000.9,826.2z"
		/>
	<g>
		<path class="st8" d="M877.8,1050.8l-1.6-4.3l-1.6,4.3c-1.3,3.6-4.3,6.7-8.3,8.5l0,0l0,0c4,1.9,7.2,4.9,8.3,8.5l1.6,4.3l1.6-4.3
			c1.3-3.6,4.3-6.7,8.3-8.5l0,0l0,0C882.3,1057.6,879.1,1054.5,877.8,1050.8z"/>
		<path class="st8" d="M150.9,953.9l-1.6-4.3l-1.6,4.3c-1.3,3.6-4.3,6.7-8.3,8.5l0,0l0,0c4,1.9,7.2,4.9,8.3,8.5l1.6,4.3l1.6-4.3
			c1.3-3.6,4.3-6.7,8.3-8.5l0,0l0,0C155.1,960.7,152.1,957.5,150.9,953.9z"/>
		<path class="st8" d="M653.8,732.7l-2.6-7.3l-2.6,7.3c-2.1,6.2-7.3,11.3-14,14.4l0,0l0,0c7,3,12,8.3,14,14.4l2.6,7.3l2.6-7.3
			c2.1-6.2,7.3-11.3,14-14.4l0,0l0,0C660.9,744,655.8,738.9,653.8,732.7z"/>
	</g>
	<line class="st9" x1="0" y1="1187.6" x2="1000.7" y2="1187.6"/>
</g>
<g>
	<path class="st10" d="M88,1121c-1.3,0.1-33.8-2.6-36.3-32.7c-2.5-30.1,17.9-38.2,11.4-71.6s-21.2-42.5,10-68
		c0,0,13.9-10.3,14.1-24.2c0.2-16.6,28.1-36.8,47.7-26.4c19.5,10.4,15.6,27.6,0.1,55.8c-15.5,28.1,0.5,32.4,3.9,41.3
		c3.4,8.8,11.1,17.9-5,39.8c-16.1,21.9,4.8,47.2-8.8,68.1C125.2,1103.1,113.2,1118.7,88,1121z"/>
	<g>
		<path class="st11" d="M94.6,1167.1c0.7-0.2,1.1-0.9,1-1.6c-20.5-91.4,10.8-218,11.2-219.2c0.2-0.7-0.3-1.5-1-1.7s-1.5,0.3-1.7,1
			c-0.3,1.3-31.8,128.5-11.2,220.5C93,1166.8,93.8,1167.3,94.6,1167.1C94.5,1167.1,94.6,1167.1,94.6,1167.1z"/>
		<path class="st11" d="M94.7,1002.5c0.1,0,0.2-0.1,0.2-0.1c0.7-0.3,1-1.2,0.6-1.9c-0.1-0.2-7.8-16.2-11.3-30
			c-0.2-0.7-0.9-1.2-1.7-1s-1.2,0.9-1,1.7c3.5,14,11.4,30.3,11.5,30.5C93.4,1002.4,94.1,1002.7,94.7,1002.5z"/>
		<path class="st11" d="M90.4,1040.1c0.2-0.1,0.4-0.2,0.5-0.3c6.7-5.9,23.6-17.2,23.8-17.4c0.6-0.4,0.8-1.3,0.4-1.9
			c-0.4-0.6-1.3-0.8-1.9-0.4c-0.7,0.5-17.3,11.5-24.1,17.5c-0.6,0.5-0.6,1.4-0.1,2C89.4,1040.1,89.9,1040.2,90.4,1040.1z"/>
	</g>
</g>
<g>
	<g>
		<path class="st12" d="M105.4,1187.7H73.9c-2.6,0-4.8-1.9-5.1-4.5l-3.6-29.5h48.9l-3.6,29.5C110.2,1185.7,108,1187.7,105.4,1187.7z
			"/>
	</g>
	<g>
		<path class="st13" d="M115,1159.6H64.6c-1.5,0-2.6-1.2-2.6-2.6v-10.7c0-1.5,1.2-2.6,2.6-2.6H115c1.5,0,2.6,1.2,2.6,2.6v10.7
			C117.6,1158.5,116.4,1159.6,115,1159.6z"/>
	</g>
</g>
<g>
	<path class="st14" d="M169.5,1130.6c-1.3,1-12.6-19.7-15.4-46c0,0-1.3-12.9,11-6.4c0,0-12.6-56.6,21.1-52.3
		c5.8,0.7,9.1,2.1,12.5,5.7c4.5,5,7.1,13,1.7,24.6c-10.7,23.1-20.2,32.2-15.6,44.4C189.6,1112.9,188.1,1116.4,169.5,1130.6z"/>
	<path class="st15" d="M172.9,1167.5c0.7-0.1,1.1-0.8,1-1.5c-7.8-38,3.4-102,4.8-104.9c0.4-0.6,0.3-1.3-0.3-1.7
		c-0.6-0.4-1.4-0.2-1.8,0.3c-2.4,3.2-12.7,69.9-5.2,106.7C171.6,1167.2,172.2,1167.6,172.9,1167.5z"/>
</g>
<g>
	<g>
		<path class="st12" d="M182.6,1187.7h-23.7c-1.9,0-3.6-1.5-3.8-3.4l-2.7-22.2h36.8l-2.7,22.2
			C186.2,1186.2,184.6,1187.7,182.6,1187.7z"/>
	</g>
	<g>
		<path class="st13" d="M189.2,1166.6h-36.6c-1.5,0-2.6-1.2-2.6-2.6v-6.8c0-1.5,1.2-2.6,2.6-2.6h36.6c1.5,0,2.6,1.2,2.6,2.6v6.8
			C191.8,1165.4,190.6,1166.6,189.2,1166.6z"/>
	</g>
</g>
<g>
	<polygon class="st16" points="519.1,667.8 559.3,644.4 560.5,645 542.4,674.4 	"/>
	
		<linearGradient id="SVGID_5_" gradientUnits="userSpaceOnUse" x1="-1560.2065" y1="210.0877" x2="-1564.9412" y2="183.9217" gradientTransform="matrix(0.9966 -8.220000e-02 -8.220000e-02 -0.9966 2108.4441 757.3763)">
		<stop  offset="0" style="stop-color:#CDD1D7"/>
		<stop  offset="0.3612" style="stop-color:#BEC2CC"/>
		<stop  offset="1" style="stop-color:#999FB2"/>
	</linearGradient>
	<path class="st17" d="M434.4,664.7c-0.7-1.5-0.3-3.2,1-4.2c4.8-3.5,17.7-11,36.3-6.1c21.4,5.7,140.2,40.1,164.6,47.2
		c1.2,0.4,1.2,2.1-0.1,2.4c-8.4,1.9-28,5.2-54.4,3.7c-35.5-2-113.6-18.4-133.5-28.6C440.3,675,436.2,668.3,434.4,664.7z"/>
	
		<linearGradient id="SVGID_6_" gradientUnits="userSpaceOnUse" x1="-1559.9713" y1="212.6897" x2="-1563.9418" y2="190.7475" gradientTransform="matrix(0.9966 -8.220000e-02 -8.220000e-02 -0.9966 2108.4441 757.3763)">
		<stop  offset="0" style="stop-color:#CDD1D7"/>
		<stop  offset="0.3612" style="stop-color:#BEC2CC"/>
		<stop  offset="1" style="stop-color:#999FB2"/>
	</linearGradient>
	<path class="st18" d="M469.9,660.5c14,3.2,122.7,34.1,158.6,44.9c3.1-0.5,5.7-1,7.5-1.5c1.3-0.3,1.3-2.1,0.1-2.4
		c-24.4-7.1-143.1-41.5-164.6-47.2c-18.6-4.9-31.5,2.5-36.3,6.1c-1.3,1-1.8,2.7-1,4.2c-0.9-2.5,3.8-1,11.1-2.7
		C450.3,660.7,462.5,658.7,469.9,660.5z"/>
	<g>
		<path class="st19" d="M447.2,656.4c-0.6-0.4-1.1-0.8-1.6-1.3c-1.2,0.4-2.7,1.1-2.7,1.1s0.7,0.7,1.8,1.5c0.4,0.3,0.9,0.3,1.2,0
			C446.5,657.2,446.9,656.7,447.2,656.4z"/>
		<path class="st19" d="M450.9,658.2c-0.5-0.2-1.8-0.6-3.1-1.4c-0.2,0.3-0.7,0.8-1.3,1.4c-0.3,0.2-0.3,0.7,0.1,0.9
			c1.6,1,3.5,2,5.5,2.2C452,661.2,452.4,658.7,450.9,658.2z"/>
	</g>
	<g>
		<g>
			
				<linearGradient id="SVGID_7_" gradientUnits="userSpaceOnUse" x1="-1269.6962" y1="-1036.2267" x2="-1269.6962" y2="-1032.515" gradientTransform="matrix(0.9613 0.2758 0.2758 -0.9613 1990.8756 25.6861)">
				<stop  offset="0" style="stop-color:#CDD1D7"/>
				<stop  offset="0.3612" style="stop-color:#BEC2CC"/>
				<stop  offset="1" style="stop-color:#999FB2"/>
			</linearGradient>
			<path class="st20" d="M485.6,672l-2.3-0.7c-0.1,0-0.2-0.1-0.1-0.3l1-3.3c0-0.1,0.1-0.2,0.3-0.1l2.3,0.7c0.1,0,0.2,0.1,0.1,0.3
				l-1,3.3C485.8,672,485.7,672,485.6,672z"/>
			
				<linearGradient id="SVGID_8_" gradientUnits="userSpaceOnUse" x1="-1269.7581" y1="-1036.0154" x2="-1269.7581" y2="-1032.7374" gradientTransform="matrix(0.9613 0.2758 0.2758 -0.9613 1990.8756 25.6861)">
				<stop  offset="0" style="stop-color:#999FB2"/>
				<stop  offset="0.6388" style="stop-color:#BEC2CC"/>
				<stop  offset="1" style="stop-color:#CDD1D7"/>
			</linearGradient>
			<path class="st21" d="M485.5,671.7l-2-0.6c0-0.1-0.1-0.1-0.1-0.2l0.9-3c0.1,0,0.1-0.1,0.2-0.1l2,0.6c0,0.1,0.1,0.1,0.1,0.2
				l-0.9,3C485.6,671.7,485.5,671.7,485.5,671.7z"/>
		</g>
		<g>
			
				<linearGradient id="SVGID_9_" gradientUnits="userSpaceOnUse" x1="-1265.7405" y1="-1036.2267" x2="-1265.7405" y2="-1032.515" gradientTransform="matrix(0.9613 0.2758 0.2758 -0.9613 1990.8756 25.6861)">
				<stop  offset="0" style="stop-color:#CDD1D7"/>
				<stop  offset="0.3612" style="stop-color:#BEC2CC"/>
				<stop  offset="1" style="stop-color:#999FB2"/>
			</linearGradient>
			<path class="st22" d="M489.4,673.1l-2.3-0.7c-0.1,0-0.2-0.1-0.1-0.3l1-3.3c0-0.1,0.1-0.2,0.3-0.1l2.3,0.7c0.1,0,0.2,0.1,0.1,0.3
				l-1,3.3C489.7,673.1,489.6,673.2,489.4,673.1z"/>
			
				<linearGradient id="SVGID_10_" gradientUnits="userSpaceOnUse" x1="-1265.6787" y1="-1036.0125" x2="-1265.6787" y2="-1032.7346" gradientTransform="matrix(0.9613 0.2758 0.2758 -0.9613 1990.8756 25.6861)">
				<stop  offset="0" style="stop-color:#999FB2"/>
				<stop  offset="0.6388" style="stop-color:#BEC2CC"/>
				<stop  offset="1" style="stop-color:#CDD1D7"/>
			</linearGradient>
			<path class="st23" d="M489.4,672.9l-2-0.6c0-0.1-0.1-0.1-0.1-0.2l0.9-3c0.1,0,0.1-0.1,0.2-0.1l2,0.6c0,0.1,0.1,0.1,0.1,0.2
				l-0.9,3C489.4,672.8,489.4,672.8,489.4,672.9z"/>
		</g>
		<g>
			
				<linearGradient id="SVGID_11_" gradientUnits="userSpaceOnUse" x1="-1261.5927" y1="-1036.2267" x2="-1261.5927" y2="-1032.515" gradientTransform="matrix(0.9613 0.2758 0.2758 -0.9613 1990.8756 25.6861)">
				<stop  offset="0" style="stop-color:#CDD1D7"/>
				<stop  offset="0.3612" style="stop-color:#BEC2CC"/>
				<stop  offset="1" style="stop-color:#999FB2"/>
			</linearGradient>
			<path class="st24" d="M493.4,674.2l-2.3-0.7c-0.1,0-0.2-0.1-0.1-0.3l1-3.3c0-0.1,0.1-0.2,0.3-0.1l2.3,0.7c0.1,0,0.2,0.1,0.1,0.3
				l-1,3.3C493.7,674.2,493.5,674.2,493.4,674.2z"/>
			
				<linearGradient id="SVGID_12_" gradientUnits="userSpaceOnUse" x1="-1261.6544" y1="-1036.0125" x2="-1261.6544" y2="-1032.7346" gradientTransform="matrix(0.9613 0.2758 0.2758 -0.9613 1990.8756 25.6861)">
				<stop  offset="0" style="stop-color:#999FB2"/>
				<stop  offset="0.6388" style="stop-color:#BEC2CC"/>
				<stop  offset="1" style="stop-color:#CDD1D7"/>
			</linearGradient>
			<path class="st25" d="M493.3,673.9l-2-0.6c0-0.1-0.1-0.1-0.1-0.2l0.9-3c0.1,0,0.1-0.1,0.2-0.1l2,0.6c0,0.1,0.1,0.1,0.1,0.2
				l-0.9,3C493.4,673.9,493.4,673.9,493.3,673.9z"/>
		</g>
		<g>
			
				<linearGradient id="SVGID_13_" gradientUnits="userSpaceOnUse" x1="-1257.5409" y1="-1036.2267" x2="-1257.5409" y2="-1032.515" gradientTransform="matrix(0.9613 0.2758 0.2758 -0.9613 1990.8756 25.6861)">
				<stop  offset="0" style="stop-color:#CDD1D7"/>
				<stop  offset="0.3612" style="stop-color:#BEC2CC"/>
				<stop  offset="1" style="stop-color:#999FB2"/>
			</linearGradient>
			<path class="st26" d="M497.3,675.3l-2.3-0.7c-0.1,0-0.2-0.1-0.1-0.3l1-3.3c0-0.1,0.1-0.2,0.3-0.1l2.3,0.7c0.1,0,0.2,0.1,0.1,0.3
				l-1,3.3C497.5,675.3,497.4,675.4,497.3,675.3z"/>
			
				<linearGradient id="SVGID_14_" gradientUnits="userSpaceOnUse" x1="-1257.5751" y1="-1036.0125" x2="-1257.5751" y2="-1032.7346" gradientTransform="matrix(0.9613 0.2758 0.2758 -0.9613 1990.8756 25.6861)">
				<stop  offset="0" style="stop-color:#999FB2"/>
				<stop  offset="0.6388" style="stop-color:#BEC2CC"/>
				<stop  offset="1" style="stop-color:#CDD1D7"/>
			</linearGradient>
			<path class="st27" d="M497.2,675.1l-2-0.6c0-0.1-0.1-0.1-0.1-0.2l0.9-3c0.1,0,0.1-0.1,0.2-0.1l2,0.6c0,0.1,0.1,0.1,0.1,0.2
				l-0.9,3C497.3,675,497.3,675,497.2,675.1z"/>
		</g>
		<g>
			
				<linearGradient id="SVGID_15_" gradientUnits="userSpaceOnUse" x1="-1253.4614" y1="-1036.2267" x2="-1253.4614" y2="-1032.5146" gradientTransform="matrix(0.9613 0.2758 0.2758 -0.9613 1990.8756 25.6861)">
				<stop  offset="0" style="stop-color:#CDD1D7"/>
				<stop  offset="0.3612" style="stop-color:#BEC2CC"/>
				<stop  offset="1" style="stop-color:#999FB2"/>
			</linearGradient>
			<path class="st28" d="M501.2,676.5l-2.3-0.7c-0.1,0-0.2-0.1-0.1-0.3l1-3.3c0-0.1,0.1-0.2,0.3-0.1l2.3,0.7c0.1,0,0.2,0.1,0.1,0.3
				l-1,3.3C501.4,676.4,501.3,676.5,501.2,676.5z"/>
			
				<linearGradient id="SVGID_16_" gradientUnits="userSpaceOnUse" x1="-1253.5233" y1="-1036.0125" x2="-1253.5233" y2="-1032.7346" gradientTransform="matrix(0.9613 0.2758 0.2758 -0.9613 1990.8756 25.6861)">
				<stop  offset="0" style="stop-color:#999FB2"/>
				<stop  offset="0.6388" style="stop-color:#BEC2CC"/>
				<stop  offset="1" style="stop-color:#CDD1D7"/>
			</linearGradient>
			<path class="st29" d="M501.1,676.2l-2-0.6c0-0.1-0.1-0.1-0.1-0.2l0.9-3c0.1,0,0.1-0.1,0.2-0.1l2,0.6c0,0.1,0.1,0.1,0.1,0.2
				l-0.9,3C501.2,676.2,501.2,676.2,501.1,676.2z"/>
		</g>
		<g>
			
				<linearGradient id="SVGID_17_" gradientUnits="userSpaceOnUse" x1="-1249.4097" y1="-1036.2267" x2="-1249.4097" y2="-1032.5146" gradientTransform="matrix(0.9613 0.2758 0.2758 -0.9613 1990.8756 25.6861)">
				<stop  offset="0" style="stop-color:#CDD1D7"/>
				<stop  offset="0.3612" style="stop-color:#BEC2CC"/>
				<stop  offset="1" style="stop-color:#999FB2"/>
			</linearGradient>
			<path class="st30" d="M505.1,677.6l-2.3-0.7c-0.1,0-0.2-0.1-0.1-0.3l1-3.3c0-0.1,0.1-0.2,0.3-0.1l2.3,0.7c0.1,0,0.2,0.1,0.1,0.3
				l-1,3.3C505.3,677.6,505.2,677.7,505.1,677.6z"/>
			
				<linearGradient id="SVGID_18_" gradientUnits="userSpaceOnUse" x1="-1249.444" y1="-1036.0125" x2="-1249.444" y2="-1032.7343" gradientTransform="matrix(0.9613 0.2758 0.2758 -0.9613 1990.8756 25.6861)">
				<stop  offset="0" style="stop-color:#999FB2"/>
				<stop  offset="0.6388" style="stop-color:#BEC2CC"/>
				<stop  offset="1" style="stop-color:#CDD1D7"/>
			</linearGradient>
			<path class="st31" d="M505,677.4l-2-0.6c0-0.1-0.1-0.1-0.1-0.2l0.9-3c0.1,0,0.1-0.1,0.2-0.1l2,0.6c0,0.1,0.1,0.1,0.1,0.2l-0.9,3
				C505.1,677.3,505,677.3,505,677.4z"/>
		</g>
		<g>
			
				<linearGradient id="SVGID_19_" gradientUnits="userSpaceOnUse" x1="-1245.2617" y1="-1036.2267" x2="-1245.2617" y2="-1032.5146" gradientTransform="matrix(0.9613 0.2758 0.2758 -0.9613 1990.8756 25.6861)">
				<stop  offset="0" style="stop-color:#CDD1D7"/>
				<stop  offset="0.3612" style="stop-color:#BEC2CC"/>
				<stop  offset="1" style="stop-color:#999FB2"/>
			</linearGradient>
			<path class="st32" d="M509.1,678.7l-2.3-0.7c-0.1,0-0.2-0.1-0.1-0.3l1-3.3c0-0.1,0.1-0.2,0.3-0.1l2.3,0.7c0.1,0,0.2,0.1,0.1,0.3
				l-1,3.3C509.2,678.6,509.2,678.7,509.1,678.7z"/>
			
				<linearGradient id="SVGID_20_" gradientUnits="userSpaceOnUse" x1="-1245.296" y1="-1036.0125" x2="-1245.296" y2="-1032.7343" gradientTransform="matrix(0.9613 0.2758 0.2758 -0.9613 1990.8756 25.6861)">
				<stop  offset="0" style="stop-color:#999FB2"/>
				<stop  offset="0.6388" style="stop-color:#BEC2CC"/>
				<stop  offset="1" style="stop-color:#CDD1D7"/>
			</linearGradient>
			<path class="st33" d="M509,678.5l-2-0.6c0-0.1-0.1-0.1-0.1-0.2l0.9-3c0.1,0,0.1-0.1,0.2-0.1l2,0.6c0,0.1,0.1,0.1,0.1,0.2l-0.9,3
				C509.1,678.4,509,678.5,509,678.5z"/>
		</g>
		<g>
			
				<linearGradient id="SVGID_21_" gradientUnits="userSpaceOnUse" x1="-1241.3062" y1="-1036.2267" x2="-1241.3062" y2="-1032.5146" gradientTransform="matrix(0.9613 0.2758 0.2758 -0.9613 1990.8756 25.6861)">
				<stop  offset="0" style="stop-color:#CDD1D7"/>
				<stop  offset="0.3612" style="stop-color:#BEC2CC"/>
				<stop  offset="1" style="stop-color:#999FB2"/>
			</linearGradient>
			<path class="st34" d="M512.9,679.8l-2.3-0.7c-0.1,0-0.2-0.1-0.1-0.3l1-3.3c0-0.1,0.1-0.2,0.3-0.1l2.3,0.7c0.1,0,0.2,0.1,0.1,0.3
				l-1,3.3C513.2,679.8,513,679.8,512.9,679.8z"/>
			
				<linearGradient id="SVGID_22_" gradientUnits="userSpaceOnUse" x1="-1241.3679" y1="-1036.0125" x2="-1241.3679" y2="-1032.7343" gradientTransform="matrix(0.9613 0.2758 0.2758 -0.9613 1990.8756 25.6861)">
				<stop  offset="0" style="stop-color:#999FB2"/>
				<stop  offset="0.6388" style="stop-color:#BEC2CC"/>
				<stop  offset="1" style="stop-color:#CDD1D7"/>
			</linearGradient>
			<path class="st35" d="M512.8,679.5l-2-0.6c0-0.1-0.1-0.1-0.1-0.2l0.9-3c0.1,0,0.1-0.1,0.2-0.1l2,0.6c0,0.1,0.1,0.1,0.1,0.2
				l-0.9,3C512.9,679.5,512.9,679.5,512.8,679.5z"/>
		</g>
		<g>
			
				<linearGradient id="SVGID_23_" gradientUnits="userSpaceOnUse" x1="-1237.2543" y1="-1036.2267" x2="-1237.2543" y2="-1032.5146" gradientTransform="matrix(0.9613 0.2758 0.2758 -0.9613 1990.8756 25.6861)">
				<stop  offset="0" style="stop-color:#CDD1D7"/>
				<stop  offset="0.3612" style="stop-color:#BEC2CC"/>
				<stop  offset="1" style="stop-color:#999FB2"/>
			</linearGradient>
			<path class="st36" d="M516.8,680.9l-2.3-0.7c-0.1,0-0.2-0.1-0.1-0.3l1-3.3c0-0.1,0.1-0.2,0.3-0.1l2.3,0.7c0.1,0,0.2,0.1,0.1,0.3
				l-1,3.3C517,680.9,516.9,681,516.8,680.9z"/>
			
				<linearGradient id="SVGID_24_" gradientUnits="userSpaceOnUse" x1="-1237.2886" y1="-1036.0125" x2="-1237.2886" y2="-1032.7343" gradientTransform="matrix(0.9613 0.2758 0.2758 -0.9613 1990.8756 25.6861)">
				<stop  offset="0" style="stop-color:#999FB2"/>
				<stop  offset="0.6388" style="stop-color:#BEC2CC"/>
				<stop  offset="1" style="stop-color:#CDD1D7"/>
			</linearGradient>
			<path class="st37" d="M516.7,680.7l-2-0.6c0-0.1-0.1-0.1-0.1-0.2l0.9-3c0.1,0,0.1-0.1,0.2-0.1l2,0.6c0,0.1,0.1,0.1,0.1,0.2
				l-0.9,3C516.8,680.6,516.8,680.6,516.7,680.7z"/>
		</g>
		<g>
			
				<linearGradient id="SVGID_25_" gradientUnits="userSpaceOnUse" x1="-1233.1749" y1="-1036.2267" x2="-1233.1749" y2="-1032.5146" gradientTransform="matrix(0.9613 0.2758 0.2758 -0.9613 1990.8756 25.6861)">
				<stop  offset="0" style="stop-color:#CDD1D7"/>
				<stop  offset="0.3612" style="stop-color:#BEC2CC"/>
				<stop  offset="1" style="stop-color:#999FB2"/>
			</linearGradient>
			<path class="st38" d="M520.7,682.1l-2.3-0.7c-0.1,0-0.2-0.1-0.1-0.3l1-3.3c0-0.1,0.1-0.2,0.3-0.1l2.3,0.7c0.1,0,0.2,0.1,0.1,0.3
				l-1,3.3C520.9,682.1,520.8,682.1,520.7,682.1z"/>
			
				<linearGradient id="SVGID_26_" gradientUnits="userSpaceOnUse" x1="-1233.2368" y1="-1036.0125" x2="-1233.2368" y2="-1032.7343" gradientTransform="matrix(0.9613 0.2758 0.2758 -0.9613 1990.8756 25.6861)">
				<stop  offset="0" style="stop-color:#999FB2"/>
				<stop  offset="0.6388" style="stop-color:#BEC2CC"/>
				<stop  offset="1" style="stop-color:#CDD1D7"/>
			</linearGradient>
			<path class="st39" d="M520.6,681.8l-2-0.6c0-0.1-0.1-0.1-0.1-0.2l0.9-3c0.1,0,0.1-0.1,0.2-0.1l2,0.6c0,0.1,0.1,0.1,0.1,0.2
				l-0.9,3C520.7,681.8,520.7,681.8,520.6,681.8z"/>
		</g>
		<g>
			
				<linearGradient id="SVGID_27_" gradientUnits="userSpaceOnUse" x1="-1229.1232" y1="-1036.2267" x2="-1229.1232" y2="-1032.5146" gradientTransform="matrix(0.9613 0.2758 0.2758 -0.9613 1990.8756 25.6861)">
				<stop  offset="0" style="stop-color:#CDD1D7"/>
				<stop  offset="0.3612" style="stop-color:#BEC2CC"/>
				<stop  offset="1" style="stop-color:#999FB2"/>
			</linearGradient>
			<path class="st40" d="M524.6,683.2l-2.3-0.7c-0.1,0-0.2-0.1-0.1-0.3l1-3.3c0-0.1,0.1-0.2,0.3-0.1l2.3,0.7c0.1,0,0.2,0.1,0.1,0.3
				l-1,3.3C524.8,683.2,524.7,683.3,524.6,683.2z"/>
			
				<linearGradient id="SVGID_28_" gradientUnits="userSpaceOnUse" x1="-1229.1573" y1="-1036.0125" x2="-1229.1573" y2="-1032.7343" gradientTransform="matrix(0.9613 0.2758 0.2758 -0.9613 1990.8756 25.6861)">
				<stop  offset="0" style="stop-color:#999FB2"/>
				<stop  offset="0.6388" style="stop-color:#BEC2CC"/>
				<stop  offset="1" style="stop-color:#CDD1D7"/>
			</linearGradient>
			<path class="st41" d="M524.5,683l-2-0.6c0-0.1-0.1-0.1-0.1-0.2l0.9-3c0.1,0,0.1-0.1,0.2-0.1l2,0.6c0,0.1,0.1,0.1,0.1,0.2l-0.9,3
				C524.6,682.9,524.5,682.9,524.5,683z"/>
		</g>
		<g>
			
				<linearGradient id="SVGID_29_" gradientUnits="userSpaceOnUse" x1="-1224.9752" y1="-1036.2267" x2="-1224.9752" y2="-1032.5146" gradientTransform="matrix(0.9613 0.2758 0.2758 -0.9613 1990.8756 25.6861)">
				<stop  offset="0" style="stop-color:#CDD1D7"/>
				<stop  offset="0.3612" style="stop-color:#BEC2CC"/>
				<stop  offset="1" style="stop-color:#999FB2"/>
			</linearGradient>
			<path class="st42" d="M528.6,684.3l-2.3-0.7c-0.1,0-0.2-0.1-0.1-0.3l1-3.3c0-0.1,0.1-0.2,0.3-0.1l2.3,0.7c0.1,0,0.2,0.1,0.1,0.3
				l-1,3.3C528.8,684.2,528.7,684.3,528.6,684.3z"/>
			
				<linearGradient id="SVGID_30_" gradientUnits="userSpaceOnUse" x1="-1225.0371" y1="-1036.0123" x2="-1225.0371" y2="-1032.7343" gradientTransform="matrix(0.9613 0.2758 0.2758 -0.9613 1990.8756 25.6861)">
				<stop  offset="0" style="stop-color:#999FB2"/>
				<stop  offset="0.6388" style="stop-color:#BEC2CC"/>
				<stop  offset="1" style="stop-color:#CDD1D7"/>
			</linearGradient>
			<path class="st43" d="M528.5,684l-2-0.6c0-0.1-0.1-0.1-0.1-0.2l0.9-3c0.1,0,0.1-0.1,0.2-0.1l2,0.6c0,0.1,0.1,0.1,0.1,0.2l-0.9,3
				C528.6,684,528.5,684,528.5,684z"/>
		</g>
		<g>
			
				<linearGradient id="SVGID_31_" gradientUnits="userSpaceOnUse" x1="-1221.0195" y1="-1036.2267" x2="-1221.0195" y2="-1032.5146" gradientTransform="matrix(0.9613 0.2758 0.2758 -0.9613 1990.8756 25.6861)">
				<stop  offset="0" style="stop-color:#CDD1D7"/>
				<stop  offset="0.3612" style="stop-color:#BEC2CC"/>
				<stop  offset="1" style="stop-color:#999FB2"/>
			</linearGradient>
			<path class="st44" d="M532.4,685.4l-2.3-0.7c-0.1,0-0.2-0.1-0.1-0.3l1-3.3c0-0.1,0.1-0.2,0.3-0.1l2.3,0.7c0.1,0,0.2,0.1,0.1,0.3
				l-1,3.3C532.7,685.4,532.6,685.4,532.4,685.4z"/>
			
				<linearGradient id="SVGID_32_" gradientUnits="userSpaceOnUse" x1="-1221.0814" y1="-1036.0123" x2="-1221.0814" y2="-1032.7343" gradientTransform="matrix(0.9613 0.2758 0.2758 -0.9613 1990.8756 25.6861)">
				<stop  offset="0" style="stop-color:#999FB2"/>
				<stop  offset="0.6388" style="stop-color:#BEC2CC"/>
				<stop  offset="1" style="stop-color:#CDD1D7"/>
			</linearGradient>
			<path class="st45" d="M532.3,685.1l-2-0.6c0-0.1-0.1-0.1-0.1-0.2l0.9-3c0.1,0,0.1-0.1,0.2-0.1l2,0.6c0,0.1,0.1,0.1,0.1,0.2
				l-0.9,3C532.4,685.1,532.4,685.1,532.3,685.1z"/>
		</g>
		<g>
			
				<linearGradient id="SVGID_33_" gradientUnits="userSpaceOnUse" x1="-1216.9402" y1="-1036.2267" x2="-1216.9402" y2="-1032.5146" gradientTransform="matrix(0.9613 0.2758 0.2758 -0.9613 1990.8756 25.6861)">
				<stop  offset="0" style="stop-color:#CDD1D7"/>
				<stop  offset="0.3612" style="stop-color:#BEC2CC"/>
				<stop  offset="1" style="stop-color:#999FB2"/>
			</linearGradient>
			<path class="st46" d="M536.3,686.6l-2.3-0.7c-0.1,0-0.2-0.1-0.1-0.3l1-3.3c0-0.1,0.1-0.2,0.3-0.1l2.3,0.7c0.1,0,0.2,0.1,0.1,0.3
				l-1,3.3C536.6,686.5,536.4,686.6,536.3,686.6z"/>
			
				<linearGradient id="SVGID_34_" gradientUnits="userSpaceOnUse" x1="-1217.0021" y1="-1036.0123" x2="-1217.0021" y2="-1032.7343" gradientTransform="matrix(0.9613 0.2758 0.2758 -0.9613 1990.8756 25.6861)">
				<stop  offset="0" style="stop-color:#999FB2"/>
				<stop  offset="0.6388" style="stop-color:#BEC2CC"/>
				<stop  offset="1" style="stop-color:#CDD1D7"/>
			</linearGradient>
			<path class="st47" d="M536.2,686.3l-2-0.6c0-0.1-0.1-0.1-0.1-0.2l0.9-3c0.1,0,0.1-0.1,0.2-0.1l2,0.6c0,0.1,0.1,0.1,0.1,0.2
				l-0.9,3C536.3,686.2,536.3,686.3,536.2,686.3z"/>
		</g>
		<g>
			
				<linearGradient id="SVGID_35_" gradientUnits="userSpaceOnUse" x1="-1212.8884" y1="-1036.2267" x2="-1212.8884" y2="-1032.5146" gradientTransform="matrix(0.9613 0.2758 0.2758 -0.9613 1990.8756 25.6861)">
				<stop  offset="0" style="stop-color:#CDD1D7"/>
				<stop  offset="0.3612" style="stop-color:#BEC2CC"/>
				<stop  offset="1" style="stop-color:#999FB2"/>
			</linearGradient>
			<path class="st48" d="M540.2,687.7l-2.3-0.7c-0.1,0-0.2-0.1-0.1-0.3l1-3.3c0-0.1,0.1-0.2,0.3-0.1l2.3,0.7c0.1,0,0.2,0.1,0.1,0.3
				l-1,3.3C540.4,687.7,540.3,687.7,540.2,687.7z"/>
			
				<linearGradient id="SVGID_36_" gradientUnits="userSpaceOnUse" x1="-1212.9503" y1="-1036.0123" x2="-1212.9503" y2="-1032.7343" gradientTransform="matrix(0.9613 0.2758 0.2758 -0.9613 1990.8756 25.6861)">
				<stop  offset="0" style="stop-color:#999FB2"/>
				<stop  offset="0.6388" style="stop-color:#BEC2CC"/>
				<stop  offset="1" style="stop-color:#CDD1D7"/>
			</linearGradient>
			<path class="st49" d="M540.1,687.4l-2-0.6c0-0.1-0.1-0.1-0.1-0.2l0.9-3c0.1,0,0.1-0.1,0.2-0.1l2,0.6c0,0.1,0.1,0.1,0.1,0.2
				l-0.9,3C540.2,687.4,540.2,687.4,540.1,687.4z"/>
		</g>
		<g>
			
				<linearGradient id="SVGID_37_" gradientUnits="userSpaceOnUse" x1="-1208.8643" y1="-1036.2263" x2="-1208.8643" y2="-1032.5145" gradientTransform="matrix(0.9613 0.2758 0.2758 -0.9613 1990.8756 25.6861)">
				<stop  offset="0" style="stop-color:#CDD1D7"/>
				<stop  offset="0.3612" style="stop-color:#BEC2CC"/>
				<stop  offset="1" style="stop-color:#999FB2"/>
			</linearGradient>
			<path class="st50" d="M544.1,688.7l-2.3-0.7c-0.1,0-0.2-0.1-0.1-0.3l1-3.3c0-0.1,0.1-0.2,0.3-0.1l2.3,0.7c0.1,0,0.2,0.1,0.1,0.3
				l-1,3.3C544.3,688.7,544.2,688.8,544.1,688.7z"/>
			
				<linearGradient id="SVGID_38_" gradientUnits="userSpaceOnUse" x1="-1208.8984" y1="-1036.0123" x2="-1208.8984" y2="-1032.7343" gradientTransform="matrix(0.9613 0.2758 0.2758 -0.9613 1990.8756 25.6861)">
				<stop  offset="0" style="stop-color:#999FB2"/>
				<stop  offset="0.6388" style="stop-color:#BEC2CC"/>
				<stop  offset="1" style="stop-color:#CDD1D7"/>
			</linearGradient>
			<path class="st51" d="M544,688.5l-2-0.6c0-0.1-0.1-0.1-0.1-0.2l0.9-3c0.1,0,0.1-0.1,0.2-0.1l2,0.6c0,0.1,0.1,0.1,0.1,0.2l-0.9,3
				C544.1,688.5,544.1,688.5,544,688.5z"/>
		</g>
		<g>
			
				<linearGradient id="SVGID_39_" gradientUnits="userSpaceOnUse" x1="-1204.6887" y1="-1036.2267" x2="-1204.6887" y2="-1032.5146" gradientTransform="matrix(0.9613 0.2758 0.2758 -0.9613 1990.8756 25.6861)">
				<stop  offset="0" style="stop-color:#CDD1D7"/>
				<stop  offset="0.3612" style="stop-color:#BEC2CC"/>
				<stop  offset="1" style="stop-color:#999FB2"/>
			</linearGradient>
			<path class="st52" d="M548.1,689.9l-2.3-0.7c-0.1,0-0.2-0.1-0.1-0.3l1-3.3c0-0.1,0.1-0.2,0.3-0.1l2.3,0.7c0.1,0,0.2,0.1,0.1,0.3
				l-1,3.3C548.3,689.9,548.2,689.9,548.1,689.9z"/>
			
				<linearGradient id="SVGID_40_" gradientUnits="userSpaceOnUse" x1="-1204.7505" y1="-1036.0123" x2="-1204.7505" y2="-1032.7343" gradientTransform="matrix(0.9613 0.2758 0.2758 -0.9613 1990.8756 25.6861)">
				<stop  offset="0" style="stop-color:#999FB2"/>
				<stop  offset="0.6388" style="stop-color:#BEC2CC"/>
				<stop  offset="1" style="stop-color:#CDD1D7"/>
			</linearGradient>
			<path class="st53" d="M548,689.6l-2-0.6c0-0.1-0.1-0.1-0.1-0.2l0.9-3c0.1,0,0.1-0.1,0.2-0.1l2,0.6c0,0.1,0.1,0.1,0.1,0.2l-0.9,3
				C548.1,689.6,548,689.6,548,689.6z"/>
		</g>
		<g>
			
				<linearGradient id="SVGID_41_" gradientUnits="userSpaceOnUse" x1="-1200.637" y1="-1036.2267" x2="-1200.637" y2="-1032.5146" gradientTransform="matrix(0.9613 0.2758 0.2758 -0.9613 1990.8756 25.6861)">
				<stop  offset="0" style="stop-color:#CDD1D7"/>
				<stop  offset="0.3612" style="stop-color:#BEC2CC"/>
				<stop  offset="1" style="stop-color:#999FB2"/>
			</linearGradient>
			<path class="st54" d="M552,691l-2.3-0.7c-0.1,0-0.2-0.1-0.1-0.3l1-3.3c0-0.1,0.1-0.2,0.3-0.1l2.3,0.7c0.1,0,0.2,0.1,0.1,0.3
				l-1,3.3C552.2,691,552.1,691.1,552,691z"/>
			
				<linearGradient id="SVGID_42_" gradientUnits="userSpaceOnUse" x1="-1200.6711" y1="-1036.0123" x2="-1200.6711" y2="-1032.7343" gradientTransform="matrix(0.9613 0.2758 0.2758 -0.9613 1990.8756 25.6861)">
				<stop  offset="0" style="stop-color:#999FB2"/>
				<stop  offset="0.6388" style="stop-color:#BEC2CC"/>
				<stop  offset="1" style="stop-color:#CDD1D7"/>
			</linearGradient>
			<path class="st55" d="M551.9,690.8l-2-0.6c0-0.1-0.1-0.1-0.1-0.2l0.9-3c0.1,0,0.1-0.1,0.2-0.1l2,0.6c0,0.1,0.1,0.1,0.1,0.2
				l-0.9,3C552,690.7,551.9,690.7,551.9,690.8z"/>
		</g>
		<g>
			
				<linearGradient id="SVGID_43_" gradientUnits="userSpaceOnUse" x1="-1196.6537" y1="-1036.2263" x2="-1196.6537" y2="-1032.5146" gradientTransform="matrix(0.9613 0.2758 0.2758 -0.9613 1990.8756 25.6861)">
				<stop  offset="0" style="stop-color:#CDD1D7"/>
				<stop  offset="0.3612" style="stop-color:#BEC2CC"/>
				<stop  offset="1" style="stop-color:#999FB2"/>
			</linearGradient>
			<path class="st56" d="M555.8,692.2l-2.3-0.7c-0.1,0-0.2-0.1-0.1-0.3l1-3.3c0-0.1,0.1-0.2,0.3-0.1l2.3,0.7c0.1,0,0.2,0.1,0.1,0.3
				l-1,3.3C556.1,692.1,555.9,692.2,555.8,692.2z"/>
			
				<linearGradient id="SVGID_44_" gradientUnits="userSpaceOnUse" x1="-1196.7155" y1="-1036.0121" x2="-1196.7155" y2="-1032.7343" gradientTransform="matrix(0.9613 0.2758 0.2758 -0.9613 1990.8756 25.6861)">
				<stop  offset="0" style="stop-color:#999FB2"/>
				<stop  offset="0.6388" style="stop-color:#BEC2CC"/>
				<stop  offset="1" style="stop-color:#CDD1D7"/>
			</linearGradient>
			<path class="st57" d="M555.7,691.9l-2-0.6c0-0.1-0.1-0.1-0.1-0.2l0.9-3c0.1,0,0.1-0.1,0.2-0.1l2,0.6c0,0.1,0.1,0.1,0.1,0.2
				l-0.9,3C555.8,691.8,555.8,691.9,555.7,691.9z"/>
		</g>
		<g>
			
				<linearGradient id="SVGID_45_" gradientUnits="userSpaceOnUse" x1="-1192.6019" y1="-1036.2263" x2="-1192.6019" y2="-1032.5146" gradientTransform="matrix(0.9613 0.2758 0.2758 -0.9613 1990.8756 25.6861)">
				<stop  offset="0" style="stop-color:#CDD1D7"/>
				<stop  offset="0.3612" style="stop-color:#BEC2CC"/>
				<stop  offset="1" style="stop-color:#999FB2"/>
			</linearGradient>
			<path class="st58" d="M559.7,693.3l-2.3-0.7c-0.1,0-0.2-0.1-0.1-0.3l1-3.3c0-0.1,0.1-0.2,0.3-0.1l2.3,0.7c0.1,0,0.2,0.1,0.1,0.3
				l-1,3.3C559.9,693.3,559.8,693.3,559.7,693.3z"/>
			
				<linearGradient id="SVGID_46_" gradientUnits="userSpaceOnUse" x1="-1192.6637" y1="-1036.0121" x2="-1192.6637" y2="-1032.7343" gradientTransform="matrix(0.9613 0.2758 0.2758 -0.9613 1990.8756 25.6861)">
				<stop  offset="0" style="stop-color:#999FB2"/>
				<stop  offset="0.6388" style="stop-color:#BEC2CC"/>
				<stop  offset="1" style="stop-color:#CDD1D7"/>
			</linearGradient>
			<path class="st59" d="M559.6,693l-2-0.6c0-0.1-0.1-0.1-0.1-0.2l0.9-3c0.1,0,0.1-0.1,0.2-0.1l2,0.6c0,0.1,0.1,0.1,0.1,0.2l-0.9,3
				C559.7,693,559.7,693,559.6,693z"/>
		</g>
		<g>
			
				<linearGradient id="SVGID_47_" gradientUnits="userSpaceOnUse" x1="-1188.454" y1="-1036.2263" x2="-1188.454" y2="-1032.5146" gradientTransform="matrix(0.9613 0.2758 0.2758 -0.9613 1990.8756 25.6861)">
				<stop  offset="0" style="stop-color:#CDD1D7"/>
				<stop  offset="0.3612" style="stop-color:#BEC2CC"/>
				<stop  offset="1" style="stop-color:#999FB2"/>
			</linearGradient>
			<path class="st60" d="M563.7,694.4l-2.3-0.7c-0.1,0-0.2-0.1-0.1-0.3l1-3.3c0-0.1,0.1-0.2,0.3-0.1l2.3,0.7c0.1,0,0.2,0.1,0.1,0.3
				l-1,3.3C563.8,694.3,563.7,694.4,563.7,694.4z"/>
			
				<linearGradient id="SVGID_48_" gradientUnits="userSpaceOnUse" x1="-1188.5159" y1="-1036.0121" x2="-1188.5159" y2="-1032.7343" gradientTransform="matrix(0.9613 0.2758 0.2758 -0.9613 1990.8756 25.6861)">
				<stop  offset="0" style="stop-color:#999FB2"/>
				<stop  offset="0.6388" style="stop-color:#BEC2CC"/>
				<stop  offset="1" style="stop-color:#CDD1D7"/>
			</linearGradient>
			<path class="st61" d="M563.6,694.1l-2-0.6c0-0.1-0.1-0.1-0.1-0.2l0.9-3c0.1,0,0.1-0.1,0.2-0.1l2,0.6c0,0.1,0.1,0.1,0.1,0.2
				l-0.9,3C563.7,694,563.7,694.1,563.6,694.1z"/>
		</g>
		<g>
			
				<linearGradient id="SVGID_49_" gradientUnits="userSpaceOnUse" x1="-1184.4022" y1="-1036.2263" x2="-1184.4022" y2="-1032.5146" gradientTransform="matrix(0.9613 0.2758 0.2758 -0.9613 1990.8756 25.6861)">
				<stop  offset="0" style="stop-color:#CDD1D7"/>
				<stop  offset="0.3612" style="stop-color:#BEC2CC"/>
				<stop  offset="1" style="stop-color:#999FB2"/>
			</linearGradient>
			<path class="st62" d="M567.6,695.5l-2.3-0.7c-0.1,0-0.2-0.1-0.1-0.3l1-3.3c0-0.1,0.1-0.2,0.3-0.1l2.3,0.7c0.1,0,0.2,0.1,0.1,0.3
				l-1,3.3C567.8,695.5,567.7,695.5,567.6,695.5z"/>
			
				<linearGradient id="SVGID_50_" gradientUnits="userSpaceOnUse" x1="-1184.464" y1="-1036.0121" x2="-1184.464" y2="-1032.7343" gradientTransform="matrix(0.9613 0.2758 0.2758 -0.9613 1990.8756 25.6861)">
				<stop  offset="0" style="stop-color:#999FB2"/>
				<stop  offset="0.6388" style="stop-color:#BEC2CC"/>
				<stop  offset="1" style="stop-color:#CDD1D7"/>
			</linearGradient>
			<path class="st63" d="M567.5,695.2l-2-0.6c0-0.1-0.1-0.1-0.1-0.2l0.9-3c0.1,0,0.1-0.1,0.2-0.1l2,0.6c0,0.1,0.1,0.1,0.1,0.2
				l-0.9,3C567.6,695.2,567.5,695.2,567.5,695.2z"/>
		</g>
		<g>
			
				<linearGradient id="SVGID_51_" gradientUnits="userSpaceOnUse" x1="-1180.3505" y1="-1036.2263" x2="-1180.3505" y2="-1032.5146" gradientTransform="matrix(0.9613 0.2758 0.2758 -0.9613 1990.8756 25.6861)">
				<stop  offset="0" style="stop-color:#CDD1D7"/>
				<stop  offset="0.3612" style="stop-color:#BEC2CC"/>
				<stop  offset="1" style="stop-color:#999FB2"/>
			</linearGradient>
			<path class="st64" d="M571.5,696.6l-2.3-0.7c-0.1,0-0.2-0.1-0.1-0.3l1-3.3c0-0.1,0.1-0.2,0.3-0.1l2.3,0.7c0.1,0,0.2,0.1,0.1,0.3
				l-1,3.3C571.7,696.6,571.6,696.7,571.5,696.6z"/>
			
				<linearGradient id="SVGID_52_" gradientUnits="userSpaceOnUse" x1="-1180.3846" y1="-1036.0121" x2="-1180.3846" y2="-1032.7343" gradientTransform="matrix(0.9613 0.2758 0.2758 -0.9613 1990.8756 25.6861)">
				<stop  offset="0" style="stop-color:#999FB2"/>
				<stop  offset="0.6388" style="stop-color:#BEC2CC"/>
				<stop  offset="1" style="stop-color:#CDD1D7"/>
			</linearGradient>
			<path class="st65" d="M571.4,696.4l-2-0.6c0-0.1-0.1-0.1-0.1-0.2l0.9-3c0-0.1,0.1-0.1,0.2-0.1l2,0.6c0,0.1,0.1,0.1,0.1,0.2
				l-0.9,3C571.5,696.3,571.4,696.3,571.4,696.4z"/>
		</g>
		<g>
			
				<linearGradient id="SVGID_53_" gradientUnits="userSpaceOnUse" x1="-1176.3672" y1="-1036.2263" x2="-1176.3672" y2="-1032.5146" gradientTransform="matrix(0.9613 0.2758 0.2758 -0.9613 1990.8756 25.6861)">
				<stop  offset="0" style="stop-color:#CDD1D7"/>
				<stop  offset="0.3612" style="stop-color:#BEC2CC"/>
				<stop  offset="1" style="stop-color:#999FB2"/>
			</linearGradient>
			<path class="st66" d="M575.3,697.8l-2.3-0.7c-0.1,0-0.2-0.1-0.1-0.3l1-3.3c0-0.1,0.1-0.2,0.3-0.1l2.3,0.7c0.1,0,0.2,0.1,0.1,0.3
				l-1,3.3C575.6,697.7,575.5,697.8,575.3,697.8z"/>
			
				<linearGradient id="SVGID_54_" gradientUnits="userSpaceOnUse" x1="-1176.429" y1="-1036.0121" x2="-1176.429" y2="-1032.7343" gradientTransform="matrix(0.9613 0.2758 0.2758 -0.9613 1990.8756 25.6861)">
				<stop  offset="0" style="stop-color:#999FB2"/>
				<stop  offset="0.6388" style="stop-color:#BEC2CC"/>
				<stop  offset="1" style="stop-color:#CDD1D7"/>
			</linearGradient>
			<path class="st67" d="M575.2,697.5l-2-0.6c0-0.1-0.1-0.1-0.1-0.2l0.9-3c0.1,0,0.1-0.1,0.2-0.1l2,0.6c0,0.1,0.1,0.1,0.1,0.2
				l-0.9,3C575.3,697.5,575.3,697.5,575.2,697.5z"/>
		</g>
		<g>
			
				<linearGradient id="SVGID_55_" gradientUnits="userSpaceOnUse" x1="-1172.3429" y1="-1036.2263" x2="-1172.3429" y2="-1032.5146" gradientTransform="matrix(0.9613 0.2758 0.2758 -0.9613 1990.8756 25.6861)">
				<stop  offset="0" style="stop-color:#CDD1D7"/>
				<stop  offset="0.3612" style="stop-color:#BEC2CC"/>
				<stop  offset="1" style="stop-color:#999FB2"/>
			</linearGradient>
			<path class="st68" d="M579.2,698.8l-2.3-0.7c-0.1,0-0.2-0.1-0.1-0.3l1-3.3c0-0.1,0.1-0.2,0.3-0.1l2.3,0.7c0.1,0,0.2,0.1,0.1,0.3
				l-1,3.3C579.5,698.8,579.3,698.9,579.2,698.8z"/>
			
				<linearGradient id="SVGID_56_" gradientUnits="userSpaceOnUse" x1="-1172.3772" y1="-1036.0121" x2="-1172.3772" y2="-1032.7341" gradientTransform="matrix(0.9613 0.2758 0.2758 -0.9613 1990.8756 25.6861)">
				<stop  offset="0" style="stop-color:#999FB2"/>
				<stop  offset="0.6388" style="stop-color:#BEC2CC"/>
				<stop  offset="1" style="stop-color:#CDD1D7"/>
			</linearGradient>
			<path class="st69" d="M579.1,698.6l-2-0.6c0-0.1-0.1-0.1-0.1-0.2l0.9-3c0-0.1,0.1-0.1,0.2-0.1l2,0.6c0,0.1,0.1,0.1,0.1,0.2
				l-0.9,3C579.2,698.5,579.2,698.5,579.1,698.6z"/>
		</g>
		<g>
			
				<linearGradient id="SVGID_57_" gradientUnits="userSpaceOnUse" x1="-1168.1675" y1="-1036.2263" x2="-1168.1675" y2="-1032.5146" gradientTransform="matrix(0.9613 0.2758 0.2758 -0.9613 1990.8756 25.6861)">
				<stop  offset="0" style="stop-color:#CDD1D7"/>
				<stop  offset="0.3612" style="stop-color:#BEC2CC"/>
				<stop  offset="1" style="stop-color:#999FB2"/>
			</linearGradient>
			<path class="st70" d="M583.2,700l-2.3-0.7c-0.1,0-0.2-0.1-0.1-0.3l1-3.3c0-0.1,0.1-0.2,0.3-0.1l2.3,0.7c0.1,0,0.2,0.1,0.1,0.3
				l-1,3.3C583.4,699.9,583.3,700,583.2,700z"/>
			
				<linearGradient id="SVGID_58_" gradientUnits="userSpaceOnUse" x1="-1168.2294" y1="-1036.0121" x2="-1168.2294" y2="-1032.7341" gradientTransform="matrix(0.9613 0.2758 0.2758 -0.9613 1990.8756 25.6861)">
				<stop  offset="0" style="stop-color:#999FB2"/>
				<stop  offset="0.6388" style="stop-color:#BEC2CC"/>
				<stop  offset="1" style="stop-color:#CDD1D7"/>
			</linearGradient>
			<path class="st71" d="M583.1,699.7l-2-0.6c0-0.1-0.1-0.1-0.1-0.2l0.9-3c0.1,0,0.1-0.1,0.2-0.1l2,0.6c0,0.1,0.1,0.1,0.1,0.2
				l-0.9,3C583.2,699.6,583.2,699.7,583.1,699.7z"/>
		</g>
		<g>
			
				<linearGradient id="SVGID_59_" gradientUnits="userSpaceOnUse" x1="-1164.1157" y1="-1036.2263" x2="-1164.1157" y2="-1032.5146" gradientTransform="matrix(0.9613 0.2758 0.2758 -0.9613 1990.8756 25.6861)">
				<stop  offset="0" style="stop-color:#CDD1D7"/>
				<stop  offset="0.3612" style="stop-color:#BEC2CC"/>
				<stop  offset="1" style="stop-color:#999FB2"/>
			</linearGradient>
			<path class="st72" d="M587.1,701.1l-2.3-0.7c-0.1,0-0.2-0.1-0.1-0.3l1-3.3c0-0.1,0.1-0.2,0.3-0.1l2.3,0.7c0.1,0,0.2,0.1,0.1,0.3
				l-1,3.3C587.3,701.1,587.2,701.1,587.1,701.1z"/>
			
				<linearGradient id="SVGID_60_" gradientUnits="userSpaceOnUse" x1="-1164.1775" y1="-1036.0134" x2="-1164.1775" y2="-1032.7357" gradientTransform="matrix(0.9613 0.2758 0.2758 -0.9613 1990.8756 25.6861)">
				<stop  offset="0" style="stop-color:#999FB2"/>
				<stop  offset="0.6388" style="stop-color:#BEC2CC"/>
				<stop  offset="1" style="stop-color:#CDD1D7"/>
			</linearGradient>
			<path class="st73" d="M587,700.8l-2-0.6c0-0.1-0.1-0.1-0.1-0.2l0.9-3c0-0.1,0.1-0.1,0.2-0.1l2,0.6c0,0.1,0.1,0.1,0.1,0.2l-0.9,3
				C587.1,700.8,587.1,700.8,587,700.8z"/>
		</g>
	</g>
	<g>
		<path class="st16" d="M481.6,690c0,0,11.8-6.9,32.3-2.5c16.9,3.5,48.4,14.5,49,18.3c0.3,1.9-1.2,1.4,0.9,3.1l52,27.6l-9-1.3
			L481.6,690z"/>
		
			<linearGradient id="SVGID_61_" gradientUnits="userSpaceOnUse" x1="498.4" y1="3.3745" x2="605.4" y2="3.3745" gradientTransform="matrix(1 0 0 -1 0 712)">
			<stop  offset="0" style="stop-color:#CDD1D7"/>
			<stop  offset="0.6983" style="stop-color:#DCDDDF"/>
			<stop  offset="1" style="stop-color:#E4E4E4"/>
		</linearGradient>
		<path class="st74" d="M498.4,686.1l107,45.1l-41.8-22.3c-2.1-1.8-0.6-1.4-0.9-3.1c-0.6-3.9-32.2-14.8-49-18.3
			C507.9,686.3,502.8,685.9,498.4,686.1z"/>
	</g>
	<g>
		
			<linearGradient id="SVGID_62_" gradientUnits="userSpaceOnUse" x1="598.3" y1="26.8944" x2="656" y2="26.8944" gradientTransform="matrix(1 0 0 -1 0 712)">
			<stop  offset="0" style="stop-color:#F5841F"/>
			<stop  offset="0.1793" style="stop-color:#F5861F"/>
			<stop  offset="0.4088" style="stop-color:#F68D20"/>
			<stop  offset="0.6654" style="stop-color:#F79735"/>
			<stop  offset="0.94" style="stop-color:#F9A655"/>
			<stop  offset="1" style="stop-color:#F8AA5C"/>
		</linearGradient>
		<path class="st75" d="M598.3,690.6c6.1-0.7,33-14.4,43.5-19.8c2.7-1.4,5.9-1.7,8.8-0.7l5.4,1.9l-22.8,28.7L598.3,690.6z"/>
		
			<linearGradient id="SVGID_63_" gradientUnits="userSpaceOnUse" x1="-1466.6989" y1="190.507" x2="-1473.0411" y2="204.5263" gradientTransform="matrix(0.9966 -8.220000e-02 -8.220000e-02 -0.9966 2108.4441 757.3763)">
			<stop  offset="0" style="stop-color:#CDD1D7"/>
			<stop  offset="0.3612" style="stop-color:#BEC2CC"/>
			<stop  offset="1" style="stop-color:#999FB2"/>
		</linearGradient>
		<path class="st76" d="M641.3,673.1c2.7-1.4,5.9-1.7,8.8-0.7l4.4,1.5l1.6-2l-5.4-1.9c-2.9-1-6.1-0.8-8.8,0.7
			c-10.5,5.5-37.4,19.1-43.5,19.8l0,0C606.5,693,632.4,677.7,641.3,673.1z"/>
	</g>
	<g>
		
			<linearGradient id="SVGID_64_" gradientUnits="userSpaceOnUse" x1="616.5" y1="3.8" x2="655.9" y2="3.8" gradientTransform="matrix(1 0 0 -1 0 712)">
			<stop  offset="0" style="stop-color:#F5841F"/>
			<stop  offset="0.1793" style="stop-color:#F5861F"/>
			<stop  offset="0.4088" style="stop-color:#F68D20"/>
			<stop  offset="0.6654" style="stop-color:#F79735"/>
			<stop  offset="0.94" style="stop-color:#F9A655"/>
			<stop  offset="1" style="stop-color:#F8AA5C"/>
		</linearGradient>
		<path class="st77" d="M616.5,702.1c0.6-0.4,31.1,12.4,31.1,12.4l8.3,1.1l-22.3-13.2l-13.7-1.6L616.5,702.1z"/>
		
			<linearGradient id="SVGID_65_" gradientUnits="userSpaceOnUse" x1="-1454.2769" y1="153.7255" x2="-1469.5236" y2="187.4288" gradientTransform="matrix(0.9966 -8.220000e-02 -8.220000e-02 -0.9966 2108.4441 757.3763)">
			<stop  offset="0" style="stop-color:#CDD1D7"/>
			<stop  offset="0.3612" style="stop-color:#BEC2CC"/>
			<stop  offset="1" style="stop-color:#999FB2"/>
		</linearGradient>
		<polygon class="st78" points="619.7,700.7 655.9,715.5 633.5,702.3 		"/>
	</g>
</g>
<g>
	<g>
		<rect x="300" y="892.9" class="st79" width="110.3" height="55.5"/>
		<rect x="384.8" y="827.8" class="st79" width="171.7" height="109.4"/>
		<rect x="506.2" y="966.8" class="st79" width="71.1" height="53.3"/>
	</g>
	<g>
		<g>
			<rect x="286.2" y="850.4" class="st80" width="72.1" height="31.8"/>
			<rect x="464.4" y="947.4" class="st80" width="71.1" height="54.4"/>
		</g>
		<g>
			<rect x="394" y="835" class="st81" width="152.8" height="31.3"/>
			<rect x="394" y="872.7" class="st81" width="71.4" height="31.8"/>
			<rect x="474.1" y="872.7" class="st81" width="72.7" height="31.8"/>
			<rect x="394" y="910.4" class="st81" width="152.8" height="16.2"/>
		</g>
	</g>
</g>
<g>
	<path class="st82" d="M595,1193.4c0,2.1-56.5,11.7-75.2,11.7s-23.4,8.1-54.5,6.3c-11.5-0.7-38.4-12.6-42.9-12.6
		c-95.4,0-172.6-2.4-172.6-5.4c0-2.9,77.3-5.4,172.6-5.4c34.3,0,76-0.5,102.8,0C573,1189,595,1191.5,595,1193.4z"/>
	<g>
		<g>
			<g>
				<polygon class="st83" points="323.5,1163.9 313.6,1197.4 317.4,1197.4 328.7,1163.9 				"/>
				<polygon class="st84" points="336.6,1163.9 328.7,1163.9 317.4,1197.4 322,1197.4 				"/>
			</g>
			<g>
				<polygon class="st83" points="271.8,1159.5 261.9,1192.9 265.8,1192.9 277,1159.5 				"/>
				<polygon class="st84" points="285,1159.5 277,1159.5 265.8,1192.9 270.4,1192.9 				"/>
			</g>
		</g>
		<g>
			<g>
				<polygon class="st83" points="519.1,1154.6 529,1188 525.1,1188 514,1154.6 				"/>
				<polygon class="st84" points="506,1154.6 514,1154.6 525.1,1188 520.5,1188 				"/>
			</g>
			<g>
				<polygon class="st83" points="570.7,1159.5 580.6,1192.9 576.8,1192.9 565.5,1159.5 				"/>
				<polygon class="st84" points="557.6,1159.5 565.5,1159.5 576.8,1192.9 572.2,1192.9 				"/>
			</g>
		</g>
		<g>
			
				<linearGradient id="SVGID_66_" gradientUnits="userSpaceOnUse" x1="398.7003" y1="-353.0706" x2="398.7003" y2="-415.6375" gradientTransform="matrix(1 0 0 -1 0 712)">
				<stop  offset="0" style="stop-color:#008CA6"/>
				<stop  offset="1" style="stop-color:#00435B"/>
			</linearGradient>
			<path class="st85" d="M484,998.3h-26.3H279l27.9,125.1h185.6h25.9v-90.5C518.5,1013.8,503.1,998.3,484,998.3z"/>
			
				<linearGradient id="SVGID_67_" gradientUnits="userSpaceOnUse" x1="292.9503" y1="-313.6304" x2="292.9503" y2="-412.0839" gradientTransform="matrix(1 0 0 -1 0 712)">
				<stop  offset="5.380000e-02" style="stop-color:#005078"/>
				<stop  offset="1" style="stop-color:#172B54"/>
			</linearGradient>
			<path class="st86" d="M279,998.3v125.1h27.9v-97C307,1010.9,294.5,998.3,279,998.3L279,998.3z"/>
		</g>
		
			<linearGradient id="SVGID_68_" gradientUnits="userSpaceOnUse" x1="541.35" y1="-379.9031" x2="541.35" y2="-415.856" gradientTransform="matrix(1 0 0 -1 0 712)">
			<stop  offset="5.380000e-02" style="stop-color:#005078"/>
			<stop  offset="1" style="stop-color:#172B54"/>
		</linearGradient>
		<path class="st87" d="M585.5,1162.8v-90.6h-62.6c-14.2,0-25.7,11.5-25.7,25.7v73h55.9h24.3L585.5,1162.8z"/>
		<path class="st88" d="M585.5,1072.2L585.5,1072.2v90.6c0,4.5-3.6,8.1-8.1,8.1h-24.3v-66.3C553.1,1086.8,567.6,1072.2,585.5,1072.2
			z"/>
		
			<linearGradient id="SVGID_69_" gradientUnits="userSpaceOnUse" x1="451.95" y1="-418.0969" x2="451.95" y2="-412.0593" gradientTransform="matrix(1 0 0 -1 0 712)">
			<stop  offset="5.380000e-02" style="stop-color:#005078"/>
			<stop  offset="1" style="stop-color:#172B54"/>
		</linearGradient>
		<rect x="346.2" y="1123.4" class="st89" width="211.5" height="40.5"/>
		<rect x="346.2" y="1130.6" class="st88" width="211.5" height="40.5"/>
		<path class="st88" d="M315.2,1072.2L315.2,1072.2c17.9,0,32.4,14.5,32.4,32.4v66.3h-32.4V1072.2z"/>
		
			<linearGradient id="SVGID_70_" gradientUnits="userSpaceOnUse" x1="286.4993" y1="-364.553" x2="286.4993" y2="-504.8549" gradientTransform="matrix(1 0 0 -1 0 712)">
			<stop  offset="5.380000e-02" style="stop-color:#005078"/>
			<stop  offset="1" style="stop-color:#172B54"/>
		</linearGradient>
		<path class="st90" d="M269.1,1170.9h46.1v-98.7h-47.8c-5.3,0-9.6,4.3-9.6,9.6v77.7C257.7,1165.9,262.8,1170.9,269.1,1170.9z"/>
	</g>
	<g>
		<g>
			<g>
				
					<linearGradient id="SVGID_71_" gradientUnits="userSpaceOnUse" x1="384.4494" y1="-310.5976" x2="413.1136" y2="-310.5976" gradientTransform="matrix(1 0 0 -1 0 712)">
					<stop  offset="0" style="stop-color:#689AD1"/>
					<stop  offset="1" style="stop-color:#223972;stop-opacity:0.9697"/>
				</linearGradient>
				<path class="st91" d="M402.9,1053.6c2.5-4.4,6.1-8.2,10.2-11.1c-2.1-1.9-7.2-6.7-7.4-7.4c-0.2-0.7-0.3-28.5-0.1-34.4
					c0.1-3.3-1.1-7.1-4-8.5c-2.3-1.1-5.1-0.6-7.3,0.7c-4.5,2.7-6.7,8-8.3,12.9c-4.5,13.4,2.8,36.6,3,37.4
					C389.4,1044.4,398.7,1051.5,402.9,1053.6z"/>
				
					<linearGradient id="SVGID_72_" gradientUnits="userSpaceOnUse" x1="402.9029" y1="-340.7497" x2="433.0041" y2="-340.7497" gradientTransform="matrix(1 0 0 -1 0 712)">
					<stop  offset="0" style="stop-color:#F8E6DA"/>
					<stop  offset="1" style="stop-color:#F9B8AA;stop-opacity:0.9697"/>
				</linearGradient>
				<path class="st92" d="M413.2,1042.5l19.9,16.6l-2.1,3.9l-28-9.3C402.9,1053.6,409.2,1042.4,413.2,1042.5z"/>
				<g>
					<polygon class="st93" points="433.1,1059 439.4,1073.4 438.1,1075 430,1068.1 430.9,1062.9 					"/>
					<polygon class="st93" points="434.5,1071.8 433.1,1076.1 429.5,1078.5 429.4,1077.7 431.8,1075.2 433.2,1070.8 					"/>
					<polygon class="st93" points="436,1072.5 435.5,1077 432.6,1080.2 432.2,1079.4 434.1,1076.3 434.5,1071.7 					"/>
					<polygon class="st93" points="437.6,1073.1 438,1077.6 435.6,1081.2 435.2,1080.6 436.4,1077.2 435.9,1072.7 					"/>
					<polygon class="st93" points="439.4,1073.4 439.8,1077.8 437.4,1081.4 437,1080.9 438.2,1077.4 437.7,1072.9 					"/>
				</g>
			</g>
			
				<linearGradient id="SVGID_73_" gradientUnits="userSpaceOnUse" x1="342.635" y1="-322.3974" x2="411.9" y2="-322.3974" gradientTransform="matrix(1 0 0 -1 0 712)">
				<stop  offset="0" style="stop-color:#689AD1"/>
				<stop  offset="1" style="stop-color:#223972;stop-opacity:0.9697"/>
			</linearGradient>
			<path class="st94" d="M376,970.8c-1.6,0-3,0.6-4.5,1.2c-8.1,3.3-16.2,6.6-24.3,9.9c-1.4,0.5-2.7,1.2-3.5,2.4
				c-0.7,1.1-0.8,2.5-0.9,3.7c-1.5,34.3,7.4,77.9,19.6,110c16.4,0.2,32.8-6.7,49.5-9.8c-8.2-22.3-12.5-59.2-3.7-81.2
				c1.6-3.9,0.9-10.9-0.7-14.8c-0.7-1.8-16.7-15.7-26.7-20.1C379.4,971.4,377.7,970.7,376,970.8z"/>
			<g>
				
					<linearGradient id="SVGID_74_" gradientUnits="userSpaceOnUse" x1="332.9" y1="-312.7207" x2="366.4864" y2="-312.7207" gradientTransform="matrix(1 0 0 -1 0 712)">
					<stop  offset="0" style="stop-color:#689AD1"/>
					<stop  offset="1" style="stop-color:#223972;stop-opacity:0.97"/>
				</linearGradient>
				<path class="st95" d="M359,1065.9c1.3-6,3.8-11.8,7.4-16.7c-3-1.4-10.8-4.9-11.4-5.7c-0.7-0.8,0.4-44.8-1.7-51.7
					c-1.2-3.8-3.9-7.7-7.8-8.2c-3-0.4-6.1,1.3-8,3.6c-4.1,4.8-4.6,11.7-4.6,18c0,17.2,5.6,53.1,6.2,54
					C339.9,1060.4,353.4,1065.1,359,1065.9z"/>
				
					<linearGradient id="SVGID_75_" gradientUnits="userSpaceOnUse" x1="359" y1="-345.5003" x2="395.6" y2="-345.5003" gradientTransform="matrix(1 0 0 -1 0 712)">
					<stop  offset="0" style="stop-color:#F8E6DA"/>
					<stop  offset="1" style="stop-color:#F9B8AA;stop-opacity:0.9697"/>
				</linearGradient>
				<path class="st96" d="M366.5,1049.2l29.1,11.4l-0.9,5.2H359C359,1065.9,361.8,1050.6,366.5,1049.2z"/>
				<g>
					
						<linearGradient id="SVGID_76_" gradientUnits="userSpaceOnUse" x1="394.6745" y1="-356.7" x2="408.2511" y2="-356.7" gradientTransform="matrix(1 0 0 -1 0 712)">
						<stop  offset="0" style="stop-color:#F8E6DA"/>
						<stop  offset="1" style="stop-color:#F9B8AA;stop-opacity:0.9697"/>
					</linearGradient>
					<polygon class="st97" points="395.6,1060.6 408.3,1074.6 407.5,1076.8 395.6,1072.1 394.7,1065.9 					"/>
					
						<linearGradient id="SVGID_77_" gradientUnits="userSpaceOnUse" x1="398.4857" y1="-367.15" x2="402.1191" y2="-367.15" gradientTransform="matrix(1 0 0 -1 0 712)">
						<stop  offset="0" style="stop-color:#F8E6DA"/>
						<stop  offset="1" style="stop-color:#F9B8AA;stop-opacity:0.9697"/>
					</linearGradient>
					<polygon class="st98" points="402.1,1074.7 402.1,1080.2 399,1084.3 398.5,1083.4 400.3,1079.5 400.2,1074 					"/>
					
						<linearGradient id="SVGID_78_" gradientUnits="userSpaceOnUse" x1="402.1191" y1="-367.75" x2="405.297" y2="-367.75" gradientTransform="matrix(1 0 0 -1 0 712)">
						<stop  offset="0" style="stop-color:#F8E6DA"/>
						<stop  offset="1" style="stop-color:#F9B8AA;stop-opacity:0.9697"/>
					</linearGradient>
					<polygon class="st99" points="404.2,1074.9 405.3,1080.2 403.2,1084.9 402.5,1084.2 403.4,1080 402.1,1074.6 					"/>
					
						<linearGradient id="SVGID_79_" gradientUnits="userSpaceOnUse" x1="404.1516" y1="-368.05" x2="408.3437" y2="-368.05" gradientTransform="matrix(1 0 0 -1 0 712)">
						<stop  offset="0" style="stop-color:#F8E6DA"/>
						<stop  offset="1" style="stop-color:#F9B8AA;stop-opacity:0.9697"/>
					</linearGradient>
					<polygon class="st100" points="406.2,1075 408.4,1080 407.1,1085.1 406.3,1084.5 406.4,1080.2 404.2,1075.1 					"/>
					
						<linearGradient id="SVGID_80_" gradientUnits="userSpaceOnUse" x1="406.2473" y1="-367.6" x2="410.4394" y2="-367.6" gradientTransform="matrix(1 0 0 -1 0 712)">
						<stop  offset="0" style="stop-color:#F8E6DA"/>
						<stop  offset="1" style="stop-color:#F9B8AA;stop-opacity:0.9697"/>
					</linearGradient>
					<polygon class="st101" points="408.3,1074.6 410.4,1079.6 409.3,1084.6 408.5,1084 408.6,1079.7 406.2,1074.7 					"/>
				</g>
			</g>
		</g>
		<polygon class="st93" points="434.5,1071.6 433.7,1077.5 434.9,1077.5 436.3,1073.7 		"/>
		<g>
			<polygon class="st83" points="480.3,1110 464.4,1102.6 390.2,1124.7 449.5,1127.3 449.5,1136.7 456.5,1156.1 478.6,1123.4 			"/>
			<polygon class="st102" points="470.1,1198.7 478.6,1123.4 451.9,1143.6 460.5,1199 			"/>
			<path class="st84" d="M536.7,1137.4c-0.2-0.4-46.7-40.5-46.7-40.5l-15.4-7.8l-4.7,22.9l57.5,28.3
				C527.6,1140.3,536.7,1137.4,536.7,1137.4z"/>
			<path class="st84" d="M362.7,1097.8l5.6,16.3c4.2,12.3,17.6,19.5,31.1,16.9l74.5-18.8c5.9-1.2,10.1-6.1,10.1-11.8l0,0
				c0-6.7-5.7-12-12.7-12l-67.7,0.3L362.7,1097.8z"/>
		</g>
		
			<radialGradient id="SVGID_81_" cx="481.4461" cy="-323.8499" r="162.2488" gradientTransform="matrix(1 0 0 -1 0 712)" gradientUnits="userSpaceOnUse">
			<stop  offset="1.060000e-02" style="stop-color:#EDEAD3"/>
			<stop  offset="1" style="stop-color:#FDD7AD;stop-opacity:0"/>
		</radialGradient>
		<path class="st103" d="M506,1040.6l140.4-58.1l-38.5-71.8C571.6,863.3,498,846,431.8,851.6l-51.6,10.2l62,180.8L506,1040.6z"/>
		<g>
			<g>
				<path class="st104" d="M589.6,807.3c-0.5-0.5-0.4-0.3-0.5-0.3C589.9,807.8,589.6,807.2,589.6,807.3z"/>
				<polygon class="st104" points="596.3,816.1 596.2,815.9 597,817.4 				"/>
				<path class="st104" d="M600.1,825.8c0-0.5-0.3-1.4-0.7-2.5c-0.4-1-0.8-2.1-1.1-2.9l-0.1-0.3l-0.5-0.7
					C598.8,821.5,599.7,824.2,600.1,825.8z"/>
				<path class="st104" d="M600.8,831.3c0-0.4,0.3,1.2-0.2-1.3c0,0.1,0,0.2,0,0.2C600.7,830.5,600.7,830.8,600.8,831.3z"/>
				<path class="st104" d="M600.6,830.3C600.4,829.2,600.7,831,600.6,830.3L600.6,830.3z"/>
				<path class="st104" d="M601.2,835.3c0-0.5-0.1-1-0.1-1.5c0,0.3,0,1.6,0,1.1C601.1,836.4,601.1,836.1,601.2,835.3z"/>
				<path class="st104" d="M601.4,836.6l-0.1-0.8C601.3,836,601.3,836.2,601.4,836.6z"/>
				<path class="st104" d="M601.2,834.3l0.1,1.6c0-0.2,0.1-0.2,0-0.7C601.3,835.3,601.3,835,601.2,834.3z"/>
				<path class="st104" d="M601.1,833.4c0-0.8-0.1-1.9,0.1-0.4c-0.1-1.4-0.3-2-0.3-1.9C600.9,831.3,601,832.1,601.1,833.4z"/>
				<path class="st104" d="M600.4,826.3c-0.1-0.4-0.1-0.7-0.2-1.1l-0.3-0.9C600,824.7,600.4,826.3,600.4,826.3z"/>
				<path class="st104" d="M600.5,844.1c0,0.1,0.2-0.5,0.3-0.6l0.1-1.1C600.8,843,600.6,844.1,600.5,844.1z"/>
				<path class="st104" d="M600.7,843.6l-0.2,1.6C600.8,843.8,600.8,843.5,600.7,843.6z"/>
				<path class="st104" d="M601.6,836.9l-0.2-2.6c0.1,1.1,0.2,2.1,0.2,3.1C601.6,837.3,601.6,837.1,601.6,836.9z"/>
				<polygon class="st104" points="599,850 599.2,849.1 598.8,850.7 				"/>
				<path class="st104" d="M597.6,853.7c0.2-0.6-0.5,0.8-0.3,0.1c-0.5,1-0.8,1.9-1.1,2.6C596.7,855.8,597,854.9,597.6,853.7z"/>
				<path class="st104" d="M595.7,857.8c0.2-0.4,0.4-0.8,0.6-1.3C596,857,595.8,857.4,595.7,857.8z"/>
				<path class="st104" d="M599.9,847.8c0,0.1-0.2,0.3-0.5,1.2l0.3-0.6C599.8,848.2,599.8,848,599.9,847.8z"/>
				<path class="st104" d="M599.7,848.4L599.7,848.4c-0.2,0.7-0.4,1.1-0.4,1.3C599.3,849.5,599.5,849.1,599.7,848.4z"/>
				<path class="st104" d="M599.9,847.7c0,0.1,0,0.1,0,0.2C599.9,847.7,599.9,847.7,599.9,847.7z"/>
				<path class="st104" d="M601.3,841.1c0,1-0.2,2.9,0.1,1C601.4,841.4,601.2,842.5,601.3,841.1z"/>
				<path class="st104" d="M600.3,847l0.4-1.7c0,0-0.1,0.3-0.1-0.1L600.3,847z"/>
				<polygon class="st104" points="600.1,847.7 600.3,847 600.1,847.6 				"/>
				<path class="st104" d="M597.1,855.3c-0.2,0.7-0.6,1.4-1.1,2.2c0.5-0.9,1-1.8,1.4-2.6C597.4,854.7,597.5,854.3,597.1,855.3z"/>
				<path class="st104" d="M598.6,852c0,0,0,0.1-0.1,0.2C598.6,852.1,598.6,852,598.6,852z"/>
				<polygon class="st104" points="591.2,865 591.3,864.9 591.3,864.8 				"/>
				<path class="st104" d="M597.5,854.7c0.3-0.7,0.5-1.1,0.6-1.5C597.9,853.7,597.6,854.2,597.5,854.7
					C597.4,854.9,597.4,855,597.5,854.7z"/>
				<path class="st104" d="M594.4,860c0.2-0.3,0.5-0.7,0.7-1.1C594.9,859.2,594.5,859.9,594.4,860z"/>
				<path class="st104" d="M598.4,852.4L598.4,852.4C598.3,852.5,598.3,852.5,598.4,852.4z"/>
				<path class="st104" d="M598.4,852.4c-0.1,0.4-0.2,0.7-0.3,0.9c0.1-0.4,0.3-0.8,0.4-1.2C598.5,852.3,598.4,852.3,598.4,852.4z"/>
				<path class="st104" d="M590,867.5c0-0.2,1.2-1.7,2.3-3c0.9-1.4,0-0.7-1,0.3c0,0.1,0.1,0.1-1,1.5c0.4-0.4,2.4-2.9,1.6-1.7
					c-1.3,1.9-1.2,1.5-1.9,2.3c0.7-0.6-1.7,2.4-1.3,2.1c0.4-0.5,0.8-1,1.3-1.6C590.1,867.4,589.6,867.9,590,867.5z"/>
				<path class="st104" d="M593.2,862.3l0.4-0.6c-0.5,0.7-0.8,1.1-1.5,1.9c-0.7,1-0.8,1.2-0.8,1.3l1.1-1.4l1-1.4L593.2,862.3z"/>
				<path class="st104" d="M595.2,859c-0.2,0.5-1,2-0.4,1.2c1.1-1.8,0.7-1.3,1.2-2.4C594.4,860.8,596.4,857.1,595.2,859
					c0.4-0.6,0.6-1.1,0.9-1.6C595.8,857.9,595.5,858.4,595.2,859c0-0.1,0-0.1,0-0.2l0,0l0,0c0.1-0.1,0.1-0.2,0,0
					C595.2,858.8,595.2,858.8,595.2,859L595.2,859c-0.5,0.8-0.1,0.1,0-0.2l0,0l0,0c-0.6,1-1.1,1.9-1.7,2.8
					C593.9,861.2,594.3,860.4,595.2,859z"/>
				<path class="st104" d="M601.4,843.8C601.4,843.9,601.4,843.9,601.4,843.8C601.3,844.1,601.3,844.2,601.4,843.8z"/>
				<path class="st104" d="M601.1,845.2c0-0.2,0-0.5,0.2-1.2c0.1-0.7,0.1,0,0.1,0c0-0.5,0.2-1.7-0.1-0.2v0.2
					c-0.2,1.3-0.8,2.9-0.8,2.7C600.6,846.4,600.8,846,601.1,845.2z"/>
				<path class="st104" d="M598.6,852.5c-0.3,0.9-0.7,1.7-1,2.5l0.7-1.3h-0.1C598.8,852.4,598.6,852.7,598.6,852.5z"/>
				<path class="st104" d="M590.9,865.2l0.1-0.4c-0.3,0.5-0.5,0.9-0.9,1.4C590.5,865.9,590.7,865.5,590.9,865.2z"/>
				<path class="st104" d="M588.7,867.9v-0.2c-0.2,0.3-0.4,0.5-0.6,0.8L588.7,867.9z"/>
				<path class="st104" d="M557.4,945.9l-0.3-0.7C557.2,945.5,557.3,945.7,557.4,945.9z"/>
				<path class="st104" d="M558.7,951.4L558.7,951.4C558.7,951.3,558.7,951.2,558.7,951.4z"/>
				<path class="st104" d="M520.5,922.9c-0.8,0.9-1.6,2-1.5,1.9l0.3-0.3C519.8,923.8,520.2,923.3,520.5,922.9z"/>
				<path class="st104" d="M527.8,975.4c-0.1-0.1-0.2-0.1-0.3-0.2c-0.3-0.1-0.6-0.1-0.8-0.2C527,975.2,527.4,975.3,527.8,975.4z"/>
				<path class="st104" d="M528.7,975.2c0.5,0.2,1,0.3,1.5,0.5C529.8,975.6,529.3,975.5,528.7,975.2z"/>
				<path class="st104" d="M532.3,931.1l-0.9,0.1C532.8,931.2,532.2,931.2,532.3,931.1z"/>
				<path class="st104" d="M560.2,890.6c-0.9,0.5-1.6,0.9-2.2,1.3C559.1,891.3,560,890.9,560.2,890.6z"/>
				<path class="st104" d="M559.2,947.6c-0.2-0.5-0.2-0.7-0.3-0.7C559.1,947.5,559.2,947.8,559.2,947.6z"/>
				<path class="st104" d="M555.5,893.4c0.2-0.1,0.3-0.2,0.5-0.3c0.6-0.4,1.3-0.8,2.1-1.3C557.3,892.4,556.4,892.8,555.5,893.4z"/>
				<path class="st104" d="M476.4,1015.9c0,0.1,0,0.2,0,0.3C476.4,1016.2,476.4,1016.1,476.4,1015.9z"/>
				<path class="st104" d="M482.6,1049.1c-0.1-0.3-0.2-0.9-0.4-1.4C482.3,1048,482.4,1048.4,482.6,1049.1z"/>
				<path class="st104" d="M578.4,877.8C578.9,877.4,578.5,877.7,578.4,877.8L578.4,877.8z"/>
				<path class="st104" d="M581.5,875.8c-0.1,0.1-0.2,0.2-0.2,0.2S581.4,875.9,581.5,875.8z"/>
				<path class="st104" d="M549.5,898.1L549.5,898.1C549.7,898,549.6,898,549.5,898.1z"/>
				<path class="st104" d="M579.2,877.2c-0.2,0.2-0.5,0.4-0.8,0.6C578.7,877.6,578.8,877.5,579.2,877.2z"/>
				<path class="st104" d="M579.1,877.2c0.2-0.2,0.4-0.3,0.5-0.4C579.7,876.7,579.6,876.8,579.1,877.2z"/>
				<path class="st104" d="M577.6,878.5c0.3-0.3,0.7-0.5,1-0.8c-0.1,0.1-0.2,0.1-0.1,0.1C578.3,877.9,578,878.1,577.6,878.5z"/>
				<path class="st104" d="M487.3,956.4L487.3,956.4C486.8,957.1,486.9,956.9,487.3,956.4z"/>
				<path class="st104" d="M513.5,941.3L513.5,941.3L513.5,941.3L513.5,941.3z"/>
				<path class="st104" d="M513.1,943.9c0-1.2,0.2-1.8,0.4-2.6l-0.5,0.8C513,942.7,513,943.3,513.1,943.9z"/>
				<path class="st104" d="M549,935.3c0.5,0.4,1,0.7,1.5,1.2c-1.9-1.3-3.2-2.1-1.9-1c0.1,0,0.5,0.2,1.1,0.6c0.6,0.4,1.3,1,2,1.6
					c0.6,0.7,1.3,1.3,1.8,1.8s0.8,0.9,0.9,0.9c0.2,0.3,0.5,0.7,0.7,1.1c-0.2-0.3-0.2-0.3-0.4-0.6c1.1,2.1,1.3,1.3,2.5,4.1
					c0.4,1,0.6,1.8,0.3,1.1c0.4,0.7,0.6,1.5,0.8,2.3c0.2,0.7,0.1,0.5-0.1-0.1c0.2,0.6,0.3,1.2,0.4,1.8s0.3,1.2,0.3,1.8l0,0
					c0.1,0.5,0.3,1.7,0.4,2.3c0,1,0-0.5-0.1-0.2c0,0.7,0.1,1.4,0.1,2.1c-0.1,0.4-0.1,0.2-0.1-0.3s-0.1-1.3-0.1-2
					c-0.4,1.9,0.3,1.7-0.6,5.7c0.1-0.6,0.2-1.3,0.3-1.9c-0.2,0.6-0.3,1.3-0.5,2.1s-0.5,1.7-0.8,2.6c0.1-0.2,0.5-1.3,0.8-2
					s0.4-1.1,0.2,0c-0.1,0.3-0.2,0.7-0.3,1.1c-0.1,0.4-0.2,0.9-0.4,1.5c-0.1,0-0.2,0.3-0.4,0.7c-0.2,0.5-0.4,1.1-0.8,1.7l-0.1-0.2
					c-0.7,1.4-0.6,1.3-1,2.2c-0.2,0.4-0.4,0.7-0.6,0.9s-0.4,0.4-0.5,0.5c-0.3,0.2-0.4,0.4-0.6,0.5c-1.9,2.1,1.5-1.3-0.8,1.2
					c-0.4,0.4-0.8,0.8-1.2,1.1s-0.8,0.7-1.2,1c-0.4,0.4-0.9,0.6-1.4,1c-0.5,0.3-1,0.7-1.7,1c-1.5,0.7,0.2-0.2-0.3,0
					c-0.4,0.2-0.8,0.6-1.3,0.8c-0.3,0.1-0.2,0-0.2,0c-1.1,0.5,0,0.2-1.9,0.9c-0.2,0.1-1.2,0.4-2.4,0.6c-0.6,0.1-1.3,0.2-2,0.3
					s-1.3,0.1-1.9,0.3c-0.6,0,0.3-0.1,0.1-0.2c-1.7,0.1-2.4,0.2-2.9,0.1c-0.6,0-1.2,0.1-2.5-0.1l-1.1-0.3c-0.4-0.1-0.7-0.2-1.1-0.4
					c0.8,0.3,0.7,0.3,0.1,0.2c-0.3,0-0.7-0.1-1.1-0.2c-0.4-0.1-0.9-0.3-1.4-0.4c0.6,0.3,1,0.6,1.4,0.6c-0.5-0.1-1-0.3-1.5-0.5
					s-1-0.3-1.5-0.6c-0.3-0.2,0-0.1,0.5,0.1c-0.2-0.1-0.4-0.2-0.5-0.2c-1-0.6-0.4-0.4,0.3-0.1c0.3,0.2,0.7,0.4,1,0.5
					c0.8,0.2,1.5,0.3,1.3,0.2s-0.6-0.2-1-0.3c0.2,0,0.3,0.1,0.2,0s-0.4-0.1-0.9-0.3c-0.2-0.1-0.4-0.3-0.6-0.5h-0.2
					c-0.6-0.3-1.2-0.6-1.7-1l-1.6-1.1c-2.3-1.6-4.4-3-6.9-6.9c0.7,0.9,0.3,0.1,0.5,0.1c0.5,1.2,2,2.8,3.5,4.5
					c-0.8-0.9-0.6-0.8-0.4-0.5c-1-1-1.9-2.1-2.6-3.1c0.2,0-0.4-0.8-0.9-1.8c0.1,0.4-0.3-0.2-0.9-1.2c-0.5-1-1.1-2.3-1.4-3
					c0.1-0.1,0.2,0.2,1.1,2.2c-0.7-2.2-1.4-2.6-1.9-4.8c0.1,0.5,0.2,0.8,0.3,0.9c-0.2-0.6-0.5-1.6-0.6-2.3c-0.1-0.8-0.2-1.3-0.1-1
					l0.1,0.5c-0.2-0.8-0.3-1.9-0.4-2.9c-0.2-1.1-0.1-2.3-0.2-3.3c0-2.2,0.1-4,0-4.3c0,0,0.2,0.5,0.2,0.7c0-1,0-2,0-3
					c0.1-1,0.1-2.1,0.3-3c0.1,0.6,1-1.3,0.5,1.5c0.2-0.8,0.5-1.7,0.9-3.3c-0.2,0.5-0.6,1.3-0.5,0.5c0.4-1,0.6-1.3,0.7-1.7
					c0.2-0.4,0.3-0.8,0.9-2c-0.4,0.8-0.3-0.2,0.2-1.4c0,0.2,0.3,0,0.2,0.5l0.5-1.6l0.6-1.5c-0.3,0.8,0.2,0.2,0.6-0.4
					c-0.2,0.3,1.3-2.5,1.7-3.2l-0.7,1.2c0.9-1.6,1.3-2.4,1.7-3.1c0.4-0.8,0.8-1.6,1.9-3c-0.2,0.4-0.3,1.1,0.8-0.4
					c0.2-0.4,0.6-1.3,1.3-2.4c0.7-1.1,1.5-2.4,2.5-3.5l0.5-0.4c0.5-0.6,1.1-1.3,1.7-1.9c-1,1.2-3.5,4.7-4.8,6.7
					c0.9-1,0.3-0.2,1.6-1.8c0.5-0.5-0.6,0.9-1,1.4c1-1.2,2.1-2.4,3.1-3.5c-0.1,0,0.4-0.7,1.1-1.4c0.6-0.7,1.3-1.4,1.1-1.4
					c-0.6,0.6-1.2,1.3-1.8,1.9l-1.7,2c-0.3,0.1,1.6-2.5,4.1-4.9c0.7-0.5-0.3,0.7-0.2,0.7c0.3-0.3,2.3-2.3,2.5-2.5
					c-0.4,0.3-0.7,0.7-1,1c0.7-0.6,1.3-1.2,1.9-1.7c0.6-0.6,1.2-1.2,2.2-1.8c0.6-0.5,2-1.3,2-1.5c-1.2,0.6-1.7,0.3-1.2-0.4
					c0.2-0.2,3.3-2.4,4.2-2.7c1.2-0.6-1.4,1.5-0.4,0.9c0-0.1,0.6-0.5,0.8-0.7c0.7-0.5-0.2,0.3,1.3-0.7c0.1-0.3,2.9-2.1,0.6-0.6
					c1.4-1.1,1.6-1,3.2-2.2c-0.6,0.3,1.3-1.4,2.7-2.4c-0.1,0.1,0.3-0.1,0.5-0.1c3-2,4.7-2.8,7.4-4.6c0.3-0.1,1.7-0.9,1.2-0.5
					c0.4-0.3,0.7-0.6,1.6-1.1c1.8-0.9-2,1.3-0.6,0.6c0.1-0.2,2.2-1.6,3.3-2.4c-0.5,0.1-2.8,1.8-4.1,2.6c-0.1-0.2,2-1.8,4.8-3.7
					c2.3-1.6,1.1-0.5,1.5-0.8c4.3-2.8,3.5-2.7,7.1-5.1c1.5-0.9,0.2,0.2,0.6,0.1c-1.8,1.4-2.8,1.9-4.1,2.7l1.6-1
					c-0.6,0.5-1.8,1.3-2.5,1.8c0.6-0.3,2.5-1.6,4.5-3c2.1-1.5,4.3-3.1,5.9-4.4c0.5-0.5,1.5-1.3,1-1c-0.3,0.3-0.7,0.6-1,0.8
					c-1,0.7,1.8-1.7,0.5-0.7c0.6-0.6,1.3-1.2,2.1-1.9c0.7-0.7,1.5-1.4,2.5-2.2l0.4-0.2c-0.1,0-1.2,1-1.7,1.5
					c0.7-0.7,2.8-2.4,3.4-3.2l-1.3,1.1c0.6-0.6,1.3-1.3,1.9-2.1c0.7-0.8,1.4-1.5,2.1-2.3c-0.8,0.6-0.3,0.4-1.5,1.4
					c0.5-0.4-0.4,0.6-1.3,1.5s-1.8,1.7-0.9,1.1c-1.3,0.9-2,1.8-3.6,2.9c0.1,0,0.6-0.4-0.8,0.8c-0.1,0.1-0.2,0.2-0.3,0.3
					c0,0-0.1,0-0.1,0.1c0,0,0.1,0,0.1-0.1c-0.1,0.1-0.1,0.1,0,0c0.3-0.3,0.6-0.5,0.8-0.5c-0.6,0.7-2.7,2.5-3.4,3
					c-0.9,0.6,0.3-0.3-0.2,0c-0.4,0.3-0.7,0.7-1.1,1c-0.2,0-2.4,1.5-0.4,0l-1.8,1.4c-1.1,0.7-2.5,1.8-3.4,2.5
					c-0.9,0.6-2.2,1.6-1.4,1l-2.8,2l0,0c-2.9,1.9-5.9,4-9.4,5.9c-1,0.7-2,1.3-3.6,2.4l-0.4,0.1c-1.3,0.8-3.8,2.4-4.3,2.7
					c-1.6,0.6-6.1,4-8.2,5.6v0.2c-1.5,1.1-2.8,2.2-4.6,3.6h0.2c-1.5,1.3-3.9,3.1-6.1,5.3c0.1-0.2,0.7-0.7,1.1-1.1
					c-2.8,2.4-5.3,5.7-7.4,8.2c-0.5,0.7-0.9,1.2-1.3,1.6c0-0.1,0.1-0.1,0.1-0.2c-0.1,0.1-0.1,0.2-0.2,0.3c-0.2,0.3-0.5,0.6-0.7,0.9
					c0.2-0.3,0.4-0.5,0.6-0.8c-0.4,0.5-1,1.4-1.5,2.2l-0.3,0.3c0,0.1-0.1,0.1-0.1,0.2c-0.6,0.8-0.4,0.7,0,0.3
					c-0.2,0.4-0.5,0.8-0.6,1.1c-0.6,0.5-1.2,2.3-1.9,3c-0.1,0.3-0.6,1.4-1.1,2.5c-0.5,1.1-0.9,2.3-0.9,2.5c0,0-0.2,0.3,0-0.2
					c-0.5,1-0.8,2-1.1,2.9l-0.3,0.4c-0.2,0.8-0.3,1.6-0.4,2.4c-0.3,0.7-0.4,1.2-0.5,1.3s-0.1-0.1,0-0.8c-0.5,3.3-0.5,2.7-0.7,5.6
					l-0.1-0.2c-0.1,1,0,2.6-0.1,3.3c-0.1,1.2-0.1,4,0.6,7.4c0.3,1.7,0.8,3.3,1.4,5s1.4,3.1,2.1,4.5c-0.2-0.6,0.2,0,0.6,0.8
					s1,1.7,1.2,1.7c0.2,0.3,0.6,1,0,0.3c2,2.4,3,3.5,4.8,4.7c0.2,0.3-0.6-0.3-0.4-0.1c0.1,0.1,0.3,0.2,0.5,0.4
					c0.2,0.1,0.4,0.3,0.6,0.4c0.3,0.2-0.4-0.2-0.8-0.5c2.6,1.9,3.1,1.7,3.3,1.6c0.7,0.4,1.2,0.7,1.7,0.9s1,0.3,1.6,0.5
					c0.5,0.2,1.4,0.6-0.5,0c0.3,0.1,0.8,0.3,1.5,0.5c0.3,0.1,0.7,0.2,1.1,0.3s0.8,0.1,1.2,0.2c1.5,0.3,2.9,0.3,3,0.3
					c0.3,0.1,1.5,0,1.8,0c1.2,0,1.9-0.1,2.5-0.2c0.7,0,1.3-0.2,2.5-0.4l-0.7,0.1c0.9-0.4,2-0.5,3.7-1.1l0,0c2.1-0.7,2.5-1,2.9-1.2
					s0.9-0.4,2.7-1.5h-0.3c0.1-0.2,0.9-0.8,1.9-1.5c1-0.8,2.2-1.8,2.8-2.7l-0.7,0.7c0.9-1.1,2.7-2.8,3.3-4.1
					c0.2-0.3-0.2,0.5-0.4,0.9c0.9-1.6,1-1.8,0.9-1.8s-0.2,0.1,0.3-1.3c0.3-0.5,0,0.7,0.7-1.1c0.1-0.2,0.2-0.7,0.3-1.3
					c0.1-0.3,0.1-0.6,0.2-1s0.1-0.7,0.2-1.1c0.1-0.4,0.1-0.8,0.2-1.2c0-0.4,0.1-0.8,0.1-1.2c0.1-0.8,0.1-1.6,0.1-2.2
					c-0.1,0.6-0.1,1.1-0.2-0.2c0-1-0.1-2.3-0.2-3.5c-0.2-1.3-0.4-2.5-0.8-3.3c-0.1-0.2-0.1-0.3,0-0.4c-0.2-0.7-0.7-1.9-1.1-2.8
					c-0.5-1-1-2-1.3-2.3c-0.1-0.3-0.5-1-1-1.8c-0.3-0.4-0.6-0.8-0.9-1.2c-0.2-0.2-0.3-0.4-0.5-0.6l-0.6-0.6
					c-0.4-0.4-0.8-0.8-1.1-1.1c-0.4-0.3-0.7-0.6-1-0.8c-0.6-0.5-1-0.8-0.9-0.9c-1.3-0.9-2.5-1.7-3.9-2.3h0.1
					c-2.6-1.3-3.7-1.4-4.7-1.6c-0.7-0.2-0.2-0.1-0.1-0.1c-0.5-0.1-1-0.3-1.4-0.4c-0.4-0.1-0.8-0.2-1.2-0.2c-0.7-0.1-1.3-0.2-1.8-0.3
					s-1.1-0.1-1.7-0.1c-0.6,0-1.3,0-2.2,0l-0.4-0.1c-0.5,0-2,0-3.9,0.1c-2,0.1-4.2,0.5-6.3,1c0,0,0.1-0.1,0.4-0.2
					c-2.3,0.6-5,1.3-7.3,2.1c-1.2,0.4-2.2,0.8-3,1.2c-0.9,0.4-1.5,0.8-1.8,1c-0.9,0.4-1.8,1-2.7,1.5c3.5-1.8-0.4,0.5,1.1-0.2
					c-1.4,0.7-3.6,1.8-2,0.8l0.3-0.1c0.3-0.3-0.9,0.3-2,0.9c-1.2,0.7-2.3,1.4-2.3,1.3c-6.6,4.2-12.3,9.4-16.6,15.4l0.7-0.6
					c-0.5,0.7-1.1,1.4-1.5,2.1c-0.4,0.5-0.6,0.7,0.4-0.9c-0.7,0.7-1.7,2.5-1.7,2.6c-2,3,0.5-1.3,0-0.4c-0.3,0.4-0.5,0.9-0.8,1.3
					l0.2-0.3c-0.5,1.1-0.6,1.2-1.7,3.1c-0.7,1.2-0.4,0.6-0.7,1.1c0,0,0,0-0.1,0.1s-0.2,0.3-0.3,0.6l-1.4,2.9l0.7-1.1
					c-0.6,1.3-1.2,2.7-0.5,1.5c-0.3,0.5-0.7,1.4-1.2,2.5c-0.5,1.2-1,2.5-1.4,3.9c-0.9,2.7-1.6,5.5-1.8,6.1c-0.2,1-0.4,2-0.6,2.9
					c-0.2,1-0.4,2.2-0.6,3.3c0.1-0.6,0.3-0.9,0,1.2c-0.1-0.4-0.3,0.5-0.5,1.8s-0.4,2.8-0.5,3.6c0.1-0.8,0,0.8,0,2.2
					c-0.1,1.4-0.1,2.6,0.1,1.5c-0.1,1.8-0.1,0.1-0.3,1.5c0,4.1-0.1,9.2,0.5,14.3c0.1,0.1,0-0.8,0.2,0.3l0.1,2.7
					c0.2,1,0.4,0.9,0.5,2.7c0-0.3,0-0.7,0.1,0c1.2,10,4.1,20.2,6.5,30.1c-0.3-1.4,0-0.5,0.3,0.6c-0.2-0.7,0.1,0,0.1-0.2l1,4.1
					c0.4,0.7,1.3,4.4,1.6,4.8l-0.4-1.3c0.7,1.7-0.3-2.5,0-2.4c-0.8-1.9-1.2-5.2-2.4-8.3c-0.1-0.7,0.2,0.6,0.2,0.2
					c-0.3-0.8-0.6-1.8-1.1-3.5l0.1,0.2c-1.4-5.1-1.8-7.3-2.9-13v0.5c-0.2-1.3-0.3-1.5-0.4-2.1c-0.5-1.4,0.7,3.5,0.2,2.3
					c-0.1-0.9-0.5-3-0.9-5.2c-0.4-2.2-0.7-4.2-0.7-4.8c-0.3-2-0.1,0.6-0.4-1.4v-0.5l-0.2-0.5c-0.2-1.3-0.1-2-0.1-2
					c0,0.3,0.1,0.9,0.2,1.2c-0.2-1.7-0.6-4.6-0.6-5.2l0.1,1.9c-0.7-5.3-0.8-11.8-0.7-16.9l-0.1,0.4c0-2,0.1-2.7,0.2-3.5
					s0.2-1.7,0.4-3.8v0.2c0-0.9,0.2-2,0.4-3.1c0,0.6,0.1,0,0.2-0.4c0.1-0.5,0.2-0.9,0.1-0.2c0.7-4.2,0.3-2.1,0.6-4.9l0.2-0.6
					c0.1-1,0.1-1.1,0.6-3.1c-0.4,1.8,0.5-1.3,0.1,0.7c1.4-4.3,1.8-6.5,2.8-8.2c0.3-1-0.1-0.1-0.6,0.9c-0.4,1-0.8,2.2-0.6,1.6
					c-0.4,0.9,0.3-1.7,1-2.9c0.6-1.4,1.2-2.2,2.8-5.4c-0.2,0.3-0.2,0.4-0.3,0.7c0.7-1.2,1.1-2.5,2.1-3.7c0.3-0.9,1.1-1.9,1.1-2.2
					c-0.6,0.9-1.2,1.9-1.7,2.8c0.4-0.8,0.9-1.7,1.4-2.5c0.6-0.9,1.2-2,2.2-3.1c-0.1,0.2-0.6,1-1,1.6c0.6-0.7,1-1.5,1.6-2.2
					c0,0.2-0.6,1-1.3,2c-0.7,1-1.5,2.2-2,3.1c0.5-0.8,2-3.2,1.6-2.3c0.3-0.7,0.8-1.4,1.5-2.2c0.6-0.8,1.4-1.7,2.1-2.6v0.2
					c0.2-0.3,0.7-1,1.2-1.5c-0.3,0.4-0.5,0.7-0.7,1.1c0.6-0.8,1.3-1.5,2-2.2s1.4-1.3,2.1-2c-2.7,2.8-0.8,0.5-2,1.7
					c1.7-1.8,2.3-2.3,2.8-2.6c0.7-0.5,1.3-1,3.4-2.7c-0.6,0.5-2.2,1.8-1.4,1c0.8-0.7,1.9-1.5,2.5-1.8c2.8-2.3-0.5,0.2,0.7-0.8
					c1.1-0.6,1.5-1.1,2.7-2.1l0.1,0.1c3.5-2.1,0.8-0.9,4-2.6l-1.3,0.9l1.7-1l-0.3,0.3c0.9-0.6,1.5-0.9,2.2-1.2
					c0.6-0.3,1.2-0.6,2.2-1c-0.5,0.1,0.1-0.3,1.9-1.1c1.2-0.4-0.6,0.4,1.8-0.6c-0.5,0.3-1.1,0.6-2.2,0.9c-0.1,0.1-0.5,0.3-0.6,0.4
					c0.7-0.3,1.4-0.6,2.2-0.9c0.8-0.3,1.5-0.6,1.9-0.7c-0.3,0.1-0.8,0.2-1,0.3c1.2-0.5,2.4-1,3.5-1.4c0.6-0.1,0.1,0.1-0.3,0.2
					c0.7-0.2,1.2-0.4,2.3-0.8c-0.3,0.2-0.2,0.3-1.7,0.8c1.2-0.4,2.3-0.7,3.4-1c0.2,0,1.9-0.2,1.4-0.1c2-0.3,4.8-1,7.4-0.9
					c0.1,0,0.4-0.1,1-0.1c2.5,0.1,4.6,0.3,7.4,0.9c0.5,0.2,1.1,0.4,1.6,0.6c2.2,0.7-2.1-0.9,1.6,0.2c2.5,0.9,0.9,0.5,1.7,0.9
					c1.3,0.5,3.4,1.4,5.2,3C550.2,936.1,549.7,935.7,549,935.3z M558.4,959.9c0.1-0.5,0.2-1.6,0.3-2
					C558.8,958.5,558.6,959,558.4,959.9z M524.2,973.3c0.4,0.2,0.9,0.6,1.5,0.9c-0.2-0.1-0.5-0.2-0.8-0.4
					C524.6,973.6,524.3,973.4,524.2,973.3z M571.9,882.9C571.9,882.9,571.8,882.9,571.9,882.9C570.8,883.6,571.2,883.4,571.9,882.9z
					 M573.9,881.5C574.1,881.3,574.1,881.3,573.9,881.5c0,0-0.5,0.4-1,0.8C573.1,882.2,573.4,882,573.9,881.5z M482.3,962.8l0.3-0.4
					C482.1,963.4,482.2,963.1,482.3,962.8z"/>
				<path class="st104" d="M528.6,975.3c0.1,0.1,0.2,0.1,0.2,0.2C529,975.5,529,975.4,528.6,975.3z"/>
				<path class="st104" d="M532.5,931.1L532.5,931.1c-0.1,0-0.2,0-0.2,0H532.5z"/>
				<path class="st104" d="M541.3,904.3c-0.4,0.3-0.7,0.5-0.9,0.6C540.5,904.9,540.7,904.7,541.3,904.3z"/>
				<path class="st104" d="M584.1,872.5l-1.2,1.2c0.6-0.6,0.8-0.7,1.1-1C584,872.7,583.7,872.9,584.1,872.5z"/>
				<path class="st104" d="M593.9,862.3c0.1-0.2,0.3-0.4,0.4-0.6h-0.1C593.7,862.5,593.3,863,593.9,862.3z"/>
				<path class="st104" d="M585.5,871.8c0.2,0,0.9-0.8,1.7-1.7l-0.1,0.2C587.2,870,586.4,870.9,585.5,871.8z"/>
				<path class="st104" d="M587.4,870c0.2-0.3,0.5-0.5,0.7-0.8C588.1,869,587.8,869.5,587.4,870z"/>
				<path class="st104" d="M576.5,879.4c0.5-0.3,0.2-0.3,0.5-0.5C577.4,878.4,574.2,881.4,576.5,879.4z"/>
				<polygon class="st104" points="586.4,871.4 586.1,871.6 585.7,872.2 				"/>
				<path class="st104" d="M579.7,877.5c0.5-0.4,1-0.8,1.5-1.2c0,0,0.1-0.2,0.3-0.4C580.6,876.8,579.6,877.5,579.7,877.5z"/>
				<path class="st104" d="M581.5,876c0.5-0.4,0.9-0.8,1.1-1C582.4,875.2,581.8,875.7,581.5,876z"/>
				<polygon class="st104" points="584.7,873.2 584.2,873.5 583.4,874.4 				"/>
				<path class="st104" d="M563.7,889l-1.7,1.1c-0.2,0.2,0.3-0.1,1-0.5C563.3,889.3,563.9,888.9,563.7,889z"/>
				<path class="st104" d="M568.9,886c-0.5,0.3-0.5,0.3-0.8,0.4v0.2L568.9,886z"/>
				<path class="st104" d="M564,889.3c-0.1,0.2-2.4,1.7-0.3,0.3C563.9,889.4,565.6,888.3,564,889.3z"/>
				<polygon class="st104" points="538.6,905.8 539,905.4 538.8,905.3 				"/>
				<path class="st104" d="M520.6,925.2c1.4-2,0.2-0.6,1.5-2.3c0.3-0.5-1.1,1.4-0.8,0.9C520.5,925,520.1,925.7,520.6,925.2z"/>
				<path class="st104" d="M521.3,923.8c0.1-0.2,0.3-0.4,0.4-0.6C521.5,923.5,521.4,923.7,521.3,923.8z"/>
				<polygon class="st104" points="484.1,1054.6 484.4,1056.1 484.3,1055.1 				"/>
				<path class="st104" d="M485,1057.3l-0.1,0.4l0.4,0.9C485.2,1058.2,485,1057.6,485,1057.3z"/>
				<path class="st104" d="M556.7,963.6L556.7,963.6c0.1-0.1,0.3-0.4,0.5-1.1L556.7,963.6z"/>
				<polygon class="st104" points="556.5,944.2 556.6,944.5 556.5,943.8 				"/>
				<path class="st104" d="M544.3,933.2c0.3,0.1,0.7,0.3,1,0.4c0.3,0.2,0.7,0.3,1,0.5C545,933.4,544.2,933,544.3,933.2z"/>
			</g>
			<polygon class="st105" points="602,822.7 594.6,818.9 597.3,816.7 			"/>
			<path class="st106" d="M573.1,791.5l14.7,33.3l9.4-8.1c0,0,4.6,7.2,4.7,5.9c0.1-1.2,0-8.4,0-8.4l9.3-6.1L573.1,791.5z"/>
			<polygon class="st107" points="573.3,791.8 601.4,814.1 601.6,821.5 598.4,816.3 			"/>
		</g>
		<g>
			<path class="st108" d="M429,1085.5h65.4l9.8-40.1c0.9-3.7-1.9-7.3-5.7-7.3h-53.4c-2.7,0-5,1.9-5.7,4.5L429,1085.5z"/>
			<path class="st84" d="M431.7,1085.5l10.4-42.8c0.7-2.6,2.9-4.5,5.7-4.5h53.4c2,0,3.6,1,4.7,2.4l-44.9,44.9H431.7L431.7,1085.5z"
				/>
			<path class="st102" d="M506,1040.6c1,1.4,1.4,3,1,4.8l-9.8,40.1H461L506,1040.6z"/>
			<path class="st83" d="M402,1085.5h56.5l-3.3,3.3h-56.4C398.8,1086.9,400.2,1085.5,402,1085.5z"/>
			<path class="st83" d="M497.2,1085.5c0,1.9-1.5,3.3-3.3,3.3h-38.7l3.3-3.3H497.2z"/>
			<path class="st108" d="M398.8,1088.8h29.7c1.9,0,3.3-1.5,3.3-3.3h-29.7C400.2,1085.5,398.8,1086.9,398.8,1088.8z"/>
		</g>
		<g>
			<path class="st109" d="M408.9,953.5c2.3,1.6,5.5,1.7,7.7,0.1c2.3-1.6,3.4-4.5,2.8-7.2c4.3,1.5,9.2-3.8,7.4-7.9
				c2.7-0.3,5.2-2.8,5.3-5.6c0.1-2.8-2-5.5-4.7-6.1c1.3-3.4,0.3-7.6-2.4-10.2c-2.6-2.5-7-3.2-10.3-1.7c-0.1-4.4-3-8.6-7.2-10.2
				c-4.1-1.6-9.1-0.5-12.2,2.7c-6.9-4.5-17.4-1.1-20.4,6.5c-5.6-0.3-10.7,5.4-9.6,10.9c-3.2-0.1-6.5,2.2-7.5,5.3
				c-1.1,3.1,0.1,6.9,2.6,8.8c-3.5,4.2-0.7,11.8,4.7,12.7c-1.7,1.4-2.2,3.9-1,5.8c1.1,1.9,3.7,2.5,5.6,1.7c-0.4,2.9,1.2,6,3.7,7.4
				c2.5,1.5,6,1.2,8.2-0.6L408.9,953.5z"/>
			<g>
				
					<linearGradient id="SVGID_82_" gradientUnits="userSpaceOnUse" x1="370.6399" y1="-250.9648" x2="414.555" y2="-250.9648" gradientTransform="matrix(1 0 0 -1 0 712)">
					<stop  offset="0" style="stop-color:#F8E6DA"/>
					<stop  offset="1" style="stop-color:#F9B8AA;stop-opacity:0.9697"/>
				</linearGradient>
				<path class="st110" d="M410,936.9c2.2,1.1,2.8,3.9,2.5,6.3c-0.3,2.4-1.4,4.6-1.8,7c-0.5,2.4-0.2,5.1,1.7,6.7
					c0.9,0.7,2.3,1.4,2.3,2.5c0,1.6-2.2,1.8-3.5,2.5c-2.1,1.2-2.5,3.9-2.5,6.4c-0.1,2.4-0.6,5.2-2.7,6.2c-2.7,1.3-5.7-1.5-8.6-2.3
					c-2.7-0.7-5.7,0.4-7.8,2.3c-2.2,1.9-7.8,12.4-9.3,14.8c-5-0.6-9.2-7.6-9.3-15.1l14.4-17.4c-1.8,0.2-3.4-0.9-4.3-2.5
					c-0.9-1.5-0.7-3.5,0.6-4.8c1.2-1.3,6.2-2.8,6.1,2.9c0,0,3.4-3.2,4.8-7.8C395.3,934.4,410,936.9,410,936.9z"/>
			</g>
		</g>
		<polygon class="st111" points="460.5,1199 470.1,1198.7 482.4,1204.7 497.7,1205.9 500,1209.4 457.2,1211.3 		"/>
		<polygon class="st111" points="527.5,1140.3 536.7,1137.4 550.1,1139.8 565.2,1136.7 568.4,1139.4 527.8,1153.1 		"/>
	</g>
</g>
<g>
	<g>
		<g>
			<path class="st112" d="M666.5,1041.2c-0.2-1.8-3.4-5.3-3.4-5.3l-1.6-3.6l-8.3-2c0,0-2.4,11.4-2.4,13.1s2.4,12.1,2.8,12.8
				c0.4,0.7,1.7,0,1.7,0l-0.3-2.2c0,0,1.9,3.6,2,3.7c0.2,0.2,1.4-0.2,1.4-0.2s0.5,0.9,0.7,1c0.3,0.1,1.3-0.7,1.3-0.7l-0.4-3.6
				c0,0,1.7,3.2,1.9,3.2s1.7-0.5,1.7-0.5v-10.5c0,0,0.1-0.3,0.2-0.9c0.8,1.8,1.9,3.9,2.5,3.9C667.6,1049.6,666.7,1043,666.5,1041.2z
				"/>
		</g>
	</g>
	<g>
		<g>
			<path class="st113" d="M764.6,963.9c0-6.4-6.2-67.2-8.9-70.7c-1.9-2.4-19.3-9.4-33.7-13.6c-6.9-2-23.7-2.2-28-0.5
				c-13.4,5.4-29.8,16.6-33,19.6c-4.3,3.9-8.7,52.3-8.6,61.4c0,2.5-5.8,29.8-5.3,49.7c0.2,7.1,4,10.4,4.1,15.3
				c0.1,5.3,0.2,8.6,0.2,8.6h12.4l3.8-30.4c0.2,0.2,0.4,0.5,0.6,0.7l2.7,2.8l0.3,8.4H742l2.4-8.8c4.4-2.3,7-7.1,6.4-12l-2.5-20.9
				C753.9,972,764.6,968.5,764.6,963.9z"/>
		</g>
	</g>
	<g>
		<g>
			<path class="st114" d="M694,879.1c-0.8,14.5,0.3,59.5-1.9,84.2c-1.8,20.3-8.6,42.8-12.7,51.9h56.7c-3-9.1-7.7-28.1-9.5-49
				c-2.4-26.7-4.1-71.7-4.6-86.6c-6.9-2-13-3.4-16.5-3.4C703.3,876.2,696.9,878.1,694,879.1z"/>
		</g>
	</g>
	<g>
		<g>
			<path class="st115" d="M708.2,888.8c-0.4,0-0.7,0-1.1,0c-4.6-0.3-9.1-2.3-12.4-5.7c-0.2-0.2-0.2-0.6,0-0.9c0.2-0.2,0.6-0.2,0.9,0
				c3,3.1,7.3,5,11.6,5.3s8.7-1.1,12.1-3.9c0.3-0.2,0.7-0.2,0.9,0.1s0.2,0.6-0.1,0.9C716.8,887.3,712.5,888.8,708.2,888.8z"/>
		</g>
	</g>
	<g>
		<g>
			<path class="st115" d="M722.1,983c-0.1,0-0.3,0-0.4-0.1c-10.8-9.3-19.7-20.3-26.6-32.8c-0.2-0.3-0.1-0.7,0.2-0.8
				c0.3-0.2,0.7-0.1,0.8,0.2c6.8,12.3,15.7,23.2,26.4,32.4c0.3,0.2,0.3,0.6,0.1,0.9C722.5,982.9,722.3,983,722.1,983z"/>
		</g>
	</g>
	<g>
		<g>
			<path class="st116" d="M671.1,1015.2c-2.8,46.2-11.4,163.3-11.4,163.3h12.5l31.4-152.1l4.9,0.1l13.4,152H734
				c0,0,10.6-93.9,7.9-163.3H671.1z"/>
		</g>
	</g>
	<g>
		<g>
			<path class="st112" d="M696.5,864v14.3c0,0,11.6,12.3,22.2,0.3l-0.9-14.6H696.5z"/>
		</g>
	</g>
	<g>
		<g>
			<path class="st112" d="M707.4,830.7c-12.5,0.4-14.2,14.2-14,25.9s5.3,19.4,13.2,20s13.6-7.3,16-18S727.4,830.1,707.4,830.7z"/>
		</g>
	</g>
	<g>
		<g>
			<path class="st112" d="M695.2,853.7c0,0,0-4.8-4-3.6s-0.4,12.3,4,11.5C699.5,860.8,695.2,853.7,695.2,853.7z"/>
		</g>
	</g>
	<g>
		<g>
			<path class="st112" d="M720.4,857c0,0,0.6-4.7,4.4-3s-1.2,12.2-5.4,10.9C715.2,863.5,720.4,857,720.4,857z"/>
		</g>
	</g>
	<g>
		<g>
			<path class="st117" d="M666.5,997.6c-0.3,0-0.6-0.2-0.6-0.5c-1.1-6.9-0.1-14.3,2.8-20.7c0.2-0.5,0.5-1,0.7-1.5
				c1.3-2.7,2.6-5.5,2.2-8.3c-0.3-1.6-1.1-3-1.9-4.5c-1-1.7-2-3.5-2.1-5.5c-0.2-2.3,0.7-4.4,1.6-6.4c0.3-0.8,0.7-1.6,1-2.4
				c0.8-2.5,1-5.2,1.2-7.8l0.6-8.5c0.3-3.5,0.6-7.9-1.3-11.3c-0.2-0.3-0.1-0.7,0.2-0.8c0.3-0.2,0.7-0.1,0.8,0.2
				c2.1,3.8,1.7,8.3,1.5,12l-0.6,8.5c-0.2,2.7-0.4,5.5-1.3,8.1c-0.3,0.9-0.7,1.7-1,2.5c-0.9,2-1.7,3.8-1.5,5.8c0.1,1.7,1,3.3,2,5
				c0.9,1.5,1.8,3.1,2.1,4.9c0.5,3.2-0.9,6.2-2.3,9c-0.2,0.5-0.5,1-0.7,1.5c-2.8,6.2-3.8,13.3-2.7,20
				C667.2,997.2,667,997.5,666.5,997.6C666.6,997.6,666.6,997.6,666.5,997.6z"/>
		</g>
	</g>
	<g>
		<g>
			<polygon class="st116" points="727.8,923.8 724.2,907.8 709,910.8 717.7,940.5 731,936.2 			"/>
		</g>
	</g>
	<g>
		<g>
			<path class="st112" d="M726.1,942.8c0,0,8.5,1.8,10.4,0c1.8-1.8,0.5-10.3,0.5-10.3s-4.2-5.3-4.4-7.3c-0.2-2.1-3.7-7.1-4.8-6.6
				s0,5.2,0,5.2l-16.5-2.1c-3.7-0.5-2.1,1.8-1.8,3c0.2,1.1,4.4,2.5,4.4,2.5s-1.9,3.1-1.4,3.8s1.4,2.3,1.4,2.3s-1.9,3.7-1.2,4.3
				c0.7,0.7,2.7,0.9,2.7,0.9s0.5,2.5,1,2.9C716.8,941.9,726.1,942.8,726.1,942.8z"/>
		</g>
	</g>
	<g>
		<g>
			<path class="st117" d="M742.5,937c-0.1,0-0.3-0.1-0.4-0.2l-4.3-3.8l2.7-7.3c-2.1-2.5-3-6.1-2.5-10c0.5-3.6,1.9-6.9,3.3-10.1
				c0.1-0.3,0.5-0.5,0.8-0.3c0.3,0.1,0.5,0.5,0.3,0.8c-1.4,3.1-2.8,6.3-3.2,9.8c-0.5,3.7,0.4,7.1,2.4,9.3l0.2,0.3l-2.6,7.2l3.7,3.2
				c0.3,0.2,0.3,0.6,0.1,0.9C742.8,936.9,742.6,937,742.5,937z"/>
		</g>
	</g>
	<g>
		<g>
			<path class="st117" d="M744.4,970.8c-0.1,0-0.2,0-0.3-0.1c-2-1.2-4.2-2.5-5.9-4.2c-1.4-1.4-3.2-3.6-3.7-6.4
				c-0.2-1.2-0.2-2.4-0.1-3.6c0-0.8,0.1-1.7,0-2.5c-0.2-2.8-1.6-5.5-3.7-7.3c-0.3-0.2-0.3-0.6-0.1-0.9c0.2-0.3,0.6-0.3,0.9-0.1
				c2.4,2.1,3.9,5,4.1,8.2c0.1,0.9,0,1.8,0,2.7c0,1.2-0.1,2.3,0.1,3.4c0.4,2.5,2.1,4.5,3.4,5.8c1.7,1.6,3.7,2.9,5.7,4.1
				c0.3,0.2,0.4,0.6,0.2,0.8C744.8,970.7,744.6,970.8,744.4,970.8z"/>
		</g>
	</g>
	<g>
		<g>
			<polygon class="st116" points="662.6,1176.1 662.3,1184 651.7,1191.9 668.3,1191.9 670.3,1176.1 			"/>
		</g>
	</g>
	<g>
		<g>
			<polygon class="st116" points="732,1176.1 732.1,1184.7 741.6,1191.9 725,1191.9 724.2,1176.1 			"/>
		</g>
	</g>
	<g>
		<g>
			<path class="st116" d="M702.1,859.9c-2.9,0-5.3-2.4-5.3-5.3c0-2.9,2.4-5.3,5.3-5.3s5.3,2.4,5.3,5.3
				C707.4,857.5,705,859.9,702.1,859.9z M702.1,850.5c-2.2,0-4.1,1.8-4.1,4.1c0,2.2,1.8,4.1,4.1,4.1c2.2,0,4.1-1.8,4.1-4.1
				S704.4,850.5,702.1,850.5z"/>
		</g>
	</g>
	<g>
		<g>
			<path class="st116" d="M715.3,861c-2.9,0-5.3-2.4-5.3-5.3c0-2.9,2.4-5.3,5.3-5.3s5.3,2.4,5.3,5.3
				C720.6,858.7,718.2,861,715.3,861z M715.3,851.7c-2.2,0-4.1,1.8-4.1,4.1c0,2.2,1.8,4.1,4.1,4.1c2.2,0,4.1-1.8,4.1-4.1
				S717.5,851.7,715.3,851.7z"/>
		</g>
	</g>
	<g>
		<g>
			<path class="st116" d="M710.1,855.4c-0.3-0.7-0.7-1-1.2-1.1c-0.7-0.1-1.4,0.5-1.6,0.7l-0.9-0.9c0.1-0.1,1.3-1.3,2.7-1.1
				c0.9,0.1,1.6,0.7,2.1,1.7L710.1,855.4z"/>
		</g>
	</g>
	<g>
		<g>
			<path class="st116" d="M693.5,850.2c0,0,1.1,3.9,1,7.1l1.5,0.7v-9.3c0,0,4.2-2.5,4-7.3c0,0,34,7,34.4,1.8
				c0.5-5.1-8.3-5.8-8.3-5.8s4.8-3.9,1.6-9s-9-2.1-9-2.1s-0.5-3.2-2.9-4c-2.4-0.8-3.9,2.6-3.9,2.6s-12.9,5.3-15.9,6.4
				c-3,1.1-2.5,5.6-2.5,5.6s-4.6,2.9-4,4.9c0.5,2.1,1.7,8.3,1.7,8.3S692.8,849.6,693.5,850.2z"/>
		</g>
	</g>
	<g>
		<g>
			<path class="st116" d="M718.7,843c0,0-1.6,6,2.4,6.9v6.4l0.9,0.6c0,0,0.5-2.5,1.9-3.2l2.3-10.1L718.7,843z"/>
		</g>
	</g>
	<g>
		<g>
			<path class="st118" d="M707.5,877.2c-0.3,0-0.6,0-0.9,0c-3.6-0.3-6.7-1.9-9.1-4.8c-0.2-0.3-0.2-0.6,0.1-0.9
				c0.3-0.2,0.6-0.2,0.9,0.1c2.1,2.6,5,4.2,8.2,4.4c3.3,0.2,6.4-1.1,9.1-4c0.2-0.2,0.6-0.3,0.9,0c0.2,0.2,0.3,0.6,0,0.9
				C714,875.7,710.8,877.2,707.5,877.2z"/>
		</g>
	</g>
</g>
<g>
	<polygon class="st119" points="812.9,1077.1 809,1077.1 809,997.2 775.3,997.2 775.3,1077.1 771.4,1077.1 771.4,993.3 812.9,993.3 
			"/>
	<path class="st120" d="M824,1183.9h-62.5c-5.3,0-9.5-4.3-9.5-9.5v-95.9c0-5.3,4.3-9.5,9.5-9.5H824c5.3,0,9.5,4.3,9.5,9.5v95.9
		C833.6,1179.6,829.3,1183.9,824,1183.9z"/>
	<rect x="762.8" y="1183.9" class="st119" width="11.1" height="2"/>
	<rect x="767.8" y="1067" class="st121" width="11.1" height="2"/>
	<rect x="786.4" y="991.3" class="st119" width="11.1" height="2"/>
	<g>
		<polygon class="st121" points="764.6,1185.8 765.8,1193 768.4,1193 771.6,1193.1 772.8,1185.9 		"/>
	</g>
	<rect x="810" y="1183.8" class="st119" width="11.1" height="2"/>
	<rect x="805.8" y="1066.9" class="st121" width="11.1" height="2"/>
	<g>
		<polygon class="st121" points="819.4,1185.8 818.2,1193 815.6,1193 812.9,1193 811.7,1185.8 		"/>
	</g>
	<rect x="769.7" y="993.3" class="st121" width="44.9" height="6.9"/>
	<g>
		<polygon class="st121" points="780.8,1062.1 780.8,1068.9 784.1,1068.9 784.1,1065.4 800.1,1065.4 800.1,1068.9 803.4,1068.9 
			803.4,1062.1 		"/>
	</g>
	<path class="st122" d="M821.1,1071.9h-21.3c17.8,4,31.1,19.9,31.1,39v-29.1C830.9,1076.3,826.5,1071.9,821.1,1071.9z"/>
	<path class="st123" d="M765.8,1076.2c-0.2-0.9-1-1.6-1.9-1.6c-1,0-1.8,0.7-1.9,1.6l0,0v101.2c0,1.1,0.9,2,2,2s2-0.9,2-2
		L765.8,1076.2L765.8,1076.2z"/>
	<path class="st123" d="M775.3,1076.2c-0.2-0.9-1-1.6-1.9-1.6c-1,0-1.8,0.7-1.9,1.6l0,0v101.2c0,1.1,0.9,2,2,2s2-0.9,2-2
		L775.3,1076.2L775.3,1076.2z"/>
	<path class="st123" d="M784.7,1076.2c-0.2-0.9-1-1.6-1.9-1.6c-1,0-1.8,0.7-1.9,1.6l0,0v101.2c0,1.1,0.9,2,2,2s2-0.9,2-2
		L784.7,1076.2L784.7,1076.2z"/>
	<path class="st123" d="M794.2,1076.2c-0.2-0.9-1-1.6-1.9-1.6c-1,0-1.8,0.7-1.9,1.6l0,0v101.2c0,1.1,0.9,2,2,2s2-0.9,2-2
		L794.2,1076.2L794.2,1076.2z"/>
	<path class="st123" d="M803.7,1076.2c-0.2-0.9-1-1.6-1.9-1.6c-1,0-1.8,0.7-1.9,1.6l0,0v101.2c0,1.1,0.9,2,2,2s2-0.9,2-2
		L803.7,1076.2L803.7,1076.2z"/>
	<path class="st123" d="M813.2,1076.2c-0.2-0.9-1-1.6-1.9-1.6c-1,0-1.8,0.7-1.9,1.6l0,0v101.2c0,1.1,0.9,2,2,2s2-0.9,2-2
		L813.2,1076.2L813.2,1076.2z"/>
	<path class="st123" d="M822.7,1076.2c-0.2-0.9-1-1.6-1.9-1.6c-1,0-1.8,0.7-1.9,1.6l0,0v101.2c0,1.1,0.9,2,2,2s2-0.9,2-2
		L822.7,1076.2L822.7,1076.2z"/>
</g>
<g>
	<path class="st124" d="M885.6,1181.3h36.1c1.6,0,2.8,1.3,2.8,2.8v0.8c0,1.6-1.3,2.8-2.8,2.8h-36.1c-1.6,0-2.8-1.3-2.8-2.8v-0.8
		C882.7,1182.6,884,1181.3,885.6,1181.3z"/>
	<g>
		<path class="st125" d="M909,1127.9c7.1,1.4,14.3-2.7,16.7-9.5c1.1-3.1,1.1-6.4,0.3-9.3c-1.2-4.2-1.2-8.7,0.5-12.8
			c0.8-1.9,1.4-3.9,2-6c3.3-12.3,1.5-23.5-4-25s-12.5,7.4-15.8,19.7c-0.6,2.1-1,4.2-1.2,6.2c-0.6,4.4-2.8,8.3-6,11.4
			c-1.9,1.8-3.3,4.2-4.1,6.9C895.2,1117.8,900.4,1126.3,909,1127.9z M919.6,1078.3c-0.1,1.1-1.1,1.9-2.2,1.8
			c-1.1-0.1-1.9-1.1-1.8-2.2c0.1-1.1,1.1-1.9,2.2-1.8C918.9,1076.2,919.7,1077.2,919.6,1078.3z M918.6,1105
			c-0.1,0.8-0.8,1.3-1.5,1.2c-0.8-0.1-1.3-0.8-1.2-1.5c0.1-0.8,0.8-1.3,1.5-1.2C918.1,1103.5,918.7,1104.2,918.6,1105z
			 M917.3,1111.6c0.1-0.5,0.6-0.9,1.1-0.9c0.5,0.1,0.9,0.6,0.9,1.1c-0.1,0.5-0.6,0.9-1.1,0.9S917.3,1112.2,917.3,1111.6z
			 M911.2,1118.5c0.2-1.3,1.3-2.3,2.7-2.1c1.3,0.2,2.3,1.3,2.1,2.7c-0.2,1.3-1.3,2.3-2.7,2.1C912,1121,911,1119.8,911.2,1118.5z
			 M913.5,1088.2c0.1-0.6,0.6-1.1,1.2-1c0.6,0.1,1.1,0.6,1,1.2s-0.6,1.1-1.2,1C913.8,1089.3,913.4,1088.8,913.5,1088.2z
			 M913.2,1083.2c0.1-0.7,0.7-1.1,1.3-1.1c0.7,0.1,1.1,0.7,1.1,1.3c-0.1,0.7-0.7,1.1-1.3,1.1S913.1,1083.9,913.2,1083.2z"/>
		<path class="st126" d="M854.2,1060.4c-5.5,5.1-6.1,10.8-4,15.9c0.2,0.6,1.4,0.6,2.4,0c2.1-1,3.3,0.2,1.6,1.4
			c-0.5,0.4-1,0.7-1.5,1.1c-0.6,0.5-0.9,1-0.7,1.4c1.8,3,4.2,6.1,6.8,9.1c1.6,1.9,5.6,1.9,8.9,0.4c2.5-1.2,5.1-2.1,7.8-2.9
			c1.6-0.5,2.8,0.9,1.6,1.7c-2.4,1.8-4.7,3.7-6.8,5.8c-2.5,2.5-2.6,5.8-0.8,8.1c1.7,2.2,3.3,4.4,4.7,6.4c0.3,0.4,0.6,0.8,0.9,1.2
			c0.4,0.5,1.1,0.5,1.6,0.1c1.8-1.7,3.8-3.3,5.9-4.7c1-0.7,2.3,0.4,1.7,1.4c-1,1.8-1.9,3.6-2.8,5.4c-1.1,2.4-0.2,5.2,1.7,6.4
			c4.7,2.8,10.9,1.5,18.9,3.4c0.6,0.1,1-0.3,1.1-1c-0.2-2.2,0.1-7.5-1.3-14.4c-1.4-6.8-4.5-15.2-9.6-22.6c-5-7.5-11.8-13.9-18.7-18
			c-6.7-4.2-13.4-5.9-16.1-6.7C856.7,1059.1,855.1,1059.6,854.2,1060.4z M866.8,1083.7c-0.8,0.3-1.7,0.3-2.1-0.2
			c-0.4-0.4,0-1.1,0.8-1.5c3.9-1.8,7.9-3.1,12.1-4.1c0.9-0.2,1.8,0.1,2.1,0.6c0.2,0.4,0,0.9-0.6,1.1c-0.1,0.1-0.3,0.1-0.4,0.1
			C874.5,1080.7,870.6,1082,866.8,1083.7z M879.3,1099.5L879.3,1099.5c-0.6,0.4-1.3,0.3-1.7-0.1c-0.4-0.4-0.4-1.1,0.1-1.4
			c3.4-2.5,7.1-4.6,11.1-6.2c0.6-0.3,1.5,0,1.9,0.6c0.4,0.6,0.3,1.2-0.4,1.4C886.4,1095.2,882.6,1097.1,879.3,1099.5z M896.1,1106.1
			c-1.4,1.9-2.8,3.9-4.2,5.9c-0.1,0.2-0.4,0.3-0.6,0.4c-0.3,0-0.6,0-0.8-0.2c-0.5-0.4-0.6-1-0.3-1.5c1.3-2.1,2.6-4.1,4-6.1
			c0.3-0.5,1-0.5,1.6-0.1C896.3,1104.9,896.5,1105.7,896.1,1106.1z"/>
		<path class="st127" d="M901.3,1113.4c0,0,1.9,15.9-1.1,42.9"/>
		<g>
			<path class="st126" d="M916.7,1088.7c-2.4,5.1-4.1,10.5-5.4,15.9c-1.4,5.4-2.2,11-2.9,16.6c-0.2,2.8-0.5,5.6-0.5,8.4
				c0,1.4-0.1,2.8-0.1,4.2l0.1,4.2v2.1l0.1,2.1l0.3,4.2c0.2,2.8,0.6,5.6,0.9,8.4l-2,0.3c-0.4-2.8-0.8-5.6-1.1-8.5l-0.3-4.3l-0.1-2.1
				v-2.1l-0.1-4.3c0-1.4,0.1-2.8,0.1-4.3c0.1-2.8,0.4-5.7,0.7-8.5c0.7-5.7,1.8-11.3,3.5-16.7
				C911.5,1098.8,913.6,1093.5,916.7,1088.7z"/>
		</g>
		<path class="st8" d="M881.7,1154c-0.4,1.6-0.6,3.4-0.6,5.1c0,12.2,9.9,22.1,22.1,22.1s22.1-9.9,22.1-22.1c0-1.8-0.2-3.5-0.6-5.1
			H881.7z"/>
	</g>
</g>
<path class="st0" d="M884.4,776.2c0.8-182.3,87.8-372.7,238.6-522.2c96.4-95.7,210.1-165.8,322.8-201.5
	c52.9-16.8,105.5-26.1,156.2-27v-1.8c-159.1,2.9-338.1,88.3-480,229c-71.4,70.9-130.7,153.7-171.5,239.5
	c-44.4,93.5-67.2,189-67.6,283.9c-0.4,69.2,11.5,138.6,35.1,206.3c22,62.9,54.3,124.8,96.1,183.9c46.5,65.9,104.3,127.8,170.7,183.4
	h1.8C994.1,1189.4,883.4,983.1,884.4,776.2z"/>
</svg>
