<?xml version="1.0" encoding="utf-8"?>
<!-- Generator: Adobe Illustrator 22.1.0, SVG Export Plug-In . SVG Version: 6.00 Build 0)  -->
<svg version="1.1" id="Capa_1" xmlns="http://www.w3.org/2000/svg" xmlns:xlink="http://www.w3.org/1999/xlink" x="0px" y="0px"
	 viewBox="0 0 511.9 511.9" style="enable-background:new 0 0 511.9 511.9;" xml:space="preserve">
<style type="text/css">
	.st0{stroke:#000000;stroke-width:6;stroke-miterlimit:10;}
#main {
 
}
</style>
<g id="main">
<g>
	<g>
		<path class="st0" d="M384.5,193.2c-2.2,0-3.9,1.8-3.9,3.9c0,87.2-81.9,160.8-133.4,160.8c-51.4,0-133.4-73.6-133.4-160.8
			c0-2.2-1.8-3.9-3.9-3.9c-2.2,0-3.9,1.8-3.9,3.9c0,91.5,86.7,168.7,141.2,168.7s141.2-77.2,141.2-168.7
			C388.4,194.9,386.6,193.2,384.5,193.2z"/>
	</g>
</g>
<g>
	<g>
		<path class="st0" d="M373,85.4c-15.6-18.2-36.6-20.9-47.7-20.9c-1,0-1.9,0-2.7,0.1c-2.3-9.1-6.8-37.1,21.1-48.6
			c1.6-0.7,2.6-2.3,2.4-4.1c-0.2-1.7-1.5-3.1-3.3-3.4c-2.3-0.4-22.9-3.6-50.8-3.6c-47.7,0-112.8,9.2-152.5,52.8
			c-27.1,29.8-38.4,71.5-33.5,124.1c0.2,1.7,1.4,3.1,3.1,3.5c0.3,0.1,0.6,0.1,0.8,0.1c1.4,0,2.7-0.7,3.4-1.9l31.1-53.4
			c12.4,4.9,58.3,21.6,101.7,21.6s89.9-16.8,102.3-21.6l32.8,53.5c0.9,1.4,2.5,2.1,4.1,1.8s2.9-1.6,3.1-3.2
			C395.2,137.9,390,105.4,373,85.4z M382.1,170l-28.8-47c-0.7-1.2-2-1.9-3.3-1.9c-0.5,0-1,0.1-1.5,0.3
			c-0.5,0.2-54.4,22.2-102.4,22.2s-101.3-22-101.8-22.2c-1.8-0.8-3.9-0.1-4.9,1.6L113,168.3c-1.9-44.3,8.9-79.8,32.3-105.5
			C183.1,21.5,245.9,12.7,292,12.7c15.7,0,29,1,37.9,2c-26,19.2-14.1,54.9-13.9,55.3c0.6,1.8,2.4,2.8,4.2,2.6c0.1,0,2-0.3,5.1-0.3
			c9.8,0,28.2,2.4,41.8,18.2C381.2,107,386.2,133.7,382.1,170z"/>
	</g>
</g>
<g>
	<g>
		<path class="st0" d="M354,499.1H12.7v-58.8c0-29.4,14.4-40,44.5-51.2c17.8-6.6,33.7-13,47.3-19c2-0.9,2.9-3.2,2-5.2
			s-3.2-2.9-5.2-2c-13.5,5.9-29.2,12.2-46.9,18.8c-32.2,12-49.6,24.9-49.6,58.6V503c0,2.2,1.8,3.9,3.9,3.9H354
			c2.2,0,3.9-1.8,3.9-3.9S356.2,499.1,354,499.1z"/>
	</g>
</g>
<g>
	<g>
		<path class="st0" d="M277.3,389.7c-1.9-1-4.3-0.2-5.3,1.8l-6.8,13.5h-34.4l-6.8-13.5c-1-1.9-3.3-2.7-5.3-1.8
			c-1.9,1-2.7,3.3-1.8,5.3l7.8,15.7c0.7,1.3,2,2.2,3.5,2.2h39.2c1.5,0,2.8-0.8,3.5-2.2l7.8-15.7C280,393,279.2,390.7,277.3,389.7z"
			/>
	</g>
</g>
<g>
	<g>
		<path class="st0" d="M237.8,405.3c-2-0.8-4.3,0.2-5.1,2.2L217,446.7c-0.8,2,0.2,4.3,2.2,5.1c0.5,0.2,1,0.3,1.5,0.3
			c1.6,0,3-0.9,3.6-2.5l15.7-39.2C240.8,408.4,239.8,406.1,237.8,405.3z"/>
	</g>
</g>
<g>
	<g>
		<path class="st0" d="M279.2,446.7l-15.7-39.2c-0.8-2-3.1-3-5.1-2.2s-3,3.1-2.2,5.1l15.7,39.2c0.6,1.5,2.1,2.5,3.6,2.5
			c0.5,0,1-0.1,1.5-0.3C279,451,280,448.7,279.2,446.7z"/>
	</g>
</g>
<g>
	<g>
		<path class="st0" d="M308.4,389.6L249.5,366c-2-0.8-4.3,0.2-5.1,2.2s0.2,4.3,2.2,5.1l58.8,23.5c0.5,0.2,1,0.3,1.5,0.3
			c1.6,0,3-0.9,3.6-2.5C311.4,392.7,310.4,390.4,308.4,389.6z"/>
	</g>
</g>
<g>
	<g>
		<path class="st0" d="M192.6,484.6L154.5,447l7.1-21.2c0.4-1.2,0.2-2.5-0.5-3.5l-37.3-52.2l36.9-36.9c1.5-1.5,1.5-4,0-5.5
			s-4-1.5-5.5,0L116,366.9c-1.4,1.4-1.5,3.5-0.4,5.1l38.1,53.3l-7.2,21.6c-0.5,1.4-0.1,3,1,4l39.8,39.2c0.8,0.8,1.8,1.1,2.8,1.1
			s2-0.4,2.8-1.2C194.1,488.6,194.1,486.1,192.6,484.6z"/>
	</g>
</g>
<g>
	<g>
		<path class="st0" d="M216.5,486.1l-54.9-156.9c-0.7-2-2.9-3.1-5-2.4c-2,0.7-3.1,3-2.4,5l54.9,156.9c0.6,1.6,2.1,2.6,3.7,2.6
			c0.4,0,0.9-0.1,1.3-0.2C216.1,490.3,217.2,488.1,216.5,486.1z"/>
	</g>
</g>
<g>
	<g>
		<path class="st0" d="M339.6,326.7c-2-0.7-4.3,0.4-5,2.4L279.7,486c-0.7,2,0.4,4.3,2.4,5c0.4,0.1,0.9,0.2,1.3,0.2
			c1.6,0,3.1-1,3.7-2.6L342,331.7C342.7,329.7,341.6,327.5,339.6,326.7z"/>
	</g>
</g>
<g>
	<g>
		<path class="st0" d="M251.7,368.2c-0.8-2-3.1-3-5.1-2.2l-58.8,23.5c-2,0.8-3,3.1-2.2,5.1c0.6,1.5,2.1,2.5,3.6,2.5
			c0.5,0,1-0.1,1.5-0.3l58.8-23.5C251.5,372.5,252.5,370.2,251.7,368.2z"/>
	</g>
</g>
<g>
	<g>
		<path class="st0" d="M248.1,428.5c-2.2,0-3.9,1.8-3.9,3.9v54.9c0,2.2,1.8,3.9,3.9,3.9c2.2,0,3.9-1.8,3.9-3.9v-54.9
			C252,430.3,250.3,428.5,248.1,428.5z"/>
	</g>
</g>
<g>
	<g>
		<path class="st0" d="M401.1,357.9H354c-2.2,0-3.9,1.8-3.9,3.9c0,2.2,1.8,3.9,3.9,3.9h47.1c2.2,0,3.9-1.8,3.9-3.9
			C405,359.7,403.2,357.9,401.1,357.9z"/>
	</g>
</g>
<g>
	<g>
		<path class="st0" d="M479.5,357.9h-47.1c-2.2,0-3.9,1.8-3.9,3.9c0,2.2,1.8,3.9,3.9,3.9h47.1c2.2,0,3.9-1.8,3.9-3.9
			C483.4,359.7,481.7,357.9,479.5,357.9z"/>
	</g>
</g>
<g>
	<g>
		<path class="st0" d="M377.5,436.4c-2.2,0-3.9,1.8-3.9,3.9c0,10.8-8.8,19.6-19.6,19.6c-10.8,0-19.6-8.8-19.6-19.6
			c0-2.2-1.8-3.9-3.9-3.9c-2.2,0-3.9,1.8-3.9,3.9c0,15.1,12.3,27.5,27.5,27.5c15.1,0,27.5-12.3,27.5-27.5
			C381.4,438.1,379.7,436.4,377.5,436.4z"/>
	</g>
</g>
<g>
	<g>
		<path class="st0" d="M377.5,436.4h-47.1c-2.2,0-3.9,1.8-3.9,3.9c0,2.2,1.8,3.9,3.9,3.9h47.1c2.2,0,3.9-1.8,3.9-3.9
			C381.4,438.1,379.7,436.4,377.5,436.4z"/>
	</g>
</g>
<g>
	<g>
		<path class="st0" d="M355.5,373.9c-2-0.9-4.3,0.1-5.1,2.1l-23.5,54.9c-0.9,2,0.1,4.3,2.1,5.1c0.5,0.2,1,0.3,1.5,0.3
			c1.5,0,3-0.9,3.6-2.4l23.5-54.9C358.4,377.1,357.5,374.8,355.5,373.9z"/>
	</g>
</g>
<g>
	<g>
		<path class="st0" d="M381.1,430.9L357.6,376c-0.9-2-3.2-2.9-5.1-2.1c-2,0.8-2.9,3.2-2.1,5.1l23.5,54.9c0.6,1.5,2.1,2.4,3.6,2.4
			c0.5,0,1-0.1,1.5-0.3C381.1,435.2,382,432.9,381.1,430.9z"/>
	</g>
</g>
<g>
	<g>
		<path class="st0" d="M503,436.4c-2.2,0-3.9,1.8-3.9,3.9c0,10.8-8.8,19.6-19.6,19.6c-10.8,0-19.6-8.8-19.6-19.6
			c0-2.2-1.8-3.9-3.9-3.9s-3.9,1.8-3.9,3.9c0,15.1,12.3,27.5,27.5,27.5c15.1,0,27.5-12.3,27.5-27.5C507,438.1,505.2,436.4,503,436.4
			z"/>
	</g>
</g>
<g>
	<g>
		<path class="st0" d="M503,436.4h-47c-2.2,0-3.9,1.8-3.9,3.9c0,2.2,1.8,3.9,3.9,3.9h47c2.2,0,3.9-1.8,3.9-3.9
			C507,438.1,505.2,436.4,503,436.4z"/>
	</g>
</g>
<g>
	<g>
		<path class="st0" d="M481,373.9c-2-0.9-4.3,0.1-5.1,2.1l-23.5,54.9c-0.9,2,0.1,4.3,2.1,5.1c0.5,0.2,1,0.3,1.5,0.3
			c1.5,0,3-0.9,3.6-2.4l23.5-54.9C484,377.1,483,374.8,481,373.9z"/>
	</g>
</g>
<g>
	<g>
		<path class="st0" d="M506.6,430.9L483.1,376c-0.9-2-3.2-2.9-5.1-2.1c-2,0.8-2.9,3.2-2.1,5.1l23.5,54.9c0.6,1.5,2.1,2.4,3.6,2.4
			c0.5,0,1-0.1,1.5-0.3C506.6,435.2,507.5,432.9,506.6,430.9z"/>
	</g>
</g>
<g>
	<g>
		<path class="st0" d="M416.7,350.1c-6.5,0-11.8,5.3-11.8,11.8s5.3,11.8,11.8,11.8s11.8-5.3,11.8-11.8S423.2,350.1,416.7,350.1z
			 M416.7,365.8c-2.2,0-3.9-1.8-3.9-3.9c0-2.2,1.8-3.9,3.9-3.9c2.2,0,3.9,1.8,3.9,3.9C420.7,364,418.9,365.8,416.7,365.8z"/>
	</g>
</g>
<g>
	<g>
		<path class="st0" d="M416.7,342.2c-2.2,0-3.9,1.8-3.9,3.9v7.8c0,2.2,1.8,3.9,3.9,3.9c2.2,0,3.9-1.8,3.9-3.9v-7.8
			C420.7,344,418.9,342.2,416.7,342.2z"/>
	</g>
</g>
<g>
	<g>
		<path class="st0" d="M416.7,373.6c-2.2,0-3.9,1.8-3.9,3.9v109.8c0,2.2,1.8,3.9,3.9,3.9c2.2,0,3.9-1.8,3.9-3.9V377.5
			C420.7,375.4,418.9,373.6,416.7,373.6z"/>
	</g>
</g>
<g>
	<g>
		<path class="st0" d="M456,483.4h-78.4c-2.2,0-3.9,1.8-3.9,3.9c0,2.2,1.8,3.9,3.9,3.9H456c2.2,0,3.9-1.8,3.9-3.9
			C459.9,485.2,458.1,483.4,456,483.4z"/>
	</g>
</g>
<g>
	<g>
		<path class="st0" d="M377.5,483.4c-6.5,0-11.8,5.3-11.8,11.8c0,2.2,1.8,3.9,3.9,3.9c2.2,0,3.9-1.8,3.9-3.9c0-2.2,1.8-3.9,3.9-3.9
			s3.9-1.8,3.9-3.9C381.4,485.2,379.7,483.4,377.5,483.4z"/>
	</g>
</g>
<g>
	<g>
		<path class="st0" d="M456,483.4c-2.2,0-3.9,1.8-3.9,3.9c0,2.2,1.8,3.9,3.9,3.9c2.2,0,3.9,1.8,3.9,3.9c0,2.2,1.8,3.9,3.9,3.9
			c2.2,0,3.9-1.8,3.9-3.9C467.7,488.7,462.5,483.4,456,483.4z"/>
	</g>
</g>
<g>
	<g>
		<path class="st0" d="M369.7,491.3c-2.2,0-3.9,1.8-3.9,3.9v7.8c0,2.2,1.8,3.9,3.9,3.9c2.2,0,3.9-1.8,3.9-3.9v-7.8
			C373.6,493,371.8,491.3,369.7,491.3z"/>
	</g>
</g>
<g>
	<g>
		<path class="st0" d="M463.8,491.3c-2.2,0-3.9,1.8-3.9,3.9v7.8c0,2.2,1.8,3.9,3.9,3.9c2.2,0,3.9-1.8,3.9-3.9v-7.8
			C467.7,493,466,491.3,463.8,491.3z"/>
	</g>
</g>
<g>
	<g>
		<path class="st0" d="M463.8,499.1h-94.1c-2.2,0-3.9,1.8-3.9,3.9c0,2.2,1.8,3.9,3.9,3.9h94.1c2.2,0,3.9-1.8,3.9-3.9
			C467.7,500.9,466,499.1,463.8,499.1z"/>
	</g>
</g>
</g>
</svg>
