<?xml version="1.0" encoding="iso-8859-1"?>
<!-- Generator: Adobe Illustrator 22.1.0, SVG Export Plug-In . SVG Version: 6.00 Build 0)  -->
<svg version="1.1" id="Layer_1" xmlns="http://www.w3.org/2000/svg" xmlns:xlink="http://www.w3.org/1999/xlink" x="0px" y="0px"
	 viewBox="0 0 512 512" style="enable-background:new 0 0 512 512;" xml:space="preserve">
<style>
#main {
 fill: #0ae299;
}
</style>
<g id="main">
<g>
	<g>
		<g>
			<path d="M229.935,110.925H42.202c-23.527,0-42.667,19.141-42.667,42.667v273.067c0,23.526,19.14,42.667,42.667,42.667h110.933
				v-17.067H42.202c-14.114,0-25.6-11.486-25.6-25.6V153.592c0-14.114,11.486-25.6,25.6-25.6h187.733
				c14.114,0,25.6,11.486,25.6,25.6v8.533h17.067v-8.533C272.602,130.066,253.461,110.925,229.935,110.925z"/>
		</g>
	</g>
	<g>
		<g>
			<path d="M187.268-0.008h-102.4c-14.114,0-25.6,11.486-25.6,25.6s11.486,25.6,25.6,25.6h102.4c14.114,0,25.6-11.486,25.6-25.6
				S201.382-0.008,187.268-0.008z M187.268,34.125h-102.4c-4.702,0-8.533-3.831-8.533-8.533s3.831-8.533,8.533-8.533h102.4
				c4.702,0,8.533,3.831,8.533,8.533C195.802,30.294,191.97,34.125,187.268,34.125z"/>
		</g>
	</g>
	<g>
		<g>
			<rect x="93.402" y="42.659" width="17.067" height="76.8"/>
		</g>
	</g>
	<g>
		<g>
			<rect x="161.668" y="42.659" width="17.067" height="76.8"/>
		</g>
	</g>
	<g>
		<g>
			<rect x="50.735" y="255.992" width="17.067" height="153.6"/>
		</g>
	</g>
	<g>
		<g>
			<rect x="153.135" y="162.125" width="17.067" height="68.267"/>
		</g>
	</g>
	<g>
		<g>
			<path d="M37.935,452.259c-16.469,0-29.867,13.397-29.867,29.867s13.398,29.866,29.867,29.866s29.867-13.397,29.867-29.867
				S54.404,452.259,37.935,452.259z M37.935,494.925c-7.057,0-12.8-5.743-12.8-12.8s5.743-12.8,12.8-12.8s12.8,5.743,12.8,12.8
				S44.992,494.925,37.935,494.925z"/>
		</g>
	</g>
	<g>
		<g>
			<rect x="101.935" y="162.125" width="17.067" height="247.467"/>
		</g>
	</g>
	<g>
		<g>
			<path d="M92.796,235.751l-17.067-42.667c-0.853-2.133-2.534-3.831-4.659-4.71c-2.133-0.888-4.523-0.879-6.63,0.043l-59.733,25.6
				c-3.141,1.339-5.172,4.428-5.172,7.842v51.2c0,2.893,1.459,5.581,3.883,7.159c1.408,0.905,3.029,1.374,4.651,1.374
				c1.178,0,2.355-0.239,3.473-0.742l76.8-34.133C92.531,244.856,94.494,240.018,92.796,235.751z M16.602,259.926v-32.444
				l46.524-19.934l10.769,26.914L16.602,259.926z"/>
		</g>
	</g>
	<g>
		<g>
			<rect x="50.735" y="162.125" width="17.067" height="42.667"/>
		</g>
	</g>
	<g>
		<g>
			<rect x="204.335" y="162.125" width="17.067" height="68.267"/>
		</g>
	</g>
	<g>
		<g>
			<path d="M234.202,452.259c-16.469,0-29.867,13.397-29.867,29.867s13.397,29.866,29.867,29.866
				c16.469,0,29.867-13.397,29.867-29.867S250.671,452.259,234.202,452.259z M234.202,494.925c-7.057,0-12.8-5.743-12.8-12.8
				s5.743-12.8,12.8-12.8s12.8,5.743,12.8,12.8S241.259,494.925,234.202,494.925z"/>
		</g>
	</g>
	<g>
		<g>
			<path d="M468.868,213.325H170.202c-23.527,0-42.667,19.141-42.667,42.667v170.667c0,23.526,19.14,42.667,42.667,42.667h298.667
				c23.526,0,42.667-19.14,42.667-42.667V255.992C511.535,232.466,492.395,213.325,468.868,213.325z M494.468,426.659
				c0,14.114-11.486,25.6-25.6,25.6H170.202c-14.114,0-25.6-11.486-25.6-25.6V255.992c0-14.114,11.486-25.6,25.6-25.6h298.667
				c14.114,0,25.6,11.486,25.6,25.6L494.468,426.659L494.468,426.659z"/>
		</g>
	</g>
	<g>
		<g>
			<path d="M357.935,179.192h-76.8c-4.719,0-8.533,3.823-8.533,8.533v34.133h17.067v-25.6h59.733v25.6h17.067v-34.133
				C366.468,183.015,362.654,179.192,357.935,179.192z"/>
		</g>
	</g>
	<g>
		<g>
			<path d="M357.935,145.059h-76.8c-23.526,0-42.667,19.14-42.667,42.667v34.133h17.067v-34.133c0-14.114,11.486-25.6,25.6-25.6
				h76.8c14.114,0,25.6,11.486,25.6,25.6v34.133h17.067v-34.133C400.602,164.199,381.461,145.059,357.935,145.059z"/>
		</g>
	</g>
	<g>
		<g>
			<path d="M356.339,310.767l-42.667-59.733c-3.2-4.489-10.684-4.489-13.884,0l-42.667,59.733c-1.86,2.603-2.108,6.016-0.649,8.866
				c1.468,2.842,4.395,4.625,7.595,4.625H349.4c3.2,0,6.127-1.783,7.586-4.625C358.447,316.784,358.2,313.37,356.339,310.767z
				 M280.649,307.192l26.086-36.514l26.078,36.514H280.649z"/>
		</g>
	</g>
	<g>
		<g>
			<path d="M439.539,335.582c-26.846-8.747-54.579,2.33-61.867,24.67c-3.652,11.179-1.749,23.296,5.359,34.133
				c6.716,10.24,17.391,18.15,30.046,22.289c6.238,2.031,12.518,2.995,18.586,2.995c20.028,0,37.692-10.513,43.298-27.665
				C482.257,369.648,466.368,344.338,439.539,335.582z M458.722,386.714c-4.369,13.414-22.485,19.567-40.354,13.739
				c-8.994-2.944-16.478-8.422-21.077-15.428c-4.207-6.417-5.419-13.329-3.413-19.473c0,0,0,0,0.009,0
				c3.251-9.975,14.106-15.932,26.803-15.932c4.378,0,8.969,0.7,13.534,2.193C452.109,357.658,463.091,373.308,458.722,386.714z"/>
		</g>
	</g>
	<g>
		<g>
			<path d="M165.935,452.259c-16.469,0-29.867,13.397-29.867,29.867s13.398,29.866,29.867,29.866s29.867-13.397,29.867-29.867
				S182.404,452.259,165.935,452.259z M165.935,494.925c-7.057,0-12.8-5.743-12.8-12.8s5.743-12.8,12.8-12.8s12.8,5.743,12.8,12.8
				S172.992,494.925,165.935,494.925z"/>
		</g>
	</g>
	<g>
		<g>
			<path d="M473.135,452.259c-16.469,0-29.867,13.397-29.867,29.867s13.398,29.866,29.867,29.866s29.867-13.397,29.867-29.867
				S489.604,452.259,473.135,452.259z M473.135,494.925c-7.057,0-12.8-5.743-12.8-12.8s5.743-12.8,12.8-12.8s12.8,5.743,12.8,12.8
				S480.192,494.925,473.135,494.925z"/>
		</g>
	</g>
	<g>
		<g>
			<rect x="204.335" y="392.525" width="17.067" height="68.267"/>
		</g>
	</g>
	<g>
		<g>
			<path d="M212.868,213.325h-34.133c-4.71,0-8.533,3.823-8.533,8.533v102.4h17.067v-93.866h17.066v110.933h17.067V221.859
				C221.402,217.148,217.579,213.325,212.868,213.325z"/>
		</g>
	</g>
	<g>
		<g>
			<rect x="170.202" y="366.925" width="17.067" height="93.867"/>
		</g>
	</g>
	<g>
		<g>
			<rect x="451.802" y="401.059" width="17.067" height="59.733"/>
		</g>
	</g>
	<g>
		<g>
			<path d="M460.335,213.325h-34.133c-4.719,0-8.533,3.823-8.533,8.533v119.467h17.066V230.392h17.067v128h17.067V221.859
				C468.868,217.148,465.054,213.325,460.335,213.325z"/>
		</g>
	</g>
	<g>
		<g>
			<rect x="417.668" y="409.592" width="17.067" height="51.2"/>
		</g>
	</g>
	<g>
		<g>
			<path d="M242.769,351.011l-102.4-59.733l-8.602,14.754l95.488,55.697l-9.37,18.731l-77.431-46.456l-8.781,14.635l85.333,51.2
				c1.348,0.802,2.859,1.22,4.395,1.22c0.802,0,1.604-0.111,2.389-0.341c2.278-0.666,4.181-2.253,5.248-4.378l17.067-34.133
				C248.111,358.179,246.66,353.289,242.769,351.011z"/>
		</g>
	</g>
</g>
</g>
</svg>
