<?xml version="1.0" encoding="iso-8859-1"?>
<!-- Generator: Adobe Illustrator 22.1.0, SVG Export Plug-In . SVG Version: 6.00 Build 0)  -->
<svg version="1.1" id="Layer_1" xmlns="http://www.w3.org/2000/svg" xmlns:xlink="http://www.w3.org/1999/xlink" x="0px" y="0px"
	 viewBox="0 0 512 600" style="enable-background:new 0 0 512 600;" xml:space="preserve">
<style>
  #main {
fill: #6eccfc;
margin-bottom:0;
}
</style>
<g id="main">
	<g>
		<g>
			<path d="M206.171,192.76c-5.461-2.219-11.669,0.469-13.867,5.931l-40,99.968h-3.435v-96c0-5.888-4.779-10.667-10.667-10.667
				H95.535c-5.888,0-10.667,4.779-10.667,10.667s4.779,10.666,10.667,10.666h32v96c0,5.888,4.779,10.667,10.667,10.667h21.333
				c4.352,0,8.299-2.667,9.899-6.699l42.667-106.667C214.299,201.165,211.653,194.957,206.171,192.76z"/>
		</g>
	</g>
	<g>
		<g>
			<path d="M246.939,192.205c-5.504-1.152-11.371,2.56-12.544,8.363l-21.333,106.667c-1.152,5.781,2.603,11.392,8.384,12.544
				c0.704,0.149,1.408,0.213,2.112,0.213c4.971,0,9.408-3.499,10.432-8.576l21.333-106.667
				C256.474,198.968,252.72,193.357,246.939,192.205z"/>
		</g>
	</g>
	<g>
		<g>
			<path d="M332.848,194.275c-1.728-0.469-42.773-10.539-58.603,15.147c-5.035,8.128-6.571,16.341-4.608,24.384
				c3.733,15.36,19.648,24.832,27.285,29.397c12.288,7.296,18.795,14.677,17.429,19.691c-0.725,2.581-3.115,8.981-10.133,12.715
				c-8,4.267-19.968,3.883-34.581-1.067c-5.589-1.835-11.627,1.088-13.547,6.677c-1.877,5.589,1.109,11.648,6.677,13.547
				c10.155,3.456,19.541,5.184,28.032,5.184c8.747,0,16.576-1.813,23.467-5.504c10.112-5.376,17.643-14.827,20.693-25.941
				c2.923-10.795,0.619-27.136-27.115-43.627c-4.715-2.816-15.851-9.451-17.472-16.128c-0.192-0.853-0.832-3.456,2.048-8.107
				c6.272-10.24,28.053-7.467,35.2-5.696c5.781,1.472,11.499-2.027,12.928-7.744C341.999,201.507,338.564,195.725,332.848,194.275z"
				/>
		</g>
	</g>
	<g>
		<g>
			<path d="M415.535,191.992h-21.333c-4.352,0-8.299,2.667-9.899,6.699l-42.667,106.667c-2.197,5.461,0.448,11.669,5.931,13.867
				c1.301,0.533,2.645,0.768,3.968,0.768c4.224,0,8.235-2.539,9.899-6.699l40-99.968h3.435v96c0,5.888,4.779,10.667,10.667,10.667
				s10.667-4.779,10.667-10.667V202.659C426.202,196.771,421.423,191.992,415.535,191.992z"/>
		</g>
	</g>
	<g>
		<g>
			<path d="M415.535,255.992h-42.667c-5.888,0-10.667,4.779-10.667,10.667s4.779,10.667,10.667,10.667h42.667
				c5.888,0,10.667-4.779,10.667-10.667S421.423,255.992,415.535,255.992z"/>
		</g>
	</g>
	<g>
		<g>
			<path d="M436.868,85.325H74.202c-41.174,0-74.667,33.494-74.667,74.667v192c0,41.173,33.493,74.667,74.667,74.667h362.667
				c41.173,0,74.666-33.494,74.666-74.667v-192C511.535,118.819,478.042,85.325,436.868,85.325z M490.202,351.992
				c0,29.397-23.915,53.333-53.333,53.333H74.202c-29.419,0-53.333-23.936-53.333-53.333v-192c0-29.397,23.915-53.333,53.333-53.333
				h362.667c29.419,0,53.333,23.936,53.333,53.333V351.992z"/>
		</g>
	</g>
</g>
</svg>
