<?xml version="1.0" encoding="iso-8859-1"?>
<!-- Generator: Adobe Illustrator 22.1.0, SVG Export Plug-In . SVG Version: 6.00 Build 0)  -->
<svg version="1.1" id="Layer_1" xmlns="http://www.w3.org/2000/svg" xmlns:xlink="http://www.w3.org/1999/xlink" x="0px" y="0px"
	 viewBox="0 0 512 512" style="enable-background:new 0 0 512 512;" xml:space="preserve">
<g>
	<path d="M332.33-0.3H55.73v512h401.067V124.167L332.33-0.3z M337.33,28.833l90.334,90.334H337.33V28.833z M72.797,494.634V16.767
		h247.467v119.467H439.73v358.4H72.797z"/>
	<path d="M141.064,144.767h76.8c4.71,0,8.533-3.814,8.533-8.533s-3.823-8.533-8.533-8.533h-76.8c-4.71,0-8.533,3.814-8.533,8.533
		S136.353,144.767,141.064,144.767z"/>
	<path d="M286.13,315.434H141.064c-4.71,0-8.533,3.814-8.533,8.533s3.823,8.533,8.533,8.533H286.13c4.71,0,8.533-3.814,8.533-8.533
		C294.664,319.248,290.841,315.434,286.13,315.434z"/>
	<path d="M371.464,255.7H311.73c-4.71,0-8.533,3.814-8.533,8.533s3.823,8.533,8.533,8.533h59.733c4.71,0,8.533-3.814,8.533-8.533
		C379.997,259.515,376.174,255.7,371.464,255.7z"/>
	<path d="M141.064,213.034h42.667c4.71,0,8.533-3.814,8.533-8.533s-3.823-8.533-8.533-8.533h-42.667
		c-4.71,0-8.533,3.814-8.533,8.533S136.353,213.034,141.064,213.034z"/>
	<path d="M269.064,213.034h59.733c4.71,0,8.533-3.814,8.533-8.533s-3.823-8.533-8.533-8.533h-59.733
		c-4.71,0-8.533,3.814-8.533,8.533S264.353,213.034,269.064,213.034z"/>
	<path d="M217.864,204.5c0,2.219,0.939,4.437,2.475,6.059c1.621,1.536,3.84,2.475,6.059,2.475s4.437-0.939,6.059-2.475
		c1.536-1.621,2.475-3.84,2.475-6.059c0-2.227-0.939-4.446-2.475-6.059c-3.157-3.157-8.875-3.157-12.117,0
		C218.802,200.054,217.864,202.273,217.864,204.5z"/>
	<path d="M183.73,255.7c-4.71,0-8.533,3.814-8.533,8.533s3.823,8.533,8.533,8.533h85.333c4.71,0,8.533-3.814,8.533-8.533
		s-3.823-8.533-8.533-8.533H183.73z"/>
	<path d="M141.064,272.767c2.219,0,4.437-0.939,6.059-2.475c1.536-1.621,2.475-3.84,2.475-6.059c0-2.227-0.939-4.446-2.475-6.059
		c-3.157-3.157-8.96-3.157-12.117,0c-1.536,1.613-2.475,3.746-2.475,6.059c0,2.219,0.939,4.437,2.475,6.059
		C136.626,271.828,138.845,272.767,141.064,272.767z"/>
	<path d="M371.464,375.167H311.73c-4.71,0-8.533,3.814-8.533,8.533s3.823,8.533,8.533,8.533h59.733c4.71,0,8.533-3.814,8.533-8.533
		C379.997,378.981,376.174,375.167,371.464,375.167z"/>
	<path d="M269.064,375.167H183.73c-4.71,0-8.533,3.814-8.533,8.533s3.823,8.533,8.533,8.533h85.333c4.71,0,8.533-3.814,8.533-8.533
		C277.597,378.981,273.774,375.167,269.064,375.167z"/>
	<path d="M135.005,377.642c-1.536,1.536-2.475,3.746-2.475,6.059c0,2.304,0.853,4.437,2.475,6.059
		c1.621,1.536,3.84,2.475,6.059,2.475c2.304,0,4.437-0.939,6.059-2.475c1.536-1.621,2.475-3.84,2.475-6.059
		c0-2.313-0.939-4.446-2.475-5.973C143.965,374.484,138.248,374.484,135.005,377.642z"/>
	<path d="M365.405,198.442c-1.536,1.613-2.475,3.831-2.475,6.059c0,2.219,0.939,4.437,2.475,6.059
		c1.621,1.536,3.84,2.475,6.059,2.475s4.437-0.939,6.059-2.475c1.621-1.621,2.475-3.84,2.475-6.059c0-2.227-0.853-4.446-2.475-6.059
		C374.28,195.284,368.648,195.284,365.405,198.442z"/>
	<path d="M334.856,330.026c1.536-1.621,2.475-3.84,2.475-6.059c0-2.227-0.939-4.446-2.475-6.059c-3.243-3.157-8.96-3.157-12.117,0
		c-1.536,1.613-2.475,3.831-2.475,6.059c0,2.219,0.939,4.437,2.475,6.059c1.621,1.613,3.755,2.475,6.059,2.475
		C331.101,332.5,333.234,331.562,334.856,330.026z"/>
	<path d="M365.405,317.908c-1.536,1.613-2.475,3.831-2.475,6.059c0,2.219,0.939,4.437,2.475,6.059
		c1.621,1.536,3.755,2.475,6.059,2.475s4.437-0.939,6.059-2.475c1.536-1.621,2.475-3.84,2.475-6.059
		c0-2.227-0.939-4.446-2.475-6.059C374.365,314.751,368.562,314.751,365.405,317.908z"/>
</g>
</svg>
