<?xml version="1.0" encoding="iso-8859-1"?>
<!-- Generator: Adobe Illustrator 22.1.0, SVG Export Plug-In . SVG Version: 6.00 Build 0)  -->
<svg version="1.1" id="Layer_1" xmlns="http://www.w3.org/2000/svg" xmlns:xlink="http://www.w3.org/1999/xlink" x="0px" y="0px"
	 viewBox="0 0 512 512" style="enable-background:new 0 0 512 512;" xml:space="preserve">
<g>
	<g>
		<g>
			<path d="M461.03,409.319v85.319H55.764c-21.168,0-38.394-17.226-38.394-38.394v-294.35H0.306v294.351
				c0,30.578,24.879,55.457,55.457,55.457h413.798c4.718,0,8.532-3.814,8.532-8.532v-93.851L461.03,409.319L461.03,409.319z"/>
		</g>
	</g>
	<g>
		<g>
			<path d="M469.561,196.021H55.764c-21.168,0-38.394-17.226-38.394-38.394s17.226-38.394,38.394-38.394h149.308v-17.064H55.764
				c-30.578,0-55.457,24.879-55.457,55.457s24.879,55.457,55.457,55.457H461.03v76.787h17.064v-85.319
				C478.093,199.844,474.28,196.021,469.561,196.021z"/>
		</g>
	</g>
	<g>
		<g>
			<path d="M503.689,102.17h-68.255v17.064h59.723v281.553h-34.128v17.064h42.66c4.718,0,8.532-3.814,8.532-8.532V110.702
				C512.221,105.993,508.407,102.17,503.689,102.17z"/>
		</g>
	</g>
	<g>
		<g>
			<path d="M341.583,315.468c-18.821,0-34.128,15.306-34.128,34.128s15.306,34.128,34.128,34.128
				c18.821,0,34.128-15.306,34.128-34.128S360.404,315.468,341.583,315.468z M341.583,366.66c-9.411,0-17.064-7.653-17.064-17.064
				s7.653-17.064,17.064-17.064s17.064,7.653,17.064,17.064S350.993,366.66,341.583,366.66z"/>
		</g>
	</g>
	<g>
		<g>
			<path d="M503.689,281.341H341.583c-37.634,0-68.255,30.621-68.255,68.255s30.621,68.255,68.255,68.255h162.106
				c4.718,0,8.532-3.814,8.532-8.532V289.872C512.221,285.154,508.407,281.341,503.689,281.341z M495.157,400.787H341.583
				c-28.232,0-51.191-22.959-51.191-51.191s22.959-51.191,51.191-51.191h153.574V400.787L495.157,400.787z"/>
		</g>
	</g>
	<g>
		<g>
			<path d="M494.5,157.278L351.787,12.355c-0.06-0.068-0.128-0.128-0.188-0.196C334.953-4.47,307.89-4.436,291.312,12.15
				L102.339,198.487l11.979,12.149l189.016-186.38c9.948-9.931,26.099-10.008,36.081-0.137c0.034,0.034,0.068,0.06,0.094,0.094
				l142.858,145.068c9.888,9.948,9.888,26.133,0.034,36.056l-18.855,18.77l12.03,12.09l18.89-18.804
				C510.958,200.816,510.958,173.83,494.5,157.278z"/>
		</g>
	</g>
	<g>
		<g>
			<path d="M415.469,161.902c-23.522,0-42.66,19.137-42.66,42.66h17.064c0-14.112,11.484-25.596,25.596-25.596
				s25.596,11.484,25.596,25.596h17.064C458.129,181.039,438.992,161.902,415.469,161.902z"/>
		</g>
	</g>
	<g>
		<g>
			
				<rect x="228.92" y="97.954" transform="matrix(0.7071 -0.7071 0.7071 0.7071 7.6548 231.4527)" width="108.591" height="17.064"/>
		</g>
	</g>
	<g>
		<g>
			
				<rect x="295.719" y="106.449" transform="matrix(0.7071 -0.7071 0.7071 0.7071 14.1439 264.108)" width="60.318" height="17.064"/>
		</g>
	</g>
	<g>
		<g>
			<path d="M64.296,136.307c-30.578,0-55.457,24.879-55.457,55.457h17.063c0-21.168,17.226-38.394,38.394-38.394h106.649v-17.064
				L64.296,136.307L64.296,136.307z"/>
		</g>
	</g>
	<g>
		<g>
			<path d="M17.379,204.588l-17.064-0.051c-0.009,3.396,0.29,6.8,0.904,10.11l16.782-3.106
				C17.583,209.263,17.37,206.925,17.379,204.588z"/>
		</g>
	</g>
	<g>
		<g>
			<g>
				<rect x="114.617" y="238.681" width="17.32" height="17.064"/>
				<rect x="183.904" y="238.681" width="17.32" height="17.064"/>
				<rect x="149.265" y="238.681" width="17.32" height="17.064"/>
				<path d="M23.172,223.639L9.7,234.117c4.206,5.401,9.308,9.948,15.17,13.506l8.856-14.581
					C29.647,230.567,26.098,227.402,23.172,223.639z"/>
				<rect x="79.986" y="238.681" width="17.32" height="17.064"/>
				<path d="M46.933,238.067l-3.097,16.782c3.327,0.614,6.723,0.93,10.093,0.93c0.026,0,0.06,0,0.085-0.008l8.651-0.026v-17.064
					l-8.668,0.026C51.617,238.51,49.254,238.493,46.933,238.067z"/>
				<rect x="287.823" y="238.681" width="17.32" height="17.064"/>
				<rect x="218.544" y="238.681" width="17.32" height="17.064"/>
				<rect x="391.742" y="238.681" width="17.311" height="17.064"/>
				<rect x="426.381" y="238.681" width="17.32" height="17.064"/>
				<rect x="357.102" y="238.681" width="17.32" height="17.064"/>
				<rect x="322.463" y="238.681" width="17.311" height="17.064"/>
				<rect x="253.184" y="238.681" width="17.311" height="17.064"/>
			</g>
		</g>
	</g>
	<g>
		<g>
			<rect x="461.072" y="238.681" width="8.532" height="17.064"/>
		</g>
	</g>
	<g>
		<g>
			<path d="M17.379,417.877l-17.064-0.051c-0.009,3.404,0.29,6.808,0.904,10.119l16.782-3.123
				C17.583,422.561,17.37,420.215,17.379,417.877z"/>
		</g>
	</g>
	<g>
		<g>
			<g>
				<rect x="218.544" y="451.979" width="17.32" height="17.064"/>
				<rect x="183.904" y="451.979" width="17.32" height="17.064"/>
				<rect x="149.265" y="451.979" width="17.32" height="17.064"/>
				<path d="M23.172,436.929L9.7,447.414c4.206,5.409,9.308,9.948,15.17,13.506l8.856-14.581
					C29.647,443.865,26.098,440.691,23.172,436.929z"/>
				<path d="M46.933,451.365l-3.08,16.782c3.344,0.614,6.757,0.922,10.144,0.922l8.668-0.026v-17.064l-8.668,0.026
					C51.634,452.004,49.262,451.791,46.933,451.365z"/>
				<rect x="79.986" y="451.979" width="17.32" height="17.064"/>
				<rect x="114.625" y="451.979" width="17.32" height="17.064"/>
				<rect x="391.742" y="451.979" width="17.311" height="17.064"/>
				<rect x="357.102" y="451.979" width="17.32" height="17.064"/>
				<rect x="426.381" y="451.979" width="17.32" height="17.064"/>
				<rect x="253.184" y="451.979" width="17.32" height="17.064"/>
				<rect x="287.823" y="451.979" width="17.32" height="17.064"/>
				<rect x="322.463" y="451.979" width="17.311" height="17.064"/>
			</g>
		</g>
	</g>
	<g>
		<g>
			<rect x="461.072" y="451.979" width="8.532" height="17.064"/>
		</g>
	</g>
	<g>
		<g>
			<rect x="469.604" y="136.298" width="34.128" height="17.064"/>
		</g>
	</g>
	<g>
		<g>
			
				<rect x="343.049" y="136.289" transform="matrix(0.7071 -0.7071 0.7071 0.7071 5.1413 302.0532)" width="48.265" height="17.064"/>
		</g>
	</g>
	<g>
		<g>
			
				<rect x="302.12" y="183.227" transform="matrix(0.7071 -0.7071 0.7071 0.7071 -41.8038 282.5945)" width="36.201" height="17.064"/>
		</g>
	</g>
</g>
</svg>
