<?xml version="1.0" encoding="utf-8"?>
<!-- Generator: Adobe Illustrator 22.1.0, SVG Export Plug-In . SVG Version: 6.00 Build 0)  -->
<svg version="1.1" id="Capa_1" xmlns="http://www.w3.org/2000/svg" xmlns:xlink="http://www.w3.org/1999/xlink" x="0px" y="0px"
	 viewBox="0 0 480 480" style="enable-background:new 0 0 480 480;" xml:space="preserve">
<style type="text/css">
	.st0{fill:#FF8500;}
</style>
<g>
	<g>
		<rect x="180.3" y="265.1" class="st0" width="13.9" height="13.9"/>
	</g>
</g>
<g>
	<g>
		<rect x="152.5" y="265.1" class="st0" width="13.9" height="13.9"/>
	</g>
</g>
<g>
	<g>
		<rect x="263.5" y="285.9" class="st0" width="13.9" height="13.9"/>
	</g>
</g>
<g>
	<g>
		<rect x="235.7" y="285.9" class="st0" width="13.9" height="13.9"/>
	</g>
</g>
<g>
	<g>
		<rect x="263.5" y="258.1" class="st0" width="13.9" height="13.9"/>
	</g>
</g>
<g>
	<g>
		<rect x="235.7" y="258.1" class="st0" width="13.9" height="13.9"/>
	</g>
</g>
<g>
	<g>
		<rect x="263.5" y="230.4" class="st0" width="13.9" height="13.9"/>
	</g>
</g>
<g>
	<g>
		<rect x="235.7" y="230.4" class="st0" width="13.9" height="13.9"/>
	</g>
</g>
<g>
	<g>
		<rect x="263.5" y="202.7" class="st0" width="13.9" height="13.9"/>
	</g>
</g>
<g>
	<g>
		<rect x="235.7" y="202.7" class="st0" width="13.9" height="13.9"/>
	</g>
</g>
<g>
	<g>
		<rect x="263.5" y="174.9" class="st0" width="13.9" height="13.9"/>
	</g>
</g>
<g>
	<g>
		<rect x="235.7" y="174.9" class="st0" width="13.9" height="13.9"/>
	</g>
</g>
<g>
	<g>
		<rect x="124.8" y="265.1" class="st0" width="13.9" height="13.9"/>
	</g>
</g>
<g>
	<g>
		<rect x="180.3" y="237.3" class="st0" width="13.9" height="13.9"/>
	</g>
</g>
<g>
	<g>
		<rect x="152.5" y="237.3" class="st0" width="13.9" height="13.9"/>
	</g>
</g>
<g>
	<g>
		<rect x="124.8" y="237.3" class="st0" width="13.9" height="13.9"/>
	</g>
</g>
<g>
	<g>
		<rect x="180.3" y="209.6" class="st0" width="13.9" height="13.9"/>
	</g>
</g>
<g>
	<g>
		<rect x="152.5" y="209.6" class="st0" width="13.9" height="13.9"/>
	</g>
</g>
<g>
	<g>
		<rect x="124.8" y="209.6" class="st0" width="13.9" height="13.9"/>
	</g>
</g>
<g>
	<g>
		<rect x="180.3" y="181.9" class="st0" width="13.9" height="13.9"/>
	</g>
</g>
<g>
	<g>
		<rect x="152.5" y="181.9" class="st0" width="13.9" height="13.9"/>
	</g>
</g>
<g>
	<g>
		<rect x="124.8" y="181.9" class="st0" width="13.9" height="13.9"/>
	</g>
</g>
<g>
	<g>
		<rect x="180.3" y="154.1" class="st0" width="13.9" height="13.9"/>
	</g>
</g>
<g>
	<g>
		<rect x="152.5" y="154.1" class="st0" width="13.9" height="13.9"/>
	</g>
</g>
<g>
	<g>
		<rect x="124.8" y="154.1" class="st0" width="13.9" height="13.9"/>
	</g>
</g>
<g>
	<g>
		<rect x="180.3" y="126.4" class="st0" width="13.9" height="13.9"/>
	</g>
</g>
<g>
	<g>
		<rect x="152.5" y="126.4" class="st0" width="13.9" height="13.9"/>
	</g>
</g>
<g>
	<g>
		<rect x="124.8" y="126.4" class="st0" width="13.9" height="13.9"/>
	</g>
</g>
<g>
	<g>
		<rect x="117.9" y="355.2" class="st0" width="13.9" height="13.9"/>
	</g>
</g>
<g>
	<g>
		<rect x="145.6" y="355.2" class="st0" width="55.5" height="13.9"/>
	</g>
</g>
<g>
	<g>
		<rect x="90.1" y="382.9" class="st0" width="145.6" height="13.9"/>
	</g>
</g>
<g>
	<g>
		<path d="M427.3,354.5c16.1-3.3,27.7-17.5,27.7-34c0-51.3-13.3-83.2-34.7-83.2c-21.4,0-34.7,31.9-34.7,83.2
			c0,16.5,11.6,30.7,27.7,34v111.6h-66.7v-41.6h6.9c3.8,0,6.9-3.1,6.9-6.9v-48.5c0-2.7-1.6-5.1-4-6.3l-29.7-13.9
			c-2.1-1-4.6-0.8-6.6,0.4c-4.8,3-9.8,5.6-15.1,7.6V161.1c0-2.8-1.7-5.3-4.3-6.4l-78.9-32.9V70.9c0-3.8-3.1-6.9-6.9-6.9
			c-0.8,0-1.7,0.1-2.4,0.4L101.6,106c-2.7,1-4.5,3.6-4.5,6.5v224.7C81.5,346,67.8,357.8,56.8,372c-0.8,1.2-1.3,2.6-1.3,4v41.6
			c0,3.8,3.1,6.9,6.9,6.9h6.9v41.6H41.6V354.5c16.1-3.3,27.7-17.5,27.7-34c0-51.3-13.3-83.2-34.7-83.2S0,269.2,0,320.5
			c0,16.5,11.6,30.7,27.7,34v111.6H0V480h480v-13.9h-52.7V354.5L427.3,354.5z M27.7,340.1c-8.3-2.9-13.8-10.7-13.9-19.5
			c0-47.8,12.2-69.3,20.8-69.3s20.8,21.5,20.8,69.3c0,8.8-5.6,16.6-13.9,19.5v-19.5H27.7V340.1z M221.9,136.8l69.3,28.9v147.9h-69.3
			L221.9,136.8L221.9,136.8z M221.9,327.5h69.3v33.3c-4.6,0.9-9.2,1.3-13.9,1.3c-20.6,0-32.8-8.2-46.9-17.7
			c-2.8-1.8-5.6-3.7-8.5-5.5L221.9,327.5L221.9,327.5z M110.9,117.3L208,80.9v211.9h-97.1V117.3z M110.9,306.7H208v24.4
			c-15.1-7.3-31.8-10.9-48.5-10.6c-16.7,0-33.2,3.4-48.5,9.9L110.9,306.7L110.9,306.7z M69.3,378.4c22.2-27.1,55.1-43.2,90.1-44
			c31,0,47.4,11,63.2,21.6c14.7,9.8,29.8,20,54.7,20c16.5,0,32.7-4.5,46.9-13l22.4,10.4v37.2H69.3C69.3,410.7,69.3,378.4,69.3,378.4
			z M97.1,466.1H83.2v-41.6h13.9V466.1z M159.5,466.1H111v-13.9h48.5V466.1z M159.5,438.4H111v-13.9h48.5V438.4z M201.1,466.1h-27.7
			v-41.6h27.7V466.1z M242.7,466.1H215v-41.6h27.7V466.1z M305.1,466.1h-48.5v-13.9h48.5V466.1z M305.1,438.4h-48.5v-13.9h48.5
			V438.4z M332.8,466.1h-13.9v-41.6h13.9V466.1z M413.4,340.1c-8.3-2.9-13.8-10.7-13.9-19.5c0-47.8,12.2-69.3,20.8-69.3
			c8.6,0,20.8,21.5,20.8,69.3c0,8.8-5.6,16.6-13.9,19.5v-19.5h-13.9v19.5H413.4z"/>
	</g>
</g>
<g>
	<g>
		<rect x="318.9" y="382.9" class="st0" width="13.9" height="13.9"/>
	</g>
</g>
<g>
	<path class="st0" d="M403.4,109.1l42.9-36.4L420.7,63l-35.2,15.9l-51.2-19.3l43.8-36.1l-20.5-7.7l-54.1,32.3l-30.8-11.6
		c-9.7-3.7-28.2-2.7-31.4,5.7c-0.6,1.9-0.6,3.9,0,5.8L403.4,109.1z"/>
	<path d="M406.9,113.3l42.9-36.4c1.5-1.3,2.1-3.2,1.9-5.1c-0.3-1.9-1.6-3.5-3.4-4.2l-25.6-9.7c-1.4-0.5-2.8-0.4-4.2,0.2l-33.2,15
		L345,57.9l36.5-30.1c1.5-1.2,2.2-3.2,2-5.1c-0.3-2-1.6-3.5-3.5-4.2l-20.5-7.7c-1.5-0.6-3.3-0.4-4.7,0.4l-51.7,30.9l-28.3-10.6
		c-10.8-4.1-33.7-3.8-38.5,8.9c-1,3-1.1,6.3-0.1,9.3c0.5,1.6,1.7,3,3.3,3.6l161.8,61C403.3,114.9,405.5,114.5,406.9,113.3z
		 M246.7,44.1c1.5-3.9,15.3-5.9,24.3-2.5l30.8,11.6c1.5,0.6,3.3,0.4,4.7-0.4l51.7-30.9l9.2,3.4l-36.5,30.2c-1.5,1.2-2.2,3.2-2,5.1
		c0.3,2,1.6,3.5,3.4,4.2L383.6,84c1.4,0.5,2.8,0.4,4.2-0.2l33.2-15l14.7,5.6l-33.4,28.4L246.7,44.1z"/>
	<path class="st0" d="M393.9,41.2l25.6,9.7c2.8,1,6-0.3,7-3.2c1-2.8-0.3-6-3.2-7L397.8,31c-2.8-1-6,0.3-7,3.2
		C389.6,37,391.1,40.1,393.9,41.2z"/>
	<path class="st0" d="M375.9,57.8l10.3,3.9c2.8,1,6-0.3,7-3.2c1-2.8-0.3-6-3.2-7l-10.3-3.9c-2.8-1-6,0.3-7,3.2
		C371.7,53.6,373.1,56.7,375.9,57.8z"/>
	<path class="st0" d="M441.2,117.4l-10.3-3.9c-2.8-1-6,0.3-7,3.2c-1,2.8,0.3,6,3.2,7l10.3,3.9c2.8,1,6-0.3,7-3.2
		C445.4,121.6,444,118.6,441.2,117.4z"/>
</g>
</svg>
