<?xml version="1.0" encoding="utf-8"?>
<!-- Generator: Adobe Illustrator 22.1.0, SVG Export Plug-In . SVG Version: 6.00 Build 0)  -->
<svg version="1.1" id="Layer_1" xmlns="http://www.w3.org/2000/svg" xmlns:xlink="http://www.w3.org/1999/xlink" x="0px" y="0px"
	 viewBox="0 0 512 512" style="enable-background:new 0 0 512 512;" xml:space="preserve">
<style type="text/css">
	.st0{fill:#FFFFFF;}
</style>
<g>
	<g>
		<g>
			<path class="st0" d="M352.1,347.6c-4.1,0-7.5,3.4-7.5,7.5v17.7c0,4.1,3.4,7.5,7.5,7.5s7.5-3.4,7.5-7.5v-17.7
				C359.6,351,356.2,347.6,352.1,347.6z"/>
		</g>
	</g>
	<g>
		<g>
			<path class="st0" d="M380.8,347.6c-4.1,0-7.5,3.4-7.5,7.5v17.7c0,4.1,3.4,7.5,7.5,7.5s7.5-3.4,7.5-7.5v-17.7
				C388.3,351,385,347.6,380.8,347.6z"/>
		</g>
	</g>
	<g>
		<g>
			<path class="st0" d="M352.1,397c-4.1,0-7.5,3.4-7.5,7.5v17.7c0,4.1,3.4,7.5,7.5,7.5s7.5-3.4,7.5-7.5v-17.7
				C359.6,400.4,356.2,397,352.1,397z"/>
		</g>
	</g>
	<g>
		<g>
			<path class="st0" d="M380.8,397c-4.1,0-7.5,3.4-7.5,7.5v17.7c0,4.1,3.4,7.5,7.5,7.5s7.5-3.4,7.5-7.5v-17.7
				C388.3,400.4,385,397,380.8,397z"/>
		</g>
	</g>
	<g>
		<g>
			<path class="st0" d="M131.6,347.6c-4.1,0-7.5,3.4-7.5,7.5v17.7c0,4.1,3.4,7.5,7.5,7.5c4.1,0,7.5-3.4,7.5-7.5v-17.7
				C139.1,351,135.7,347.6,131.6,347.6z"/>
		</g>
	</g>
	<g>
		<g>
			<path class="st0" d="M160.3,347.6c-4.1,0-7.5,3.4-7.5,7.5v17.7c0,4.1,3.4,7.5,7.5,7.5s7.5-3.4,7.5-7.5v-17.7
				C167.8,351,164.5,347.6,160.3,347.6z"/>
		</g>
	</g>
	<g>
		<g>
			<path class="st0" d="M131.6,397c-4.1,0-7.5,3.4-7.5,7.5v17.7c0,4.1,3.4,7.5,7.5,7.5c4.1,0,7.5-3.4,7.5-7.5v-17.7
				C139.1,400.4,135.7,397,131.6,397z"/>
		</g>
	</g>
	<g>
		<g>
			<path class="st0" d="M160.3,397c-4.1,0-7.5,3.4-7.5,7.5v17.7c0,4.1,3.4,7.5,7.5,7.5s7.5-3.4,7.5-7.5v-17.7
				C167.8,400.4,164.5,397,160.3,397z"/>
		</g>
	</g>
	<g>
		<g>
			<path class="st0" d="M238.6,347.6c-4.1,0-7.5,3.4-7.5,7.5v17.7c0,4.1,3.4,7.5,7.5,7.5s7.5-3.4,7.5-7.5v-17.7
				C246.1,351,242.7,347.6,238.6,347.6z"/>
		</g>
	</g>
	<g>
		<g>
			<path class="st0" d="M267.3,347.6c-4.1,0-7.5,3.4-7.5,7.5v17.7c0,4.1,3.4,7.5,7.5,7.5s7.5-3.4,7.5-7.5v-17.7
				C274.8,351,271.4,347.6,267.3,347.6z"/>
		</g>
	</g>
	<path class="st0" d="M436.2,257.4H199.5c-3.2,0-5.8,2.6-5.8,5.8v2.7c0,3.6,2.9,6.5,6.5,6.5h236l0,0V257.4z"/>
	<path class="st0" d="M76.3,257.4h91.3c3.2,0,5.8,2.6,5.8,5.8v2.8c0,3.5-2.9,6.4-6.4,6.4H76.3C76.3,272.4,76.3,257.4,76.3,257.4z"/>
	<path class="st0" d="M453.2,469.9h-36.4v-39c0-4.1-3.4-7.5-7.5-7.5s-7.5,3.4-7.5,7.5v39h-55.6c0.6-1.9,0.9-3.9,0.9-6
		c0-10-7-18.3-16.3-20.5v-117h71v69.5c0,4.1,3.4,7.5,7.5,7.5s7.5-3.4,7.5-7.5v-77v-19.5c0.1,0,1.4,0,1.3,0c10,0,18.1-8.1,18.1-18.1
		c0-23.2,0-26.9-0.1-30.6c0-3.8-1.9-7.4-5-9.7l-126.5-91.1c-11.3-8.2-21.9-5.5-27.4-6V97.2h69.6c6.2,0,11.2-5,11.2-11.2V31.6
		c0-5.7-4.7-10.4-10.4-10.4h-70.4v-0.3c0-12.7-11.7-23.7-25.9-20.4c-9.9,2.5-16.1,11.1-16.1,20.4v20.8c0,4.1,3.4,7.5,7.5,7.5
		s7.5-3.4,7.5-7.5V20.9c0-3.1,2.4-5.9,5.9-6s6.1,2.7,6.1,6v7.8c0,11.6,0,102,0,115.2h-12V76.7c0-4.1-3.4-7.5-7.5-7.5
		s-7.5,3.4-7.5,7.5v67.2c-7.6,0.6-17.6-2.2-28.4,5.5l-124,89.5c-4.1,2.9-6.5,7.7-6.5,12.7c0,31.4-0.4,31.5,0.7,35.2
		c4.3,13.8,18.5,12.7,18.6,12.7c0,33.7,0,130.2,0,170.5H59.3c-11.8,0-21.1,9.9-21,20.5c-0.6,11,8.7,21.5,21,21.5h393.9
		c11.6,0,21-9.4,21-21C474.2,479.5,464.9,469.9,453.2,469.9z M277.2,36.2h65.9v46h-65.9V36.2z M332,463.9c0,3.3-2.7,6-6,6h-33
		c-3.3,0-6-2.7-6-6s2.7-6,6-6c6.3,0,26.7,0,33,0C329.3,457.9,332,460.6,332,463.9z M272.9,469.9H261V411h27.4v32.4
		C276.6,446.1,269.4,458.3,272.9,469.9z M218.5,443.4V411h27.4v58.9H234C237.5,458.2,230.1,446.1,218.5,443.4z M160.7,469.9h-50
		V326.4h65.5v117C164.5,446.1,157.2,458.1,160.7,469.9z M110.7,311.4v-12h65.5v12H110.7z M180.9,457.9c0.1,0,33.1,0,33.6,0
		c2.8,0.3,5.1,2.5,5.4,5.4c0.4,3.5-2.4,6.6-6,6.6h-33c-3.3,0-6-2.7-6-6S177.5,457.9,180.9,457.9z M191.2,442.9
		c0-21.4,0-125.8,0-143.5h12.3c0,22.5,0,80.8,0,104.1v39.4H191.2z M218.5,396v-69.6h69.8V396C269.5,396,229.5,396,218.5,396z
		 M218.5,311.4v-12h69.8v12H218.5z M303.4,442.9v-39.4c0-23.4,0-81.7,0-104.1h12.3c0,17.6,0,122.1,0,143.5H303.4z M401.7,311.4h-71
		v-12h71V311.4z M91.4,257.4c0.1-5.5-0.2-6,0.3-6.4c130-92.7,123.7-92.2,132.3-92.2c22.9,0,39.9,0,61.9,0c10,0,3.6,0,135.1,93.6
		c0,0.1,0.1,5.4,0.1,5v15c0,9.2,0.1,9.1-0.1,9.8c-0.4,1.2-1.5,2.2-2.9,2.2c-72.7,0-144.8,0-234.3,0c-16,0-78.8,0-89.4,0
		c-1.6,0-2.6-1.1-2.9-2.2c-0.2-0.7-0.1-0.8-0.1-9.8 M453.2,496.9H59.3c-3.8,0-6.7-3.6-5.8-7.3c0.1-0.1,1.1-4.7,5.8-4.7
		c105.2,0,328.9,0,393.9,0c3,0,5.8,2.2,6,6.2C459.1,494.3,456.4,496.9,453.2,496.9z"/>
</g>
</svg>
