<?xml version="1.0" encoding="iso-8859-1"?>
<!-- Generator: Adobe Illustrator 22.1.0, SVG Export Plug-In . SVG Version: 6.00 Build 0)  -->
<svg version="1.1" id="Layer_1" xmlns="http://www.w3.org/2000/svg" xmlns:xlink="http://www.w3.org/1999/xlink" x="0px" y="0px"
	 viewBox="0 0 512 512" style="enable-background:new 0 0 512 512;" xml:space="preserve">
<g>
	<g>
		<g>
			<path d="M431.868,6.738c-6.199-5.3-14.499-7.699-22.598-6.399L97.099,49.235c-1.1,0.2-2.2,0.6-3.2,1.1
				c-13.999,3.9-24.398,16.698-24.398,31.997v396.564c0,18.298,14.899,33.097,33.097,33.097h262.276
				c15.499,0,28.097-12.599,28.097-28.097v-20.798l24.998-4c13.699-2.2,23.598-13.799,23.598-27.697V28.136
				C441.667,19.837,438.068,12.138,431.868,6.738z M372.974,445.998v20.298v17.598c0,4.4-3.6,8.099-8.099,8.099H211.589h-108.89
				c-7.199,0-13.099-5.899-13.099-13.099V82.231c0-7.199,5.899-13.099,13.099-13.099h5.899h256.376c4.4,0,8.099,3.6,8.099,8.099
				v368.766L372.974,445.998L372.974,445.998z M421.669,431.399L421.669,431.399c0,4-2.9,7.299-6.799,7.999l-21.798,3.5V77.132
				c0-15.499-12.599-28.097-28.097-28.097H227.187L412.37,20.037c3.2-0.5,5.4,0.9,6.499,1.8c1.1,0.9,2.8,2.9,2.8,6.099
				L421.669,431.399L421.669,431.399z"/>
		</g>
	</g>
	<g>
		<g>
			<path d="M336.377,158.125c-0.5-1.3-1-2.6-1.5-3.8c-2.2-5.1-7.999-7.499-13.099-5.3c-5.1,2.2-7.499,7.999-5.299,13.099
				c0.4,1,0.9,2.1,1.3,3.2c11.899,31.197,5.999,66.494-15.399,92.192l-70.993,85.092l-70.993-85.092
				c-30.797-36.997-28.397-90.492,5.599-124.589c26.198-26.198,65.394-34.197,99.791-20.498c5.1,2.1,10.899-0.4,12.999-5.599
				c2.1-5.1-0.4-10.899-5.599-12.999c-41.896-16.698-89.492-6.999-121.389,24.898c-19.898,19.898-31.597,46.296-32.797,74.393
				c-1.3,28.097,7.999,55.495,25.998,77.093l78.693,94.291c1.9,2.3,4.7,3.6,7.699,3.6s5.799-1.3,7.699-3.6l78.693-94.291
				C343.676,239.017,350.776,196.021,336.377,158.125z"/>
		</g>
	</g>
	<g>
		<g>
			<path d="M294.681,389.703H167.893c-5.499,0-9.999,4.5-9.999,9.999s4.5,9.999,9.999,9.999h126.788c5.499,0,9.999-4.5,9.999-9.999
				S300.18,389.703,294.681,389.703z"/>
		</g>
	</g>
	<g>
		<g>
			<path d="M346.476,445.398c-0.1-0.6-0.3-1.3-0.6-1.9c-0.3-0.6-0.6-1.2-0.9-1.7c-0.4-0.6-0.8-1.1-1.2-1.5c-0.4-0.4-1-0.9-1.5-1.2
				c-0.5-0.4-1.1-0.7-1.7-0.9c-0.6-0.3-1.2-0.5-1.9-0.6c-1.3-0.3-2.6-0.3-3.9,0c-0.6,0.1-1.3,0.3-1.9,0.6c-0.6,0.3-1.2,0.6-1.7,0.9
				c-0.5,0.4-1.1,0.8-1.5,1.2c-0.4,0.4-0.9,1-1.3,1.5s-0.7,1.1-0.9,1.7c-0.3,0.6-0.4,1.2-0.6,1.9c-0.2,0.7-0.2,1.3-0.2,2
				c0,0.6,0.1,1.3,0.2,2s0.3,1.3,0.6,1.9c0.3,0.6,0.6,1.2,0.9,1.7c0.1,0.1,0.1,0.2,0.2,0.2c0.3,0.5,0.7,0.9,1.1,1.3
				c0.5,0.5,1,0.9,1.5,1.3s1.1,0.7,1.7,0.9c0.6,0.3,1.2,0.5,1.9,0.6c0.6,0.1,1.3,0.2,2,0.2s1.3-0.1,2-0.2s1.3-0.3,1.9-0.6
				c0.6-0.3,1.2-0.5,1.7-0.9s1.1-0.8,1.5-1.3s0.9-1,1.2-1.5c0.4-0.5,0.7-1.1,0.9-1.7c0.1-0.3,0.2-0.6,0.3-0.8c0.1-0.3,0.2-0.7,0.3-1
				c0.1-0.6,0.2-1.3,0.2-2C346.676,446.698,346.576,445.998,346.476,445.398z"/>
		</g>
	</g>
	<g>
		<g>
			<path d="M296.381,437.299H125.896c-5.499,0-9.999,4.5-9.999,9.999c0,5.5,4.5,9.999,9.999,9.999H296.38
				c5.5,0,9.999-4.5,9.999-9.999C306.38,441.798,301.98,437.299,296.381,437.299z"/>
		</g>
	</g>
	<g>
		<g>
			<path d="M304.98,201.721c0-0.1,0-0.1,0-0.2c-0.1-40.496-32.997-73.393-73.493-73.493c-0.1,0-0.1,0-0.2,0c0,0,0,0-0.1,0
				c-40.696,0-73.693,33.097-73.693,73.693v0.1c0,0.1,0,0.2,0,0.2c0.2,40.496,33.197,73.393,73.693,73.393
				C271.883,275.414,304.98,242.417,304.98,201.721L304.98,201.721z M177.992,194.921c2.7-21.298,17.898-38.696,37.997-44.696
				c-5.4,16.798-7.999,34.197-7.999,51.595C197.79,200.621,187.791,198.321,177.992,194.921z M179.591,216.419
				c9.699,2.8,19.598,4.7,29.597,5.699c1.3,10.499,3.6,20.898,6.799,31.097C198.49,248.016,184.591,234.118,179.591,216.419z
				 M237.886,255.016c-4-10.399-6.799-21.198-8.399-32.097c10.599-0.2,21.198-1.5,31.697-3.7l22.298-4.8
				C278.282,235.817,260.184,252.316,237.886,255.016z M256.984,199.621c-9.599,2.1-19.298,3.1-28.997,3.3
				c-0.2-18.498,3.1-36.997,9.799-54.495c23.898,2.9,43.096,21.598,46.596,45.396L256.984,199.621z"/>
		</g>
	</g>
	<g>
		<g>
			<path d="M313.479,123.828c-0.1-0.6-0.3-1.3-0.6-1.9c-0.3-0.6-0.6-1.2-0.9-1.7c-0.4-0.6-0.8-1.1-1.2-1.5c-0.5-0.5-1-0.9-1.5-1.3
				s-1.1-0.7-1.7-0.9c-0.6-0.2-1.2-0.4-1.9-0.6c-1.3-0.3-2.6-0.3-3.9,0c-0.6,0.1-1.3,0.3-1.9,0.6c-0.6,0.3-1.2,0.6-1.7,0.9
				c-0.5,0.4-1,0.8-1.5,1.3s-0.9,1-1.2,1.5c-0.4,0.5-0.7,1.1-0.9,1.7c-0.3,0.6-0.4,1.2-0.6,1.9c-0.1,0.7-0.2,1.3-0.2,2
				s0.1,1.3,0.2,1.9s0.3,1.3,0.6,1.9c0.3,0.6,0.6,1.2,0.9,1.7c0.4,0.6,0.8,1.1,1.2,1.5c0.5,0.5,1,0.9,1.5,1.2
				c0.5,0.4,1.1,0.7,1.7,0.9s1.2,0.4,1.9,0.6c0.6,0.1,1.3,0.2,2,0.2s1.3-0.1,2-0.2c0.6-0.1,1.3-0.3,1.9-0.6s1.2-0.6,1.7-0.9
				c0.5-0.4,1.1-0.8,1.5-1.2s0.9-1,1.2-1.5c0.4-0.5,0.7-1.1,0.9-1.7c0.3-0.6,0.4-1.2,0.6-1.9c0.2-0.7,0.2-1.3,0.2-1.9
				C313.679,125.128,313.679,124.428,313.479,123.828z"/>
		</g>
	</g>
</g>
</svg>
