<?xml version="1.0" encoding="utf-8"?>
<!-- Generator: Adobe Illustrator 22.1.0, SVG Export Plug-In . SVG Version: 6.00 Build 0)  -->
<svg version="1.1" id="Layer_1" xmlns="http://www.w3.org/2000/svg" xmlns:xlink="http://www.w3.org/1999/xlink" x="0px" y="0px"
	 viewBox="0 0 512 512" style="enable-background:new 0 0 512 512;" xml:space="preserve">
<style type="text/css">
	.st0{fill:#FFFFFF;}
</style>
<g>
	<g>
		<g>
			<path class="st0" d="M431.9,6.7c-6.2-5.3-14.5-7.7-22.6-6.4L97.1,49.2c-1.1,0.2-2.2,0.6-3.2,1.1c-14,3.9-24.4,16.7-24.4,32v396.6
				c0,18.3,14.9,33.1,33.1,33.1h262.3c15.5,0,28.1-12.6,28.1-28.1v-20.8l25-4c13.7-2.2,23.6-13.8,23.6-27.7V28.1
				C441.7,19.8,438.1,12.1,431.9,6.7z M373,446v20.3v17.6c0,4.4-3.6,8.1-8.1,8.1H211.6H102.7c-7.2,0-13.1-5.9-13.1-13.1V82.2
				c0-7.2,5.9-13.1,13.1-13.1h5.9H365c4.4,0,8.1,3.6,8.1,8.1L373,446L373,446L373,446z M421.7,431.4L421.7,431.4c0,4-2.9,7.3-6.8,8
				l-21.8,3.5V77.1c0-15.5-12.6-28.1-28.1-28.1H227.2l185.2-29c3.2-0.5,5.4,0.9,6.5,1.8c1.1,0.9,2.8,2.9,2.8,6.1L421.7,431.4
				L421.7,431.4z"/>
		</g>
	</g>
	<g>
		<g>
			<path class="st0" d="M336.4,158.1c-0.5-1.3-1-2.6-1.5-3.8c-2.2-5.1-8-7.5-13.1-5.3c-5.1,2.2-7.5,8-5.3,13.1
				c0.4,1,0.9,2.1,1.3,3.2c11.9,31.2,6,66.5-15.4,92.2l-71,85.1l-71-85.1c-30.8-37-28.4-90.5,5.6-124.6
				c26.2-26.2,65.4-34.2,99.8-20.5c5.1,2.1,10.9-0.4,13-5.6c2.1-5.1-0.4-10.9-5.6-13c-41.9-16.7-89.5-7-121.4,24.9
				c-19.9,19.9-31.6,46.3-32.8,74.4c-1.3,28.1,8,55.5,26,77.1l78.7,94.3c1.9,2.3,4.7,3.6,7.7,3.6s5.8-1.3,7.7-3.6l78.7-94.3
				C343.7,239,350.8,196,336.4,158.1z"/>
		</g>
	</g>
	<g>
		<g>
			<path class="st0" d="M294.7,389.7H167.9c-5.5,0-10,4.5-10,10s4.5,10,10,10h126.8c5.5,0,10-4.5,10-10S300.2,389.7,294.7,389.7z"/>
		</g>
	</g>
	<g>
		<g>
			<path class="st0" d="M346.5,445.4c-0.1-0.6-0.3-1.3-0.6-1.9c-0.3-0.6-0.6-1.2-0.9-1.7c-0.4-0.6-0.8-1.1-1.2-1.5
				c-0.4-0.4-1-0.9-1.5-1.2c-0.5-0.4-1.1-0.7-1.7-0.9c-0.6-0.3-1.2-0.5-1.9-0.6c-1.3-0.3-2.6-0.3-3.9,0c-0.6,0.1-1.3,0.3-1.9,0.6
				c-0.6,0.3-1.2,0.6-1.7,0.9c-0.5,0.4-1.1,0.8-1.5,1.2c-0.4,0.4-0.9,1-1.3,1.5s-0.7,1.1-0.9,1.7c-0.3,0.6-0.4,1.2-0.6,1.9
				c-0.2,0.7-0.2,1.3-0.2,2c0,0.6,0.1,1.3,0.2,2s0.3,1.3,0.6,1.9c0.3,0.6,0.6,1.2,0.9,1.7c0.1,0.1,0.1,0.2,0.2,0.2
				c0.3,0.5,0.7,0.9,1.1,1.3c0.5,0.5,1,0.9,1.5,1.3s1.1,0.7,1.7,0.9c0.6,0.3,1.2,0.5,1.9,0.6c0.6,0.1,1.3,0.2,2,0.2s1.3-0.1,2-0.2
				s1.3-0.3,1.9-0.6c0.6-0.3,1.2-0.5,1.7-0.9s1.1-0.8,1.5-1.3s0.9-1,1.2-1.5c0.4-0.5,0.7-1.1,0.9-1.7c0.1-0.3,0.2-0.6,0.3-0.8
				c0.1-0.3,0.2-0.7,0.3-1c0.1-0.6,0.2-1.3,0.2-2C346.7,446.7,346.6,446,346.5,445.4z"/>
		</g>
	</g>
	<g>
		<g>
			<path class="st0" d="M296.4,437.3H125.9c-5.5,0-10,4.5-10,10c0,5.5,4.5,10,10,10h170.5c5.5,0,10-4.5,10-10
				C306.4,441.8,302,437.3,296.4,437.3z"/>
		</g>
	</g>
	<g>
		<g>
			<path class="st0" d="M305,201.7c0-0.1,0-0.1,0-0.2c-0.1-40.5-33-73.4-73.5-73.5c-0.1,0-0.1,0-0.2,0c0,0,0,0-0.1,0
				c-40.7,0-73.7,33.1-73.7,73.7v0.1c0,0.1,0,0.2,0,0.2c0.2,40.5,33.2,73.4,73.7,73.4C271.9,275.4,305,242.4,305,201.7L305,201.7z
				 M178,194.9c2.7-21.3,17.9-38.7,38-44.7c-5.4,16.8-8,34.2-8,51.6C197.8,200.6,187.8,198.3,178,194.9z M179.6,216.4
				c9.7,2.8,19.6,4.7,29.6,5.7c1.3,10.5,3.6,20.9,6.8,31.1C198.5,248,184.6,234.1,179.6,216.4z M237.9,255
				c-4-10.4-6.8-21.2-8.4-32.1c10.6-0.2,21.2-1.5,31.7-3.7l22.3-4.8C278.3,235.8,260.2,252.3,237.9,255z M257,199.6
				c-9.6,2.1-19.3,3.1-29,3.3c-0.2-18.5,3.1-37,9.8-54.5c23.9,2.9,43.1,21.6,46.6,45.4L257,199.6z"/>
		</g>
	</g>
	<g>
		<g>
			<path class="st0" d="M313.5,123.8c-0.1-0.6-0.3-1.3-0.6-1.9c-0.3-0.6-0.6-1.2-0.9-1.7c-0.4-0.6-0.8-1.1-1.2-1.5
				c-0.5-0.5-1-0.9-1.5-1.3s-1.1-0.7-1.7-0.9c-0.6-0.2-1.2-0.4-1.9-0.6c-1.3-0.3-2.6-0.3-3.9,0c-0.6,0.1-1.3,0.3-1.9,0.6
				c-0.6,0.3-1.2,0.6-1.7,0.9c-0.5,0.4-1,0.8-1.5,1.3s-0.9,1-1.2,1.5c-0.4,0.5-0.7,1.1-0.9,1.7c-0.3,0.6-0.4,1.2-0.6,1.9
				c-0.1,0.7-0.2,1.3-0.2,2s0.1,1.3,0.2,1.9s0.3,1.3,0.6,1.9c0.3,0.6,0.6,1.2,0.9,1.7c0.4,0.6,0.8,1.1,1.2,1.5
				c0.5,0.5,1,0.9,1.5,1.2c0.5,0.4,1.1,0.7,1.7,0.9s1.2,0.4,1.9,0.6c0.6,0.1,1.3,0.2,2,0.2s1.3-0.1,2-0.2c0.6-0.1,1.3-0.3,1.9-0.6
				s1.2-0.6,1.7-0.9c0.5-0.4,1.1-0.8,1.5-1.2s0.9-1,1.2-1.5c0.4-0.5,0.7-1.1,0.9-1.7c0.3-0.6,0.4-1.2,0.6-1.9
				c0.2-0.7,0.2-1.3,0.2-1.9C313.7,125.1,313.7,124.4,313.5,123.8z"/>
		</g>
	</g>
</g>
</svg>
