<?xml version="1.0" encoding="utf-8"?>
<!-- Generator: Adobe Illustrator 22.1.0, SVG Export Plug-In . SVG Version: 6.00 Build 0)  -->
<svg version="1.1" id="Layer_1" xmlns="http://www.w3.org/2000/svg" xmlns:xlink="http://www.w3.org/1999/xlink" x="0px" y="0px"
	 viewBox="0 0 512 512" style="enable-background:new 0 0 512 512;" xml:space="preserve">
<style type="text/css">
	.st0{fill:#FFFFFF;}
</style>
<g>
	<g>
		<g>
			<path class="st0" d="M229.9,110.9H42.2c-23.5,0-42.7,19.1-42.7,42.7v273.1c0,23.5,19.1,42.7,42.7,42.7h110.9v-17.1H42.2
				c-14.1,0-25.6-11.5-25.6-25.6V153.6c0-14.1,11.5-25.6,25.6-25.6h187.7c14.1,0,25.6,11.5,25.6,25.6v8.5h17.1v-8.5
				C272.6,130.1,253.5,110.9,229.9,110.9z"/>
		</g>
	</g>
	<g>
		<g>
			<path class="st0" d="M187.3,0H84.9C70.8,0,59.3,11.5,59.3,25.6s11.5,25.6,25.6,25.6h102.4c14.1,0,25.6-11.5,25.6-25.6
				S201.4,0,187.3,0z M187.3,34.1H84.9c-4.7,0-8.5-3.8-8.5-8.5s3.8-8.5,8.5-8.5h102.4c4.7,0,8.5,3.8,8.5,8.5
				C195.8,30.3,192,34.1,187.3,34.1z"/>
		</g>
	</g>
	<g>
		<g>
			<rect x="93.4" y="42.7" class="st0" width="17.1" height="76.8"/>
		</g>
	</g>
	<g>
		<g>
			<rect x="161.7" y="42.7" class="st0" width="17.1" height="76.8"/>
		</g>
	</g>
	<g>
		<g>
			<rect x="50.7" y="256" class="st0" width="17.1" height="153.6"/>
		</g>
	</g>
	<g>
		<g>
			<rect x="153.1" y="162.1" class="st0" width="17.1" height="68.3"/>
		</g>
	</g>
	<g>
		<g>
			<path class="st0" d="M37.9,452.3c-16.5,0-29.9,13.4-29.9,29.9S21.5,512,37.9,512s29.9-13.4,29.9-29.9S54.4,452.3,37.9,452.3z
				 M37.9,494.9c-7.1,0-12.8-5.7-12.8-12.8s5.7-12.8,12.8-12.8s12.8,5.7,12.8,12.8S45,494.9,37.9,494.9z"/>
		</g>
	</g>
	<g>
		<g>
			<rect x="101.9" y="162.1" class="st0" width="17.1" height="247.5"/>
		</g>
	</g>
	<g>
		<g>
			<path class="st0" d="M92.8,235.8l-17.1-42.7c-0.9-2.1-2.5-3.8-4.7-4.7c-2.1-0.9-4.5-0.9-6.6,0L4.7,214c-3.1,1.3-5.2,4.4-5.2,7.8
				v51.2c0,2.9,1.5,5.6,3.9,7.2c1.4,0.9,3,1.4,4.7,1.4c1.2,0,2.4-0.2,3.5-0.7l76.8-34.1C92.5,244.9,94.5,240,92.8,235.8z
				 M16.6,259.9v-32.4l46.5-19.9l10.8,26.9L16.6,259.9z"/>
		</g>
	</g>
	<g>
		<g>
			<rect x="50.7" y="162.1" class="st0" width="17.1" height="42.7"/>
		</g>
	</g>
	<g>
		<g>
			<rect x="204.3" y="162.1" class="st0" width="17.1" height="68.3"/>
		</g>
	</g>
	<g>
		<g>
			<path class="st0" d="M234.2,452.3c-16.5,0-29.9,13.4-29.9,29.9s13.4,29.9,29.9,29.9c16.5,0,29.9-13.4,29.9-29.9
				S250.7,452.3,234.2,452.3z M234.2,494.9c-7.1,0-12.8-5.7-12.8-12.8s5.7-12.8,12.8-12.8s12.8,5.7,12.8,12.8
				S241.3,494.9,234.2,494.9z"/>
		</g>
	</g>
	<g>
		<g>
			<path class="st0" d="M468.9,213.3H170.2c-23.5,0-42.7,19.1-42.7,42.7v170.7c0,23.5,19.1,42.7,42.7,42.7h298.7
				c23.5,0,42.7-19.1,42.7-42.7V256C511.5,232.5,492.4,213.3,468.9,213.3z M494.5,426.7c0,14.1-11.5,25.6-25.6,25.6H170.2
				c-14.1,0-25.6-11.5-25.6-25.6V256c0-14.1,11.5-25.6,25.6-25.6h298.7c14.1,0,25.6,11.5,25.6,25.6L494.5,426.7L494.5,426.7z"/>
		</g>
	</g>
	<g>
		<g>
			<path class="st0" d="M357.9,179.2h-76.8c-4.7,0-8.5,3.8-8.5,8.5v34.1h17.1v-25.6h59.7v25.6h17.1v-34.1
				C366.5,183,362.7,179.2,357.9,179.2z"/>
		</g>
	</g>
	<g>
		<g>
			<path class="st0" d="M357.9,145.1h-76.8c-23.5,0-42.7,19.1-42.7,42.7v34.1h17.1v-34.1c0-14.1,11.5-25.6,25.6-25.6h76.8
				c14.1,0,25.6,11.5,25.6,25.6v34.1h17.1v-34.1C400.6,164.2,381.5,145.1,357.9,145.1z"/>
		</g>
	</g>
	<g>
		<g>
			<path class="st0" d="M356.3,310.8L313.7,251c-3.2-4.5-10.7-4.5-13.9,0l-42.7,59.7c-1.9,2.6-2.1,6-0.6,8.9
				c1.5,2.8,4.4,4.6,7.6,4.6h85.3c3.2,0,6.1-1.8,7.6-4.6C358.4,316.8,358.2,313.4,356.3,310.8z M280.6,307.2l26.1-36.5l26.1,36.5
				H280.6z"/>
		</g>
	</g>
	<g>
		<g>
			<path class="st0" d="M439.5,335.6c-26.8-8.7-54.6,2.3-61.9,24.7c-3.7,11.2-1.7,23.3,5.4,34.1c6.7,10.2,17.4,18.1,30,22.3
				c6.2,2,12.5,3,18.6,3c20,0,37.7-10.5,43.3-27.7C482.3,369.6,466.4,344.3,439.5,335.6z M458.7,386.7
				c-4.4,13.4-22.5,19.6-40.4,13.7c-9-2.9-16.5-8.4-21.1-15.4c-4.2-6.4-5.4-13.3-3.4-19.5c0,0,0,0,0,0c3.3-10,14.1-15.9,26.8-15.9
				c4.4,0,9,0.7,13.5,2.2C452.1,357.7,463.1,373.3,458.7,386.7z"/>
		</g>
	</g>
	<g>
		<g>
			<path class="st0" d="M165.9,452.3c-16.5,0-29.9,13.4-29.9,29.9s13.4,29.9,29.9,29.9s29.9-13.4,29.9-29.9S182.4,452.3,165.9,452.3
				z M165.9,494.9c-7.1,0-12.8-5.7-12.8-12.8s5.7-12.8,12.8-12.8s12.8,5.7,12.8,12.8S173,494.9,165.9,494.9z"/>
		</g>
	</g>
	<g>
		<g>
			<path class="st0" d="M473.1,452.3c-16.5,0-29.9,13.4-29.9,29.9s13.4,29.9,29.9,29.9s29.9-13.4,29.9-29.9S489.6,452.3,473.1,452.3
				z M473.1,494.9c-7.1,0-12.8-5.7-12.8-12.8s5.7-12.8,12.8-12.8s12.8,5.7,12.8,12.8S480.2,494.9,473.1,494.9z"/>
		</g>
	</g>
	<g>
		<g>
			<rect x="204.3" y="392.5" class="st0" width="17.1" height="68.3"/>
		</g>
	</g>
	<g>
		<g>
			<path class="st0" d="M212.9,213.3h-34.1c-4.7,0-8.5,3.8-8.5,8.5v102.4h17.1v-93.9h17.1v110.9h17.1V221.9
				C221.4,217.1,217.6,213.3,212.9,213.3z"/>
		</g>
	</g>
	<g>
		<g>
			<rect x="170.2" y="366.9" class="st0" width="17.1" height="93.9"/>
		</g>
	</g>
	<g>
		<g>
			<rect x="451.8" y="401.1" class="st0" width="17.1" height="59.7"/>
		</g>
	</g>
	<g>
		<g>
			<path class="st0" d="M460.3,213.3h-34.1c-4.7,0-8.5,3.8-8.5,8.5v119.5h17.1V230.4h17.1v128h17.1V221.9
				C468.9,217.1,465.1,213.3,460.3,213.3z"/>
		</g>
	</g>
	<g>
		<g>
			<rect x="417.7" y="409.6" class="st0" width="17.1" height="51.2"/>
		</g>
	</g>
	<g>
		<g>
			<path class="st0" d="M242.8,351l-102.4-59.7l-8.6,14.8l95.5,55.7l-9.4,18.7L140.5,334l-8.8,14.6l85.3,51.2
				c1.3,0.8,2.9,1.2,4.4,1.2c0.8,0,1.6-0.1,2.4-0.3c2.3-0.7,4.2-2.3,5.2-4.4l17.1-34.1C248.1,358.2,246.7,353.3,242.8,351z"/>
		</g>
	</g>
</g>
</svg>
