<?xml version="1.0" encoding="utf-8"?>
<!-- Generator: Adobe Illustrator 22.1.0, SVG Export Plug-In . SVG Version: 6.00 Build 0)  -->
<svg version="1.1" id="Layer_1" xmlns="http://www.w3.org/2000/svg" xmlns:xlink="http://www.w3.org/1999/xlink" x="0px" y="0px"
	 viewBox="0 0 512 512" style="enable-background:new 0 0 512 512;" xml:space="preserve">
<style type="text/css">
	.st0{fill:#FFFFFF;}
</style>
<g>
	<g>
		<g>
			<path class="st0" d="M206.2,192.8c-5.5-2.2-11.7,0.5-13.9,5.9l-40,100h-3.4v-96c0-5.9-4.8-10.7-10.7-10.7H95.5
				c-5.9,0-10.7,4.8-10.7,10.7s4.8,10.7,10.7,10.7h32v96c0,5.9,4.8,10.7,10.7,10.7h21.3c4.4,0,8.3-2.7,9.9-6.7l42.7-106.7
				C214.3,201.2,211.7,195,206.2,192.8z"/>
		</g>
	</g>
	<g>
		<g>
			<path class="st0" d="M246.9,192.2c-5.5-1.2-11.4,2.6-12.5,8.4l-21.3,106.7c-1.2,5.8,2.6,11.4,8.4,12.5c0.7,0.1,1.4,0.2,2.1,0.2
				c5,0,9.4-3.5,10.4-8.6l21.3-106.7C256.5,199,252.7,193.4,246.9,192.2z"/>
		</g>
	</g>
	<g>
		<g>
			<path class="st0" d="M332.8,194.3c-1.7-0.5-42.8-10.5-58.6,15.1c-5,8.1-6.6,16.3-4.6,24.4c3.7,15.4,19.6,24.8,27.3,29.4
				c12.3,7.3,18.8,14.7,17.4,19.7c-0.7,2.6-3.1,9-10.1,12.7c-8,4.3-20,3.9-34.6-1.1c-5.6-1.8-11.6,1.1-13.5,6.7
				c-1.9,5.6,1.1,11.6,6.7,13.5c10.2,3.5,19.5,5.2,28,5.2c8.7,0,16.6-1.8,23.5-5.5c10.1-5.4,17.6-14.8,20.7-25.9
				c2.9-10.8,0.6-27.1-27.1-43.6c-4.7-2.8-15.9-9.5-17.5-16.1c-0.2-0.9-0.8-3.5,2-8.1c6.3-10.2,28.1-7.5,35.2-5.7
				c5.8,1.5,11.5-2,12.9-7.7C342,201.5,338.6,195.7,332.8,194.3z"/>
		</g>
	</g>
	<g>
		<g>
			<path class="st0" d="M415.5,192h-21.3c-4.4,0-8.3,2.7-9.9,6.7l-42.7,106.7c-2.2,5.5,0.4,11.7,5.9,13.9c1.3,0.5,2.6,0.8,4,0.8
				c4.2,0,8.2-2.5,9.9-6.7l40-100h3.4v96c0,5.9,4.8,10.7,10.7,10.7s10.7-4.8,10.7-10.7V202.7C426.2,196.8,421.4,192,415.5,192z"/>
		</g>
	</g>
	<g>
		<g>
			<path class="st0" d="M415.5,256h-42.7c-5.9,0-10.7,4.8-10.7,10.7s4.8,10.7,10.7,10.7h42.7c5.9,0,10.7-4.8,10.7-10.7
				S421.4,256,415.5,256z"/>
		</g>
	</g>
	<g>
		<g>
			<path class="st0" d="M436.9,85.3H74.2C33,85.3-0.5,118.8-0.5,160v192c0,41.2,33.5,74.7,74.7,74.7h362.7
				c41.2,0,74.7-33.5,74.7-74.7V160C511.5,118.8,478,85.3,436.9,85.3z M490.2,352c0,29.4-23.9,53.3-53.3,53.3H74.2
				c-29.4,0-53.3-23.9-53.3-53.3V160c0-29.4,23.9-53.3,53.3-53.3h362.7c29.4,0,53.3,23.9,53.3,53.3V352z"/>
		</g>
	</g>
</g>
</svg>
