<?xml version="1.0" encoding="iso-8859-1"?>
<!-- Generator: Adobe Illustrator 19.0.0, SVG Export Plug-In . SVG Version: 6.00 Build 0)  -->
<svg version="1.1" id="Capa_1" xmlns="http://www.w3.org/2000/svg" xmlns:xlink="http://www.w3.org/1999/xlink" x="0px" y="0px"
	 viewBox="0 0 512 512" style="enable-background:new 0 0 512 512;" xml:space="preserve">
<g>
	<g>
		<g>
			<rect x="392.269" y="192.376" width="16.031" height="15.032"/>
			<rect x="424.328" y="192.376" width="16.031" height="15.032"/>
			<path d="M487.953,192.374v-32.062h-80.156V79.656h-15.032v80.655H328.64v32.062h-25.045V63.624h-15.032v433.343h-81.154v-64.125
				H96.187v64.125H15.033V15.033h273.528v24.548h15.033V0H0v512h376.233v-15.033h-72.64V207.406h72.64v-15.032h-32.562v-17.03
				h129.249v32.062h24.046v289.56h-96.686v15.033h111.719V192.374H487.953z M192.374,496.967H111.22v-49.092h33.061v32.562h15.033
				v-32.562h33.06V496.967z"/>
			<path d="M95.189,32.062H32.063v63.127h63.127V32.062z M80.157,80.156H47.095V47.095h33.061V80.156z"/>
			<path d="M271.532,32.062h-63.125v63.127h63.125V32.062z M256.499,80.156h-33.06V47.095h33.06V80.156z"/>
			<path d="M183.361,32.062h-63.127v63.127h63.127V32.062z M168.328,80.156h-33.061V47.095h33.061V80.156z"/>
			<path d="M95.189,112.219H32.063v63.125h63.127V112.219z M80.157,160.312H47.095v-33.06h33.061V160.312z"/>
			<path d="M208.406,175.344h63.125v-63.125h-63.125V175.344z M223.439,127.251h33.06v33.06h-33.06V127.251z"/>
			<path d="M183.361,112.219h-63.127v63.125h63.127V112.219z M168.328,160.312h-33.061v-33.06h33.061V160.312z"/>
			<path d="M95.189,192.374H32.063V255.5h63.127V192.374z M80.157,240.468H47.095v-33.061h33.061V240.468z"/>
			<path d="M208.406,255.5h63.125v-63.126h-63.125V255.5z M223.439,207.406h33.06v33.061h-33.06V207.406z"/>
			<path d="M183.361,192.374h-63.127V255.5h63.127V192.374z M168.328,240.468h-33.061v-33.061h33.061V240.468z"/>
			<path d="M95.189,272.53H32.063v63.125h63.127V272.53z M80.157,320.624H47.095v-33.06h33.061V320.624z"/>
			<path d="M208.406,335.657h63.125v-63.125h-63.125V335.657z M223.439,287.563h33.06v33.06h-33.06V287.563z"/>
			<path d="M183.361,272.53h-63.127v63.125h63.127V272.53z M168.328,320.624h-33.061v-33.06h33.061V320.624z"/>
			<path d="M328.639,295.579h63.126v-63.127h-63.126V295.579z M343.672,247.485h33.061v33.061h-33.061V247.485z"/>
			<path d="M408.796,295.579h63.125v-63.127h-63.125V295.579z M423.829,247.485h33.06v33.061h-33.06V247.485z"/>
			<path d="M328.639,383.75h63.126v-63.126h-63.126V383.75z M343.672,335.657h33.061v33.061h-33.061V335.657z"/>
			<path d="M408.796,383.75h63.125v-63.126h-63.125V383.75z M423.829,335.657h33.06v33.061h-33.06V335.657z"/>
			<path d="M328.639,471.921h63.126v-63.126h-63.126V471.921z M343.672,423.828h33.061v33.061h-33.061V423.828z"/>
			<path d="M408.796,471.921h63.125v-63.126h-63.125V471.921z M423.829,423.828h33.06v33.061h-33.06V423.828z"/>
			<path d="M32.063,415.813h63.127v-63.126H32.063V415.813z M47.095,367.719h33.061v33.061H47.095V367.719z"/>
			<path d="M208.406,415.813h63.125v-63.126h-63.125V415.813z M223.439,367.719h33.06v33.061h-33.06V367.719z"/>
			<path d="M120.234,415.813h63.127v-63.126h-63.127V415.813z M135.267,367.719h33.061v33.061h-33.061V367.719z"/>
			<polygon points="280.09,432.842 272.032,432.842 231.997,432.842 223.938,432.842 223.938,447.874 231.997,447.874 
				272.032,447.874 280.09,447.874 			"/>
			<polygon points="272.032,479.937 280.09,479.937 280.09,464.904 272.032,464.904 231.997,464.904 223.938,464.904 
				223.938,479.937 231.997,479.937 			"/>
		</g>
	</g>
</g>
<g>
</g>
<g>
</g>
<g>
</g>
<g>
</g>
<g>
</g>
<g>
</g>
<g>
</g>
<g>
</g>
<g>
</g>
<g>
</g>
<g>
</g>
<g>
</g>
<g>
</g>
<g>
</g>
<g>
</g>
</svg>
