<?xml version="1.0" encoding="iso-8859-1"?>
<!-- Generator: Adobe Illustrator 19.0.0, SVG Export Plug-In . SVG Version: 6.00 Build 0)  -->
<svg version="1.1" id="Capa_1" xmlns="http://www.w3.org/2000/svg" xmlns:xlink="http://www.w3.org/1999/xlink" x="0px" y="0px"
	 viewBox="0 0 60.001 60.001" style="enable-background:new 0 0 60.001 60.001;" xml:space="preserve">
<g>
	<g>
		<path d="M28.441,47.125l10.231,4.317l3.137-7.436l-10.23-4.316L28.441,47.125z M39.19,45.072l-1.583,3.75l-6.546-2.762l1.583-3.75
			L39.19,45.072z"/>
		<path d="M33.5,22c0,2.243,1.318,4,3,4s3-1.757,3-4c0-0.738-0.154-1.413-0.405-2H39.5c0.552,0,1-0.448,1-1s-0.448-1-1-1h-25
			c-0.552,0-1,0.448-1,1s0.448,1,1,1h19.405C33.654,20.587,33.5,21.262,33.5,22z M37.5,22c0,1.221-0.592,2-1,2c-0.408,0-1-0.779-1-2
			s0.592-2,1-2C36.909,20,37.5,20.779,37.5,22z"/>
		<path d="M47.5,29h-1V16.858C46.5,14.18,44.32,12,41.642,12H32.5V6h1c1.654,0,3-1.346,3-3s-1.346-3-3-3h-12c-1.654,0-3,1.346-3,3
			s1.346,3,3,3h1v6H12.358C9.679,12,7.5,14.179,7.5,16.858v35.284c0,2.021,1.241,3.754,3,4.486v0.688
			c0,1.48,1.205,2.685,2.685,2.685h5.63c1.48,0,2.685-1.205,2.685-2.685V57h11v0.315c0,1.48,1.205,2.685,2.685,2.685h5.63
			c1.48,0,2.685-1.205,2.685-2.685v-0.688c1.759-0.731,3-2.465,3-4.485V39h1c2.757,0,5-2.243,5-5S50.257,29,47.5,29z M24.5,4V2h2v2
			H24.5z M28.5,2h2v2h-2V2z M34.5,3c0,0.551-0.449,1-1,1h-1V2h1C34.051,2,34.5,2.449,34.5,3z M20.5,3c0-0.551,0.449-1,1-1h1v2h-1
			C20.949,4,20.5,3.551,20.5,3z M24.5,6h6v6h-6V6z M19.5,57.315c0,0.378-0.307,0.685-0.685,0.685h-5.63
			c-0.378,0-0.685-0.307-0.685-0.685V57h7V57.315z M41.5,57.315c0,0.378-0.307,0.685-0.685,0.685h-5.63
			c-0.378,0-0.685-0.307-0.685-0.685V57h7C41.5,57,41.5,57.315,41.5,57.315z M44.5,52.142c0,1.576-1.282,2.858-2.858,2.858H32.5h-11
			h-9.142C10.782,55,9.5,53.718,9.5,52.142V16.858C9.5,15.282,10.782,14,12.358,14H22.5h10h9.142c1.576,0,2.858,1.282,2.858,2.858
			V29v10V52.142z M47.5,37h-1v-6h1c1.654,0,3,1.346,3,3S49.154,37,47.5,37z"/>
	</g>
</g>
<g>
</g>
<g>
</g>
<g>
</g>
<g>
</g>
<g>
</g>
<g>
</g>
<g>
</g>
<g>
</g>
<g>
</g>
<g>
</g>
<g>
</g>
<g>
</g>
<g>
</g>
<g>
</g>
<g>
</g>
</svg>
